<svg width="169" height="46" viewBox="0 0 169 46" fill="none" xmlns="http://www.w3.org/2000/svg">
<g filter="url(#filter0_dddd_1_16468)">
<rect width="168.093" height="46" rx="23" fill="white"/>
<g clip-path="url(#clip0_1_16468)">
<rect x="9" y="9.31372" width="28.0932" height="27.3729" fill="#ED2939"/>
<rect x="9" y="18.678" width="28.0932" height="8.64407" fill="#EEEEEE"/>
</g>
<path d="M47.2561 26.5V18.6262H48.8534L51.373 23.7104L53.8701 18.6262H55.4786V26.5H54.1288V20.9434L51.9017 25.3977H50.8443L48.6059 20.9546V26.5H47.2561ZM56.559 26.5L59.4385 18.6262H60.9458L63.8254 26.5H62.3968L60.1809 20.201L57.965 26.5H56.559ZM57.8413 24.644L58.2012 23.5755H62.0819L62.4418 24.644H57.8413ZM64.9084 26.5V18.6262H67.4506C68.3654 18.6262 69.119 18.7874 69.7115 19.1099C70.3114 19.4323 70.7538 19.8898 71.0387 20.4822C71.3312 21.0671 71.4774 21.7645 71.4774 22.5744C71.4774 23.3692 71.3312 24.0629 71.0387 24.6553C70.7538 25.2402 70.3114 25.6939 69.7115 26.0163C69.119 26.3388 68.3654 26.5 67.4506 26.5H64.9084ZM66.2582 25.3527H67.3831C68.0655 25.3527 68.6016 25.2439 68.9916 25.0265C69.389 24.8015 69.6702 24.4828 69.8352 24.0704C70.0077 23.6504 70.0939 23.1518 70.0939 22.5744C70.0939 21.9894 70.0077 21.4908 69.8352 21.0783C69.6702 20.6584 69.389 20.336 68.9916 20.111C68.6016 19.8785 68.0655 19.7623 67.3831 19.7623H66.2582V25.3527ZM72.7954 26.5V18.6262H77.8796V19.7173H74.1452V21.9782H77.5422V23.0468H74.1452V25.4089H77.8796V26.5H72.7954ZM82.0445 26.5V18.6262H83.3943V26.5H82.0445ZM84.9774 26.5V18.6262H86.3272L90.1178 24.3178V18.6262H91.4676V26.5H90.1178L86.3272 20.8196V26.5H84.9774ZM95.2798 26.5L98.1594 18.6262H99.6666L102.546 26.5H101.118L98.9017 20.201L96.6858 26.5H95.2798ZM96.5621 24.644L96.922 23.5755H100.803L101.163 24.644H96.5621ZM106.27 26.635C105.7 26.635 105.182 26.5225 104.717 26.2975C104.26 26.0726 103.892 25.7276 103.615 25.2627C103.345 24.7978 103.21 24.2129 103.21 23.508V18.6262H104.56V23.5192C104.56 23.9466 104.631 24.2991 104.774 24.5765C104.916 24.854 105.115 25.064 105.37 25.2065C105.632 25.3414 105.94 25.4089 106.292 25.4089C106.652 25.4089 106.959 25.3414 107.214 25.2065C107.477 25.064 107.676 24.854 107.811 24.5765C107.953 24.2991 108.024 23.9466 108.024 23.5192V18.6262H109.374V23.508C109.374 24.2129 109.235 24.7978 108.958 25.2627C108.68 25.7276 108.305 26.0726 107.833 26.2975C107.361 26.5225 106.839 26.635 106.27 26.635ZM113.533 26.635C112.964 26.635 112.457 26.5337 112.015 26.3313C111.572 26.1288 111.228 25.8401 110.98 25.4652C110.733 25.0902 110.605 24.644 110.598 24.1266H112.026C112.026 24.3891 112.086 24.6253 112.206 24.8353C112.334 25.0377 112.506 25.199 112.724 25.3189C112.949 25.4389 113.218 25.4989 113.533 25.4989C113.803 25.4989 114.036 25.4577 114.231 25.3752C114.433 25.2852 114.587 25.1615 114.692 25.004C114.804 24.839 114.861 24.6478 114.861 24.4303C114.861 24.1829 114.801 23.9804 114.681 23.8229C114.568 23.6579 114.411 23.5192 114.208 23.4067C114.006 23.2942 113.773 23.1968 113.511 23.1143C113.248 23.0243 112.971 22.9306 112.679 22.8331C112.056 22.6231 111.587 22.3569 111.273 22.0344C110.958 21.7045 110.8 21.2658 110.8 20.7184C110.8 20.261 110.909 19.8673 111.126 19.5373C111.344 19.2074 111.647 18.9524 112.037 18.7724C112.435 18.585 112.892 18.4912 113.41 18.4912C113.935 18.4912 114.392 18.585 114.782 18.7724C115.179 18.9599 115.491 19.2224 115.716 19.5598C115.948 19.8898 116.068 20.2872 116.076 20.7521H114.636C114.628 20.5572 114.576 20.3772 114.478 20.2122C114.381 20.0397 114.238 19.901 114.051 19.796C113.871 19.6836 113.65 19.6273 113.387 19.6273C113.162 19.6198 112.96 19.6573 112.78 19.7398C112.607 19.8148 112.469 19.9273 112.364 20.0772C112.266 20.2197 112.217 20.3997 112.217 20.6172C112.217 20.8271 112.262 21.0033 112.352 21.1458C112.45 21.2808 112.589 21.397 112.769 21.4945C112.949 21.5845 113.159 21.6707 113.398 21.7532C113.638 21.8357 113.901 21.9257 114.186 22.0232C114.576 22.1507 114.928 22.3081 115.243 22.4956C115.566 22.6756 115.821 22.9118 116.008 23.2043C116.196 23.4967 116.289 23.8754 116.289 24.3403C116.289 24.7453 116.184 25.124 115.974 25.4764C115.764 25.8214 115.457 26.1026 115.052 26.32C114.647 26.53 114.141 26.635 113.533 26.635ZM119.325 26.5V19.7173H117.008V18.6262H122.981V19.7173H120.664V26.5H119.325ZM124.094 26.5V18.6262H126.917C127.539 18.6262 128.053 18.735 128.458 18.9524C128.87 19.1624 129.174 19.4473 129.369 19.8073C129.572 20.1597 129.673 20.5609 129.673 21.0108C129.673 21.4308 129.575 21.8207 129.38 22.1807C129.185 22.5406 128.882 22.8293 128.469 23.0468C128.057 23.2643 127.528 23.373 126.883 23.373H125.443V26.5H124.094ZM128.199 26.5L126.546 23.0243H128.008L129.74 26.5H128.199ZM125.443 22.3719H126.827C127.329 22.3719 127.697 22.2519 127.929 22.0119C128.169 21.7645 128.289 21.442 128.289 21.0446C128.289 20.6547 128.173 20.3435 127.941 20.111C127.708 19.871 127.337 19.751 126.827 19.751H125.443V22.3719ZM131.069 26.5V18.6262H132.419V26.5H131.069ZM133.484 26.5L136.364 18.6262H137.871L140.751 26.5H139.322L137.106 20.201L134.89 26.5H133.484ZM134.767 24.644L135.127 23.5755H139.007L139.367 24.644H134.767Z" fill="black"/>
</g>
<defs>
<filter id="filter0_dddd_1_16468" x="-46" y="-9" width="260.093" height="215" filterUnits="userSpaceOnUse" color-interpolation-filters="sRGB">
<feFlood flood-opacity="0" result="BackgroundImageFix"/>
<feColorMatrix in="SourceAlpha" type="matrix" values="0 0 0 0 0 0 0 0 0 0 0 0 0 0 0 0 0 0 127 0" result="hardAlpha"/>
<feOffset dy="7"/>
<feGaussianBlur stdDeviation="8"/>
<feColorMatrix type="matrix" values="0 0 0 0 0.596078 0 0 0 0 0.678431 0 0 0 0 0.764706 0 0 0 0.1 0"/>
<feBlend mode="normal" in2="BackgroundImageFix" result="effect1_dropShadow_1_16468"/>
<feColorMatrix in="SourceAlpha" type="matrix" values="0 0 0 0 0 0 0 0 0 0 0 0 0 0 0 0 0 0 127 0" result="hardAlpha"/>
<feOffset dy="29"/>
<feGaussianBlur stdDeviation="14.5"/>
<feColorMatrix type="matrix" values="0 0 0 0 0.596078 0 0 0 0 0.678431 0 0 0 0 0.764706 0 0 0 0.09 0"/>
<feBlend mode="normal" in2="effect1_dropShadow_1_16468" result="effect2_dropShadow_1_16468"/>
<feColorMatrix in="SourceAlpha" type="matrix" values="0 0 0 0 0 0 0 0 0 0 0 0 0 0 0 0 0 0 127 0" result="hardAlpha"/>
<feOffset dy="64"/>
<feGaussianBlur stdDeviation="19.5"/>
<feColorMatrix type="matrix" values="0 0 0 0 0.596078 0 0 0 0 0.678431 0 0 0 0 0.764706 0 0 0 0.05 0"/>
<feBlend mode="normal" in2="effect2_dropShadow_1_16468" result="effect3_dropShadow_1_16468"/>
<feColorMatrix in="SourceAlpha" type="matrix" values="0 0 0 0 0 0 0 0 0 0 0 0 0 0 0 0 0 0 127 0" result="hardAlpha"/>
<feOffset dy="114"/>
<feGaussianBlur stdDeviation="23"/>
<feColorMatrix type="matrix" values="0 0 0 0 0.596078 0 0 0 0 0.678431 0 0 0 0 0.764706 0 0 0 0.01 0"/>
<feBlend mode="normal" in2="effect3_dropShadow_1_16468" result="effect4_dropShadow_1_16468"/>
<feBlend mode="normal" in="SourceGraphic" in2="effect4_dropShadow_1_16468" result="shape"/>
</filter>
<clipPath id="clip0_1_16468">
<rect x="9" y="9.3136" width="28.0932" height="27.3729" rx="13.6864" fill="white"/>
</clipPath>
</defs>
</svg>
