<svg width="169" height="44" viewBox="0 0 169 44" fill="none" xmlns="http://www.w3.org/2000/svg">
<g filter="url(#filter0_dddd_1_16507)">
<rect width="168.093" height="43.3729" rx="21.6864" fill="white"/>
<g clip-path="url(#clip0_1_16507)">
<rect x="9" y="26.0085" width="28.0932" height="9.36441" fill="#FFCD05"/>
<rect x="9" y="8" width="28.0932" height="9.36441" fill="#141414"/>
<rect x="9" y="17.3645" width="28.0932" height="8.64407" fill="#ED1F24"/>
</g>
<path d="M50.5808 19.741C50.0108 19.741 49.5008 19.6435 49.0508 19.4485C48.6083 19.2535 48.2558 18.9685 47.9933 18.5935C47.7383 18.2185 47.607 17.7647 47.5995 17.2322H49.2083C49.2158 17.4647 49.2758 17.6747 49.3883 17.8622C49.5008 18.0497 49.6545 18.1997 49.8495 18.3122C50.052 18.4172 50.292 18.4697 50.5695 18.4697C50.8095 18.4697 51.0158 18.4322 51.1883 18.3572C51.3683 18.2747 51.507 18.1622 51.6045 18.0197C51.702 17.8772 51.7508 17.7085 51.7508 17.5135C51.7508 17.2885 51.6945 17.101 51.582 16.951C51.477 16.801 51.327 16.6735 51.132 16.5685C50.9445 16.4635 50.7233 16.3697 50.4683 16.2872C50.2208 16.1972 49.9583 16.1035 49.6808 16.006C49.0583 15.8035 48.582 15.5335 48.252 15.196C47.9295 14.8585 47.7683 14.4122 47.7683 13.8572C47.7683 13.3847 47.8808 12.9797 48.1058 12.6422C48.3383 12.3047 48.657 12.046 49.062 11.866C49.467 11.686 49.9283 11.596 50.4458 11.596C50.9783 11.596 51.4433 11.6897 51.8408 11.8772C52.2458 12.0572 52.5645 12.3197 52.797 12.6647C53.037 13.0097 53.1608 13.4147 53.1683 13.8797H51.5483C51.5408 13.7072 51.4883 13.546 51.3908 13.396C51.3008 13.2385 51.1733 13.1147 51.0083 13.0247C50.8433 12.9272 50.6483 12.8785 50.4233 12.8785C50.2283 12.871 50.0483 12.901 49.8833 12.9685C49.7258 13.036 49.5983 13.1372 49.5008 13.2722C49.4108 13.3997 49.3658 13.561 49.3658 13.756C49.3658 13.9435 49.4108 14.101 49.5008 14.2285C49.5983 14.356 49.7295 14.4685 49.8945 14.566C50.0595 14.656 50.2545 14.7422 50.4795 14.8247C50.7045 14.8997 50.9483 14.9785 51.2108 15.061C51.6008 15.196 51.9608 15.3572 52.2908 15.5447C52.6208 15.7247 52.8833 15.961 53.0783 16.2535C53.2733 16.546 53.3708 16.9322 53.3708 17.4122C53.3708 17.8247 53.262 18.2072 53.0445 18.5597C52.827 18.9122 52.512 19.1972 52.0995 19.4147C51.6945 19.6322 51.1883 19.741 50.5808 19.741ZM54.6591 19.606V11.731H59.8341V12.9572H56.1778V15.016H59.4966V16.1972H56.1778V18.3797H59.8341V19.606H54.6591ZM61.2179 19.606V11.731H64.1542C64.7917 11.731 65.3167 11.8397 65.7292 12.0572C66.1417 12.2747 66.4492 12.5672 66.6517 12.9347C66.8542 13.2947 66.9554 13.696 66.9554 14.1385C66.9554 14.5585 66.8579 14.9522 66.6629 15.3197C66.4679 15.6797 66.1604 15.9722 65.7404 16.1972C65.3279 16.4147 64.7954 16.5235 64.1429 16.5235H62.7367V19.606H61.2179ZM65.3017 19.606L63.6817 16.141H65.3242L67.0342 19.606H65.3017ZM62.7367 15.421H64.0642C64.5217 15.421 64.8592 15.3085 65.0767 15.0835C65.2942 14.8585 65.4029 14.5622 65.4029 14.1947C65.4029 13.8272 65.2942 13.5385 65.0767 13.3285C64.8667 13.111 64.5292 13.0022 64.0642 13.0022H62.7367V15.421ZM70.3017 19.606L67.4329 11.731H69.0529L71.2354 18.0535L73.4292 11.731H75.0379L72.1692 19.606H70.3017ZM75.9835 19.606V11.731H81.1585V12.9572H77.5023V15.016H80.821V16.1972H77.5023V18.3797H81.1585V19.606H75.9835ZM82.5424 19.606V11.731H85.4786C86.1161 11.731 86.6411 11.8397 87.0536 12.0572C87.4661 12.2747 87.7736 12.5672 87.9761 12.9347C88.1786 13.2947 88.2799 13.696 88.2799 14.1385C88.2799 14.5585 88.1824 14.9522 87.9874 15.3197C87.7924 15.6797 87.4849 15.9722 87.0649 16.1972C86.6524 16.4147 86.1199 16.5235 85.4674 16.5235H84.0611V19.606H82.5424ZM86.6261 19.606L85.0061 16.141H86.6486L88.3586 19.606H86.6261ZM84.0611 15.421H85.3886C85.8461 15.421 86.1836 15.3085 86.4011 15.0835C86.6186 14.8585 86.7274 14.5622 86.7274 14.1947C86.7274 13.8272 86.6186 13.5385 86.4011 13.3285C86.1911 13.111 85.8536 13.0022 85.3886 13.0022H84.0611V15.421ZM92.2872 19.606V11.731H93.806V18.4247H97.2597V19.606H92.2872ZM101.491 19.741C100.726 19.741 100.051 19.5685 99.4661 19.2235C98.8811 18.8785 98.4236 18.4022 98.0936 17.7947C97.7636 17.1797 97.5986 16.471 97.5986 15.6685C97.5986 14.866 97.7636 14.161 98.0936 13.5535C98.4236 12.9385 98.8811 12.4585 99.4661 12.1135C100.051 11.7685 100.726 11.596 101.491 11.596C102.264 11.596 102.942 11.7685 103.527 12.1135C104.112 12.4585 104.566 12.9385 104.889 13.5535C105.219 14.161 105.384 14.866 105.384 15.6685C105.384 16.471 105.219 17.1797 104.889 17.7947C104.566 18.4022 104.112 18.8785 103.527 19.2235C102.942 19.5685 102.264 19.741 101.491 19.741ZM101.491 18.3797C101.971 18.3797 102.384 18.271 102.729 18.0535C103.081 17.8285 103.355 17.5135 103.55 17.1085C103.745 16.7035 103.842 16.2235 103.842 15.6685C103.842 15.106 103.745 14.626 103.55 14.2285C103.355 13.8235 103.081 13.5122 102.729 13.2947C102.384 13.0772 101.971 12.9685 101.491 12.9685C101.019 12.9685 100.606 13.0772 100.254 13.2947C99.9011 13.5122 99.6273 13.8235 99.4323 14.2285C99.2373 14.626 99.1398 15.106 99.1398 15.6685C99.1398 16.2235 99.2373 16.7035 99.4323 17.1085C99.6273 17.5135 99.9011 17.8285 100.254 18.0535C100.606 18.271 101.019 18.3797 101.491 18.3797ZM110.212 19.741C109.424 19.741 108.746 19.5722 108.176 19.2347C107.613 18.8897 107.178 18.4135 106.871 17.806C106.571 17.191 106.421 16.4822 106.421 15.6797C106.421 14.8772 106.571 14.1685 106.871 13.5535C107.178 12.9385 107.613 12.4585 108.176 12.1135C108.746 11.7685 109.424 11.596 110.212 11.596C111.164 11.596 111.944 11.8322 112.552 12.3047C113.159 12.7772 113.538 13.4447 113.688 14.3072H112.034C111.937 13.8872 111.731 13.561 111.416 13.3285C111.108 13.0885 110.703 12.9685 110.201 12.9685C109.736 12.9685 109.334 13.081 108.997 13.306C108.667 13.5235 108.412 13.8347 108.232 14.2397C108.052 14.6372 107.962 15.1172 107.962 15.6797C107.962 16.2347 108.052 16.7147 108.232 17.1197C108.412 17.5247 108.667 17.836 108.997 18.0535C109.334 18.271 109.736 18.3797 110.201 18.3797C110.703 18.3797 111.108 18.271 111.416 18.0535C111.723 17.8285 111.926 17.5172 112.023 17.1197H113.688C113.538 17.9372 113.159 18.5785 112.552 19.0435C111.944 19.5085 111.164 19.741 110.212 19.741ZM114.379 19.606L117.259 11.731H118.981L121.849 19.606H120.241L118.114 13.4635L115.977 19.606H114.379ZM115.651 17.8172L116.056 16.636H120.061L120.454 17.8172H115.651ZM123.883 19.606V12.9572H121.577V11.731H127.685V12.9572H125.39V19.606H123.883ZM128.762 19.606V11.731H130.281V19.606H128.762ZM135.461 19.741C134.696 19.741 134.021 19.5685 133.436 19.2235C132.851 18.8785 132.393 18.4022 132.063 17.7947C131.733 17.1797 131.568 16.471 131.568 15.6685C131.568 14.866 131.733 14.161 132.063 13.5535C132.393 12.9385 132.851 12.4585 133.436 12.1135C134.021 11.7685 134.696 11.596 135.461 11.596C136.233 11.596 136.912 11.7685 137.497 12.1135C138.082 12.4585 138.536 12.9385 138.858 13.5535C139.188 14.161 139.353 14.866 139.353 15.6685C139.353 16.471 139.188 17.1797 138.858 17.7947C138.536 18.4022 138.082 18.8785 137.497 19.2235C136.912 19.5685 136.233 19.741 135.461 19.741ZM135.461 18.3797C135.941 18.3797 136.353 18.271 136.698 18.0535C137.051 17.8285 137.325 17.5135 137.52 17.1085C137.715 16.7035 137.812 16.2235 137.812 15.6685C137.812 15.106 137.715 14.626 137.52 14.2285C137.325 13.8235 137.051 13.5122 136.698 13.2947C136.353 13.0772 135.941 12.9685 135.461 12.9685C134.988 12.9685 134.576 13.0772 134.223 13.2947C133.871 13.5122 133.597 13.8235 133.402 14.2285C133.207 14.626 133.11 15.106 133.11 15.6685C133.11 16.2235 133.207 16.7035 133.402 17.1085C133.597 17.5135 133.871 17.8285 134.223 18.0535C134.576 18.271 134.988 18.3797 135.461 18.3797ZM140.649 19.606V11.731H142.168L145.79 17.1647V11.731H147.309V19.606H145.79L142.168 14.1835V19.606H140.649ZM151.556 19.741C150.986 19.741 150.476 19.6435 150.026 19.4485C149.584 19.2535 149.231 18.9685 148.969 18.5935C148.714 18.2185 148.582 17.7647 148.575 17.2322H150.184C150.191 17.4647 150.251 17.6747 150.364 17.8622C150.476 18.0497 150.63 18.1997 150.825 18.3122C151.027 18.4172 151.267 18.4697 151.545 18.4697C151.785 18.4697 151.991 18.4322 152.164 18.3572C152.344 18.2747 152.482 18.1622 152.58 18.0197C152.677 17.8772 152.726 17.7085 152.726 17.5135C152.726 17.2885 152.67 17.101 152.557 16.951C152.452 16.801 152.302 16.6735 152.107 16.5685C151.92 16.4635 151.699 16.3697 151.444 16.2872C151.196 16.1972 150.934 16.1035 150.656 16.006C150.034 15.8035 149.557 15.5335 149.227 15.196C148.905 14.8585 148.744 14.4122 148.744 13.8572C148.744 13.3847 148.856 12.9797 149.081 12.6422C149.314 12.3047 149.632 12.046 150.037 11.866C150.442 11.686 150.904 11.596 151.421 11.596C151.954 11.596 152.419 11.6897 152.816 11.8772C153.221 12.0572 153.54 12.3197 153.772 12.6647C154.012 13.0097 154.136 13.4147 154.144 13.8797H152.524C152.516 13.7072 152.464 13.546 152.366 13.396C152.276 13.2385 152.149 13.1147 151.984 13.0247C151.819 12.9272 151.624 12.8785 151.399 12.8785C151.204 12.871 151.024 12.901 150.859 12.9685C150.701 13.036 150.574 13.1372 150.476 13.2722C150.386 13.3997 150.341 13.561 150.341 13.756C150.341 13.9435 150.386 14.101 150.476 14.2285C150.574 14.356 150.705 14.4685 150.87 14.566C151.035 14.656 151.23 14.7422 151.455 14.8247C151.68 14.8997 151.924 14.9785 152.186 15.061C152.576 15.196 152.936 15.3572 153.266 15.5447C153.596 15.7247 153.859 15.961 154.054 16.2535C154.249 16.546 154.346 16.9322 154.346 17.4122C154.346 17.8247 154.237 18.2072 154.02 18.5597C153.802 18.9122 153.487 19.1972 153.075 19.4147C152.67 19.6322 152.164 19.741 151.556 19.741Z" fill="#212B36"/>
<path d="M49.6388 32.8483C49.1965 32.8483 48.8083 32.7468 48.4743 32.5437C48.1404 32.3361 47.8808 32.0495 47.6958 31.6839C47.5107 31.3183 47.4182 30.8918 47.4182 30.4044C47.4182 29.9214 47.5107 29.4949 47.6958 29.1248C47.8854 28.7547 48.1516 28.4659 48.4947 28.2583C48.8422 28.0507 49.2506 27.9468 49.72 27.9468C50.2526 27.9468 50.6972 28.0755 51.0537 28.3327C51.4103 28.5855 51.6382 28.9398 51.7375 29.3956H51.0808C51.0176 29.1113 50.8687 28.8856 50.634 28.7186C50.3993 28.5516 50.0946 28.4681 49.72 28.4681C49.3725 28.4681 49.0678 28.5471 48.8061 28.7051C48.5488 28.8585 48.3502 29.0797 48.2103 29.3685C48.0704 29.6574 48.0004 30.0027 48.0004 30.4044C48.0004 30.806 48.0704 31.1536 48.2103 31.4469C48.3502 31.7358 48.5443 31.9569 48.7925 32.1104C49.0453 32.2639 49.3341 32.3406 49.6591 32.3406C50.1646 32.3406 50.546 32.1916 50.8032 31.8938C51.0605 31.5959 51.2072 31.1919 51.2433 30.6819H49.8757V30.2351H51.8255V32.7671H51.3042L51.2568 31.9885C51.144 32.1736 51.0131 32.3316 50.8642 32.4624C50.7197 32.5888 50.5482 32.6858 50.3496 32.7535C50.151 32.8167 49.9141 32.8483 49.6388 32.8483ZM52.7314 32.7671V28.0281H55.6628V28.4952H53.3001V30.1471H55.4597V30.6075H53.3001V32.3H55.6628V32.7671H52.7314ZM56.5594 32.7671V28.0281H58.0894C58.4595 28.0281 58.7619 28.0913 58.9966 28.2176C59.2313 28.3395 59.405 28.5042 59.5179 28.7119C59.6307 28.9195 59.6871 29.1542 59.6871 29.4159C59.6871 29.6687 59.6284 29.9011 59.5111 30.1132C59.3982 30.3254 59.2222 30.4946 58.983 30.621C58.7438 30.7474 58.4369 30.8106 58.0623 30.8106H57.128V32.7671H56.5594ZM59.0643 32.7671L58.0217 30.6481H58.6581L59.7345 32.7671H59.0643ZM57.128 30.3637H58.0488C58.4098 30.3637 58.6739 30.2757 58.8409 30.0997C59.0124 29.9237 59.0981 29.698 59.0981 29.4227C59.0981 29.1429 59.0146 28.9217 58.8476 28.7592C58.6851 28.5923 58.4166 28.5088 58.042 28.5088H57.128V30.3637ZM60.579 32.7671V28.0281H61.2425L62.9147 31.3386L64.5937 28.0281H65.2639V32.7671H64.6952V29.0436L63.1313 32.1036H62.7048L61.1477 29.0571V32.7671H60.579ZM65.9668 32.7671L67.7134 28.0281H68.3159L70.0558 32.7671H69.4533L68.0113 28.7389L66.5625 32.7671H65.9668ZM66.7656 31.5485L66.9281 31.0881H69.0742L69.2367 31.5485H66.7656ZM70.7671 32.7671V28.0281H71.3358L73.861 31.8261V28.0281H74.4297V32.7671H73.861L71.3358 28.9691V32.7671H70.7671ZM76.6191 32.7671V30.9663L75.0756 28.0281H75.7187L76.9915 30.5939H76.8222L78.0882 28.0281H78.7246L77.1878 30.9663V32.7671H76.6191Z" fill="#637381"/>
</g>
<defs>
<filter id="filter0_dddd_1_16507" x="-46" y="-9" width="260.093" height="212.373" filterUnits="userSpaceOnUse" color-interpolation-filters="sRGB">
<feFlood flood-opacity="0" result="BackgroundImageFix"/>
<feColorMatrix in="SourceAlpha" type="matrix" values="0 0 0 0 0 0 0 0 0 0 0 0 0 0 0 0 0 0 127 0" result="hardAlpha"/>
<feOffset dy="7"/>
<feGaussianBlur stdDeviation="8"/>
<feColorMatrix type="matrix" values="0 0 0 0 0.596078 0 0 0 0 0.678431 0 0 0 0 0.764706 0 0 0 0.1 0"/>
<feBlend mode="normal" in2="BackgroundImageFix" result="effect1_dropShadow_1_16507"/>
<feColorMatrix in="SourceAlpha" type="matrix" values="0 0 0 0 0 0 0 0 0 0 0 0 0 0 0 0 0 0 127 0" result="hardAlpha"/>
<feOffset dy="29"/>
<feGaussianBlur stdDeviation="14.5"/>
<feColorMatrix type="matrix" values="0 0 0 0 0.596078 0 0 0 0 0.678431 0 0 0 0 0.764706 0 0 0 0.09 0"/>
<feBlend mode="normal" in2="effect1_dropShadow_1_16507" result="effect2_dropShadow_1_16507"/>
<feColorMatrix in="SourceAlpha" type="matrix" values="0 0 0 0 0 0 0 0 0 0 0 0 0 0 0 0 0 0 127 0" result="hardAlpha"/>
<feOffset dy="64"/>
<feGaussianBlur stdDeviation="19.5"/>
<feColorMatrix type="matrix" values="0 0 0 0 0.596078 0 0 0 0 0.678431 0 0 0 0 0.764706 0 0 0 0.05 0"/>
<feBlend mode="normal" in2="effect2_dropShadow_1_16507" result="effect3_dropShadow_1_16507"/>
<feColorMatrix in="SourceAlpha" type="matrix" values="0 0 0 0 0 0 0 0 0 0 0 0 0 0 0 0 0 0 127 0" result="hardAlpha"/>
<feOffset dy="114"/>
<feGaussianBlur stdDeviation="23"/>
<feColorMatrix type="matrix" values="0 0 0 0 0.596078 0 0 0 0 0.678431 0 0 0 0 0.764706 0 0 0 0.01 0"/>
<feBlend mode="normal" in2="effect3_dropShadow_1_16507" result="effect4_dropShadow_1_16507"/>
<feBlend mode="normal" in="SourceGraphic" in2="effect4_dropShadow_1_16507" result="shape"/>
</filter>
<clipPath id="clip0_1_16507">
<rect x="9" y="8" width="28.0932" height="27.3729" rx="13.6864" fill="white"/>
</clipPath>
</defs>
</svg>
