<svg width="168" height="46" viewBox="0 0 168 46" fill="none" xmlns="http://www.w3.org/2000/svg">
<g id="Frame 2095584495" filter="url(#filter0_dddd_1_6344)">
<rect width="168" height="46" rx="23" fill="white"/>
<g id="Frame 1686552358">
<rect width="59" height="46" fill="#2050E0"/>
<g id="Frame 1686554550">
<g id="Group 1686552356">
<path id="Star 1" d="M29.4814 6.46912L29.9848 8.01843H31.6139L30.296 8.97596L30.7994 10.5253L29.4814 9.56774L28.1635 10.5253L28.6669 8.97596L27.349 8.01843H28.978L29.4814 6.46912Z" fill="#F9D827"/>
<path id="Star 2" d="M29.4814 35.0463L29.9848 36.5956H31.6139L30.296 37.5531L30.7994 39.1024L29.4814 38.1449L28.1635 39.1024L28.6669 37.5531L27.349 36.5956H28.978L29.4814 35.0463Z" fill="#F9D827"/>
<path id="Star 3" d="M21.0342 33.7438L21.5376 35.2931H23.1666L21.8487 36.2506L22.3521 37.7999L21.0342 36.8424L19.7163 37.7999L20.2197 36.2506L18.9017 35.2931H20.5308L21.0342 33.7438Z" fill="#F9D827"/>
<path id="Star 5" d="M22.2598 9.03284L22.7632 10.5821H24.3922L23.0743 11.5397L23.5777 13.089L22.2598 12.1315L20.9418 13.089L21.4452 11.5397L20.1273 10.5821H21.7564L22.2598 9.03284Z" fill="#F9D827"/>
<path id="Star 4" d="M37.9287 33.7438L38.4321 35.2931H40.0612L38.7432 36.2506L39.2466 37.7999L37.9287 36.8424L36.6108 37.7999L37.1142 36.2506L35.7963 35.2931H37.4253L37.9287 33.7438Z" fill="#F9D827"/>
<path id="Star 6" d="M36.7041 9.03284L37.2075 10.5821H38.8365L37.5186 11.5397L38.022 13.089L36.7041 12.1315L35.3862 13.089L35.8896 11.5397L34.5717 10.5821H36.2007L36.7041 9.03284Z" fill="#F9D827"/>
<path id="Star 7" d="M42.5078 13.5182L43.0112 15.0675H44.6403L43.3223 16.025L43.8257 17.5743L42.5078 16.6168L41.1899 17.5743L41.6933 16.025L40.3754 15.0675H42.0044L42.5078 13.5182Z" fill="#F9D827"/>
<path id="Star 11" d="M42.5078 27.8102L43.0112 29.3595H44.6403L43.3223 30.317L43.8257 31.8663L42.5078 30.9088L41.1899 31.8663L41.6933 30.317L40.3754 29.3595H42.0044L42.5078 27.8102Z" fill="#F9D827"/>
<path id="Star 8" d="M16.9277 13.5182L17.4311 15.0675H19.0602L17.7423 16.025L18.2457 17.5743L16.9277 16.6168L15.6098 17.5743L16.1132 16.025L14.7953 15.0675H16.4243L16.9277 13.5182Z" fill="#F9D827"/>
<path id="Star 12" d="M16.4229 27.8102L16.9263 29.3595H18.5553L17.2374 30.317L17.7408 31.8663L16.4229 30.9088L15.1049 31.8663L15.6083 30.317L14.2904 29.3595H15.9194L16.4229 27.8102Z" fill="#F9D827"/>
<path id="Star 9" d="M15.1611 20.8356L15.6645 22.3849H17.2936L15.9757 23.3424L16.4791 24.8917L15.1611 23.9342L13.8432 24.8917L14.3466 23.3424L13.0287 22.3849H14.6577L15.1611 20.8356Z" fill="#F9D827"/>
<path id="Star 10" d="M43.8389 20.8356L44.3423 22.3849H45.9713L44.6534 23.3424L45.1568 24.8917L43.8389 23.9342L42.5209 24.8917L43.0243 23.3424L41.7064 22.3849H43.3355L43.8389 20.8356Z" fill="#F9D827"/>
</g>
<g id="Group 1686552357">
<rect id="Rectangle 3463254" x="24.6372" y="21.7603" width="9.72533" height="6.44344" rx="1.10023" fill="white"/>
<rect id="Rectangle 3463255" x="27.2803" y="17.7963" width="4.67759" height="8.50987" rx="2.3388" stroke="white" stroke-width="1.46697"/>
</g>
</g>
</g>
<g id="Frame 1686554548">
<rect x="60" y="2.75256" width="100" height="40.4948" rx="4.75992" fill="white"/>
<path id="DSGVO &#38; gdpr compliant" d="M67.1151 20V12.2568C67.1543 12.2568 67.2632 12.2568 67.4417 12.2568C67.6238 12.2568 67.8362 12.2568 68.0789 12.2568C68.3253 12.2568 68.5698 12.2586 68.8126 12.2622C69.0589 12.2622 69.2642 12.2639 69.4284 12.2675C70.3673 12.2889 71.133 12.4567 71.7256 12.7709C72.3182 13.085 72.752 13.5241 73.0269 14.0882C73.3053 14.6522 73.4446 15.3198 73.4446 16.0909C73.4446 16.8942 73.2982 17.5885 73.0055 18.174C72.7127 18.7559 72.2647 19.2057 71.6614 19.5234C71.0616 19.8411 70.2994 20 69.3748 20H67.1151ZM68.6894 18.7362H69.407C69.8496 18.7362 70.2512 18.6506 70.6118 18.4792C70.9759 18.3078 71.2669 18.0276 71.4847 17.6385C71.7024 17.2494 71.8113 16.7299 71.8113 16.0802C71.8113 15.4769 71.7149 14.9878 71.5221 14.613C71.3294 14.2345 71.0545 13.9579 70.6975 13.7829C70.3405 13.608 69.9175 13.5206 69.4284 13.5206H68.6894V18.7362ZM77.6314 20.1071C77.2459 20.1071 76.8692 20.0589 76.5015 19.9625C76.1338 19.8661 75.7983 19.7215 75.4948 19.5288C75.1914 19.336 74.9415 19.095 74.7451 18.8059C74.5524 18.5167 74.4363 18.1775 74.3971 17.7884H75.9982C76.0517 18.024 76.1535 18.2222 76.3034 18.3828C76.4569 18.5435 76.6533 18.6666 76.8925 18.7523C77.1352 18.838 77.4119 18.8808 77.7225 18.8808C77.9688 18.8808 78.2026 18.8451 78.424 18.7737C78.6453 18.7023 78.8256 18.5934 78.9648 18.4471C79.104 18.3007 79.1736 18.1169 79.1736 17.8955C79.1736 17.6313 79.0773 17.4332 78.8845 17.3011C78.6917 17.1655 78.4293 17.0584 78.0973 16.9798L76.6461 16.6639C76.2356 16.5782 75.8768 16.4461 75.5698 16.2676C75.2663 16.0856 75.0325 15.8499 74.8683 15.5608C74.7041 15.268 74.622 14.9128 74.622 14.4952C74.622 14.0132 74.7541 13.5973 75.0182 13.2475C75.286 12.8976 75.6483 12.6299 76.1053 12.4442C76.5658 12.255 77.0817 12.1604 77.6528 12.1604C78.299 12.1604 78.8434 12.2657 79.2861 12.4764C79.7323 12.6834 80.0733 12.9654 80.3089 13.3224C80.5445 13.6759 80.6641 14.0703 80.6677 14.5059H79.104C79.0755 14.2381 78.9934 14.0239 78.8577 13.8633C78.722 13.6991 78.5471 13.5812 78.3329 13.5098C78.1223 13.4349 77.8813 13.3974 77.61 13.3974C77.1423 13.3974 76.8014 13.492 76.5872 13.6812C76.373 13.8704 76.2659 14.09 76.2659 14.3399C76.2659 14.5755 76.3462 14.7665 76.5069 14.9128C76.6711 15.0556 76.9335 15.1645 77.2941 15.2395L78.6382 15.5287C79.1379 15.625 79.5431 15.7785 79.8537 15.9892C80.1643 16.1962 80.391 16.4479 80.5338 16.7442C80.6766 17.0405 80.748 17.3725 80.748 17.7402C80.748 18.2079 80.6141 18.6202 80.3464 18.9772C80.0822 19.3306 79.7163 19.6073 79.2486 19.8072C78.7809 20.0071 78.2419 20.1071 77.6314 20.1071ZM85.2142 20.1071C84.5038 20.1071 83.8862 19.9465 83.3614 19.6252C82.8402 19.3003 82.4368 18.8416 82.1512 18.2489C81.8692 17.6563 81.7282 16.9566 81.7282 16.1498C81.7282 15.3287 81.8763 14.6201 82.1726 14.0239C82.4725 13.4242 82.8902 12.9619 83.4257 12.637C83.9612 12.3121 84.5859 12.1497 85.2999 12.1497C85.7604 12.1497 86.1799 12.2229 86.5583 12.3693C86.9367 12.5156 87.2652 12.7155 87.5436 12.969C87.8256 13.2225 88.0452 13.5098 88.2023 13.8311C88.3629 14.1489 88.4504 14.4791 88.4647 14.8218H86.8153C86.7689 14.5755 86.6761 14.3506 86.5369 14.1471C86.4012 13.9436 86.2263 13.7812 86.0121 13.6598C85.7979 13.5348 85.548 13.4724 85.2624 13.4724C84.9197 13.4724 84.6091 13.5616 84.3307 13.7401C84.0522 13.915 83.8327 14.1953 83.672 14.5808C83.5114 14.9664 83.431 15.4751 83.431 16.107C83.431 16.6175 83.4828 17.0423 83.5863 17.3814C83.6934 17.7206 83.8362 17.9901 84.0147 18.19C84.1932 18.3864 84.3967 18.5256 84.6252 18.6077C84.8537 18.6898 85.0875 18.7309 85.3267 18.7309C85.5552 18.7309 85.7586 18.6934 85.9371 18.6184C86.1192 18.5399 86.2745 18.4399 86.403 18.3186C86.5315 18.1972 86.6333 18.0651 86.7083 17.9223C86.7832 17.7759 86.8314 17.6331 86.8528 17.4939L86.9117 17.0227H85.3106V15.941L88.5503 15.957V20H87.4847V18.9879C87.3526 19.1628 87.1884 19.3378 86.9921 19.5127C86.7993 19.6841 86.5583 19.8269 86.2691 19.9411C85.9836 20.0518 85.6319 20.1071 85.2142 20.1071ZM91.8032 20L89.1257 12.2568H90.6198L92.6921 18.1847L94.7538 12.2568H96.2531L93.5757 20H91.8032ZM100.204 20.1071C99.4719 20.1071 98.8382 19.9482 98.3027 19.6305C97.7708 19.3092 97.3585 18.854 97.0657 18.265C96.7766 17.6724 96.632 16.9656 96.632 16.1445C96.632 15.3198 96.7784 14.6094 97.0711 14.0132C97.3674 13.417 97.7833 12.9583 98.3188 12.637C98.8543 12.3121 99.4826 12.1497 100.204 12.1497C100.921 12.1497 101.546 12.3103 102.078 12.6316C102.61 12.9529 103.02 13.4117 103.31 14.0079C103.602 14.604 103.749 15.3162 103.749 16.1445C103.749 16.962 103.604 17.667 103.315 18.2597C103.029 18.8523 102.621 19.3092 102.089 19.6305C101.557 19.9482 100.928 20.1071 100.204 20.1071ZM100.204 18.8219C100.582 18.8219 100.909 18.7327 101.184 18.5542C101.462 18.3721 101.676 18.0865 101.826 17.6974C101.976 17.3047 102.051 16.7942 102.051 16.1659C102.051 15.5197 101.974 14.9967 101.821 14.5969C101.671 14.1971 101.457 13.9043 101.178 13.7187C100.903 13.5295 100.579 13.4349 100.204 13.4349C99.8289 13.4349 99.5022 13.5295 99.2238 13.7187C98.9453 13.9043 98.7293 14.1988 98.5758 14.6023C98.4223 15.0021 98.3456 15.5233 98.3456 16.1659C98.3456 16.7978 98.4223 17.3083 98.5758 17.6974C98.7293 18.0865 98.9453 18.3721 99.2238 18.5542C99.5022 18.7327 99.8289 18.8219 100.204 18.8219ZM109.68 20.0535C109.112 20.0535 108.643 19.9697 108.272 19.8019C107.904 19.6305 107.631 19.3949 107.452 19.095C107.274 18.7951 107.185 18.4489 107.185 18.0562C107.185 17.7027 107.256 17.3904 107.399 17.1191C107.545 16.8442 107.763 16.5925 108.052 16.364C108.341 16.132 108.702 15.9017 109.134 15.6732C108.952 15.4697 108.791 15.2805 108.652 15.1056C108.513 14.9307 108.404 14.7522 108.325 14.5701C108.247 14.3845 108.207 14.1774 108.207 13.949C108.207 13.6062 108.304 13.2992 108.497 13.0279C108.689 12.753 108.957 12.537 109.3 12.38C109.643 12.2193 110.039 12.139 110.489 12.139C110.928 12.139 111.326 12.2104 111.683 12.3532C112.043 12.4924 112.329 12.6888 112.54 12.9422C112.754 13.1921 112.861 13.4849 112.861 13.8204C112.861 13.9918 112.825 14.1649 112.754 14.3399C112.682 14.5112 112.575 14.6844 112.432 14.8593C112.293 15.0306 112.117 15.202 111.902 15.3734C111.688 15.5447 111.436 15.7161 111.147 15.8874L112.358 17.3118C112.407 17.2012 112.468 17.0584 112.54 16.8834C112.611 16.7085 112.679 16.5122 112.743 16.2944C112.807 16.0731 112.854 15.8428 112.882 15.6036H114.483C114.394 15.9213 114.269 16.2301 114.109 16.53C113.951 16.8299 113.782 17.1208 113.6 17.4029C113.421 17.6813 113.254 17.9509 113.096 18.2115L114.628 20H112.834L112.17 19.2396C111.756 19.543 111.333 19.7555 110.901 19.8768C110.469 19.9946 110.062 20.0535 109.68 20.0535ZM110.066 18.8594C110.273 18.8594 110.503 18.8148 110.756 18.7255C111.01 18.6327 111.231 18.4988 111.42 18.3239L109.9 16.5621C109.614 16.7228 109.371 16.9227 109.171 17.1619C108.975 17.3975 108.896 17.667 108.936 17.9705C108.957 18.1633 109.025 18.3257 109.139 18.4578C109.257 18.5899 109.398 18.6898 109.562 18.7577C109.726 18.8255 109.894 18.8594 110.066 18.8594ZM110.499 15.1003C110.756 14.9396 110.956 14.7932 111.099 14.6612C111.245 14.5255 111.347 14.3952 111.404 14.2702C111.461 14.1453 111.49 14.0186 111.49 13.89C111.49 13.7008 111.445 13.5473 111.356 13.4295C111.27 13.3081 111.156 13.2207 111.013 13.1671C110.874 13.11 110.724 13.085 110.564 13.0922C110.31 13.0993 110.11 13.1761 109.964 13.3224C109.821 13.4652 109.75 13.6384 109.75 13.8419C109.75 13.9597 109.775 14.0793 109.825 14.2006C109.875 14.322 109.939 14.4398 110.017 14.5541C110.1 14.6647 110.187 14.77 110.28 14.87L110.499 15.1003ZM121.485 20.1071C120.775 20.1071 120.157 19.9465 119.633 19.6252C119.111 19.3003 118.708 18.8416 118.422 18.2489C118.14 17.6563 117.999 16.9566 117.999 16.1498C117.999 15.3287 118.147 14.6201 118.444 14.0239C118.744 13.4242 119.161 12.9619 119.697 12.637C120.232 12.3121 120.857 12.1497 121.571 12.1497C122.032 12.1497 122.451 12.2229 122.829 12.3693C123.208 12.5156 123.536 12.7155 123.815 12.969C124.097 13.2225 124.316 13.5098 124.473 13.8311C124.634 14.1489 124.722 14.4791 124.736 14.8218H123.086C123.04 14.5755 122.947 14.3506 122.808 14.1471C122.672 13.9436 122.497 13.7812 122.283 13.6598C122.069 13.5348 121.819 13.4724 121.534 13.4724C121.191 13.4724 120.88 13.5616 120.602 13.7401C120.323 13.915 120.104 14.1953 119.943 14.5808C119.783 14.9664 119.702 15.4751 119.702 16.107C119.702 16.6175 119.754 17.0423 119.857 17.3814C119.965 17.7206 120.107 17.9901 120.286 18.19C120.464 18.3864 120.668 18.5256 120.896 18.6077C121.125 18.6898 121.359 18.7309 121.598 18.7309C121.826 18.7309 122.03 18.6934 122.208 18.6184C122.39 18.5399 122.546 18.4399 122.674 18.3186C122.803 18.1972 122.904 18.0651 122.979 17.9223C123.054 17.7759 123.103 17.6331 123.124 17.4939L123.183 17.0227H121.582V15.941L124.821 15.957V20H123.756V18.9879C123.624 19.1628 123.46 19.3378 123.263 19.5127C123.07 19.6841 122.829 19.8269 122.54 19.9411C122.255 20.0518 121.903 20.1071 121.485 20.1071ZM126.479 20V12.2568C126.519 12.2568 126.627 12.2568 126.806 12.2568C126.988 12.2568 127.2 12.2568 127.443 12.2568C127.689 12.2568 127.934 12.2586 128.177 12.2622C128.423 12.2622 128.628 12.2639 128.793 12.2675C129.731 12.2889 130.497 12.4567 131.09 12.7709C131.682 13.085 132.116 13.5241 132.391 14.0882C132.67 14.6522 132.809 15.3198 132.809 16.0909C132.809 16.8942 132.662 17.5885 132.37 18.174C132.077 18.7559 131.629 19.2057 131.026 19.5234C130.426 19.8411 129.664 20 128.739 20H126.479ZM128.054 18.7362H128.771C129.214 18.7362 129.615 18.6506 129.976 18.4792C130.34 18.3078 130.631 18.0276 130.849 17.6385C131.067 17.2494 131.176 16.7299 131.176 16.0802C131.176 15.4769 131.079 14.9878 130.886 14.613C130.694 14.2345 130.419 13.9579 130.062 13.7829C129.705 13.608 129.282 13.5206 128.793 13.5206H128.054V18.7362ZM134.187 20V12.2568H137.036C137.6 12.2568 138.105 12.355 138.552 12.5513C138.998 12.7441 139.35 13.0297 139.607 13.4081C139.867 13.7865 139.997 14.2488 139.997 14.795C139.997 15.3091 139.883 15.7482 139.655 16.1123C139.426 16.4765 139.105 16.7549 138.691 16.9477C138.28 17.1405 137.797 17.2369 137.24 17.2369H135.762V20H134.187ZM135.746 16.0267H137.197C137.59 16.0267 137.911 15.9017 138.161 15.6518C138.411 15.3983 138.536 15.086 138.536 14.7147C138.536 14.3292 138.403 14.0239 138.139 13.799C137.875 13.5705 137.554 13.4563 137.175 13.4563H135.746V16.0267ZM141.174 20V12.2568H144.44C145.058 12.2568 145.563 12.355 145.956 12.5513C146.349 12.7477 146.638 13.0208 146.823 13.3706C147.009 13.7169 147.102 14.1167 147.102 14.5701C147.102 14.9771 147.038 15.3216 146.909 15.6036C146.784 15.8821 146.618 16.1141 146.411 16.2998C146.207 16.4854 145.984 16.6371 145.742 16.7549L147.182 20H145.56L144.301 17.0173H142.732V20H141.174ZM142.732 15.8125H144.162C144.58 15.8125 144.91 15.7 145.153 15.4751C145.399 15.2502 145.522 14.961 145.522 14.6076C145.522 14.2506 145.404 13.9686 145.169 13.7615C144.933 13.5545 144.635 13.4509 144.274 13.4509H142.732V15.8125ZM70.1192 34.1071C69.423 34.1071 68.8286 33.9482 68.336 33.6305C67.8469 33.3128 67.472 32.8558 67.2114 32.2597C66.9544 31.6635 66.8259 30.9441 66.8259 30.1016C66.8259 29.2627 66.9544 28.5487 67.2114 27.9597C67.4685 27.3706 67.8415 26.9226 68.3306 26.6156C68.8233 26.305 69.4195 26.1497 70.1192 26.1497C70.6654 26.1497 71.1491 26.2639 71.5703 26.4924C71.9916 26.7173 72.3307 27.019 72.5878 27.3974C72.8448 27.7758 72.9965 28.1917 73.0429 28.6451H71.988C71.9309 28.3416 71.822 28.0668 71.6614 27.8204C71.5007 27.5741 71.2901 27.3778 71.0295 27.2314C70.7689 27.085 70.4565 27.0118 70.0924 27.0118C69.6247 27.0118 69.2285 27.1225 68.9036 27.3438C68.5823 27.5616 68.3378 27.899 68.17 28.3559C68.0058 28.8129 67.9236 29.3983 67.9236 30.1123C67.9236 31.1905 68.1075 31.983 68.4752 32.4899C68.8465 32.9933 69.3855 33.245 70.0924 33.245C70.4565 33.245 70.7689 33.1682 71.0295 33.0147C71.2901 32.8612 71.5007 32.6559 71.6614 32.3989C71.822 32.1418 71.9309 31.8634 71.988 31.5635H73.0429C73.0037 31.892 72.9144 32.2097 72.7752 32.5167C72.6395 32.8201 72.4521 33.0915 72.2129 33.3306C71.9737 33.5698 71.6792 33.759 71.3294 33.8983C70.9831 34.0375 70.5797 34.1071 70.1192 34.1071ZM77.5622 34.1071C76.8732 34.1071 76.2771 33.9518 75.7737 33.6412C75.2703 33.3306 74.8812 32.8808 74.6063 32.2918C74.335 31.6992 74.1993 30.9834 74.1993 30.1445C74.1993 29.2984 74.3368 28.579 74.6117 27.9864C74.8866 27.3903 75.2757 26.9351 75.779 26.6209C76.286 26.3068 76.8804 26.1497 77.5622 26.1497C78.2477 26.1497 78.8403 26.3068 79.3401 26.6209C79.8399 26.9315 80.2254 27.3849 80.4967 27.9811C80.768 28.5737 80.9037 29.2948 80.9037 30.1445C80.9037 30.9834 80.768 31.6992 80.4967 32.2918C80.229 32.8808 79.8452 33.3306 79.3454 33.6412C78.8456 33.9518 78.2512 34.1071 77.5622 34.1071ZM77.5622 33.245C78.0406 33.245 78.4476 33.1361 78.7832 32.9183C79.1187 32.7005 79.374 32.3632 79.5489 31.9062C79.7274 31.4493 79.8166 30.8656 79.8166 30.1552C79.8166 29.434 79.7274 28.8414 79.5489 28.3773C79.3704 27.9133 79.1134 27.5705 78.7778 27.3492C78.4422 27.1243 78.037 27.0118 77.5622 27.0118C77.091 27.0118 76.6858 27.1243 76.3467 27.3492C76.0075 27.5741 75.7469 27.9186 75.5649 28.3827C75.3828 28.8468 75.2918 29.4376 75.2918 30.1552C75.2918 30.8656 75.3828 31.4493 75.5649 31.9062C75.7469 32.3632 76.0075 32.7005 76.3467 32.9183C76.6858 33.1361 77.091 33.245 77.5622 33.245ZM82.5088 34V26.2568H83.8797L86.2144 32.6506L88.5813 26.2568H89.9468V34H88.924V27.7401L86.6803 34H85.7539L83.5263 27.799V34H82.5088ZM91.995 34V26.2568H94.6135C95.1669 26.2568 95.6595 26.3496 96.0915 26.5353C96.5234 26.7209 96.8626 26.9958 97.1089 27.3599C97.3588 27.724 97.4838 28.1721 97.4838 28.704C97.4838 29.2181 97.3677 29.6572 97.1357 30.0213C96.9072 30.3854 96.5877 30.6621 96.1772 30.8513C95.7666 31.0405 95.29 31.1351 94.7474 31.1351H93.0124V34H91.995ZM93.007 30.2998H94.726C95.2579 30.2998 95.6899 30.1516 96.0219 29.8553C96.3539 29.559 96.5199 29.1556 96.5199 28.6451C96.5199 28.131 96.3485 27.7419 96.0058 27.4777C95.6631 27.2135 95.2204 27.0815 94.6778 27.0815H93.007V30.2998ZM98.8141 34L98.8195 26.2568H99.8315V33.1111H103.489V34H98.8141ZM104.995 34V26.2568H105.986V34H104.995ZM107.45 34L110.251 26.2568H111.37L114.17 34H113.158L112.398 31.8795H109.222L108.457 34H107.45ZM109.485 30.9691H112.125L110.808 27.226L109.485 30.9691ZM115.632 34V26.2568H116.58L120.671 32.2757V26.2568H121.662V34H120.778L116.623 27.8954V34H115.632ZM125.43 34V27.1671H122.93V26.2568H128.788V27.1671H126.426V34H125.43Z" fill="#172A47"/>
</g>
</g>
<defs>
<filter id="filter0_dddd_1_6344" x="-46" y="-9" width="260" height="215" filterUnits="userSpaceOnUse" color-interpolation-filters="sRGB">
<feFlood flood-opacity="0" result="BackgroundImageFix"/>
<feColorMatrix in="SourceAlpha" type="matrix" values="0 0 0 0 0 0 0 0 0 0 0 0 0 0 0 0 0 0 127 0" result="hardAlpha"/>
<feOffset dy="7"/>
<feGaussianBlur stdDeviation="8"/>
<feColorMatrix type="matrix" values="0 0 0 0 0.596078 0 0 0 0 0.678431 0 0 0 0 0.764706 0 0 0 0.1 0"/>
<feBlend mode="normal" in2="BackgroundImageFix" result="effect1_dropShadow_1_6344"/>
<feColorMatrix in="SourceAlpha" type="matrix" values="0 0 0 0 0 0 0 0 0 0 0 0 0 0 0 0 0 0 127 0" result="hardAlpha"/>
<feOffset dy="29"/>
<feGaussianBlur stdDeviation="14.5"/>
<feColorMatrix type="matrix" values="0 0 0 0 0.596078 0 0 0 0 0.678431 0 0 0 0 0.764706 0 0 0 0.09 0"/>
<feBlend mode="normal" in2="effect1_dropShadow_1_6344" result="effect2_dropShadow_1_6344"/>
<feColorMatrix in="SourceAlpha" type="matrix" values="0 0 0 0 0 0 0 0 0 0 0 0 0 0 0 0 0 0 127 0" result="hardAlpha"/>
<feOffset dy="64"/>
<feGaussianBlur stdDeviation="19.5"/>
<feColorMatrix type="matrix" values="0 0 0 0 0.596078 0 0 0 0 0.678431 0 0 0 0 0.764706 0 0 0 0.05 0"/>
<feBlend mode="normal" in2="effect2_dropShadow_1_6344" result="effect3_dropShadow_1_6344"/>
<feColorMatrix in="SourceAlpha" type="matrix" values="0 0 0 0 0 0 0 0 0 0 0 0 0 0 0 0 0 0 127 0" result="hardAlpha"/>
<feOffset dy="114"/>
<feGaussianBlur stdDeviation="23"/>
<feColorMatrix type="matrix" values="0 0 0 0 0.596078 0 0 0 0 0.678431 0 0 0 0 0.764706 0 0 0 0.01 0"/>
<feBlend mode="normal" in2="effect3_dropShadow_1_6344" result="effect4_dropShadow_1_6344"/>
<feBlend mode="normal" in="SourceGraphic" in2="effect4_dropShadow_1_6344" result="shape"/>
</filter>
</defs>
</svg>
