<svg width="261" height="213" viewBox="0 0 261 213" fill="none" xmlns="http://www.w3.org/2000/svg">
<g filter="url(#filter0_dddd_1374_13211)">
<rect x="46" y="9.31348" width="168.093" height="43.3729" rx="21.6864" fill="white"/>
<g clip-path="url(#clip0_1374_13211)">
<rect x="55" y="35.322" width="28.0932" height="9.36441" fill="#FFCD05"/>
<rect x="55" y="17.3136" width="28.0932" height="9.36441" fill="#141414"/>
<rect x="55" y="26.678" width="28.0932" height="8.64407" fill="#ED1F24"/>
</g>
<path d="M96.5808 29.0544C96.0108 29.0544 95.5008 28.9569 95.0508 28.7619C94.6083 28.5669 94.2558 28.2819 93.9933 27.9069C93.7383 27.5319 93.607 27.0782 93.5995 26.5457H95.2083C95.2158 26.7782 95.2758 26.9882 95.3883 27.1757C95.5008 27.3632 95.6545 27.5132 95.8495 27.6257C96.052 27.7307 96.292 27.7832 96.5695 27.7832C96.8095 27.7832 97.0158 27.7457 97.1883 27.6707C97.3683 27.5882 97.507 27.4757 97.6045 27.3332C97.702 27.1907 97.7508 27.0219 97.7508 26.8269C97.7508 26.6019 97.6945 26.4144 97.582 26.2644C97.477 26.1144 97.327 25.9869 97.132 25.8819C96.9445 25.7769 96.7233 25.6832 96.4683 25.6007C96.2208 25.5107 95.9583 25.4169 95.6808 25.3194C95.0583 25.1169 94.582 24.8469 94.252 24.5094C93.9295 24.1719 93.7683 23.7257 93.7683 23.1707C93.7683 22.6982 93.8808 22.2932 94.1058 21.9557C94.3383 21.6182 94.657 21.3594 95.062 21.1794C95.467 20.9994 95.9283 20.9094 96.4458 20.9094C96.9783 20.9094 97.4433 21.0032 97.8408 21.1907C98.2458 21.3707 98.5645 21.6332 98.797 21.9782C99.037 22.3232 99.1608 22.7282 99.1683 23.1932H97.5483C97.5408 23.0207 97.4883 22.8594 97.3908 22.7094C97.3008 22.5519 97.1733 22.4282 97.0083 22.3382C96.8433 22.2407 96.6483 22.1919 96.4233 22.1919C96.2283 22.1844 96.0483 22.2144 95.8833 22.2819C95.7258 22.3494 95.5983 22.4507 95.5008 22.5857C95.4108 22.7132 95.3658 22.8744 95.3658 23.0694C95.3658 23.2569 95.4108 23.4144 95.5008 23.5419C95.5983 23.6694 95.7295 23.7819 95.8945 23.8794C96.0595 23.9694 96.2545 24.0557 96.4795 24.1382C96.7045 24.2132 96.9483 24.2919 97.2108 24.3744C97.6008 24.5094 97.9608 24.6707 98.2908 24.8582C98.6208 25.0382 98.8833 25.2744 99.0783 25.5669C99.2733 25.8594 99.3708 26.2457 99.3708 26.7257C99.3708 27.1382 99.262 27.5207 99.0445 27.8732C98.827 28.2257 98.512 28.5107 98.0995 28.7282C97.6945 28.9457 97.1883 29.0544 96.5808 29.0544ZM100.659 28.9194V21.0444H105.834V22.2707H102.178V24.3294H105.497V25.5107H102.178V27.6932H105.834V28.9194H100.659ZM107.218 28.9194V21.0444H110.154C110.792 21.0444 111.317 21.1532 111.729 21.3707C112.142 21.5882 112.449 21.8807 112.652 22.2482C112.854 22.6082 112.955 23.0094 112.955 23.4519C112.955 23.8719 112.858 24.2657 112.663 24.6332C112.468 24.9932 112.16 25.2857 111.74 25.5107C111.328 25.7282 110.795 25.8369 110.143 25.8369H108.737V28.9194H107.218ZM111.302 28.9194L109.682 25.4544H111.324L113.034 28.9194H111.302ZM108.737 24.7344H110.064C110.522 24.7344 110.859 24.6219 111.077 24.3969C111.294 24.1719 111.403 23.8757 111.403 23.5082C111.403 23.1407 111.294 22.8519 111.077 22.6419C110.867 22.4244 110.529 22.3157 110.064 22.3157H108.737V24.7344ZM116.302 28.9194L113.433 21.0444H115.053L117.235 27.3669L119.429 21.0444H121.038L118.169 28.9194H116.302ZM121.984 28.9194V21.0444H127.159V22.2707H123.502V24.3294H126.821V25.5107H123.502V27.6932H127.159V28.9194H121.984ZM128.542 28.9194V21.0444H131.479C132.116 21.0444 132.641 21.1532 133.054 21.3707C133.466 21.5882 133.774 21.8807 133.976 22.2482C134.179 22.6082 134.28 23.0094 134.28 23.4519C134.28 23.8719 134.182 24.2657 133.987 24.6332C133.792 24.9932 133.485 25.2857 133.065 25.5107C132.652 25.7282 132.12 25.8369 131.467 25.8369H130.061V28.9194H128.542ZM132.626 28.9194L131.006 25.4544H132.649L134.359 28.9194H132.626ZM130.061 24.7344H131.389C131.846 24.7344 132.184 24.6219 132.401 24.3969C132.619 24.1719 132.727 23.8757 132.727 23.5082C132.727 23.1407 132.619 22.8519 132.401 22.6419C132.191 22.4244 131.854 22.3157 131.389 22.3157H130.061V24.7344ZM138.287 28.9194V21.0444H139.806V27.7382H143.26V28.9194H138.287ZM147.491 29.0544C146.726 29.0544 146.051 28.8819 145.466 28.5369C144.881 28.1919 144.424 27.7157 144.094 27.1082C143.764 26.4932 143.599 25.7844 143.599 24.9819C143.599 24.1794 143.764 23.4744 144.094 22.8669C144.424 22.2519 144.881 21.7719 145.466 21.4269C146.051 21.0819 146.726 20.9094 147.491 20.9094C148.264 20.9094 148.942 21.0819 149.527 21.4269C150.112 21.7719 150.566 22.2519 150.889 22.8669C151.219 23.4744 151.384 24.1794 151.384 24.9819C151.384 25.7844 151.219 26.4932 150.889 27.1082C150.566 27.7157 150.112 28.1919 149.527 28.5369C148.942 28.8819 148.264 29.0544 147.491 29.0544ZM147.491 27.6932C147.971 27.6932 148.384 27.5844 148.729 27.3669C149.081 27.1419 149.355 26.8269 149.55 26.4219C149.745 26.0169 149.842 25.5369 149.842 24.9819C149.842 24.4194 149.745 23.9394 149.55 23.5419C149.355 23.1369 149.081 22.8257 148.729 22.6082C148.384 22.3907 147.971 22.2819 147.491 22.2819C147.019 22.2819 146.606 22.3907 146.254 22.6082C145.901 22.8257 145.627 23.1369 145.432 23.5419C145.237 23.9394 145.14 24.4194 145.14 24.9819C145.14 25.5369 145.237 26.0169 145.432 26.4219C145.627 26.8269 145.901 27.1419 146.254 27.3669C146.606 27.5844 147.019 27.6932 147.491 27.6932ZM156.212 29.0544C155.424 29.0544 154.746 28.8857 154.176 28.5482C153.613 28.2032 153.178 27.7269 152.871 27.1194C152.571 26.5044 152.421 25.7957 152.421 24.9932C152.421 24.1907 152.571 23.4819 152.871 22.8669C153.178 22.2519 153.613 21.7719 154.176 21.4269C154.746 21.0819 155.424 20.9094 156.212 20.9094C157.164 20.9094 157.944 21.1457 158.552 21.6182C159.159 22.0907 159.538 22.7582 159.688 23.6207H158.034C157.937 23.2007 157.731 22.8744 157.416 22.6419C157.108 22.4019 156.703 22.2819 156.201 22.2819C155.736 22.2819 155.334 22.3944 154.997 22.6194C154.667 22.8369 154.412 23.1482 154.232 23.5532C154.052 23.9507 153.962 24.4307 153.962 24.9932C153.962 25.5482 154.052 26.0282 154.232 26.4332C154.412 26.8382 154.667 27.1494 154.997 27.3669C155.334 27.5844 155.736 27.6932 156.201 27.6932C156.703 27.6932 157.108 27.5844 157.416 27.3669C157.723 27.1419 157.926 26.8307 158.023 26.4332H159.688C159.538 27.2507 159.159 27.8919 158.552 28.3569C157.944 28.8219 157.164 29.0544 156.212 29.0544ZM160.379 28.9194L163.259 21.0444H164.981L167.849 28.9194H166.241L164.114 22.7769L161.977 28.9194H160.379ZM161.651 27.1307L162.056 25.9494H166.061L166.454 27.1307H161.651ZM169.883 28.9194V22.2707H167.577V21.0444H173.685V22.2707H171.39V28.9194H169.883ZM174.762 28.9194V21.0444H176.281V28.9194H174.762ZM181.461 29.0544C180.696 29.0544 180.021 28.8819 179.436 28.5369C178.851 28.1919 178.393 27.7157 178.063 27.1082C177.733 26.4932 177.568 25.7844 177.568 24.9819C177.568 24.1794 177.733 23.4744 178.063 22.8669C178.393 22.2519 178.851 21.7719 179.436 21.4269C180.021 21.0819 180.696 20.9094 181.461 20.9094C182.233 20.9094 182.912 21.0819 183.497 21.4269C184.082 21.7719 184.536 22.2519 184.858 22.8669C185.188 23.4744 185.353 24.1794 185.353 24.9819C185.353 25.7844 185.188 26.4932 184.858 27.1082C184.536 27.7157 184.082 28.1919 183.497 28.5369C182.912 28.8819 182.233 29.0544 181.461 29.0544ZM181.461 27.6932C181.941 27.6932 182.353 27.5844 182.698 27.3669C183.051 27.1419 183.325 26.8269 183.52 26.4219C183.715 26.0169 183.812 25.5369 183.812 24.9819C183.812 24.4194 183.715 23.9394 183.52 23.5419C183.325 23.1369 183.051 22.8257 182.698 22.6082C182.353 22.3907 181.941 22.2819 181.461 22.2819C180.988 22.2819 180.576 22.3907 180.223 22.6082C179.871 22.8257 179.597 23.1369 179.402 23.5419C179.207 23.9394 179.11 24.4194 179.11 24.9819C179.11 25.5369 179.207 26.0169 179.402 26.4219C179.597 26.8269 179.871 27.1419 180.223 27.3669C180.576 27.5844 180.988 27.6932 181.461 27.6932ZM186.649 28.9194V21.0444H188.168L191.79 26.4782V21.0444H193.309V28.9194H191.79L188.168 23.4969V28.9194H186.649ZM197.556 29.0544C196.986 29.0544 196.476 28.9569 196.026 28.7619C195.584 28.5669 195.231 28.2819 194.969 27.9069C194.714 27.5319 194.582 27.0782 194.575 26.5457H196.184C196.191 26.7782 196.251 26.9882 196.364 27.1757C196.476 27.3632 196.63 27.5132 196.825 27.6257C197.027 27.7307 197.267 27.7832 197.545 27.7832C197.785 27.7832 197.991 27.7457 198.164 27.6707C198.344 27.5882 198.482 27.4757 198.58 27.3332C198.677 27.1907 198.726 27.0219 198.726 26.8269C198.726 26.6019 198.67 26.4144 198.557 26.2644C198.452 26.1144 198.302 25.9869 198.107 25.8819C197.92 25.7769 197.699 25.6832 197.444 25.6007C197.196 25.5107 196.934 25.4169 196.656 25.3194C196.034 25.1169 195.557 24.8469 195.227 24.5094C194.905 24.1719 194.744 23.7257 194.744 23.1707C194.744 22.6982 194.856 22.2932 195.081 21.9557C195.314 21.6182 195.632 21.3594 196.037 21.1794C196.442 20.9994 196.904 20.9094 197.421 20.9094C197.954 20.9094 198.419 21.0032 198.816 21.1907C199.221 21.3707 199.54 21.6332 199.772 21.9782C200.012 22.3232 200.136 22.7282 200.144 23.1932H198.524C198.516 23.0207 198.464 22.8594 198.366 22.7094C198.276 22.5519 198.149 22.4282 197.984 22.3382C197.819 22.2407 197.624 22.1919 197.399 22.1919C197.204 22.1844 197.024 22.2144 196.859 22.2819C196.701 22.3494 196.574 22.4507 196.476 22.5857C196.386 22.7132 196.341 22.8744 196.341 23.0694C196.341 23.2569 196.386 23.4144 196.476 23.5419C196.574 23.6694 196.705 23.7819 196.87 23.8794C197.035 23.9694 197.23 24.0557 197.455 24.1382C197.68 24.2132 197.924 24.2919 198.186 24.3744C198.576 24.5094 198.936 24.6707 199.266 24.8582C199.596 25.0382 199.859 25.2744 200.054 25.5669C200.249 25.8594 200.346 26.2457 200.346 26.7257C200.346 27.1382 200.237 27.5207 200.02 27.8732C199.802 28.2257 199.487 28.5107 199.075 28.7282C198.67 28.9457 198.164 29.0544 197.556 29.0544Z" fill="#212B36"/>
<path d="M95.6388 42.1617C95.1965 42.1617 94.8083 42.0601 94.4743 41.857C94.1404 41.6494 93.8808 41.3628 93.6958 40.9972C93.5107 40.6316 93.4182 40.2051 93.4182 39.7177C93.4182 39.2348 93.5107 38.8082 93.6958 38.4382C93.8854 38.0681 94.1516 37.7792 94.4947 37.5716C94.8422 37.364 95.2506 37.2602 95.72 37.2602C96.2526 37.2602 96.6972 37.3888 97.0537 37.6461C97.4103 37.8988 97.6382 38.2531 97.7375 38.709H97.0808C97.0176 38.4246 96.8687 38.1989 96.634 38.032C96.3993 37.865 96.0946 37.7815 95.72 37.7815C95.3725 37.7815 95.0678 37.8604 94.8061 38.0184C94.5488 38.1719 94.3502 38.393 94.2103 38.6819C94.0704 38.9707 94.0004 39.316 94.0004 39.7177C94.0004 40.1194 94.0704 40.4669 94.2103 40.7603C94.3502 41.0491 94.5443 41.2703 94.7925 41.4237C95.0453 41.5772 95.3341 41.6539 95.6591 41.6539C96.1646 41.6539 96.546 41.505 96.8032 41.2071C97.0605 40.9092 97.2072 40.5053 97.2433 39.9953H95.8757V39.5484H97.8255V42.0804H97.3042L97.2568 41.3019C97.144 41.4869 97.0131 41.6449 96.8642 41.7758C96.7197 41.9021 96.5482 41.9992 96.3496 42.0669C96.151 42.1301 95.9141 42.1617 95.6388 42.1617ZM98.7314 42.0804V37.3414H101.663V37.8085H99.3001V39.4604H101.46V39.9208H99.3001V41.6133H101.663V42.0804H98.7314ZM102.559 42.0804V37.3414H104.089C104.459 37.3414 104.762 37.4046 104.997 37.531C105.231 37.6528 105.405 37.8176 105.518 38.0252C105.631 38.2328 105.687 38.4675 105.687 38.7293C105.687 38.982 105.628 39.2144 105.511 39.4266C105.398 39.6387 105.222 39.808 104.983 39.9343C104.744 40.0607 104.437 40.1239 104.062 40.1239H103.128V42.0804H102.559ZM105.064 42.0804L104.022 39.9614H104.658L105.734 42.0804H105.064ZM103.128 39.6771H104.049C104.41 39.6771 104.674 39.5891 104.841 39.413C105.012 39.237 105.098 39.0113 105.098 38.736C105.098 38.4562 105.015 38.2351 104.848 38.0726C104.685 37.9056 104.417 37.8221 104.042 37.8221H103.128V39.6771ZM106.579 42.0804V37.3414H107.243L108.915 40.6519L110.594 37.3414H111.264V42.0804H110.695V38.3569L109.131 41.417H108.705L107.148 38.3705V42.0804H106.579ZM111.967 42.0804L113.713 37.3414H114.316L116.056 42.0804H115.453L114.011 38.0523L112.563 42.0804H111.967ZM112.766 40.8618L112.928 40.4015H115.074L115.237 40.8618H112.766ZM116.767 42.0804V37.3414H117.336L119.861 41.1394V37.3414H120.43V42.0804H119.861L117.336 38.2824V42.0804H116.767ZM122.619 42.0804V40.2796L121.076 37.3414H121.719L122.991 39.9072H122.822L124.088 37.3414H124.725L123.188 40.2796V42.0804H122.619Z" fill="#637381"/>
</g>
<defs>
<filter id="filter0_dddd_1374_13211" x="0" y="0.313477" width="260.093" height="212.373" filterUnits="userSpaceOnUse" color-interpolation-filters="sRGB">
<feFlood flood-opacity="0" result="BackgroundImageFix"/>
<feColorMatrix in="SourceAlpha" type="matrix" values="0 0 0 0 0 0 0 0 0 0 0 0 0 0 0 0 0 0 127 0" result="hardAlpha"/>
<feOffset dy="7"/>
<feGaussianBlur stdDeviation="8"/>
<feColorMatrix type="matrix" values="0 0 0 0 0.596078 0 0 0 0 0.678431 0 0 0 0 0.764706 0 0 0 0.1 0"/>
<feBlend mode="normal" in2="BackgroundImageFix" result="effect1_dropShadow_1374_13211"/>
<feColorMatrix in="SourceAlpha" type="matrix" values="0 0 0 0 0 0 0 0 0 0 0 0 0 0 0 0 0 0 127 0" result="hardAlpha"/>
<feOffset dy="29"/>
<feGaussianBlur stdDeviation="14.5"/>
<feColorMatrix type="matrix" values="0 0 0 0 0.596078 0 0 0 0 0.678431 0 0 0 0 0.764706 0 0 0 0.09 0"/>
<feBlend mode="normal" in2="effect1_dropShadow_1374_13211" result="effect2_dropShadow_1374_13211"/>
<feColorMatrix in="SourceAlpha" type="matrix" values="0 0 0 0 0 0 0 0 0 0 0 0 0 0 0 0 0 0 127 0" result="hardAlpha"/>
<feOffset dy="64"/>
<feGaussianBlur stdDeviation="19.5"/>
<feColorMatrix type="matrix" values="0 0 0 0 0.596078 0 0 0 0 0.678431 0 0 0 0 0.764706 0 0 0 0.05 0"/>
<feBlend mode="normal" in2="effect2_dropShadow_1374_13211" result="effect3_dropShadow_1374_13211"/>
<feColorMatrix in="SourceAlpha" type="matrix" values="0 0 0 0 0 0 0 0 0 0 0 0 0 0 0 0 0 0 127 0" result="hardAlpha"/>
<feOffset dy="114"/>
<feGaussianBlur stdDeviation="23"/>
<feColorMatrix type="matrix" values="0 0 0 0 0.596078 0 0 0 0 0.678431 0 0 0 0 0.764706 0 0 0 0.01 0"/>
<feBlend mode="normal" in2="effect3_dropShadow_1374_13211" result="effect4_dropShadow_1374_13211"/>
<feBlend mode="normal" in="SourceGraphic" in2="effect4_dropShadow_1374_13211" result="shape"/>
</filter>
<clipPath id="clip0_1374_13211">
<rect x="55" y="17.3135" width="28.0932" height="27.3729" rx="13.6864" fill="white"/>
</clipPath>
</defs>
</svg>
