<svg width="260" height="215" viewBox="0 0 260 215" fill="none" xmlns="http://www.w3.org/2000/svg">
<g filter="url(#filter0_dddd_1374_13152)">
<rect x="46" y="9" width="168" height="46" rx="23" fill="white"/>
<g clip-path="url(#clip0_1374_13152)">
<rect x="55" y="18" width="28" height="28" fill="#ED2939"/>
<path d="M68.0833 40.25H65.3333C64.8471 40.25 64.3808 40.0569 64.037 39.7131C63.6932 39.3692 63.5 38.9029 63.5 38.4167V25.5834C63.5 25.0971 63.6932 24.6308 64.037 24.287C64.3808 23.9432 64.8471 23.75 65.3333 23.75H72.6667C73.1529 23.75 73.6192 23.9432 73.963 24.287C74.3068 24.6308 74.5 25.0971 74.5 25.5834V30.1667M68.0833 24.6667H69.9167M74.3167 40.0823L72.3257 41.1254C72.2666 41.1562 72.2001 41.1699 72.1337 41.1651C72.0672 41.1603 72.0035 41.137 71.9495 41.0981C71.8954 41.0591 71.8533 41.0058 71.8278 40.9443C71.8023 40.8828 71.7944 40.8154 71.805 40.7496L72.1854 38.5395L70.5748 36.9748C70.5268 36.9283 70.4927 36.8693 70.4766 36.8044C70.4605 36.7395 70.4629 36.6714 70.4837 36.6078C70.5044 36.5442 70.5426 36.4878 70.5939 36.4449C70.6452 36.402 70.7075 36.3744 70.7738 36.3652L72.9994 36.0425L73.9949 34.0323C74.0247 33.9724 74.0706 33.922 74.1274 33.8868C74.1843 33.8516 74.2498 33.8329 74.3167 33.8329C74.3835 33.8329 74.4491 33.8516 74.5059 33.8868C74.5628 33.922 74.6086 33.9724 74.6384 34.0323L75.6339 36.0425L77.8596 36.3652C77.9256 36.3747 77.9877 36.4025 78.0387 36.4454C78.0898 36.4884 78.1278 36.5447 78.1485 36.6082C78.1692 36.6716 78.1718 36.7395 78.1559 36.8043C78.1399 36.8691 78.1062 36.9282 78.0585 36.9748L76.4479 38.5395L76.8274 40.7487C76.8388 40.8146 76.8315 40.8823 76.8063 40.9443C76.7811 41.0062 76.7391 41.0598 76.685 41.0991C76.6308 41.1383 76.5668 41.1616 76.5001 41.1662C76.4334 41.1709 76.3667 41.1568 76.3077 41.1254L74.3167 40.0823Z" stroke="white" stroke-width="1.5" stroke-linecap="round" stroke-linejoin="round"/>
</g>
<path d="M96.2371 35.635C95.6671 35.635 95.1497 35.5225 94.6848 35.2975C94.2274 35.0726 93.8599 34.7276 93.5825 34.2627C93.3125 33.7978 93.1775 33.2129 93.1775 32.508V27.6262H94.5273V32.5192C94.5273 32.9466 94.5986 33.2991 94.741 33.5765C94.8835 33.854 95.0822 34.064 95.3372 34.2065C95.5997 34.3414 95.9071 34.4089 96.2596 34.4089C96.6195 34.4089 96.927 34.3414 97.1819 34.2065C97.4444 34.064 97.6431 33.854 97.7781 33.5765C97.9205 33.2991 97.9918 32.9466 97.9918 32.5192V27.6262H99.3416V32.508C99.3416 33.2129 99.2028 33.7978 98.9254 34.2627C98.6479 34.7276 98.273 35.0726 97.8006 35.2975C97.3281 35.5225 96.807 35.635 96.2371 35.635ZM103.074 35.635C102.571 35.635 102.132 35.5562 101.757 35.3988C101.39 35.2338 101.098 35.0088 100.88 34.7239C100.67 34.4314 100.546 34.0977 100.509 33.7228H101.859C101.896 33.8803 101.964 34.0265 102.061 34.1615C102.159 34.2889 102.29 34.3902 102.455 34.4652C102.627 34.5401 102.83 34.5776 103.062 34.5776C103.287 34.5776 103.471 34.5476 103.613 34.4877C103.756 34.4202 103.861 34.3339 103.928 34.2289C103.996 34.124 104.03 34.0115 104.03 33.8915C104.03 33.7115 103.981 33.5728 103.883 33.4753C103.786 33.3778 103.643 33.3028 103.456 33.2503C103.276 33.1904 103.059 33.1341 102.804 33.0816C102.534 33.0291 102.271 32.9654 102.016 32.8904C101.769 32.8079 101.544 32.7067 101.341 32.5867C101.146 32.4667 100.989 32.313 100.869 32.1255C100.756 31.9381 100.7 31.7093 100.7 31.4394C100.7 31.1094 100.786 30.8132 100.959 30.5508C101.139 30.2883 101.394 30.0821 101.724 29.9321C102.061 29.7746 102.462 29.6959 102.927 29.6959C103.587 29.6959 104.112 29.8496 104.502 30.1571C104.9 30.457 105.132 30.8807 105.199 31.4281H103.917C103.88 31.2182 103.775 31.0569 103.602 30.9445C103.43 30.8245 103.201 30.7645 102.916 30.7645C102.624 30.7645 102.399 30.8207 102.241 30.9332C102.091 31.0382 102.016 31.1807 102.016 31.3606C102.016 31.4731 102.061 31.5781 102.151 31.6756C102.249 31.7656 102.387 31.8443 102.567 31.9118C102.747 31.9718 102.969 32.0318 103.231 32.0918C103.651 32.1743 104.022 32.2717 104.345 32.3842C104.667 32.4967 104.922 32.6617 105.109 32.8792C105.297 33.0966 105.391 33.4041 105.391 33.8015C105.398 34.1615 105.304 34.4802 105.109 34.7576C104.922 35.0351 104.656 35.2525 104.311 35.41C103.966 35.56 103.553 35.635 103.074 35.635ZM109.355 35.635C108.793 35.635 108.298 35.515 107.87 35.275C107.443 35.0276 107.109 34.6826 106.869 34.2402C106.629 33.7978 106.509 33.2878 106.509 32.7104C106.509 32.1105 106.625 31.5856 106.858 31.1357C107.098 30.6857 107.432 30.3333 107.859 30.0783C108.294 29.8234 108.796 29.6959 109.366 29.6959C109.921 29.6959 110.405 29.8196 110.817 30.0671C111.23 30.3146 111.548 30.6483 111.773 31.0682C111.998 31.4806 112.111 31.9455 112.111 32.463C112.111 32.538 112.111 32.6204 112.111 32.7104C112.111 32.8004 112.103 32.8942 112.088 32.9916H107.477V32.1255H110.75C110.735 31.7131 110.596 31.3906 110.334 31.1582C110.071 30.9182 109.745 30.7982 109.355 30.7982C109.078 30.7982 108.823 30.862 108.59 30.9894C108.358 31.1169 108.174 31.3081 108.039 31.5631C107.904 31.8106 107.836 32.1255 107.836 32.508V32.8342C107.836 33.1866 107.9 33.4903 108.028 33.7453C108.163 34.0002 108.343 34.1952 108.568 34.3302C108.8 34.4577 109.059 34.5214 109.344 34.5214C109.659 34.5214 109.917 34.4539 110.12 34.3189C110.33 34.184 110.484 34.004 110.581 33.779H111.953C111.848 34.1315 111.676 34.4502 111.436 34.7351C111.196 35.0126 110.9 35.2338 110.547 35.3988C110.195 35.5562 109.797 35.635 109.355 35.635ZM113.357 35.5V29.8309H114.561L114.684 30.8882C114.819 30.6408 114.988 30.4308 115.191 30.2583C115.393 30.0783 115.629 29.9396 115.899 29.8421C116.177 29.7446 116.48 29.6959 116.81 29.6959V31.1244H116.338C116.113 31.1244 115.899 31.1544 115.697 31.2144C115.494 31.2669 115.318 31.3569 115.168 31.4844C115.026 31.6044 114.913 31.7731 114.831 31.9905C114.748 32.2005 114.707 32.4667 114.707 32.7892V35.5H113.357ZM117.918 32.7442V31.6193H122.575V32.7442H117.918ZM124.233 35.5V27.6262H129.261V28.7173H125.583V31.0232H128.586V32.0918H125.583V35.5H124.233ZM130.372 35.5V29.8309H131.576L131.7 30.8882C131.835 30.6408 132.003 30.4308 132.206 30.2583C132.408 30.0783 132.644 29.9396 132.914 29.8421C133.192 29.7446 133.496 29.6959 133.825 29.6959V31.1244H133.353C133.128 31.1244 132.914 31.1544 132.712 31.2144C132.509 31.2669 132.333 31.3569 132.183 31.4844C132.041 31.6044 131.928 31.7731 131.846 31.9905C131.763 32.2005 131.722 32.4667 131.722 32.7892V35.5H130.372ZM134.899 35.5V29.8309H136.249V35.5H134.899ZM135.574 28.931C135.327 28.931 135.12 28.856 134.956 28.7061C134.798 28.5486 134.719 28.3574 134.719 28.1324C134.719 27.8999 134.798 27.7125 134.956 27.57C135.12 27.42 135.327 27.345 135.574 27.345C135.822 27.345 136.024 27.42 136.182 27.57C136.347 27.7125 136.429 27.8999 136.429 28.1324C136.429 28.3574 136.347 28.5486 136.182 28.7061C136.024 28.856 135.822 28.931 135.574 28.931ZM140.463 35.635C139.901 35.635 139.406 35.515 138.979 35.275C138.551 35.0276 138.218 34.6826 137.978 34.2402C137.738 33.7978 137.618 33.2878 137.618 32.7104C137.618 32.1105 137.734 31.5856 137.966 31.1357C138.206 30.6857 138.54 30.3333 138.967 30.0783C139.402 29.8234 139.905 29.6959 140.475 29.6959C141.03 29.6959 141.513 29.8196 141.926 30.0671C142.338 30.3146 142.657 30.6483 142.882 31.0682C143.107 31.4806 143.219 31.9455 143.219 32.463C143.219 32.538 143.219 32.6204 143.219 32.7104C143.219 32.8004 143.212 32.8942 143.197 32.9916H138.585V32.1255H141.858C141.843 31.7131 141.705 31.3906 141.442 31.1582C141.18 30.9182 140.853 30.7982 140.463 30.7982C140.186 30.7982 139.931 30.862 139.699 30.9894C139.466 31.1169 139.282 31.3081 139.147 31.5631C139.012 31.8106 138.945 32.1255 138.945 32.508V32.8342C138.945 33.1866 139.009 33.4903 139.136 33.7453C139.271 34.0002 139.451 34.1952 139.676 34.3302C139.909 34.4577 140.167 34.5214 140.452 34.5214C140.767 34.5214 141.026 34.4539 141.228 34.3189C141.438 34.184 141.592 34.004 141.69 33.779H143.062C142.957 34.1315 142.784 34.4502 142.544 34.7351C142.304 35.0126 142.008 35.2338 141.656 35.3988C141.303 35.5562 140.906 35.635 140.463 35.635ZM144.466 35.5V29.8309H145.658L145.759 30.7757C145.932 30.4458 146.179 30.1833 146.501 29.9884C146.824 29.7934 147.206 29.6959 147.649 29.6959C148.106 29.6959 148.496 29.7934 148.819 29.9884C149.141 30.1758 149.389 30.4533 149.561 30.8207C149.741 31.1882 149.831 31.6456 149.831 32.193V35.5H148.481V32.3167C148.481 31.8443 148.376 31.4806 148.166 31.2257C147.956 30.9707 147.645 30.8432 147.233 30.8432C146.963 30.8432 146.719 30.907 146.501 31.0344C146.292 31.1619 146.123 31.3494 145.995 31.5969C145.875 31.8368 145.815 32.1293 145.815 32.4742V35.5H144.466ZM153.774 35.635C153.249 35.635 152.78 35.5075 152.368 35.2525C151.955 34.9976 151.633 34.6451 151.4 34.1952C151.175 33.7453 151.063 33.2354 151.063 32.6654C151.063 32.0955 151.179 31.5894 151.412 31.1469C151.644 30.697 151.966 30.3445 152.379 30.0896C152.799 29.8271 153.271 29.6959 153.796 29.6959C154.224 29.6959 154.595 29.7784 154.91 29.9434C155.232 30.1008 155.487 30.3258 155.675 30.6183V27.4013H157.024V35.5H155.81L155.675 34.6789C155.555 34.8439 155.408 35.0013 155.236 35.1513C155.063 35.2938 154.857 35.41 154.617 35.5C154.377 35.59 154.096 35.635 153.774 35.635ZM154.055 34.4652C154.377 34.4652 154.662 34.3902 154.91 34.2402C155.157 34.0827 155.348 33.869 155.483 33.599C155.618 33.3291 155.686 33.0179 155.686 32.6654C155.686 32.313 155.618 32.0018 155.483 31.7318C155.348 31.4619 155.157 31.2519 154.91 31.1019C154.662 30.952 154.377 30.877 154.055 30.877C153.747 30.877 153.47 30.952 153.223 31.1019C152.975 31.2519 152.78 31.4619 152.638 31.7318C152.503 32.0018 152.435 32.313 152.435 32.6654C152.435 33.0179 152.503 33.3291 152.638 33.599C152.78 33.869 152.975 34.0827 153.223 34.2402C153.47 34.3902 153.747 34.4652 154.055 34.4652ZM158.526 35.5V27.4013H159.876V35.5H158.526ZM162.068 37.9746L163.452 34.8701H163.114L160.853 29.8309H162.327L164.014 33.6778L165.611 29.8309H167.04L163.497 37.9746H162.068Z" fill="black"/>
</g>
<defs>
<filter id="filter0_dddd_1374_13152" x="0" y="0" width="260" height="215" filterUnits="userSpaceOnUse" color-interpolation-filters="sRGB">
<feFlood flood-opacity="0" result="BackgroundImageFix"/>
<feColorMatrix in="SourceAlpha" type="matrix" values="0 0 0 0 0 0 0 0 0 0 0 0 0 0 0 0 0 0 127 0" result="hardAlpha"/>
<feOffset dy="7"/>
<feGaussianBlur stdDeviation="8"/>
<feColorMatrix type="matrix" values="0 0 0 0 0.596078 0 0 0 0 0.678431 0 0 0 0 0.764706 0 0 0 0.1 0"/>
<feBlend mode="normal" in2="BackgroundImageFix" result="effect1_dropShadow_1374_13152"/>
<feColorMatrix in="SourceAlpha" type="matrix" values="0 0 0 0 0 0 0 0 0 0 0 0 0 0 0 0 0 0 127 0" result="hardAlpha"/>
<feOffset dy="29"/>
<feGaussianBlur stdDeviation="14.5"/>
<feColorMatrix type="matrix" values="0 0 0 0 0.596078 0 0 0 0 0.678431 0 0 0 0 0.764706 0 0 0 0.09 0"/>
<feBlend mode="normal" in2="effect1_dropShadow_1374_13152" result="effect2_dropShadow_1374_13152"/>
<feColorMatrix in="SourceAlpha" type="matrix" values="0 0 0 0 0 0 0 0 0 0 0 0 0 0 0 0 0 0 127 0" result="hardAlpha"/>
<feOffset dy="64"/>
<feGaussianBlur stdDeviation="19.5"/>
<feColorMatrix type="matrix" values="0 0 0 0 0.596078 0 0 0 0 0.678431 0 0 0 0 0.764706 0 0 0 0.05 0"/>
<feBlend mode="normal" in2="effect2_dropShadow_1374_13152" result="effect3_dropShadow_1374_13152"/>
<feColorMatrix in="SourceAlpha" type="matrix" values="0 0 0 0 0 0 0 0 0 0 0 0 0 0 0 0 0 0 127 0" result="hardAlpha"/>
<feOffset dy="114"/>
<feGaussianBlur stdDeviation="23"/>
<feColorMatrix type="matrix" values="0 0 0 0 0.596078 0 0 0 0 0.678431 0 0 0 0 0.764706 0 0 0 0.01 0"/>
<feBlend mode="normal" in2="effect3_dropShadow_1374_13152" result="effect4_dropShadow_1374_13152"/>
<feBlend mode="normal" in="SourceGraphic" in2="effect4_dropShadow_1374_13152" result="shape"/>
</filter>
<clipPath id="clip0_1374_13152">
<rect x="55" y="18.3136" width="28.0932" height="27.3729" rx="13.6864" fill="white"/>
</clipPath>
</defs>
</svg>
