<svg width="260" height="215" viewBox="0 0 260 215" fill="none" xmlns="http://www.w3.org/2000/svg">
<g filter="url(#filter0_dddd_1374_13158)">
<rect x="46" y="9" width="168" height="46" rx="23" fill="white"/>
<g clip-path="url(#clip0_1374_13158)">
<rect x="55" y="18" width="28" height="28" fill="#ED9B29"/>
<path d="M75.3928 34.5953L75.5199 34.341C75.6536 34.0737 75.9269 33.9048 76.2258 33.9048H77.7108C78.1467 33.9048 78.5 33.5515 78.5 33.1157V30.551C78.5 30.1152 78.1467 29.7619 77.7108 29.7619H76.2258C75.9269 29.7619 75.6536 29.5931 75.5199 29.3257L75.3019 28.8897C75.15 28.5859 75.2096 28.219 75.4498 27.9788L76.561 26.8675C76.8692 26.5594 76.8692 26.0597 76.561 25.7516L74.9151 24.1056C74.6069 23.7975 74.1073 23.7975 73.7991 24.1056L72.6878 25.2169C72.4477 25.4571 72.0808 25.5166 71.777 25.3647L71.3409 25.1467C71.0736 25.013 70.9047 24.7398 70.9047 24.4409V22.9558C70.9047 22.52 70.5514 22.1667 70.1156 22.1667H67.551C67.1152 22.1667 66.7619 22.52 66.7619 22.9558V24.4409C66.7619 24.7398 66.593 25.013 66.3257 25.1467L65.8896 25.3647C65.5858 25.5166 65.2189 25.4571 64.9787 25.2169L63.8675 24.1056C63.5593 23.7975 63.0597 23.7975 62.7515 24.1056L61.1056 25.7516C60.7974 26.0597 60.7974 26.5594 61.1056 26.8675L62.2168 27.9788C62.457 28.219 62.5165 28.5859 62.3646 28.8897L62.1466 29.3257C62.013 29.5931 61.7397 29.7619 61.4408 29.7619H59.9557C59.5199 29.7619 59.1666 30.1152 59.1666 30.551V33.1157C59.1666 33.5515 59.5199 33.9048 59.9557 33.9048H61.4408C61.7397 33.9048 62.013 34.0737 62.1466 34.341L62.3646 34.777C62.5165 35.0808 62.457 35.4477 62.2168 35.6879L61.1056 36.7992C60.7974 37.1073 60.7974 37.607 61.1056 37.9152L62.7515 39.5611C63.0597 39.8692 63.5593 39.8692 63.8675 39.5611L64.9787 38.4498C65.2189 38.2096 65.5858 38.1501 65.8896 38.302L66.3257 38.52C66.593 38.6537 66.7619 38.9269 66.7619 39.2258V40.7109C66.7619 41.1467 67.1152 41.5 67.551 41.5H70.1156C70.5514 41.5 70.9047 41.1467 70.9047 40.7109V39.2258C70.9047 38.9269 71.0736 38.6537 71.3409 38.52L71.5952 38.3929M69.0199 30.7123C69.0998 30.7938 69.1445 30.9033 69.1445 31.0175C69.1445 31.1316 69.0998 31.2412 69.0199 31.3227L68.3225 32.02C68.241 32.0999 68.1314 32.1447 68.0173 32.1447C67.9032 32.1447 67.7936 32.0999 67.7121 32.02L66.5392 30.8476C66.3114 30.6202 65.9284 30.6943 65.8736 31.0115C65.802 31.4266 65.8318 31.8528 65.9603 32.254C66.0888 32.6551 66.3123 33.0193 66.6118 33.3155C66.9112 33.6117 67.2778 33.8312 67.6803 33.9553C68.0829 34.0794 68.5094 34.1045 68.9237 34.0284C69.3011 33.9594 69.7094 34.0183 69.9806 34.2889L76.5102 40.8344C76.5955 40.9231 76.6976 40.9939 76.8105 41.0427C76.9235 41.0915 77.0451 41.1173 77.1682 41.1185C77.2912 41.1198 77.4133 41.0964 77.5272 41.0499C77.6411 41.0034 77.7446 40.9346 77.8317 40.8476C77.9187 40.7606 77.9875 40.6571 78.034 40.5431C78.0805 40.4292 78.1038 40.3071 78.1026 40.1841C78.1014 40.061 78.0756 39.9394 78.0268 39.8265C77.978 39.7135 77.9072 39.6114 77.8184 39.5261L71.2883 32.9812C71.0177 32.7101 70.9587 32.3013 71.0278 31.9243C71.1037 31.51 71.0784 31.0836 70.9542 30.6812C70.83 30.2788 70.6105 29.9123 70.3144 29.6129C70.0182 29.3135 69.6541 29.09 69.2531 28.9614C68.8521 28.8328 68.4259 28.8029 68.0109 28.8742C67.6937 28.9295 67.6196 29.312 67.847 29.5399L69.0199 30.7123Z" stroke="white" stroke-width="1.5" stroke-linecap="round" stroke-linejoin="round"/>
</g>
<path d="M96.7545 35.635C95.9746 35.635 95.2997 35.4663 94.7298 35.1288C94.1674 34.7839 93.7324 34.3077 93.425 33.7003C93.125 33.0854 92.9751 32.3767 92.9751 31.5744C92.9751 30.7645 93.125 30.0558 93.425 29.4484C93.7324 28.8335 94.1674 28.3536 94.7298 28.0087C95.2997 27.6637 95.9746 27.4912 96.7545 27.4912C97.6918 27.4912 98.4567 27.7237 99.0491 28.1886C99.6415 28.6461 100.016 29.2947 100.174 30.1346H98.6892C98.5842 29.6921 98.3705 29.3435 98.048 29.0885C97.7256 28.8335 97.2906 28.7061 96.7432 28.7061C96.2483 28.7061 95.8209 28.8223 95.4609 29.0547C95.1085 29.2797 94.8348 29.6097 94.6398 30.0446C94.4523 30.472 94.3586 30.9819 94.3586 31.5744C94.3586 32.1668 94.4523 32.6767 94.6398 33.1041C94.8348 33.5241 95.1085 33.8503 95.4609 34.0827C95.8209 34.3077 96.2483 34.4202 96.7432 34.4202C97.2906 34.4202 97.7256 34.3039 98.048 34.0715C98.3705 33.8315 98.5842 33.5016 98.6892 33.0816H100.174C100.024 33.8765 99.649 34.5027 99.0491 34.9601C98.4567 35.41 97.6918 35.635 96.7545 35.635ZM103.553 35.635C103.096 35.635 102.702 35.545 102.372 35.365C102.05 35.1775 101.802 34.9001 101.63 34.5326C101.457 34.1577 101.371 33.6965 101.371 33.1491V29.8309H102.721V33.0141C102.721 33.5016 102.822 33.8728 103.025 34.1277C103.234 34.3752 103.549 34.4989 103.969 34.4989C104.239 34.4989 104.479 34.4352 104.689 34.3077C104.907 34.1802 105.075 33.9965 105.195 33.7565C105.323 33.5091 105.387 33.2091 105.387 32.8567V29.8309H106.736V35.5H105.544L105.443 34.5551C105.27 34.8851 105.019 35.1476 104.689 35.3425C104.367 35.5375 103.988 35.635 103.553 35.635ZM110.499 35.635C109.997 35.635 109.558 35.5562 109.183 35.3988C108.816 35.2338 108.523 35.0088 108.306 34.7239C108.096 34.4314 107.972 34.0977 107.935 33.7228H109.284C109.322 33.8803 109.389 34.0265 109.487 34.1615C109.584 34.2889 109.716 34.3902 109.88 34.4652C110.053 34.5401 110.255 34.5776 110.488 34.5776C110.713 34.5776 110.897 34.5476 111.039 34.4877C111.182 34.4202 111.287 34.3339 111.354 34.2289C111.422 34.124 111.455 34.0115 111.455 33.8915C111.455 33.7115 111.407 33.5728 111.309 33.4753C111.212 33.3778 111.069 33.3028 110.882 33.2503C110.702 33.1904 110.484 33.1341 110.229 33.0816C109.959 33.0291 109.697 32.9654 109.442 32.8904C109.194 32.8079 108.969 32.7067 108.767 32.5867C108.572 32.4667 108.414 32.313 108.294 32.1255C108.182 31.9381 108.126 31.7093 108.126 31.4394C108.126 31.1094 108.212 30.8132 108.384 30.5508C108.564 30.2883 108.819 30.0821 109.149 29.9321C109.487 29.7746 109.888 29.6959 110.353 29.6959C111.013 29.6959 111.538 29.8496 111.928 30.1571C112.325 30.457 112.558 30.8807 112.625 31.4281H111.343C111.305 31.2182 111.2 31.0569 111.028 30.9445C110.855 30.8245 110.627 30.7645 110.342 30.7645C110.049 30.7645 109.824 30.8207 109.667 30.9332C109.517 31.0382 109.442 31.1807 109.442 31.3606C109.442 31.4731 109.487 31.5781 109.577 31.6756C109.674 31.7656 109.813 31.8443 109.993 31.9118C110.173 31.9718 110.394 32.0318 110.657 32.0918C111.077 32.1743 111.448 32.2717 111.77 32.3842C112.093 32.4967 112.348 32.6617 112.535 32.8792C112.723 33.0966 112.816 33.4041 112.816 33.8015C112.824 34.1615 112.73 34.4802 112.535 34.7576C112.348 35.0351 112.081 35.2525 111.736 35.41C111.392 35.56 110.979 35.635 110.499 35.635ZM116.392 35.5C116.009 35.5 115.676 35.44 115.391 35.32C115.113 35.2 114.896 35.0013 114.738 34.7239C114.581 34.4464 114.502 34.0715 114.502 33.599V30.967H113.535V29.8309H114.502L114.659 28.3349H115.852V29.8309H117.393V30.967H115.852V33.599C115.852 33.884 115.912 34.0827 116.032 34.1952C116.159 34.3002 116.369 34.3527 116.662 34.3527H117.359V35.5H116.392ZM121.163 35.635C120.623 35.635 120.136 35.5112 119.701 35.2638C119.273 35.0088 118.936 34.6601 118.689 34.2177C118.449 33.7678 118.329 33.2541 118.329 32.6767C118.329 32.0843 118.452 31.5669 118.7 31.1244C118.947 30.6745 119.285 30.3258 119.712 30.0783C120.147 29.8234 120.635 29.6959 121.174 29.6959C121.714 29.6959 122.198 29.8234 122.625 30.0783C123.06 30.3258 123.398 30.6707 123.638 31.1132C123.885 31.5556 124.009 32.073 124.009 32.6654C124.009 33.2578 123.885 33.7753 123.638 34.2177C123.39 34.6601 123.049 35.0088 122.614 35.2638C122.187 35.5112 121.703 35.635 121.163 35.635ZM121.163 34.4764C121.433 34.4764 121.677 34.4089 121.894 34.2739C122.119 34.139 122.299 33.9365 122.434 33.6665C122.569 33.3966 122.637 33.0629 122.637 32.6654C122.637 32.268 122.569 31.9381 122.434 31.6756C122.307 31.4056 122.131 31.2032 121.906 31.0682C121.688 30.9332 121.444 30.8657 121.174 30.8657C120.912 30.8657 120.668 30.9332 120.443 31.0682C120.218 31.2032 120.038 31.4056 119.903 31.6756C119.768 31.9381 119.701 32.268 119.701 32.6654C119.701 33.0629 119.768 33.3966 119.903 33.6665C120.038 33.9365 120.215 34.139 120.432 34.2739C120.657 34.4089 120.901 34.4764 121.163 34.4764ZM125.33 35.5V29.8309H126.523L126.635 30.607C126.815 30.3221 127.051 30.1008 127.344 29.9434C127.644 29.7784 127.985 29.6959 128.367 29.6959C128.652 29.6959 128.907 29.7334 129.132 29.8084C129.365 29.8834 129.567 29.9959 129.74 30.1458C129.92 30.2958 130.066 30.4833 130.178 30.7082C130.388 30.3933 130.662 30.1458 130.999 29.9659C131.337 29.7859 131.704 29.6959 132.102 29.6959C132.574 29.6959 132.975 29.7934 133.305 29.9884C133.635 30.1758 133.887 30.457 134.059 30.832C134.231 31.1994 134.318 31.6531 134.318 32.193V35.5H132.979V32.328C132.979 31.8481 132.882 31.4806 132.687 31.2257C132.492 30.9707 132.203 30.8432 131.821 30.8432C131.558 30.8432 131.326 30.907 131.123 31.0344C130.928 31.1619 130.774 31.3494 130.662 31.5969C130.55 31.8368 130.493 32.133 130.493 32.4855V35.5H129.155V32.328C129.155 31.8481 129.057 31.4806 128.862 31.2257C128.667 30.9707 128.375 30.8432 127.985 30.8432C127.737 30.8432 127.512 30.907 127.31 31.0344C127.115 31.1619 126.961 31.3494 126.849 31.5969C126.736 31.8368 126.68 32.133 126.68 32.4855V35.5H125.33ZM135.8 35.5V29.8309H137.15V35.5H135.8ZM136.475 28.931C136.227 28.931 136.021 28.856 135.856 28.7061C135.699 28.5486 135.62 28.3574 135.62 28.1324C135.62 27.8999 135.699 27.7125 135.856 27.57C136.021 27.42 136.227 27.345 136.475 27.345C136.722 27.345 136.925 27.42 137.082 27.57C137.247 27.7125 137.33 27.8999 137.33 28.1324C137.33 28.3574 137.247 28.5486 137.082 28.7061C136.925 28.856 136.722 28.931 136.475 28.931ZM138.338 35.5V34.4089L141.274 30.9557H138.383V29.8309H142.826V30.922L139.857 34.3864H142.883V35.5H138.338ZM146.015 35.635C145.55 35.635 145.164 35.5562 144.856 35.3988C144.549 35.2413 144.32 35.0313 144.17 34.7689C144.02 34.5064 143.945 34.2214 143.945 33.914C143.945 33.5541 144.035 33.2428 144.215 32.9804C144.402 32.7179 144.676 32.5155 145.036 32.373C145.396 32.223 145.839 32.148 146.363 32.148H147.792C147.792 31.8481 147.751 31.6006 147.668 31.4056C147.586 31.2032 147.458 31.0532 147.286 30.9557C147.113 30.8582 146.892 30.8095 146.622 30.8095C146.315 30.8095 146.052 30.8807 145.835 31.0232C145.617 31.1582 145.482 31.3681 145.43 31.6531H144.103C144.148 31.2482 144.283 30.9032 144.507 30.6183C144.732 30.3258 145.029 30.1008 145.396 29.9434C145.771 29.7784 146.18 29.6959 146.622 29.6959C147.155 29.6959 147.608 29.7896 147.983 29.9771C148.358 30.1571 148.643 30.4195 148.838 30.7645C149.041 31.1019 149.142 31.5106 149.142 31.9905V35.5H147.994L147.859 34.5889C147.784 34.7389 147.687 34.8776 147.567 35.0051C147.455 35.1326 147.323 35.245 147.173 35.3425C147.023 35.4325 146.851 35.5037 146.656 35.5562C146.468 35.6087 146.255 35.635 146.015 35.635ZM146.318 34.5664C146.536 34.5664 146.727 34.5289 146.892 34.4539C147.065 34.3714 147.211 34.2589 147.331 34.1165C147.458 33.9665 147.556 33.8015 147.623 33.6215C147.691 33.4416 147.736 33.2503 147.758 33.0479V33.0254H146.51C146.247 33.0254 146.03 33.0591 145.857 33.1266C145.685 33.1866 145.561 33.2766 145.486 33.3966C145.411 33.5166 145.374 33.6553 145.374 33.8128C145.374 33.9702 145.411 34.1052 145.486 34.2177C145.561 34.3302 145.67 34.4164 145.812 34.4764C145.955 34.5364 146.123 34.5664 146.318 34.5664ZM152.959 35.5C152.577 35.5 152.243 35.44 151.958 35.32C151.681 35.2 151.463 35.0013 151.306 34.7239C151.149 34.4464 151.07 34.0715 151.07 33.599V30.967H150.102V29.8309H151.07L151.227 28.3349H152.42V29.8309H153.961V30.967H152.42V33.599C152.42 33.884 152.48 34.0827 152.6 34.1952C152.727 34.3002 152.937 34.3527 153.229 34.3527H153.927V35.5H152.959ZM155.287 35.5V29.8309H156.637V35.5H155.287ZM155.962 28.931C155.714 28.931 155.508 28.856 155.343 28.7061C155.186 28.5486 155.107 28.3574 155.107 28.1324C155.107 27.8999 155.186 27.7125 155.343 27.57C155.508 27.42 155.714 27.345 155.962 27.345C156.209 27.345 156.412 27.42 156.569 27.57C156.734 27.7125 156.816 27.8999 156.816 28.1324C156.816 28.3574 156.734 28.5486 156.569 28.7061C156.412 28.856 156.209 28.931 155.962 28.931ZM160.84 35.635C160.3 35.635 159.812 35.5112 159.377 35.2638C158.95 35.0088 158.613 34.6601 158.365 34.2177C158.125 33.7678 158.005 33.2541 158.005 32.6767C158.005 32.0843 158.129 31.5669 158.376 31.1244C158.624 30.6745 158.961 30.3258 159.389 30.0783C159.824 29.8234 160.311 29.6959 160.851 29.6959C161.391 29.6959 161.875 29.8234 162.302 30.0783C162.737 30.3258 163.074 30.6707 163.314 31.1132C163.562 31.5556 163.685 32.073 163.685 32.6654C163.685 33.2578 163.562 33.7753 163.314 34.2177C163.067 34.6601 162.726 35.0088 162.291 35.2638C161.863 35.5112 161.38 35.635 160.84 35.635ZM160.84 34.4764C161.11 34.4764 161.353 34.4089 161.571 34.2739C161.796 34.139 161.976 33.9365 162.111 33.6665C162.246 33.3966 162.313 33.0629 162.313 32.6654C162.313 32.268 162.246 31.9381 162.111 31.6756C161.983 31.4056 161.807 31.2032 161.582 31.0682C161.365 30.9332 161.121 30.8657 160.851 30.8657C160.588 30.8657 160.345 30.9332 160.12 31.0682C159.895 31.2032 159.715 31.4056 159.58 31.6756C159.445 31.9381 159.377 32.268 159.377 32.6654C159.377 33.0629 159.445 33.3966 159.58 33.6665C159.715 33.9365 159.891 34.139 160.109 34.2739C160.334 34.4089 160.577 34.4764 160.84 34.4764ZM165.007 35.5V29.8309H166.199L166.3 30.7757C166.473 30.4458 166.72 30.1833 167.043 29.9884C167.365 29.7934 167.748 29.6959 168.19 29.6959C168.648 29.6959 169.037 29.7934 169.36 29.9884C169.682 30.1758 169.93 30.4533 170.102 30.8207C170.282 31.1882 170.372 31.6456 170.372 32.193V35.5H169.022V32.3167C169.022 31.8443 168.917 31.4806 168.707 31.2257C168.498 30.9707 168.186 30.8432 167.774 30.8432C167.504 30.8432 167.26 30.907 167.043 31.0344C166.833 31.1619 166.664 31.3494 166.537 31.5969C166.417 31.8368 166.357 32.1293 166.357 32.4742V35.5H165.007Z" fill="black"/>
</g>
<defs>
<filter id="filter0_dddd_1374_13158" x="0" y="0" width="260" height="215" filterUnits="userSpaceOnUse" color-interpolation-filters="sRGB">
<feFlood flood-opacity="0" result="BackgroundImageFix"/>
<feColorMatrix in="SourceAlpha" type="matrix" values="0 0 0 0 0 0 0 0 0 0 0 0 0 0 0 0 0 0 127 0" result="hardAlpha"/>
<feOffset dy="7"/>
<feGaussianBlur stdDeviation="8"/>
<feColorMatrix type="matrix" values="0 0 0 0 0.596078 0 0 0 0 0.678431 0 0 0 0 0.764706 0 0 0 0.1 0"/>
<feBlend mode="normal" in2="BackgroundImageFix" result="effect1_dropShadow_1374_13158"/>
<feColorMatrix in="SourceAlpha" type="matrix" values="0 0 0 0 0 0 0 0 0 0 0 0 0 0 0 0 0 0 127 0" result="hardAlpha"/>
<feOffset dy="29"/>
<feGaussianBlur stdDeviation="14.5"/>
<feColorMatrix type="matrix" values="0 0 0 0 0.596078 0 0 0 0 0.678431 0 0 0 0 0.764706 0 0 0 0.09 0"/>
<feBlend mode="normal" in2="effect1_dropShadow_1374_13158" result="effect2_dropShadow_1374_13158"/>
<feColorMatrix in="SourceAlpha" type="matrix" values="0 0 0 0 0 0 0 0 0 0 0 0 0 0 0 0 0 0 127 0" result="hardAlpha"/>
<feOffset dy="64"/>
<feGaussianBlur stdDeviation="19.5"/>
<feColorMatrix type="matrix" values="0 0 0 0 0.596078 0 0 0 0 0.678431 0 0 0 0 0.764706 0 0 0 0.05 0"/>
<feBlend mode="normal" in2="effect2_dropShadow_1374_13158" result="effect3_dropShadow_1374_13158"/>
<feColorMatrix in="SourceAlpha" type="matrix" values="0 0 0 0 0 0 0 0 0 0 0 0 0 0 0 0 0 0 127 0" result="hardAlpha"/>
<feOffset dy="114"/>
<feGaussianBlur stdDeviation="23"/>
<feColorMatrix type="matrix" values="0 0 0 0 0.596078 0 0 0 0 0.678431 0 0 0 0 0.764706 0 0 0 0.01 0"/>
<feBlend mode="normal" in2="effect3_dropShadow_1374_13158" result="effect4_dropShadow_1374_13158"/>
<feBlend mode="normal" in="SourceGraphic" in2="effect4_dropShadow_1374_13158" result="shape"/>
</filter>
<clipPath id="clip0_1374_13158">
<rect x="55" y="18.3136" width="28.0932" height="27.3729" rx="13.6864" fill="white"/>
</clipPath>
</defs>
</svg>
