<svg width="260" height="215" viewBox="0 0 260 215" fill="none" xmlns="http://www.w3.org/2000/svg">
<g filter="url(#filter0_dddd_1374_13131)">
<rect x="46" y="9" width="168" height="46" rx="23" fill="white"/>
<rect width="59" height="46" transform="translate(46 9)" fill="#2050E0"/>
<path d="M75.4814 15.4691L75.9848 17.0185H77.6139L76.296 17.976L76.7994 19.5253L75.4814 18.5678L74.1635 19.5253L74.6669 17.976L73.349 17.0185H74.978L75.4814 15.4691Z" fill="#F9D827"/>
<path d="M75.4814 44.0464L75.9848 45.5957H77.6139L76.296 46.5532L76.7994 48.1025L75.4814 47.145L74.1635 48.1025L74.6669 46.5532L73.349 45.5957H74.978L75.4814 44.0464Z" fill="#F9D827"/>
<path d="M67.0342 42.7438L67.5376 44.2931H69.1666L67.8487 45.2506L68.3521 46.8L67.0342 45.8424L65.7163 46.8L66.2197 45.2506L64.9017 44.2931H66.5308L67.0342 42.7438Z" fill="#F9D827"/>
<path d="M68.2596 18.0329L68.763 19.5822H70.3921L69.0742 20.5397L69.5776 22.089L68.2596 21.1315L66.9417 22.089L67.4451 20.5397L66.1272 19.5822H67.7562L68.2596 18.0329Z" fill="#F9D827"/>
<path d="M83.9285 42.7438L84.4319 44.2931H86.0609L84.743 45.2506L85.2464 46.8L83.9285 45.8424L82.6105 46.8L83.1139 45.2506L81.796 44.2931H83.4251L83.9285 42.7438Z" fill="#F9D827"/>
<path d="M82.7037 18.0329L83.2071 19.5822H84.8362L83.5183 20.5397L84.0217 22.089L82.7037 21.1315L81.3858 22.089L81.8892 20.5397L80.5713 19.5822H82.2003L82.7037 18.0329Z" fill="#F9D827"/>
<path d="M88.5079 22.5182L89.0113 24.0675H90.6404L89.3225 25.0251L89.8259 26.5744L88.5079 25.6168L87.19 26.5744L87.6934 25.0251L86.3755 24.0675H88.0045L88.5079 22.5182Z" fill="#F9D827"/>
<path d="M88.5079 36.8102L89.0113 38.3595H90.6404L89.3225 39.3171L89.8259 40.8664L88.5079 39.9088L87.19 40.8664L87.6934 39.3171L86.3755 38.3595H88.0045L88.5079 36.8102Z" fill="#F9D827"/>
<path d="M62.9275 22.5182L63.4309 24.0675H65.0599L63.742 25.0251L64.2454 26.5744L62.9275 25.6168L61.6096 26.5744L62.113 25.0251L60.795 24.0675H62.4241L62.9275 22.5182Z" fill="#F9D827"/>
<path d="M62.4225 36.8102L62.9259 38.3595H64.5549L63.237 39.3171L63.7404 40.8664L62.4225 39.9088L61.1046 40.8664L61.608 39.3171L60.29 38.3595H61.9191L62.4225 36.8102Z" fill="#F9D827"/>
<path d="M61.161 29.8356L61.6644 31.3849H63.2935L61.9755 32.3424L62.4789 33.8918L61.161 32.9342L59.8431 33.8918L60.3465 32.3424L59.0286 31.3849H60.6576L61.161 29.8356Z" fill="#F9D827"/>
<path d="M89.8389 29.8356L90.3423 31.3849H91.9713L90.6534 32.3424L91.1568 33.8918L89.8389 32.9342L88.5209 33.8918L89.0243 32.3424L87.7064 31.3849H89.3355L89.8389 29.8356Z" fill="#F9D827"/>
<rect x="70.6373" y="30.7603" width="9.72533" height="6.44344" rx="1.10023" fill="white"/>
<rect x="73.2805" y="26.7964" width="4.67759" height="8.50987" rx="2.3388" stroke="white" stroke-width="1.46697"/>
<rect x="106" y="11.7526" width="100" height="40.4948" rx="4.75992" fill="white"/>
<path d="M112.986 29V21.5031H115.493C116.364 21.5031 117.081 21.6602 117.645 21.9744C118.216 22.2814 118.638 22.7169 118.909 23.281C119.187 23.8379 119.327 24.4947 119.327 25.2516C119.327 26.0084 119.187 26.6688 118.909 27.2329C118.638 27.7898 118.22 28.2253 117.656 28.5395C117.092 28.8465 116.371 29 115.493 29H112.986ZM114.432 27.7577H115.418C116.032 27.7577 116.514 27.6577 116.863 27.4578C117.22 27.2579 117.474 26.9723 117.624 26.601C117.774 26.2226 117.849 25.7728 117.849 25.2516C117.849 24.7232 117.774 24.2734 117.624 23.9021C117.474 23.5237 117.22 23.2345 116.863 23.0346C116.514 22.8347 116.032 22.7348 115.418 22.7348H114.432V27.7577ZM123.14 29.1285C122.597 29.1285 122.112 29.0357 121.683 28.8501C121.262 28.6644 120.926 28.3931 120.676 28.0361C120.434 27.6791 120.309 27.2472 120.302 26.7402H121.833C121.84 26.9616 121.897 27.1615 122.004 27.34C122.112 27.5185 122.258 27.6613 122.444 27.7684C122.636 27.8683 122.865 27.9183 123.129 27.9183C123.357 27.9183 123.554 27.8826 123.718 27.8112C123.889 27.7327 124.021 27.6256 124.114 27.4899C124.207 27.3543 124.253 27.1936 124.253 27.008C124.253 26.7938 124.2 26.6153 124.093 26.4725C123.993 26.3297 123.85 26.2083 123.664 26.1083C123.486 26.0084 123.275 25.9191 123.033 25.8406C122.797 25.7549 122.547 25.6657 122.283 25.5729C121.69 25.3801 121.237 25.123 120.923 24.8018C120.616 24.4805 120.462 24.0556 120.462 23.5273C120.462 23.0775 120.569 22.6919 120.783 22.3706C121.005 22.0493 121.308 21.803 121.694 21.6316C122.079 21.4603 122.518 21.3746 123.011 21.3746C123.518 21.3746 123.961 21.4639 124.339 21.6424C124.725 21.8137 125.028 22.0636 125.249 22.392C125.478 22.7205 125.596 23.106 125.603 23.5487H124.061C124.054 23.3845 124.004 23.231 123.911 23.0882C123.825 22.9382 123.704 22.8204 123.547 22.7348C123.39 22.6419 123.204 22.5955 122.99 22.5955C122.804 22.5884 122.633 22.6169 122.476 22.6812C122.326 22.7455 122.204 22.8419 122.112 22.9704C122.026 23.0917 121.983 23.2453 121.983 23.4309C121.983 23.6094 122.026 23.7593 122.112 23.8807C122.204 24.0021 122.329 24.1092 122.486 24.202C122.643 24.2877 122.829 24.3698 123.043 24.4483C123.257 24.5197 123.49 24.5947 123.739 24.6732C124.111 24.8018 124.453 24.9553 124.768 25.1338C125.082 25.3051 125.332 25.53 125.517 25.8085C125.703 26.0869 125.796 26.4546 125.796 26.9116C125.796 27.3043 125.692 27.6684 125.485 28.004C125.278 28.3396 124.978 28.6109 124.585 28.8179C124.2 29.025 123.718 29.1285 123.14 29.1285ZM130.31 29.1285C129.596 29.1285 128.975 28.9714 128.447 28.6573C127.918 28.336 127.508 27.8897 127.215 27.3186C126.922 26.7402 126.776 26.0691 126.776 25.3051C126.776 24.534 126.926 23.8557 127.226 23.2702C127.525 22.6776 127.957 22.2135 128.522 21.878C129.086 21.5424 129.76 21.3746 130.546 21.3746C131.424 21.3746 132.152 21.5852 132.73 22.0065C133.316 22.4277 133.694 23.0132 133.866 23.7629H132.249C132.141 23.4345 131.942 23.1774 131.649 22.9918C131.363 22.799 130.992 22.7026 130.535 22.7026C130.049 22.7026 129.635 22.8097 129.293 23.0239C128.95 23.2381 128.689 23.538 128.511 23.9235C128.332 24.3091 128.243 24.7696 128.243 25.3051C128.243 25.8477 128.332 26.3083 128.511 26.6867C128.689 27.0651 128.943 27.3543 129.271 27.5542C129.607 27.747 129.999 27.8433 130.449 27.8433C131.106 27.8433 131.602 27.6684 131.938 27.3186C132.281 26.9616 132.484 26.501 132.548 25.937H130.706V24.8553H134.005V29H132.666L132.559 28.0468C132.402 28.2824 132.216 28.4824 132.002 28.6466C131.795 28.8037 131.552 28.9215 131.274 29C130.995 29.0857 130.674 29.1285 130.31 29.1285ZM137.51 29L134.779 21.5031H136.322L138.399 27.522L140.488 21.5031H142.019L139.288 29H137.51ZM146.128 29.1285C145.4 29.1285 144.757 28.9643 144.2 28.6359C143.643 28.3074 143.208 27.854 142.893 27.2757C142.579 26.6902 142.422 26.0155 142.422 25.2516C142.422 24.4876 142.579 23.8164 142.893 23.2381C143.208 22.6526 143.643 22.1957 144.2 21.8673C144.757 21.5388 145.4 21.3746 146.128 21.3746C146.863 21.3746 147.509 21.5388 148.066 21.8673C148.623 22.1957 149.055 22.6526 149.362 23.2381C149.676 23.8164 149.833 24.4876 149.833 25.2516C149.833 26.0155 149.676 26.6902 149.362 27.2757C149.055 27.854 148.623 28.3074 148.066 28.6359C147.509 28.9643 146.863 29.1285 146.128 29.1285ZM146.128 27.8326C146.585 27.8326 146.977 27.7291 147.306 27.522C147.641 27.3078 147.902 27.008 148.088 26.6224C148.273 26.2369 148.366 25.7799 148.366 25.2516C148.366 24.7161 148.273 24.2591 148.088 23.8807C147.902 23.4952 147.641 23.1988 147.306 22.9918C146.977 22.7847 146.585 22.6812 146.128 22.6812C145.678 22.6812 145.285 22.7847 144.95 22.9918C144.614 23.1988 144.354 23.4952 144.168 23.8807C143.982 24.2591 143.889 24.7161 143.889 25.2516C143.889 25.7799 143.982 26.2369 144.168 26.6224C144.354 27.008 144.614 27.3078 144.95 27.522C145.285 27.7291 145.678 27.8326 146.128 27.8326ZM159.232 29L155.162 24.9517C154.833 24.6233 154.601 24.3269 154.466 24.0628C154.33 23.7915 154.262 23.5059 154.262 23.206C154.262 22.8633 154.348 22.5527 154.519 22.2742C154.691 21.9958 154.941 21.778 155.269 21.6209C155.605 21.4567 156.004 21.3746 156.468 21.3746C156.933 21.3746 157.322 21.4603 157.636 21.6316C157.957 21.803 158.2 22.0279 158.364 22.3064C158.535 22.5848 158.618 22.899 158.61 23.2488H157.229C157.229 22.9918 157.154 22.799 157.004 22.6705C156.854 22.542 156.668 22.4777 156.447 22.4777C156.204 22.4777 156.008 22.5455 155.858 22.6812C155.715 22.8097 155.644 22.9811 155.644 23.1953C155.644 23.3666 155.697 23.5451 155.804 23.7308C155.912 23.9164 156.076 24.1235 156.297 24.3519L160.956 29H159.232ZM155.976 29.1178C155.426 29.1178 154.948 29.025 154.541 28.8394C154.141 28.6466 153.83 28.3788 153.609 28.0361C153.388 27.6934 153.277 27.29 153.277 26.8259C153.277 26.4689 153.352 26.1369 153.502 25.8299C153.652 25.5157 153.877 25.2409 154.177 25.0052C154.476 24.7625 154.848 24.5697 155.29 24.4269L155.837 24.2555L156.468 25.1552L155.976 25.3158C155.54 25.4586 155.215 25.6514 155.001 25.8942C154.794 26.1369 154.691 26.4189 154.691 26.7402C154.691 26.9616 154.744 27.1651 154.851 27.3507C154.958 27.5292 155.115 27.672 155.322 27.7791C155.53 27.8862 155.772 27.9397 156.051 27.9397C156.436 27.9397 156.783 27.854 157.09 27.6827C157.397 27.5113 157.693 27.2364 157.979 26.858C158.107 26.6867 158.236 26.4939 158.364 26.2797C158.493 26.0655 158.621 25.8263 158.75 25.5621L158.975 25.1016H160.442L160.078 25.8406C159.899 26.2119 159.717 26.551 159.531 26.858C159.346 27.1651 159.153 27.4364 158.953 27.672C158.546 28.1789 158.1 28.5466 157.614 28.7751C157.136 29.0036 156.59 29.1178 155.976 29.1178ZM167.763 29.1285C167.049 29.1285 166.428 28.9714 165.9 28.6573C165.371 28.336 164.961 27.8897 164.668 27.3186C164.375 26.7402 164.229 26.0691 164.229 25.3051C164.229 24.534 164.379 23.8557 164.679 23.2702C164.978 22.6776 165.41 22.2135 165.975 21.878C166.539 21.5424 167.213 21.3746 167.999 21.3746C168.877 21.3746 169.605 21.5852 170.183 22.0065C170.769 22.4277 171.147 23.0132 171.319 23.7629H169.702C169.594 23.4345 169.395 23.1774 169.102 22.9918C168.816 22.799 168.445 22.7026 167.988 22.7026C167.502 22.7026 167.088 22.8097 166.746 23.0239C166.403 23.2381 166.142 23.538 165.964 23.9235C165.785 24.3091 165.696 24.7696 165.696 25.3051C165.696 25.8477 165.785 26.3083 165.964 26.6867C166.142 27.0651 166.396 27.3543 166.724 27.5542C167.06 27.747 167.452 27.8433 167.902 27.8433C168.559 27.8433 169.055 27.6684 169.391 27.3186C169.734 26.9616 169.937 26.501 170.001 25.937H168.159V24.8553H171.458V29H170.119L170.012 28.0468C169.855 28.2824 169.669 28.4824 169.455 28.6466C169.248 28.8037 169.005 28.9215 168.727 29C168.448 29.0857 168.127 29.1285 167.763 29.1285ZM172.811 29V21.5031H175.317C176.188 21.5031 176.906 21.6602 177.47 21.9744C178.041 22.2814 178.462 22.7169 178.733 23.281C179.012 23.8379 179.151 24.4947 179.151 25.2516C179.151 26.0084 179.012 26.6688 178.733 27.2329C178.462 27.7898 178.044 28.2253 177.48 28.5395C176.916 28.8465 176.195 29 175.317 29H172.811ZM174.257 27.7577H175.242C175.856 27.7577 176.338 27.6577 176.688 27.4578C177.045 27.2579 177.298 26.9723 177.448 26.601C177.598 26.2226 177.673 25.7728 177.673 25.2516C177.673 24.7232 177.598 24.2734 177.448 23.9021C177.298 23.5237 177.045 23.2345 176.688 23.0346C176.338 22.8347 175.856 22.7348 175.242 22.7348H174.257V27.7577ZM180.383 29V21.5031H183.189C183.796 21.5031 184.299 21.6067 184.699 21.8137C185.099 22.0208 185.395 22.2992 185.588 22.6491C185.781 22.9989 185.877 23.3988 185.877 23.8486C185.877 24.2627 185.784 24.6447 185.599 24.9945C185.413 25.3444 185.12 25.63 184.72 25.8513C184.321 26.0655 183.81 26.1726 183.189 26.1726H181.829V29H180.383ZM181.829 25.0052H183.103C183.567 25.0052 183.899 24.9017 184.099 24.6947C184.306 24.4805 184.41 24.1984 184.41 23.8486C184.41 23.4773 184.306 23.1917 184.099 22.9918C183.899 22.7847 183.567 22.6812 183.103 22.6812H181.829V25.0052ZM186.962 29V21.5031H189.757C190.364 21.5031 190.864 21.6067 191.256 21.8137C191.649 22.0208 191.942 22.2992 192.134 22.6491C192.327 22.9918 192.424 23.3738 192.424 23.795C192.424 24.1949 192.331 24.5697 192.145 24.9196C191.959 25.2623 191.667 25.5407 191.267 25.7549C190.874 25.962 190.367 26.0655 189.746 26.0655H188.407V29H186.962ZM190.849 29L189.307 25.7014H190.871L192.499 29H190.849ZM188.407 25.0159H189.671C190.107 25.0159 190.428 24.9088 190.635 24.6947C190.842 24.4805 190.946 24.1984 190.946 23.8486C190.946 23.4987 190.842 23.2238 190.635 23.0239C190.435 22.8169 190.114 22.7133 189.671 22.7133H188.407V25.0159ZM116.306 43.1285C115.578 43.1285 114.946 42.9679 114.411 42.6466C113.882 42.3181 113.475 41.8648 113.19 41.2864C112.904 40.701 112.762 40.0227 112.762 39.2516C112.762 38.4805 112.904 37.8057 113.19 37.2274C113.475 36.6419 113.882 36.1886 114.411 35.8673C114.946 35.5388 115.578 35.3746 116.306 35.3746C117.163 35.3746 117.859 35.5781 118.395 35.9851C118.93 36.392 119.273 36.9668 119.423 37.7093H118.427C118.313 37.2453 118.081 36.874 117.731 36.5955C117.381 36.3099 116.906 36.1671 116.306 36.1671C115.771 36.1671 115.307 36.2921 114.914 36.542C114.521 36.7847 114.218 37.1382 114.004 37.6023C113.79 38.0592 113.683 38.609 113.683 39.2516C113.683 39.8942 113.79 40.4475 114.004 40.9116C114.218 41.3685 114.521 41.722 114.914 41.9719C115.307 42.2146 115.771 42.336 116.306 42.336C116.906 42.336 117.381 42.2003 117.731 41.929C118.081 41.6506 118.313 41.2829 118.427 40.8259H119.423C119.273 41.547 118.93 42.1111 118.395 42.5181C117.859 42.925 117.163 43.1285 116.306 43.1285ZM124.069 43.1285C123.348 43.1285 122.712 42.9679 122.163 42.6466C121.62 42.3181 121.195 41.8648 120.888 41.2864C120.588 40.701 120.438 40.0227 120.438 39.2516C120.438 38.4876 120.588 37.8164 120.888 37.2381C121.195 36.6526 121.62 36.1957 122.163 35.8673C122.712 35.5388 123.348 35.3746 124.069 35.3746C124.804 35.3746 125.443 35.5388 125.986 35.8673C126.529 36.1957 126.95 36.6526 127.25 37.2381C127.557 37.8164 127.71 38.4876 127.71 39.2516C127.71 40.0227 127.557 40.701 127.25 41.2864C126.95 41.8648 126.529 42.3181 125.986 42.6466C125.443 42.9679 124.804 43.1285 124.069 43.1285ZM124.069 42.336C124.612 42.336 125.086 42.2146 125.493 41.9719C125.907 41.722 126.225 41.3685 126.446 40.9116C126.675 40.4475 126.789 39.8942 126.789 39.2516C126.789 38.609 126.675 38.0592 126.446 37.6023C126.225 37.1382 125.907 36.7847 125.493 36.542C125.086 36.2992 124.612 36.1778 124.069 36.1778C123.533 36.1778 123.059 36.2992 122.644 36.542C122.238 36.7847 121.92 37.1382 121.691 37.6023C121.47 38.0592 121.359 38.609 121.359 39.2516C121.359 39.8942 121.47 40.4475 121.691 40.9116C121.92 41.3685 122.238 41.722 122.644 41.9719C123.059 42.2146 123.533 42.336 124.069 42.336ZM129.021 43V35.5031H130.071L132.716 40.7402L135.372 35.5031H136.432V43H135.533V37.1096L133.059 41.9504H132.384L129.921 37.131V43H129.021ZM138.026 43V35.5031H140.468C141.061 35.5031 141.546 35.6031 141.925 35.803C142.31 35.9958 142.592 36.2564 142.771 36.5848C142.956 36.9133 143.049 37.2881 143.049 37.7093C143.049 38.1163 142.956 38.4876 142.771 38.8232C142.592 39.1516 142.314 39.4158 141.935 39.6157C141.557 39.8156 141.068 39.9156 140.468 39.9156H138.926V43H138.026ZM138.926 39.1552H140.457C141.057 39.1552 141.486 39.0231 141.743 38.7589C142 38.4947 142.128 38.1449 142.128 37.7093C142.128 37.2453 142 36.8883 141.743 36.6384C141.486 36.3813 141.057 36.2528 140.457 36.2528H138.926V39.1552ZM144.239 43V35.5031H145.138V42.2824H148.63V43H144.239ZM149.887 43V35.5031H150.786V43H149.887ZM151.915 43L154.678 35.5031H155.631L158.384 43H157.43L155.149 36.6277L152.857 43H151.915ZM153.179 41.0722L153.436 40.344H156.831L157.088 41.0722H153.179ZM159.509 43V35.5031H160.408L164.403 41.5113V35.5031H165.303V43H164.403L160.408 36.9918V43H159.509ZM168.67 43V36.2421H166.432V35.5031H171.808V36.2421H169.57V43H168.67Z" fill="#172A47"/>
</g>
<defs>
<filter id="filter0_dddd_1374_13131" x="0" y="0" width="260" height="215" filterUnits="userSpaceOnUse" color-interpolation-filters="sRGB">
<feFlood flood-opacity="0" result="BackgroundImageFix"/>
<feColorMatrix in="SourceAlpha" type="matrix" values="0 0 0 0 0 0 0 0 0 0 0 0 0 0 0 0 0 0 127 0" result="hardAlpha"/>
<feOffset dy="7"/>
<feGaussianBlur stdDeviation="8"/>
<feColorMatrix type="matrix" values="0 0 0 0 0.596078 0 0 0 0 0.678431 0 0 0 0 0.764706 0 0 0 0.1 0"/>
<feBlend mode="normal" in2="BackgroundImageFix" result="effect1_dropShadow_1374_13131"/>
<feColorMatrix in="SourceAlpha" type="matrix" values="0 0 0 0 0 0 0 0 0 0 0 0 0 0 0 0 0 0 127 0" result="hardAlpha"/>
<feOffset dy="29"/>
<feGaussianBlur stdDeviation="14.5"/>
<feColorMatrix type="matrix" values="0 0 0 0 0.596078 0 0 0 0 0.678431 0 0 0 0 0.764706 0 0 0 0.09 0"/>
<feBlend mode="normal" in2="effect1_dropShadow_1374_13131" result="effect2_dropShadow_1374_13131"/>
<feColorMatrix in="SourceAlpha" type="matrix" values="0 0 0 0 0 0 0 0 0 0 0 0 0 0 0 0 0 0 127 0" result="hardAlpha"/>
<feOffset dy="64"/>
<feGaussianBlur stdDeviation="19.5"/>
<feColorMatrix type="matrix" values="0 0 0 0 0.596078 0 0 0 0 0.678431 0 0 0 0 0.764706 0 0 0 0.05 0"/>
<feBlend mode="normal" in2="effect2_dropShadow_1374_13131" result="effect3_dropShadow_1374_13131"/>
<feColorMatrix in="SourceAlpha" type="matrix" values="0 0 0 0 0 0 0 0 0 0 0 0 0 0 0 0 0 0 127 0" result="hardAlpha"/>
<feOffset dy="114"/>
<feGaussianBlur stdDeviation="23"/>
<feColorMatrix type="matrix" values="0 0 0 0 0.596078 0 0 0 0 0.678431 0 0 0 0 0.764706 0 0 0 0.01 0"/>
<feBlend mode="normal" in2="effect3_dropShadow_1374_13131" result="effect4_dropShadow_1374_13131"/>
<feBlend mode="normal" in="SourceGraphic" in2="effect4_dropShadow_1374_13131" result="shape"/>
</filter>
</defs>
</svg>
