<svg width="260" height="215" viewBox="0 0 260 215" fill="none" xmlns="http://www.w3.org/2000/svg">
<g filter="url(#filter0_dddd_1374_13196)">
<rect x="46" y="9" width="168" height="46" rx="23" fill="white"/>
<g clip-path="url(#clip0_1374_13196)">
<rect x="55" y="18" width="28" height="28" fill="#006980"/>
<path d="M69.9167 23.7519C69.4859 23.7506 69.0275 23.75 68.5417 23.75C64.4369 23.75 62.3835 23.75 61.1085 25.0251C59.8334 26.3002 59.8334 28.3526 59.8334 32.4584C59.8334 36.5632 59.8334 38.6165 61.1085 39.8916C62.3835 41.1667 64.436 41.1667 68.5417 41.1667C72.6465 41.1667 74.6999 41.1667 75.975 39.8916C77.25 38.6165 77.25 36.5641 77.25 32.4584C77.25 31.9725 77.2494 31.5142 77.2482 31.0834" stroke="white" stroke-width="1.5" stroke-linecap="round"/>
<path d="M74.9583 22.8334L75.1948 23.4723C75.5047 24.3101 75.6596 24.729 75.9648 25.0343C76.271 25.3405 76.6899 25.4954 77.5277 25.8052L78.1667 26.0417L77.5277 26.2782C76.6899 26.588 76.271 26.743 75.9658 27.0482C75.6596 27.3544 75.5047 27.7733 75.1948 28.6111L74.9583 29.25L74.7218 28.6111C74.412 27.7733 74.2571 27.3544 73.9518 27.0491C73.6457 26.743 73.2267 26.588 72.3889 26.2782L71.75 26.0417L72.3889 25.8052C73.2267 25.4954 73.6457 25.3405 73.9509 25.0352C74.2571 24.729 74.412 24.3101 74.7218 23.4723L74.9583 22.8334Z" stroke="white" stroke-width="1.5" stroke-linejoin="round"/>
<path d="M64.4167 37.0417C66.5544 34.8032 70.5062 34.6978 72.6667 37.0417M70.8288 30.1667C70.8288 31.4317 69.8022 32.4584 68.5344 32.4584C68.2332 32.4588 67.9348 32.3999 67.6563 32.285C67.3778 32.17 67.1248 32.0013 66.9116 31.7884C66.6984 31.5756 66.5293 31.3228 66.4139 31.0445C66.2985 30.7663 66.2391 30.468 66.2391 30.1667C66.2391 28.9017 67.2657 27.875 68.5344 27.875C68.8356 27.8747 69.1339 27.9337 69.4122 28.0487C69.6906 28.1637 69.9436 28.3324 70.1566 28.5453C70.3697 28.7581 70.5388 29.0109 70.6541 29.2891C70.7695 29.5673 70.8288 29.8655 70.8288 30.1667Z" stroke="white" stroke-width="1.5" stroke-linecap="round"/>
</g>
<path d="M92.7388 35.5L95.6184 27.6262H97.1257L100.005 35.5H98.5767L96.3608 29.201L94.1449 35.5H92.7388ZM94.0211 33.644L94.3811 32.5755H98.2617L98.6217 33.644H94.0211ZM101.088 35.5V27.6262H102.438V35.5H101.088ZM104.066 32.7442V31.6193H108.723V32.7442H104.066ZM110.381 35.5V27.6262H113.216C113.846 27.6262 114.367 27.735 114.779 27.9524C115.192 28.1624 115.499 28.4473 115.702 28.8073C115.904 29.1672 116.005 29.5797 116.005 30.0446C116.005 30.4795 115.908 30.8807 115.713 31.2482C115.518 31.6081 115.214 31.9006 114.802 32.1255C114.389 32.343 113.861 32.4517 113.216 32.4517H111.731V35.5H110.381ZM111.731 31.3494H113.137C113.67 31.3494 114.052 31.2332 114.284 31.0007C114.517 30.7607 114.633 30.442 114.633 30.0446C114.633 29.6322 114.517 29.3097 114.284 29.0772C114.052 28.8448 113.67 28.7285 113.137 28.7285H111.731V31.3494ZM119.472 35.635C118.932 35.635 118.444 35.5112 118.009 35.2638C117.582 35.0088 117.244 34.6601 116.997 34.2177C116.757 33.7678 116.637 33.2541 116.637 32.6767C116.637 32.0843 116.761 31.5669 117.008 31.1244C117.256 30.6745 117.593 30.3258 118.021 30.0783C118.455 29.8234 118.943 29.6959 119.483 29.6959C120.023 29.6959 120.506 29.8234 120.934 30.0783C121.369 30.3258 121.706 30.6707 121.946 31.1132C122.194 31.5556 122.317 32.073 122.317 32.6654C122.317 33.2578 122.194 33.7753 121.946 34.2177C121.699 34.6601 121.358 35.0088 120.923 35.2638C120.495 35.5112 120.011 35.635 119.472 35.635ZM119.472 34.4764C119.742 34.4764 119.985 34.4089 120.203 34.2739C120.428 34.139 120.608 33.9365 120.743 33.6665C120.878 33.3966 120.945 33.0629 120.945 32.6654C120.945 32.268 120.878 31.9381 120.743 31.6756C120.615 31.4056 120.439 31.2032 120.214 31.0682C119.996 30.9332 119.753 30.8657 119.483 30.8657C119.22 30.8657 118.977 30.9332 118.752 31.0682C118.527 31.2032 118.347 31.4056 118.212 31.6756C118.077 31.9381 118.009 32.268 118.009 32.6654C118.009 33.0629 118.077 33.3966 118.212 33.6665C118.347 33.9365 118.523 34.139 118.74 34.2739C118.965 34.4089 119.209 34.4764 119.472 34.4764ZM124.566 35.5L122.901 29.8309H124.24L125.398 34.4877L125.151 34.4764L126.444 29.8309H127.952L129.256 34.4764H129.009L130.167 29.8309H131.506L129.841 35.5H128.446L127.063 30.697H127.344L125.961 35.5H124.566ZM134.927 35.635C134.365 35.635 133.87 35.515 133.442 35.275C133.015 35.0276 132.681 34.6826 132.441 34.2402C132.201 33.7978 132.081 33.2878 132.081 32.7104C132.081 32.1105 132.198 31.5856 132.43 31.1357C132.67 30.6857 133.004 30.3333 133.431 30.0783C133.866 29.8234 134.369 29.6959 134.938 29.6959C135.493 29.6959 135.977 29.8196 136.389 30.0671C136.802 30.3146 137.121 30.6483 137.346 31.0682C137.571 31.4806 137.683 31.9455 137.683 32.463C137.683 32.538 137.683 32.6204 137.683 32.7104C137.683 32.8004 137.676 32.8942 137.661 32.9916H133.049V32.1255H136.322C136.307 31.7131 136.168 31.3906 135.906 31.1582C135.643 30.9182 135.317 30.7982 134.927 30.7982C134.65 30.7982 134.395 30.862 134.162 30.9894C133.93 31.1169 133.746 31.3081 133.611 31.5631C133.476 31.8106 133.409 32.1255 133.409 32.508V32.8342C133.409 33.1866 133.472 33.4903 133.6 33.7453C133.735 34.0002 133.915 34.1952 134.14 34.3302C134.372 34.4577 134.631 34.5214 134.916 34.5214C135.231 34.5214 135.49 34.4539 135.692 34.3189C135.902 34.184 136.056 34.004 136.153 33.779H137.526C137.421 34.1315 137.248 34.4502 137.008 34.7351C136.768 35.0126 136.472 35.2338 136.12 35.3988C135.767 35.5562 135.37 35.635 134.927 35.635ZM138.929 35.5V29.8309H140.133L140.257 30.8882C140.392 30.6408 140.56 30.4308 140.763 30.2583C140.965 30.0783 141.201 29.9396 141.471 29.8421C141.749 29.7446 142.053 29.6959 142.383 29.6959V31.1244H141.91C141.685 31.1244 141.471 31.1544 141.269 31.2144C141.066 31.2669 140.89 31.3569 140.74 31.4844C140.598 31.6044 140.485 31.7731 140.403 31.9905C140.32 32.2005 140.279 32.4667 140.279 32.7892V35.5H138.929ZM145.934 35.635C145.371 35.635 144.876 35.515 144.449 35.275C144.022 35.0276 143.688 34.6826 143.448 34.2402C143.208 33.7978 143.088 33.2878 143.088 32.7104C143.088 32.1105 143.204 31.5856 143.437 31.1357C143.677 30.6857 144.01 30.3333 144.438 30.0783C144.873 29.8234 145.375 29.6959 145.945 29.6959C146.5 29.6959 146.984 29.8196 147.396 30.0671C147.809 30.3146 148.127 30.6483 148.352 31.0682C148.577 31.4806 148.69 31.9455 148.69 32.463C148.69 32.538 148.69 32.6204 148.69 32.7104C148.69 32.8004 148.682 32.8942 148.667 32.9916H144.055V32.1255H147.329C147.314 31.7131 147.175 31.3906 146.912 31.1582C146.65 30.9182 146.324 30.7982 145.934 30.7982C145.656 30.7982 145.401 30.862 145.169 30.9894C144.936 31.1169 144.753 31.3081 144.618 31.5631C144.483 31.8106 144.415 32.1255 144.415 32.508V32.8342C144.415 33.1866 144.479 33.4903 144.607 33.7453C144.741 34.0002 144.921 34.1952 145.146 34.3302C145.379 34.4577 145.638 34.5214 145.923 34.5214C146.238 34.5214 146.496 34.4539 146.699 34.3189C146.909 34.184 147.062 34.004 147.16 33.779H148.532C148.427 34.1315 148.255 34.4502 148.015 34.7351C147.775 35.0126 147.479 35.2338 147.126 35.3988C146.774 35.5562 146.376 35.635 145.934 35.635ZM152.456 35.635C151.931 35.635 151.462 35.5075 151.049 35.2525C150.637 34.9976 150.315 34.6451 150.082 34.1952C149.857 33.7453 149.745 33.2354 149.745 32.6654C149.745 32.0955 149.861 31.5894 150.093 31.1469C150.326 30.697 150.648 30.3445 151.061 30.0896C151.481 29.8271 151.953 29.6959 152.478 29.6959C152.905 29.6959 153.277 29.7784 153.592 29.9434C153.914 30.1008 154.169 30.3258 154.356 30.6183V27.4013H155.706V35.5H154.491L154.356 34.6789C154.236 34.8439 154.09 35.0013 153.918 35.1513C153.745 35.2938 153.539 35.41 153.299 35.5C153.059 35.59 152.778 35.635 152.456 35.635ZM152.737 34.4652C153.059 34.4652 153.344 34.3902 153.592 34.2402C153.839 34.0827 154.03 33.869 154.165 33.599C154.3 33.3291 154.368 33.0179 154.368 32.6654C154.368 32.313 154.3 32.0018 154.165 31.7318C154.03 31.4619 153.839 31.2519 153.592 31.1019C153.344 30.952 153.059 30.877 152.737 30.877C152.429 30.877 152.152 30.952 151.904 31.1019C151.657 31.2519 151.462 31.4619 151.319 31.7318C151.184 32.0018 151.117 32.313 151.117 32.6654C151.117 33.0179 151.184 33.3291 151.319 33.599C151.462 33.869 151.657 34.0827 151.904 34.2402C152.152 34.3902 152.429 34.4652 152.737 34.4652Z" fill="black"/>
</g>
<defs>
<filter id="filter0_dddd_1374_13196" x="0" y="0" width="260" height="215" filterUnits="userSpaceOnUse" color-interpolation-filters="sRGB">
<feFlood flood-opacity="0" result="BackgroundImageFix"/>
<feColorMatrix in="SourceAlpha" type="matrix" values="0 0 0 0 0 0 0 0 0 0 0 0 0 0 0 0 0 0 127 0" result="hardAlpha"/>
<feOffset dy="7"/>
<feGaussianBlur stdDeviation="8"/>
<feColorMatrix type="matrix" values="0 0 0 0 0.596078 0 0 0 0 0.678431 0 0 0 0 0.764706 0 0 0 0.1 0"/>
<feBlend mode="normal" in2="BackgroundImageFix" result="effect1_dropShadow_1374_13196"/>
<feColorMatrix in="SourceAlpha" type="matrix" values="0 0 0 0 0 0 0 0 0 0 0 0 0 0 0 0 0 0 127 0" result="hardAlpha"/>
<feOffset dy="29"/>
<feGaussianBlur stdDeviation="14.5"/>
<feColorMatrix type="matrix" values="0 0 0 0 0.596078 0 0 0 0 0.678431 0 0 0 0 0.764706 0 0 0 0.09 0"/>
<feBlend mode="normal" in2="effect1_dropShadow_1374_13196" result="effect2_dropShadow_1374_13196"/>
<feColorMatrix in="SourceAlpha" type="matrix" values="0 0 0 0 0 0 0 0 0 0 0 0 0 0 0 0 0 0 127 0" result="hardAlpha"/>
<feOffset dy="64"/>
<feGaussianBlur stdDeviation="19.5"/>
<feColorMatrix type="matrix" values="0 0 0 0 0.596078 0 0 0 0 0.678431 0 0 0 0 0.764706 0 0 0 0.05 0"/>
<feBlend mode="normal" in2="effect2_dropShadow_1374_13196" result="effect3_dropShadow_1374_13196"/>
<feColorMatrix in="SourceAlpha" type="matrix" values="0 0 0 0 0 0 0 0 0 0 0 0 0 0 0 0 0 0 127 0" result="hardAlpha"/>
<feOffset dy="114"/>
<feGaussianBlur stdDeviation="23"/>
<feColorMatrix type="matrix" values="0 0 0 0 0.596078 0 0 0 0 0.678431 0 0 0 0 0.764706 0 0 0 0.01 0"/>
<feBlend mode="normal" in2="effect3_dropShadow_1374_13196" result="effect4_dropShadow_1374_13196"/>
<feBlend mode="normal" in="SourceGraphic" in2="effect4_dropShadow_1374_13196" result="shape"/>
</filter>
<clipPath id="clip0_1374_13196">
<rect x="55" y="18.3136" width="28.0932" height="27.3729" rx="13.6864" fill="white"/>
</clipPath>
</defs>
</svg>
