<svg width="260" height="215" viewBox="0 0 260 215" fill="none" xmlns="http://www.w3.org/2000/svg">
<g filter="url(#filter0_dddd_1374_13205)">
<rect x="46" y="9" width="168" height="46" rx="23" fill="white"/>
<g clip-path="url(#clip0_1374_13205)">
<rect x="55" y="18" width="28" height="28" fill="#007AFF"/>
<path d="M65.3333 25.5128V28.8975L67.5897 30.0257M72.8922 29.4625C76.0051 29.5872 78.4277 32.2118 78.303 35.3247C78.1784 38.4377 75.5538 40.8602 72.4408 40.7356C69.8144 40.6304 67.6795 38.7457 67.1511 36.2896M70.9743 37.1127C71.251 37.4148 71.6309 37.6284 72.0565 37.7212C73.0186 37.9427 73.9655 37.5534 74.1715 36.8524C74.3775 36.1507 73.6329 35.3858 72.6713 35.1639C71.7096 34.942 70.9646 34.1775 71.1706 33.4761C71.3767 32.7747 72.3231 32.3859 73.2852 32.6074C73.7006 32.6961 74.0763 32.9056 74.3589 33.2061M72.7178 37.7832V38.4872M72.7178 31.718V32.5453M70.9743 28.8975C70.9743 32.0129 68.4487 34.5385 65.3333 34.5385C62.2178 34.5385 59.6923 32.0129 59.6923 28.8975C59.6923 25.782 62.2178 23.2564 65.3333 23.2564C68.4487 23.2564 70.9743 25.782 70.9743 28.8975Z" stroke="white" stroke-width="1.5" stroke-linecap="round" stroke-linejoin="round"/>
</g>
<path d="M95.0897 35.5V28.7173H92.7726V27.6262H98.7454V28.7173H96.4283V35.5H95.0897ZM99.8693 35.5V29.8309H101.219V35.5H99.8693ZM100.544 28.931C100.297 28.931 100.09 28.856 99.9255 28.7061C99.768 28.5486 99.6893 28.3574 99.6893 28.1324C99.6893 27.8999 99.768 27.7125 99.9255 27.57C100.09 27.42 100.297 27.345 100.544 27.345C100.792 27.345 100.994 27.42 101.152 27.57C101.317 27.7125 101.399 27.8999 101.399 28.1324C101.399 28.3574 101.317 28.5486 101.152 28.7061C100.994 28.856 100.792 28.931 100.544 28.931ZM102.779 35.5V29.8309H103.971L104.084 30.607C104.264 30.3221 104.5 30.1008 104.792 29.9434C105.092 29.7784 105.433 29.6959 105.816 29.6959C106.101 29.6959 106.356 29.7334 106.581 29.8084C106.813 29.8834 107.016 29.9959 107.188 30.1458C107.368 30.2958 107.514 30.4833 107.627 30.7082C107.837 30.3933 108.111 30.1458 108.448 29.9659C108.785 29.7859 109.153 29.6959 109.55 29.6959C110.023 29.6959 110.424 29.7934 110.754 29.9884C111.084 30.1758 111.335 30.457 111.508 30.832C111.68 31.1994 111.766 31.6531 111.766 32.193V35.5H110.428V32.328C110.428 31.8481 110.33 31.4806 110.135 31.2257C109.94 30.9707 109.652 30.8432 109.269 30.8432C109.007 30.8432 108.774 30.907 108.572 31.0344C108.377 31.1619 108.223 31.3494 108.111 31.5969C107.998 31.8368 107.942 32.133 107.942 32.4855V35.5H106.603V32.328C106.603 31.8481 106.506 31.4806 106.311 31.2257C106.116 30.9707 105.823 30.8432 105.433 30.8432C105.186 30.8432 104.961 30.907 104.759 31.0344C104.564 31.1619 104.41 31.3494 104.297 31.5969C104.185 31.8368 104.129 32.133 104.129 32.4855V35.5H102.779ZM115.847 35.635C115.284 35.635 114.79 35.515 114.362 35.275C113.935 35.0276 113.601 34.6826 113.361 34.2402C113.121 33.7978 113.001 33.2878 113.001 32.7104C113.001 32.1105 113.117 31.5856 113.35 31.1357C113.59 30.6857 113.923 30.3333 114.351 30.0783C114.786 29.8234 115.288 29.6959 115.858 29.6959C116.413 29.6959 116.897 29.8196 117.309 30.0671C117.722 30.3146 118.04 30.6483 118.265 31.0682C118.49 31.4806 118.603 31.9455 118.603 32.463C118.603 32.538 118.603 32.6204 118.603 32.7104C118.603 32.8004 118.595 32.8942 118.58 32.9916H113.968V32.1255H117.242C117.227 31.7131 117.088 31.3906 116.826 31.1582C116.563 30.9182 116.237 30.7982 115.847 30.7982C115.569 30.7982 115.314 30.862 115.082 30.9894C114.85 31.1169 114.666 31.3081 114.531 31.5631C114.396 31.8106 114.328 32.1255 114.328 32.508V32.8342C114.328 33.1866 114.392 33.4903 114.52 33.7453C114.655 34.0002 114.835 34.1952 115.06 34.3302C115.292 34.4577 115.551 34.5214 115.836 34.5214C116.151 34.5214 116.409 34.4539 116.612 34.3189C116.822 34.184 116.975 34.004 117.073 33.779H118.445C118.34 34.1315 118.168 34.4502 117.928 34.7351C117.688 35.0126 117.392 35.2338 117.039 35.3988C116.687 35.5562 116.289 35.635 115.847 35.635ZM125.283 35.635C124.714 35.635 124.207 35.5337 123.765 35.3313C123.323 35.1288 122.978 34.8401 122.73 34.4652C122.483 34.0902 122.355 33.644 122.348 33.1266H123.776C123.776 33.3891 123.836 33.6253 123.956 33.8353C124.084 34.0377 124.256 34.199 124.474 34.3189C124.699 34.4389 124.969 34.4989 125.283 34.4989C125.553 34.4989 125.786 34.4577 125.981 34.3752C126.183 34.2852 126.337 34.1615 126.442 34.004C126.555 33.839 126.611 33.6478 126.611 33.4303C126.611 33.1829 126.551 32.9804 126.431 32.8229C126.318 32.6579 126.161 32.5192 125.958 32.4067C125.756 32.2942 125.523 32.1968 125.261 32.1143C124.999 32.0243 124.721 31.9306 124.429 31.8331C123.806 31.6231 123.338 31.3569 123.023 31.0344C122.708 30.7045 122.55 30.2658 122.55 29.7184C122.55 29.261 122.659 28.8673 122.876 28.5373C123.094 28.2074 123.398 27.9524 123.787 27.7724C124.185 27.585 124.642 27.4912 125.16 27.4912C125.685 27.4912 126.142 27.585 126.532 27.7724C126.929 27.9599 127.241 28.2224 127.466 28.5598C127.698 28.8898 127.818 29.2872 127.826 29.7521H126.386C126.378 29.5572 126.326 29.3772 126.228 29.2122C126.131 29.0397 125.988 28.901 125.801 28.796C125.621 28.6836 125.4 28.6273 125.137 28.6273C124.912 28.6198 124.71 28.6573 124.53 28.7398C124.357 28.8148 124.219 28.9273 124.114 29.0772C124.016 29.2197 123.967 29.3997 123.967 29.6172C123.967 29.8271 124.012 30.0033 124.102 30.1458C124.2 30.2808 124.339 30.397 124.519 30.4945C124.699 30.5845 124.909 30.6707 125.149 30.7532C125.388 30.8357 125.651 30.9257 125.936 31.0232C126.326 31.1507 126.678 31.3081 126.993 31.4956C127.316 31.6756 127.571 31.9118 127.758 32.2043C127.946 32.4967 128.039 32.8754 128.039 33.3403C128.039 33.7453 127.934 34.124 127.724 34.4764C127.514 34.8214 127.207 35.1026 126.802 35.32C126.397 35.53 125.891 35.635 125.283 35.635ZM131.196 35.635C130.732 35.635 130.345 35.5562 130.038 35.3988C129.73 35.2413 129.502 35.0313 129.352 34.7689C129.202 34.5064 129.127 34.2214 129.127 33.914C129.127 33.5541 129.217 33.2428 129.397 32.9804C129.584 32.7179 129.858 32.5155 130.218 32.373C130.578 32.223 131.02 32.148 131.545 32.148H132.974C132.974 31.8481 132.932 31.6006 132.85 31.4056C132.767 31.2032 132.64 31.0532 132.468 30.9557C132.295 30.8582 132.074 30.8095 131.804 30.8095C131.496 30.8095 131.234 30.8807 131.017 31.0232C130.799 31.1582 130.664 31.3681 130.612 31.6531H129.284C129.329 31.2482 129.464 30.9032 129.689 30.6183C129.914 30.3258 130.21 30.1008 130.578 29.9434C130.953 29.7784 131.361 29.6959 131.804 29.6959C132.336 29.6959 132.79 29.7896 133.165 29.9771C133.54 30.1571 133.825 30.4195 134.02 30.7645C134.222 31.1019 134.323 31.5106 134.323 31.9905V35.5H133.176L133.041 34.5889C132.966 34.7389 132.869 34.8776 132.749 35.0051C132.636 35.1326 132.505 35.245 132.355 35.3425C132.205 35.4325 132.033 35.5037 131.838 35.5562C131.65 35.6087 131.436 35.635 131.196 35.635ZM131.5 34.5664C131.718 34.5664 131.909 34.5289 132.074 34.4539C132.246 34.3714 132.393 34.2589 132.513 34.1165C132.64 33.9665 132.737 33.8015 132.805 33.6215C132.872 33.4416 132.917 33.2503 132.94 33.0479V33.0254H131.691C131.429 33.0254 131.211 33.0591 131.039 33.1266C130.867 33.1866 130.743 33.2766 130.668 33.3966C130.593 33.5166 130.555 33.6553 130.555 33.8128C130.555 33.9702 130.593 34.1052 130.668 34.2177C130.743 34.3302 130.852 34.4164 130.994 34.4764C131.136 34.5364 131.305 34.5664 131.5 34.5664ZM137.142 35.5L135.05 29.8309H136.467L137.963 34.2177L139.459 29.8309H140.854L138.762 35.5H137.142ZM141.874 35.5V29.8309H143.224V35.5H141.874ZM142.549 28.931C142.302 28.931 142.096 28.856 141.931 28.7061C141.773 28.5486 141.695 28.3574 141.695 28.1324C141.695 27.8999 141.773 27.7125 141.931 27.57C142.096 27.42 142.302 27.345 142.549 27.345C142.797 27.345 142.999 27.42 143.157 27.57C143.322 27.7125 143.404 27.8999 143.404 28.1324C143.404 28.3574 143.322 28.5486 143.157 28.7061C142.999 28.856 142.797 28.931 142.549 28.931ZM144.784 35.5V29.8309H145.976L146.078 30.7757C146.25 30.4458 146.498 30.1833 146.82 29.9884C147.142 29.7934 147.525 29.6959 147.967 29.6959C148.425 29.6959 148.815 29.7934 149.137 29.9884C149.46 30.1758 149.707 30.4533 149.88 30.8207C150.06 31.1882 150.15 31.6456 150.15 32.193V35.5H148.8V32.3167C148.8 31.8443 148.695 31.4806 148.485 31.2257C148.275 30.9707 147.964 30.8432 147.551 30.8432C147.281 30.8432 147.038 30.907 146.82 31.0344C146.61 31.1619 146.441 31.3494 146.314 31.5969C146.194 31.8368 146.134 32.1293 146.134 32.4742V35.5H144.784ZM153.957 38.1096C153.425 38.1096 152.956 38.0421 152.551 37.9071C152.154 37.7796 151.843 37.5809 151.618 37.311C151.4 37.0485 151.291 36.7186 151.291 36.3211C151.291 36.0887 151.348 35.8599 151.46 35.635C151.58 35.4175 151.756 35.215 151.989 35.0276C152.229 34.8326 152.532 34.6639 152.9 34.5214L153.496 35.1738C153.136 35.3013 152.885 35.455 152.742 35.635C152.6 35.815 152.529 35.9987 152.529 36.1861C152.529 36.3811 152.589 36.5423 152.709 36.6698C152.836 36.8048 153.005 36.906 153.215 36.9735C153.432 37.041 153.676 37.0748 153.946 37.0748C154.208 37.0748 154.437 37.0373 154.632 36.9623C154.827 36.8948 154.977 36.7973 155.082 36.6698C155.195 36.5423 155.251 36.3886 155.251 36.2086C155.251 35.9837 155.172 35.8 155.015 35.6575C154.857 35.5225 154.546 35.44 154.081 35.41C153.684 35.38 153.335 35.3388 153.035 35.2863C152.735 35.2263 152.476 35.1588 152.259 35.0838C152.049 35.0088 151.869 34.9263 151.719 34.8364C151.569 34.7389 151.445 34.6414 151.348 34.5439V34.2852L152.529 33.0479L153.53 33.3741L152.203 34.6676L152.551 34.0152C152.626 34.0677 152.701 34.1165 152.776 34.1615C152.859 34.2064 152.96 34.2477 153.08 34.2852C153.207 34.3152 153.372 34.3452 153.575 34.3752C153.777 34.4052 154.04 34.4352 154.362 34.4652C154.865 34.5027 155.273 34.5926 155.588 34.7351C155.903 34.8776 156.136 35.0688 156.286 35.3088C156.436 35.5487 156.511 35.8374 156.511 36.1749C156.511 36.5048 156.417 36.816 156.229 37.1085C156.049 37.401 155.772 37.6409 155.397 37.8284C155.022 38.0159 154.542 38.1096 153.957 38.1096ZM153.957 33.8015C153.485 33.8015 153.076 33.7115 152.731 33.5316C152.394 33.3441 152.135 33.0966 151.955 32.7892C151.775 32.4742 151.685 32.1293 151.685 31.7543C151.685 31.3719 151.775 31.0269 151.955 30.7195C152.135 30.412 152.394 30.1646 152.731 29.9771C153.076 29.7896 153.485 29.6959 153.957 29.6959C154.43 29.6959 154.835 29.7896 155.172 29.9771C155.51 30.1646 155.768 30.412 155.948 30.7195C156.128 31.0269 156.218 31.3719 156.218 31.7543C156.218 32.1293 156.128 32.4742 155.948 32.7892C155.768 33.0966 155.51 33.3441 155.172 33.5316C154.835 33.7115 154.43 33.8015 153.957 33.8015ZM153.957 32.7554C154.28 32.7554 154.538 32.6692 154.733 32.4967C154.928 32.3242 155.026 32.0768 155.026 31.7543C155.026 31.4319 154.928 31.1882 154.733 31.0232C154.538 30.8507 154.28 30.7645 153.957 30.7645C153.635 30.7645 153.372 30.8507 153.17 31.0232C152.967 31.1882 152.866 31.4319 152.866 31.7543C152.866 32.0768 152.967 32.3242 153.17 32.4967C153.372 32.6692 153.635 32.7554 153.957 32.7554ZM154.891 30.8207L154.632 29.8309H156.961V30.6745L154.891 30.8207ZM160.944 35.5V27.6262H165.972V28.7173H162.293V31.0232H165.297V32.0918H162.293V35.5H160.944ZM169.452 35.635C168.889 35.635 168.395 35.515 167.967 35.275C167.54 35.0276 167.206 34.6826 166.966 34.2402C166.726 33.7978 166.606 33.2878 166.606 32.7104C166.606 32.1105 166.722 31.5856 166.955 31.1357C167.195 30.6857 167.528 30.3333 167.956 30.0783C168.391 29.8234 168.893 29.6959 169.463 29.6959C170.018 29.6959 170.502 29.8196 170.914 30.0671C171.327 30.3146 171.645 30.6483 171.87 31.0682C172.095 31.4806 172.208 31.9455 172.208 32.463C172.208 32.538 172.208 32.6204 172.208 32.7104C172.208 32.8004 172.2 32.8942 172.185 32.9916H167.573V32.1255H170.847C170.832 31.7131 170.693 31.3906 170.43 31.1582C170.168 30.9182 169.842 30.7982 169.452 30.7982C169.174 30.7982 168.919 30.862 168.687 30.9894C168.455 31.1169 168.271 31.3081 168.136 31.5631C168.001 31.8106 167.933 32.1255 167.933 32.508V32.8342C167.933 33.1866 167.997 33.4903 168.125 33.7453C168.26 34.0002 168.44 34.1952 168.665 34.3302C168.897 34.4577 169.156 34.5214 169.441 34.5214C169.756 34.5214 170.014 34.4539 170.217 34.3189C170.427 34.184 170.58 34.004 170.678 33.779H172.05C171.945 34.1315 171.773 34.4502 171.533 34.7351C171.293 35.0126 170.997 35.2338 170.644 35.3988C170.292 35.5562 169.894 35.635 169.452 35.635ZM175.344 35.635C174.879 35.635 174.493 35.5562 174.185 35.3988C173.878 35.2413 173.649 35.0313 173.499 34.7689C173.349 34.5064 173.274 34.2214 173.274 33.914C173.274 33.5541 173.364 33.2428 173.544 32.9804C173.731 32.7179 174.005 32.5155 174.365 32.373C174.725 32.223 175.167 32.148 175.692 32.148H177.121C177.121 31.8481 177.08 31.6006 176.997 31.4056C176.915 31.2032 176.787 31.0532 176.615 30.9557C176.442 30.8582 176.221 30.8095 175.951 30.8095C175.644 30.8095 175.381 30.8807 175.164 31.0232C174.946 31.1582 174.811 31.3681 174.759 31.6531H173.431C173.476 31.2482 173.611 30.9032 173.836 30.6183C174.061 30.3258 174.358 30.1008 174.725 29.9434C175.1 29.7784 175.509 29.6959 175.951 29.6959C176.484 29.6959 176.937 29.7896 177.312 29.9771C177.687 30.1571 177.972 30.4195 178.167 30.7645C178.369 31.1019 178.471 31.5106 178.471 31.9905V35.5H177.323L177.188 34.5889C177.113 34.7389 177.016 34.8776 176.896 35.0051C176.783 35.1326 176.652 35.245 176.502 35.3425C176.352 35.4325 176.18 35.5037 175.985 35.5562C175.797 35.6087 175.584 35.635 175.344 35.635ZM175.647 34.5664C175.865 34.5664 176.056 34.5289 176.221 34.4539C176.394 34.3714 176.54 34.2589 176.66 34.1165C176.787 33.9665 176.885 33.8015 176.952 33.6215C177.02 33.4416 177.065 33.2503 177.087 33.0479V33.0254H175.839C175.576 33.0254 175.359 33.0591 175.186 33.1266C175.014 33.1866 174.89 33.2766 174.815 33.3966C174.74 33.5166 174.703 33.6553 174.703 33.8128C174.703 33.9702 174.74 34.1052 174.815 34.2177C174.89 34.3302 174.999 34.4164 175.141 34.4764C175.284 34.5364 175.452 34.5664 175.647 34.5664ZM182.288 35.5C181.906 35.5 181.572 35.44 181.287 35.32C181.01 35.2 180.792 35.0013 180.635 34.7239C180.477 34.4464 180.399 34.0715 180.399 33.599V30.967H179.431V29.8309H180.399L180.556 28.3349H181.749V29.8309H183.29V30.967H181.749V33.599C181.749 33.884 181.809 34.0827 181.928 34.1952C182.056 34.3002 182.266 34.3527 182.558 34.3527H183.256V35.5H182.288ZM186.663 35.635C186.205 35.635 185.812 35.545 185.482 35.365C185.159 35.1775 184.912 34.9001 184.739 34.5326C184.567 34.1577 184.481 33.6965 184.481 33.1491V29.8309H185.831V33.0141C185.831 33.5016 185.932 33.8728 186.134 34.1277C186.344 34.3752 186.659 34.4989 187.079 34.4989C187.349 34.4989 187.589 34.4352 187.799 34.3077C188.016 34.1802 188.185 33.9965 188.305 33.7565C188.433 33.5091 188.496 33.2091 188.496 32.8567V29.8309H189.846V35.5H188.654L188.553 34.5551C188.38 34.8851 188.129 35.1476 187.799 35.3425C187.476 35.5375 187.098 35.635 186.663 35.635ZM191.348 35.5V29.8309H192.552L192.675 30.8882C192.81 30.6408 192.979 30.4308 193.181 30.2583C193.384 30.0783 193.62 29.9396 193.89 29.8421C194.168 29.7446 194.471 29.6959 194.801 29.6959V31.1244H194.329C194.104 31.1244 193.89 31.1544 193.688 31.2144C193.485 31.2669 193.309 31.3569 193.159 31.4844C193.016 31.6044 192.904 31.7731 192.821 31.9905C192.739 32.2005 192.698 32.4667 192.698 32.7892V35.5H191.348ZM198.352 35.635C197.79 35.635 197.295 35.515 196.868 35.275C196.44 35.0276 196.107 34.6826 195.867 34.2402C195.627 33.7978 195.507 33.2878 195.507 32.7104C195.507 32.1105 195.623 31.5856 195.855 31.1357C196.095 30.6857 196.429 30.3333 196.856 30.0783C197.291 29.8234 197.794 29.6959 198.364 29.6959C198.919 29.6959 199.402 29.8196 199.815 30.0671C200.227 30.3146 200.546 30.6483 200.771 31.0682C200.996 31.4806 201.108 31.9455 201.108 32.463C201.108 32.538 201.108 32.6204 201.108 32.7104C201.108 32.8004 201.101 32.8942 201.086 32.9916H196.474V32.1255H199.747C199.732 31.7131 199.594 31.3906 199.331 31.1582C199.069 30.9182 198.742 30.7982 198.352 30.7982C198.075 30.7982 197.82 30.862 197.588 30.9894C197.355 31.1169 197.171 31.3081 197.036 31.5631C196.901 31.8106 196.834 32.1255 196.834 32.508V32.8342C196.834 33.1866 196.898 33.4903 197.025 33.7453C197.16 34.0002 197.34 34.1952 197.565 34.3302C197.798 34.4577 198.056 34.5214 198.341 34.5214C198.656 34.5214 198.915 34.4539 199.117 34.3189C199.327 34.184 199.481 34.004 199.579 33.779H200.951C200.846 34.1315 200.673 34.4502 200.433 34.7351C200.193 35.0126 199.897 35.2338 199.545 35.3988C199.192 35.5562 198.795 35.635 198.352 35.635ZM204.615 35.635C204.113 35.635 203.674 35.5562 203.299 35.3988C202.932 35.2338 202.64 35.0088 202.422 34.7239C202.212 34.4314 202.088 34.0977 202.051 33.7228H203.401C203.438 33.8803 203.506 34.0265 203.603 34.1615C203.701 34.2889 203.832 34.3902 203.997 34.4652C204.169 34.5401 204.372 34.5776 204.604 34.5776C204.829 34.5776 205.013 34.5476 205.155 34.4877C205.298 34.4202 205.403 34.3339 205.47 34.2289C205.538 34.124 205.572 34.0115 205.572 33.8915C205.572 33.7115 205.523 33.5728 205.425 33.4753C205.328 33.3778 205.185 33.3028 204.998 33.2503C204.818 33.1904 204.6 33.1341 204.345 33.0816C204.076 33.0291 203.813 32.9654 203.558 32.8904C203.311 32.8079 203.086 32.7067 202.883 32.5867C202.688 32.4667 202.531 32.313 202.411 32.1255C202.298 31.9381 202.242 31.7093 202.242 31.4394C202.242 31.1094 202.328 30.8132 202.501 30.5508C202.681 30.2883 202.936 30.0821 203.266 29.9321C203.603 29.7746 204.004 29.6959 204.469 29.6959C205.129 29.6959 205.654 29.8496 206.044 30.1571C206.441 30.457 206.674 30.8807 206.741 31.4281H205.459C205.422 31.2182 205.317 31.0569 205.144 30.9445C204.972 30.8245 204.743 30.7645 204.458 30.7645C204.166 30.7645 203.941 30.8207 203.783 30.9332C203.633 31.0382 203.558 31.1807 203.558 31.3606C203.558 31.4731 203.603 31.5781 203.693 31.6756C203.791 31.7656 203.929 31.8443 204.109 31.9118C204.289 31.9718 204.51 32.0318 204.773 32.0918C205.193 32.1743 205.564 32.2717 205.887 32.3842C206.209 32.4967 206.464 32.6617 206.651 32.8792C206.839 33.0966 206.933 33.4041 206.933 33.8015C206.94 34.1615 206.846 34.4802 206.651 34.7576C206.464 35.0351 206.198 35.2525 205.853 35.41C205.508 35.56 205.095 35.635 204.615 35.635Z" fill="black"/>
</g>
<defs>
<filter id="filter0_dddd_1374_13205" x="0" y="0" width="260" height="215" filterUnits="userSpaceOnUse" color-interpolation-filters="sRGB">
<feFlood flood-opacity="0" result="BackgroundImageFix"/>
<feColorMatrix in="SourceAlpha" type="matrix" values="0 0 0 0 0 0 0 0 0 0 0 0 0 0 0 0 0 0 127 0" result="hardAlpha"/>
<feOffset dy="7"/>
<feGaussianBlur stdDeviation="8"/>
<feColorMatrix type="matrix" values="0 0 0 0 0.596078 0 0 0 0 0.678431 0 0 0 0 0.764706 0 0 0 0.1 0"/>
<feBlend mode="normal" in2="BackgroundImageFix" result="effect1_dropShadow_1374_13205"/>
<feColorMatrix in="SourceAlpha" type="matrix" values="0 0 0 0 0 0 0 0 0 0 0 0 0 0 0 0 0 0 127 0" result="hardAlpha"/>
<feOffset dy="29"/>
<feGaussianBlur stdDeviation="14.5"/>
<feColorMatrix type="matrix" values="0 0 0 0 0.596078 0 0 0 0 0.678431 0 0 0 0 0.764706 0 0 0 0.09 0"/>
<feBlend mode="normal" in2="effect1_dropShadow_1374_13205" result="effect2_dropShadow_1374_13205"/>
<feColorMatrix in="SourceAlpha" type="matrix" values="0 0 0 0 0 0 0 0 0 0 0 0 0 0 0 0 0 0 127 0" result="hardAlpha"/>
<feOffset dy="64"/>
<feGaussianBlur stdDeviation="19.5"/>
<feColorMatrix type="matrix" values="0 0 0 0 0.596078 0 0 0 0 0.678431 0 0 0 0 0.764706 0 0 0 0.05 0"/>
<feBlend mode="normal" in2="effect2_dropShadow_1374_13205" result="effect3_dropShadow_1374_13205"/>
<feColorMatrix in="SourceAlpha" type="matrix" values="0 0 0 0 0 0 0 0 0 0 0 0 0 0 0 0 0 0 127 0" result="hardAlpha"/>
<feOffset dy="114"/>
<feGaussianBlur stdDeviation="23"/>
<feColorMatrix type="matrix" values="0 0 0 0 0.596078 0 0 0 0 0.678431 0 0 0 0 0.764706 0 0 0 0.01 0"/>
<feBlend mode="normal" in2="effect3_dropShadow_1374_13205" result="effect4_dropShadow_1374_13205"/>
<feBlend mode="normal" in="SourceGraphic" in2="effect4_dropShadow_1374_13205" result="shape"/>
</filter>
<clipPath id="clip0_1374_13205">
<rect x="55" y="18.3136" width="28.0932" height="27.3729" rx="13.6864" fill="white"/>
</clipPath>
</defs>
</svg>
