<svg width="260" height="215" viewBox="0 0 260 215" fill="none" xmlns="http://www.w3.org/2000/svg">
<g filter="url(#filter0_dddd_1374_13177)">
<rect x="46" y="9" width="168" height="46" rx="23" fill="white"/>
<rect width="59" height="46" transform="translate(46 9)" fill="#2050E0"/>
<path d="M75.4814 15.4691L75.9848 17.0185H77.6139L76.296 17.976L76.7994 19.5253L75.4814 18.5678L74.1635 19.5253L74.6669 17.976L73.349 17.0185H74.978L75.4814 15.4691Z" fill="#F9D827"/>
<path d="M75.4814 44.0464L75.9848 45.5957H77.6139L76.296 46.5532L76.7994 48.1025L75.4814 47.145L74.1635 48.1025L74.6669 46.5532L73.349 45.5957H74.978L75.4814 44.0464Z" fill="#F9D827"/>
<path d="M67.0342 42.7438L67.5376 44.2931H69.1666L67.8487 45.2506L68.3521 46.8L67.0342 45.8424L65.7163 46.8L66.2197 45.2506L64.9017 44.2931H66.5308L67.0342 42.7438Z" fill="#F9D827"/>
<path d="M68.2596 18.0329L68.763 19.5822H70.3921L69.0742 20.5397L69.5776 22.089L68.2596 21.1315L66.9417 22.089L67.4451 20.5397L66.1272 19.5822H67.7562L68.2596 18.0329Z" fill="#F9D827"/>
<path d="M83.9285 42.7438L84.4319 44.2931H86.0609L84.743 45.2506L85.2464 46.8L83.9285 45.8424L82.6105 46.8L83.1139 45.2506L81.796 44.2931H83.4251L83.9285 42.7438Z" fill="#F9D827"/>
<path d="M82.7037 18.0329L83.2071 19.5822H84.8362L83.5183 20.5397L84.0217 22.089L82.7037 21.1315L81.3858 22.089L81.8892 20.5397L80.5713 19.5822H82.2003L82.7037 18.0329Z" fill="#F9D827"/>
<path d="M88.5079 22.5182L89.0113 24.0675H90.6404L89.3225 25.0251L89.8259 26.5744L88.5079 25.6168L87.19 26.5744L87.6934 25.0251L86.3755 24.0675H88.0045L88.5079 22.5182Z" fill="#F9D827"/>
<path d="M88.5079 36.8102L89.0113 38.3595H90.6404L89.3225 39.3171L89.8259 40.8664L88.5079 39.9088L87.19 40.8664L87.6934 39.3171L86.3755 38.3595H88.0045L88.5079 36.8102Z" fill="#F9D827"/>
<path d="M62.9275 22.5182L63.4309 24.0675H65.0599L63.742 25.0251L64.2454 26.5744L62.9275 25.6168L61.6096 26.5744L62.113 25.0251L60.795 24.0675H62.4241L62.9275 22.5182Z" fill="#F9D827"/>
<path d="M62.4225 36.8102L62.9259 38.3595H64.5549L63.237 39.3171L63.7404 40.8664L62.4225 39.9088L61.1046 40.8664L61.608 39.3171L60.29 38.3595H61.9191L62.4225 36.8102Z" fill="#F9D827"/>
<path d="M61.161 29.8356L61.6644 31.3849H63.2935L61.9755 32.3424L62.4789 33.8918L61.161 32.9342L59.8431 33.8918L60.3465 32.3424L59.0286 31.3849H60.6576L61.161 29.8356Z" fill="#F9D827"/>
<path d="M89.8389 29.8356L90.3423 31.3849H91.9713L90.6534 32.3424L91.1568 33.8918L89.8389 32.9342L88.5209 33.8918L89.0243 32.3424L87.7064 31.3849H89.3355L89.8389 29.8356Z" fill="#F9D827"/>
<path d="M75.0094 27.8784L75.069 28.0434L77.8688 35.7866L77.9908 36.1216H76.4459L76.3864 35.9555L75.6862 34.0014H72.8619L72.1559 35.9565L72.0963 36.1216H70.5573L70.6783 35.7866L73.4791 28.0434L73.5387 27.8784H75.0094ZM80.3365 27.8784V36.1216H78.8453V27.8784H80.3365ZM73.3024 32.5903H75.236L74.2701 29.8481L73.3024 32.5903Z" fill="white" stroke="white" stroke-width="0.5"/>
<rect x="106" y="11.7526" width="82.4061" height="40.4948" rx="4.75992" fill="white"/>
<path d="M112.483 29L115.225 21.5031H116.863L119.594 29H118.063L116.039 23.1524L114.004 29H112.483ZM113.693 27.2971L114.079 26.1726H117.891L118.266 27.2971H113.693ZM120.579 29V21.5031H122.025V29H120.579ZM125.515 29L128.256 21.5031H129.895L132.626 29H131.094L129.07 23.1524L127.035 29H125.515ZM126.725 27.2971L127.11 26.1726H130.923L131.298 27.2971H126.725ZM136.545 29.1285C135.796 29.1285 135.149 28.9679 134.607 28.6466C134.071 28.3181 133.657 27.8648 133.364 27.2864C133.079 26.701 132.936 26.0262 132.936 25.2623C132.936 24.4983 133.079 23.8236 133.364 23.2381C133.657 22.6526 134.071 22.1957 134.607 21.8673C135.149 21.5388 135.796 21.3746 136.545 21.3746C137.452 21.3746 138.195 21.5995 138.773 22.0493C139.351 22.4991 139.712 23.1346 139.855 23.9557H138.28C138.187 23.5558 137.991 23.2453 137.691 23.0239C137.398 22.7954 137.013 22.6812 136.534 22.6812C136.092 22.6812 135.71 22.7883 135.389 23.0025C135.074 23.2096 134.832 23.5059 134.66 23.8914C134.489 24.2698 134.403 24.7268 134.403 25.2623C134.403 25.7906 134.489 26.2476 134.66 26.6331C134.832 27.0187 135.074 27.315 135.389 27.522C135.71 27.7291 136.092 27.8326 136.534 27.8326C137.013 27.8326 137.398 27.7291 137.691 27.522C137.984 27.3078 138.177 27.0115 138.269 26.6331H139.855C139.712 27.4114 139.351 28.0218 138.773 28.4645C138.195 28.9072 137.452 29.1285 136.545 29.1285ZM142.762 29V22.6705H140.566V21.5031H146.382V22.6705H144.197V29H142.762ZM113.051 43V35.5031H113.95V38.8981L117.078 35.5031H118.213L115.428 38.4912L118.256 43H117.163L114.786 39.1873L113.95 40.0762V43H113.051ZM122.207 43.1285C121.486 43.1285 120.851 42.9679 120.301 42.6466C119.758 42.3181 119.333 41.8648 119.026 41.2864C118.726 40.701 118.577 40.0227 118.577 39.2516C118.577 38.4876 118.726 37.8164 119.026 37.2381C119.333 36.6526 119.758 36.1957 120.301 35.8673C120.851 35.5388 121.486 35.3746 122.207 35.3746C122.943 35.3746 123.582 35.5388 124.124 35.8673C124.667 36.1957 125.088 36.6526 125.388 37.2381C125.695 37.8164 125.849 38.4876 125.849 39.2516C125.849 40.0227 125.695 40.701 125.388 41.2864C125.088 41.8648 124.667 42.3181 124.124 42.6466C123.582 42.9679 122.943 43.1285 122.207 43.1285ZM122.207 42.336C122.75 42.336 123.225 42.2146 123.632 41.9719C124.046 41.722 124.363 41.3685 124.585 40.9116C124.813 40.4475 124.927 39.8942 124.927 39.2516C124.927 38.609 124.813 38.0592 124.585 37.6023C124.363 37.1382 124.046 36.7847 123.632 36.542C123.225 36.2992 122.75 36.1778 122.207 36.1778C121.672 36.1778 121.197 36.2992 120.783 36.542C120.376 36.7847 120.058 37.1382 119.83 37.6023C119.608 38.0592 119.498 38.609 119.498 39.2516C119.498 39.8942 119.608 40.4475 119.83 40.9116C120.058 41.3685 120.376 41.722 120.783 41.9719C121.197 42.2146 121.672 42.336 122.207 42.336ZM127.16 43V35.5031H128.059L132.054 41.5113V35.5031H132.954V43H132.054L128.059 36.9918V43H127.16ZM134.564 43V35.5031H139.127V36.2421H135.464V38.8767H138.581V39.605H135.464V43H134.564ZM143.637 43.1285C142.916 43.1285 142.281 42.9679 141.731 42.6466C141.188 42.3181 140.763 41.8648 140.456 41.2864C140.157 40.701 140.007 40.0227 140.007 39.2516C140.007 38.4876 140.157 37.8164 140.456 37.2381C140.763 36.6526 141.188 36.1957 141.731 35.8673C142.281 35.5388 142.916 35.3746 143.637 35.3746C144.373 35.3746 145.012 35.5388 145.554 35.8673C146.097 36.1957 146.518 36.6526 146.818 37.2381C147.125 37.8164 147.279 38.4876 147.279 39.2516C147.279 40.0227 147.125 40.701 146.818 41.2864C146.518 41.8648 146.097 42.3181 145.554 42.6466C145.012 42.9679 144.373 43.1285 143.637 43.1285ZM143.637 42.336C144.18 42.336 144.655 42.2146 145.062 41.9719C145.476 41.722 145.794 41.3685 146.015 40.9116C146.243 40.4475 146.358 39.8942 146.358 39.2516C146.358 38.609 146.243 38.0592 146.015 37.6023C145.794 37.1382 145.476 36.7847 145.062 36.542C144.655 36.2992 144.18 36.1778 143.637 36.1778C143.102 36.1778 142.627 36.2992 142.213 36.542C141.806 36.7847 141.488 37.1382 141.26 37.6023C141.038 38.0592 140.928 38.609 140.928 39.2516C140.928 39.8942 141.038 40.4475 141.26 40.9116C141.488 41.3685 141.806 41.722 142.213 41.9719C142.627 42.2146 143.102 42.336 143.637 42.336ZM148.59 43V35.5031H151.01C151.596 35.5031 152.074 35.6031 152.445 35.803C152.816 35.9958 153.091 36.2564 153.27 36.5848C153.448 36.9133 153.538 37.2845 153.538 37.6986C153.538 38.0985 153.445 38.4662 153.259 38.8018C153.081 39.1373 152.802 39.4051 152.424 39.605C152.045 39.8049 151.56 39.9049 150.967 39.9049H149.489V43H148.59ZM152.552 43L150.903 39.6478H151.91L153.613 43H152.552ZM149.489 39.198H150.946C151.517 39.198 151.935 39.0588 152.199 38.7803C152.47 38.5019 152.606 38.1449 152.606 37.7093C152.606 37.2667 152.474 36.9168 152.21 36.6598C151.953 36.3956 151.528 36.2635 150.935 36.2635H149.489V39.198ZM154.949 43V35.5031H157.369C157.954 35.5031 158.433 35.6031 158.804 35.803C159.175 35.9958 159.45 36.2564 159.629 36.5848C159.807 36.9133 159.897 37.2845 159.897 37.6986C159.897 38.0985 159.804 38.4662 159.618 38.8018C159.44 39.1373 159.161 39.4051 158.783 39.605C158.404 39.8049 157.919 39.9049 157.326 39.9049H155.848V43H154.949ZM158.911 43L157.262 39.6478H158.269L159.972 43H158.911ZM155.848 39.198H157.305C157.876 39.198 158.294 39.0588 158.558 38.7803C158.829 38.5019 158.965 38.1449 158.965 37.7093C158.965 37.2667 158.833 36.9168 158.569 36.6598C158.311 36.3956 157.887 36.2635 157.294 36.2635H155.848V39.198ZM161.308 43V35.5031H162.357L165.002 40.7402L167.658 35.5031H168.719V43H167.819V37.1096L165.345 41.9504H164.67L162.207 37.131V43H161.308Z" fill="#172A47"/>
</g>
<defs>
<filter id="filter0_dddd_1374_13177" x="0" y="0" width="260" height="215" filterUnits="userSpaceOnUse" color-interpolation-filters="sRGB">
<feFlood flood-opacity="0" result="BackgroundImageFix"/>
<feColorMatrix in="SourceAlpha" type="matrix" values="0 0 0 0 0 0 0 0 0 0 0 0 0 0 0 0 0 0 127 0" result="hardAlpha"/>
<feOffset dy="7"/>
<feGaussianBlur stdDeviation="8"/>
<feColorMatrix type="matrix" values="0 0 0 0 0.596078 0 0 0 0 0.678431 0 0 0 0 0.764706 0 0 0 0.1 0"/>
<feBlend mode="normal" in2="BackgroundImageFix" result="effect1_dropShadow_1374_13177"/>
<feColorMatrix in="SourceAlpha" type="matrix" values="0 0 0 0 0 0 0 0 0 0 0 0 0 0 0 0 0 0 127 0" result="hardAlpha"/>
<feOffset dy="29"/>
<feGaussianBlur stdDeviation="14.5"/>
<feColorMatrix type="matrix" values="0 0 0 0 0.596078 0 0 0 0 0.678431 0 0 0 0 0.764706 0 0 0 0.09 0"/>
<feBlend mode="normal" in2="effect1_dropShadow_1374_13177" result="effect2_dropShadow_1374_13177"/>
<feColorMatrix in="SourceAlpha" type="matrix" values="0 0 0 0 0 0 0 0 0 0 0 0 0 0 0 0 0 0 127 0" result="hardAlpha"/>
<feOffset dy="64"/>
<feGaussianBlur stdDeviation="19.5"/>
<feColorMatrix type="matrix" values="0 0 0 0 0.596078 0 0 0 0 0.678431 0 0 0 0 0.764706 0 0 0 0.05 0"/>
<feBlend mode="normal" in2="effect2_dropShadow_1374_13177" result="effect3_dropShadow_1374_13177"/>
<feColorMatrix in="SourceAlpha" type="matrix" values="0 0 0 0 0 0 0 0 0 0 0 0 0 0 0 0 0 0 127 0" result="hardAlpha"/>
<feOffset dy="114"/>
<feGaussianBlur stdDeviation="23"/>
<feColorMatrix type="matrix" values="0 0 0 0 0.596078 0 0 0 0 0.678431 0 0 0 0 0.764706 0 0 0 0.01 0"/>
<feBlend mode="normal" in2="effect3_dropShadow_1374_13177" result="effect4_dropShadow_1374_13177"/>
<feBlend mode="normal" in="SourceGraphic" in2="effect4_dropShadow_1374_13177" result="shape"/>
</filter>
</defs>
</svg>
