<svg width="260" height="215" viewBox="0 0 260 215" fill="none" xmlns="http://www.w3.org/2000/svg">
<g filter="url(#filter0_dddd_1374_13164)">
<rect x="46" y="9" width="168" height="46" rx="23" fill="white"/>
<rect x="46.3602" y="9.36017" width="167.28" height="45.2797" rx="22.6398" stroke="#00B67A" stroke-width="0.720339"/>
<path d="M100.198 26.8288V19.9444H102.667C103.211 19.9444 103.66 20.0394 104.014 20.2296C104.375 20.4132 104.64 20.6623 104.811 20.977C104.988 21.2852 105.076 21.636 105.076 22.0294C105.076 22.3965 104.991 22.7375 104.821 23.0522C104.65 23.3669 104.385 23.6194 104.024 23.8095C103.663 23.9996 103.201 24.0947 102.637 24.0947H101.378V26.8288H100.198ZM103.788 26.8288L102.342 23.7898H103.621L105.135 26.8288H103.788ZM101.378 23.2194H102.588C103.027 23.2194 103.349 23.1145 103.552 22.9047C103.762 22.6883 103.867 22.4064 103.867 22.0589C103.867 21.7179 103.765 21.4458 103.562 21.2426C103.359 21.0328 103.034 20.9279 102.588 20.9279H101.378V23.2194ZM108.281 26.9468C107.789 26.9468 107.357 26.8419 106.983 26.6321C106.609 26.4158 106.317 26.1142 106.108 25.7273C105.898 25.3405 105.793 24.8946 105.793 24.3898C105.793 23.8652 105.894 23.4063 106.098 23.0129C106.308 22.6195 106.599 22.3113 106.973 22.0884C107.353 21.8655 107.793 21.754 108.291 21.754C108.776 21.754 109.199 21.8622 109.56 22.0785C109.92 22.2949 110.199 22.5867 110.396 22.9539C110.592 23.3145 110.691 23.721 110.691 24.1734C110.691 24.239 110.691 24.3111 110.691 24.3898C110.691 24.4684 110.684 24.5504 110.671 24.6356H106.639V23.8783H109.501C109.488 23.5177 109.366 23.2358 109.137 23.0325C108.907 22.8227 108.622 22.7178 108.281 22.7178C108.038 22.7178 107.816 22.7735 107.612 22.885C107.409 22.9965 107.248 23.1637 107.13 23.3866C107.012 23.603 106.953 23.8783 106.953 24.2127V24.4979C106.953 24.8061 107.009 25.0716 107.121 25.2946C107.239 25.5175 107.396 25.688 107.593 25.806C107.796 25.9175 108.022 25.9732 108.271 25.9732C108.547 25.9732 108.773 25.9142 108.95 25.7962C109.133 25.6781 109.268 25.5208 109.353 25.3241H110.553C110.461 25.6322 110.31 25.9109 110.101 26.16C109.891 26.4026 109.632 26.5961 109.324 26.7403C109.015 26.878 108.668 26.9468 108.281 26.9468ZM112.945 26.8288L111.116 21.872H112.355L113.663 25.7076L114.971 21.872H116.191L114.362 26.8288H112.945ZM117.083 26.8288V21.872H118.263V26.8288H117.083ZM117.673 21.0852C117.457 21.0852 117.277 21.0196 117.132 20.8885C116.995 20.7508 116.926 20.5836 116.926 20.3869C116.926 20.1837 116.995 20.0198 117.132 19.8952C117.277 19.764 117.457 19.6985 117.673 19.6985C117.89 19.6985 118.067 19.764 118.204 19.8952C118.349 20.0198 118.421 20.1837 118.421 20.3869C118.421 20.5836 118.349 20.7508 118.204 20.8885C118.067 21.0196 117.89 21.0852 117.673 21.0852ZM121.948 26.9468C121.456 26.9468 121.024 26.8419 120.65 26.6321C120.276 26.4158 119.984 26.1142 119.775 25.7273C119.565 25.3405 119.46 24.8946 119.46 24.3898C119.46 23.8652 119.562 23.4063 119.765 23.0129C119.975 22.6195 120.266 22.3113 120.64 22.0884C121.02 21.8655 121.46 21.754 121.958 21.754C122.443 21.754 122.866 21.8622 123.227 22.0785C123.587 22.2949 123.866 22.5867 124.063 22.9539C124.259 23.3145 124.358 23.721 124.358 24.1734C124.358 24.239 124.358 24.3111 124.358 24.3898C124.358 24.4684 124.351 24.5504 124.338 24.6356H120.306V23.8783H123.168C123.155 23.5177 123.033 23.2358 122.804 23.0325C122.574 22.8227 122.289 22.7178 121.948 22.7178C121.706 22.7178 121.483 22.7735 121.279 22.885C121.076 22.9965 120.916 23.1637 120.798 23.3866C120.68 23.603 120.62 23.8783 120.62 24.2127V24.4979C120.62 24.8061 120.676 25.0716 120.788 25.2946C120.906 25.5175 121.063 25.688 121.26 25.806C121.463 25.9175 121.689 25.9732 121.938 25.9732C122.214 25.9732 122.44 25.9142 122.617 25.7962C122.801 25.6781 122.935 25.5208 123.02 25.3241H124.22C124.128 25.6322 123.977 25.9109 123.768 26.16C123.558 26.4026 123.299 26.5961 122.991 26.7403C122.683 26.878 122.335 26.9468 121.948 26.9468ZM126.239 26.8288L124.783 21.872H125.954L126.967 25.9437L126.75 25.9338L127.881 21.872H129.199L130.34 25.9338H130.124L131.137 21.872H132.307L130.851 26.8288H129.632L128.422 22.6293H128.668L127.458 26.8288H126.239ZM137.39 26.9468C136.991 26.9468 136.646 26.8682 136.358 26.7108C136.076 26.5469 135.86 26.3043 135.709 25.983C135.558 25.6552 135.482 25.252 135.482 24.7733V21.872H136.663V24.6553C136.663 25.0815 136.751 25.406 136.928 25.629C137.112 25.8453 137.387 25.9535 137.754 25.9535C137.99 25.9535 138.2 25.8978 138.384 25.7863C138.574 25.6749 138.721 25.5142 138.826 25.3044C138.938 25.088 138.994 24.8258 138.994 24.5176V21.872H140.174V26.8288H139.131L139.043 26.0027C138.892 26.2912 138.672 26.5207 138.384 26.6911C138.102 26.8616 137.771 26.9468 137.39 26.9468ZM143.464 26.9468C143.024 26.9468 142.641 26.878 142.313 26.7403C141.992 26.5961 141.736 26.3994 141.546 26.1502C141.362 25.8945 141.254 25.6027 141.221 25.2749H142.402C142.434 25.4126 142.493 25.5404 142.579 25.6585C142.664 25.7699 142.779 25.8584 142.923 25.924C143.074 25.9896 143.251 26.0224 143.454 26.0224C143.651 26.0224 143.811 25.9961 143.936 25.9437C144.06 25.8847 144.152 25.8093 144.211 25.7175C144.27 25.6257 144.3 25.5273 144.3 25.4224C144.3 25.2651 144.257 25.1438 144.172 25.0585C144.087 24.9733 143.962 24.9077 143.798 24.8618C143.641 24.8094 143.451 24.7602 143.228 24.7143C142.992 24.6684 142.762 24.6127 142.539 24.5471C142.323 24.475 142.126 24.3865 141.949 24.2816C141.779 24.1767 141.641 24.0423 141.536 23.8783C141.438 23.7144 141.389 23.5144 141.389 23.2784C141.389 22.9899 141.464 22.7309 141.615 22.5014C141.772 22.272 141.995 22.0917 142.284 21.9605C142.579 21.8228 142.929 21.754 143.336 21.754C143.913 21.754 144.372 21.8884 144.713 22.1572C145.06 22.4195 145.264 22.7899 145.323 23.2686H144.201C144.169 23.085 144.077 22.944 143.926 22.8457C143.775 22.7408 143.575 22.6883 143.326 22.6883C143.07 22.6883 142.874 22.7375 142.736 22.8358C142.605 22.9276 142.539 23.0522 142.539 23.2096C142.539 23.3079 142.579 23.3997 142.657 23.4849C142.742 23.5636 142.864 23.6325 143.021 23.6915C143.179 23.7439 143.372 23.7964 143.601 23.8488C143.969 23.921 144.293 24.0062 144.575 24.1045C144.857 24.2029 145.08 24.3471 145.244 24.5373C145.408 24.7274 145.49 24.9962 145.49 25.3437C145.496 25.6585 145.414 25.9371 145.244 26.1797C145.08 26.4223 144.847 26.6125 144.546 26.7501C144.244 26.8813 143.883 26.9468 143.464 26.9468ZM151.347 26.9468C150.875 26.9468 150.449 26.8387 150.069 26.6223C149.695 26.3994 149.4 26.0945 149.184 25.7076C148.974 25.3142 148.869 24.8651 148.869 24.3603C148.869 23.8423 148.977 23.3899 149.193 23.003C149.41 22.6096 149.705 22.3047 150.078 22.0884C150.459 21.8655 150.885 21.754 151.357 21.754C151.829 21.754 152.252 21.8655 152.626 22.0884C153.006 22.3047 153.301 22.6064 153.511 22.9932C153.727 23.38 153.835 23.8324 153.835 24.3504C153.835 24.8684 153.727 25.3208 153.511 25.7076C153.295 26.0945 152.996 26.3994 152.616 26.6223C152.242 26.8387 151.819 26.9468 151.347 26.9468ZM151.347 25.9338C151.583 25.9338 151.796 25.8748 151.986 25.7568C152.183 25.6388 152.341 25.4618 152.459 25.2257C152.577 24.9897 152.636 24.6979 152.636 24.3504C152.636 24.0029 152.577 23.7144 152.459 23.4849C152.347 23.2489 152.193 23.0719 151.996 22.9539C151.806 22.8358 151.593 22.7768 151.357 22.7768C151.128 22.7768 150.914 22.8358 150.718 22.9539C150.521 23.0719 150.364 23.2489 150.246 23.4849C150.128 23.7144 150.069 24.0029 150.069 24.3504C150.069 24.6979 150.128 24.9897 150.246 25.2257C150.364 25.4618 150.518 25.6388 150.708 25.7568C150.905 25.8748 151.118 25.9338 151.347 25.9338ZM154.991 26.8288V21.872H156.033L156.122 22.6981C156.273 22.4097 156.489 22.1802 156.771 22.0097C157.053 21.8392 157.387 21.754 157.774 21.754C158.174 21.754 158.515 21.8392 158.797 22.0097C159.079 22.1736 159.295 22.4162 159.446 22.7375C159.603 23.0588 159.682 23.4587 159.682 23.9373V26.8288H158.502V24.0455C158.502 23.6325 158.41 23.3145 158.226 23.0915C158.043 22.8686 157.771 22.7572 157.41 22.7572C157.174 22.7572 156.961 22.8129 156.771 22.9243C156.587 23.0358 156.44 23.1997 156.328 23.4161C156.223 23.6259 156.171 23.8816 156.171 24.1832V26.8288H154.991Z" fill="black"/>
<path d="M107 30.7661L108.842 36.4339H114.801L109.98 39.9368L111.821 45.6045L107 42.1017L102.179 45.6045L104.02 39.9368L99.1991 36.4339H105.158L107 30.7661Z" fill="#00B67A"/>
<path d="M111.828 45.6089L109.98 39.9372L107 42.1089L111.828 45.6089Z" fill="#00B67A"/>
<path d="M110.428 41.3192L107 42.1089L109.98 39.9372L110.428 41.3192Z" fill="#005128"/>
<path d="M117.973 42V36.0695H115.947V35.1155H121.169V36.0695H119.143V42H117.973ZM121.613 42V37.0432H122.665L122.773 37.9677C122.891 37.7513 123.039 37.5677 123.216 37.4169C123.393 37.2596 123.599 37.1383 123.835 37.053C124.078 36.9678 124.343 36.9252 124.632 36.9252V38.1742H124.219C124.022 38.1742 123.835 38.2004 123.658 38.2529C123.481 38.2988 123.327 38.3775 123.196 38.4889C123.071 38.5938 122.973 38.7414 122.901 38.9315C122.829 39.1151 122.793 39.3478 122.793 39.6298V42H121.613ZM127.361 42.118C126.961 42.118 126.617 42.0393 126.328 41.882C126.046 41.7181 125.83 41.4755 125.679 41.1542C125.528 40.8264 125.453 40.4231 125.453 39.9445V37.0432H126.633V39.8265C126.633 40.2527 126.721 40.5772 126.898 40.8001C127.082 41.0165 127.357 41.1247 127.725 41.1247C127.961 41.1247 128.17 41.069 128.354 40.9575C128.544 40.846 128.692 40.6854 128.797 40.4756C128.908 40.2592 128.964 39.9969 128.964 39.6888V37.0432H130.144V42H129.101L129.013 41.1739C128.862 41.4624 128.643 41.6918 128.354 41.8623C128.072 42.0328 127.741 42.118 127.361 42.118ZM133.434 42.118C132.995 42.118 132.611 42.0492 132.283 41.9115C131.962 41.7672 131.706 41.5705 131.516 41.3214C131.333 41.0657 131.224 40.7739 131.192 40.4461H132.372C132.405 40.5838 132.464 40.7116 132.549 40.8296C132.634 40.9411 132.749 41.0296 132.893 41.0952C133.044 41.1608 133.221 41.1935 133.424 41.1935C133.621 41.1935 133.781 41.1673 133.906 41.1149C134.031 41.0558 134.122 40.9804 134.181 40.8886C134.24 40.7969 134.27 40.6985 134.27 40.5936C134.27 40.4362 134.227 40.3149 134.142 40.2297C134.057 40.1445 133.932 40.0789 133.768 40.033C133.611 39.9806 133.421 39.9314 133.198 39.8855C132.962 39.8396 132.732 39.7839 132.509 39.7183C132.293 39.6462 132.096 39.5577 131.919 39.4527C131.749 39.3478 131.611 39.2134 131.506 39.0495C131.408 38.8856 131.359 38.6856 131.359 38.4496C131.359 38.1611 131.434 37.9021 131.585 37.6726C131.742 37.4431 131.965 37.2628 132.254 37.1317C132.549 36.994 132.9 36.9252 133.306 36.9252C133.883 36.9252 134.342 37.0596 134.683 37.3284C135.03 37.5907 135.234 37.9611 135.293 38.4397H134.172C134.139 38.2562 134.047 38.1152 133.896 38.0168C133.745 37.9119 133.545 37.8595 133.296 37.8595C133.041 37.8595 132.844 37.9087 132.706 38.007C132.575 38.0988 132.509 38.2234 132.509 38.3807C132.509 38.4791 132.549 38.5709 132.627 38.6561C132.713 38.7348 132.834 38.8036 132.991 38.8626C133.149 38.9151 133.342 38.9676 133.572 39.02C133.939 39.0921 134.263 39.1774 134.545 39.2757C134.827 39.3741 135.05 39.5183 135.214 39.7085C135.378 39.8986 135.46 40.1674 135.46 40.5149C135.466 40.8296 135.385 41.1083 135.214 41.3509C135.05 41.5935 134.817 41.7836 134.516 41.9213C134.214 42.0525 133.854 42.118 133.434 42.118ZM138.586 42C138.252 42 137.96 41.9475 137.711 41.8426C137.468 41.7377 137.278 41.564 137.14 41.3214C137.003 41.0788 136.934 40.751 136.934 40.3379V38.0365H136.088V37.0432H136.934L137.071 35.7351H138.114V37.0432H139.461V38.0365H138.114V40.3379C138.114 40.587 138.166 40.7608 138.271 40.8591C138.383 40.9509 138.566 40.9968 138.822 40.9968H139.432V42H138.586ZM140.572 44.1637V37.0432H141.624L141.752 37.7611C141.857 37.6169 141.981 37.4825 142.126 37.3579C142.276 37.2268 142.457 37.1219 142.667 37.0432C142.883 36.9645 143.129 36.9252 143.404 36.9252C143.87 36.9252 144.279 37.0399 144.634 37.2694C144.994 37.4989 145.276 37.8103 145.479 38.2037C145.683 38.5905 145.784 39.0331 145.784 39.5314C145.784 40.0297 145.679 40.4756 145.47 40.869C145.266 41.2558 144.984 41.5607 144.624 41.7836C144.27 42.0066 143.863 42.118 143.404 42.118C143.03 42.118 142.703 42.0492 142.421 41.9115C142.145 41.7672 141.922 41.564 141.752 41.3017V44.1637H140.572ZM143.158 41.0952C143.434 41.0952 143.68 41.0296 143.896 40.8985C144.112 40.7674 144.279 40.5838 144.398 40.3477C144.522 40.1117 144.584 39.8396 144.584 39.5314C144.584 39.2167 144.522 38.9413 144.398 38.7053C144.279 38.4693 144.112 38.2857 143.896 38.1545C143.68 38.0234 143.434 37.9578 143.158 37.9578C142.876 37.9578 142.627 38.0234 142.411 38.1545C142.201 38.2857 142.034 38.4693 141.909 38.7053C141.791 38.9413 141.732 39.2134 141.732 39.5216C141.732 39.8363 141.791 40.1117 141.909 40.3477C142.034 40.5772 142.201 40.7608 142.411 40.8985C142.627 41.0296 142.876 41.0952 143.158 41.0952ZM146.979 42V37.0432H148.159V42H146.979ZM147.569 36.2564C147.353 36.2564 147.172 36.1908 147.028 36.0597C146.891 35.922 146.822 35.7548 146.822 35.5581C146.822 35.3548 146.891 35.1909 147.028 35.0664C147.172 34.9352 147.353 34.8697 147.569 34.8697C147.786 34.8697 147.963 34.9352 148.1 35.0664C148.244 35.1909 148.317 35.3548 148.317 35.5581C148.317 35.7548 148.244 35.922 148.1 36.0597C147.963 36.1908 147.786 36.2564 147.569 36.2564ZM149.523 42V34.9188H150.703V42H149.523ZM154.331 42.118C153.859 42.118 153.433 42.0098 153.053 41.7935C152.679 41.5705 152.384 41.2657 152.168 40.8788C151.958 40.4854 151.853 40.0363 151.853 39.5314C151.853 39.0135 151.961 38.561 152.178 38.1742C152.394 37.7808 152.689 37.4759 153.063 37.2596C153.443 37.0366 153.869 36.9252 154.341 36.9252C154.813 36.9252 155.236 37.0366 155.61 37.2596C155.99 37.4759 156.285 37.7775 156.495 38.1644C156.711 38.5512 156.82 39.0036 156.82 39.5216C156.82 40.0396 156.711 40.492 156.495 40.8788C156.279 41.2657 155.98 41.5705 155.6 41.7935C155.226 42.0098 154.804 42.118 154.331 42.118ZM154.331 41.105C154.567 41.105 154.781 41.046 154.971 40.928C155.167 40.81 155.325 40.6329 155.443 40.3969C155.561 40.1609 155.62 39.8691 155.62 39.5216C155.62 39.1741 155.561 38.8856 155.443 38.6561C155.331 38.4201 155.177 38.243 154.981 38.125C154.79 38.007 154.577 37.948 154.341 37.948C154.112 37.948 153.899 38.007 153.702 38.125C153.505 38.243 153.348 38.4201 153.23 38.6561C153.112 38.8856 153.053 39.1741 153.053 39.5216C153.053 39.8691 153.112 40.1609 153.23 40.3969C153.348 40.6329 153.502 40.81 153.692 40.928C153.889 41.046 154.102 41.105 154.331 41.105ZM159.937 42C159.602 42 159.311 41.9475 159.061 41.8426C158.819 41.7377 158.629 41.564 158.491 41.3214C158.353 41.0788 158.284 40.751 158.284 40.3379V38.0365H157.439V37.0432H158.284L158.422 35.7351H159.465V37.0432H160.812V38.0365H159.465V40.3379C159.465 40.587 159.517 40.7608 159.622 40.8591C159.733 40.9509 159.917 40.9968 160.173 40.9968H160.783V42H159.937Z" fill="black"/>
</g>
<defs>
<filter id="filter0_dddd_1374_13164" x="0" y="0" width="260" height="215" filterUnits="userSpaceOnUse" color-interpolation-filters="sRGB">
<feFlood flood-opacity="0" result="BackgroundImageFix"/>
<feColorMatrix in="SourceAlpha" type="matrix" values="0 0 0 0 0 0 0 0 0 0 0 0 0 0 0 0 0 0 127 0" result="hardAlpha"/>
<feOffset dy="7"/>
<feGaussianBlur stdDeviation="8"/>
<feColorMatrix type="matrix" values="0 0 0 0 0.596078 0 0 0 0 0.678431 0 0 0 0 0.764706 0 0 0 0.1 0"/>
<feBlend mode="normal" in2="BackgroundImageFix" result="effect1_dropShadow_1374_13164"/>
<feColorMatrix in="SourceAlpha" type="matrix" values="0 0 0 0 0 0 0 0 0 0 0 0 0 0 0 0 0 0 127 0" result="hardAlpha"/>
<feOffset dy="29"/>
<feGaussianBlur stdDeviation="14.5"/>
<feColorMatrix type="matrix" values="0 0 0 0 0.596078 0 0 0 0 0.678431 0 0 0 0 0.764706 0 0 0 0.09 0"/>
<feBlend mode="normal" in2="effect1_dropShadow_1374_13164" result="effect2_dropShadow_1374_13164"/>
<feColorMatrix in="SourceAlpha" type="matrix" values="0 0 0 0 0 0 0 0 0 0 0 0 0 0 0 0 0 0 127 0" result="hardAlpha"/>
<feOffset dy="64"/>
<feGaussianBlur stdDeviation="19.5"/>
<feColorMatrix type="matrix" values="0 0 0 0 0.596078 0 0 0 0 0.678431 0 0 0 0 0.764706 0 0 0 0.05 0"/>
<feBlend mode="normal" in2="effect2_dropShadow_1374_13164" result="effect3_dropShadow_1374_13164"/>
<feColorMatrix in="SourceAlpha" type="matrix" values="0 0 0 0 0 0 0 0 0 0 0 0 0 0 0 0 0 0 127 0" result="hardAlpha"/>
<feOffset dy="114"/>
<feGaussianBlur stdDeviation="23"/>
<feColorMatrix type="matrix" values="0 0 0 0 0.596078 0 0 0 0 0.678431 0 0 0 0 0.764706 0 0 0 0.01 0"/>
<feBlend mode="normal" in2="effect3_dropShadow_1374_13164" result="effect4_dropShadow_1374_13164"/>
<feBlend mode="normal" in="SourceGraphic" in2="effect4_dropShadow_1374_13164" result="shape"/>
</filter>
</defs>
</svg>
