<svg width="260" height="215" viewBox="0 0 260 215" fill="none" xmlns="http://www.w3.org/2000/svg">
<g filter="url(#filter0_dddd_1374_13172)">
<rect x="46" y="9" width="168" height="46" rx="23" fill="white"/>
<g clip-path="url(#clip0_1374_13172)">
<rect x="55" y="18.3137" width="28.0932" height="27.3729" fill="#ED2939"/>
<rect x="55" y="27.6781" width="28.0932" height="8.64407" fill="#EEEEEE"/>
</g>
<path d="M93.2563 35.5V27.6262H94.8535L97.3731 32.7104L99.8702 27.6262H101.479V35.5H100.129V29.9434L97.9018 34.3977H96.8445L94.6061 29.9546V35.5H93.2563ZM102.559 35.5L105.439 27.6262H106.946L109.825 35.5H108.397L106.181 29.201L103.965 35.5H102.559ZM103.841 33.644L104.201 32.5755H108.082L108.442 33.644H103.841ZM110.909 35.5V27.6262H113.451C114.366 27.6262 115.119 27.7874 115.712 28.1099C116.311 28.4323 116.754 28.8898 117.039 29.4822C117.331 30.0671 117.478 30.7645 117.478 31.5744C117.478 32.3692 117.331 33.0629 117.039 33.6553C116.754 34.2402 116.311 34.6939 115.712 35.0163C115.119 35.3388 114.366 35.5 113.451 35.5H110.909ZM112.258 34.3527H113.383C114.066 34.3527 114.602 34.2439 114.992 34.0265C115.389 33.8015 115.67 33.4828 115.835 33.0704C116.008 32.6504 116.094 32.1518 116.094 31.5744C116.094 30.9894 116.008 30.4908 115.835 30.0783C115.67 29.6584 115.389 29.336 114.992 29.111C114.602 28.8785 114.066 28.7623 113.383 28.7623H112.258V34.3527ZM118.796 35.5V27.6262H123.88V28.7173H120.145V30.9782H123.542V32.0468H120.145V34.4089H123.88V35.5H118.796ZM128.045 35.5V27.6262H129.394V35.5H128.045ZM130.977 35.5V27.6262H132.327L136.118 33.3178V27.6262H137.468V35.5H136.118L132.327 29.8196V35.5H130.977ZM141.28 35.5L144.159 27.6262H145.667L148.546 35.5H147.118L144.902 29.201L142.686 35.5H141.28ZM142.562 33.644L142.922 32.5755H146.803L147.163 33.644H142.562ZM152.27 35.635C151.7 35.635 151.182 35.5225 150.717 35.2975C150.26 35.0726 149.893 34.7276 149.615 34.2627C149.345 33.7978 149.21 33.2129 149.21 32.508V27.6262H150.56V32.5192C150.56 32.9466 150.631 33.2991 150.774 33.5765C150.916 33.854 151.115 34.064 151.37 34.2065C151.632 34.3414 151.94 34.4089 152.292 34.4089C152.652 34.4089 152.96 34.3414 153.215 34.2065C153.477 34.064 153.676 33.854 153.811 33.5765C153.953 33.2991 154.024 32.9466 154.024 32.5192V27.6262H155.374V32.508C155.374 33.2129 155.235 33.7978 154.958 34.2627C154.681 34.7276 154.306 35.0726 153.833 35.2975C153.361 35.5225 152.84 35.635 152.27 35.635ZM159.534 35.635C158.964 35.635 158.457 35.5337 158.015 35.3313C157.573 35.1288 157.228 34.8401 156.98 34.4652C156.733 34.0902 156.605 33.644 156.598 33.1266H158.026C158.026 33.3891 158.086 33.6253 158.206 33.8353C158.334 34.0377 158.506 34.199 158.724 34.3189C158.949 34.4389 159.219 34.4989 159.534 34.4989C159.804 34.4989 160.036 34.4577 160.231 34.3752C160.433 34.2852 160.587 34.1615 160.692 34.004C160.805 33.839 160.861 33.6478 160.861 33.4303C160.861 33.1829 160.801 32.9804 160.681 32.8229C160.568 32.6579 160.411 32.5192 160.208 32.4067C160.006 32.2942 159.774 32.1968 159.511 32.1143C159.249 32.0243 158.971 31.9306 158.679 31.8331C158.056 31.6231 157.588 31.3569 157.273 31.0344C156.958 30.7045 156.8 30.2658 156.8 29.7184C156.8 29.261 156.909 28.8673 157.126 28.5373C157.344 28.2074 157.648 27.9524 158.038 27.7724C158.435 27.585 158.892 27.4912 159.41 27.4912C159.935 27.4912 160.392 27.585 160.782 27.7724C161.18 27.9599 161.491 28.2224 161.716 28.5598C161.948 28.8898 162.068 29.2872 162.076 29.7521H160.636C160.628 29.5572 160.576 29.3772 160.478 29.2122C160.381 29.0397 160.238 28.901 160.051 28.796C159.871 28.6836 159.65 28.6273 159.387 28.6273C159.162 28.6198 158.96 28.6573 158.78 28.7398C158.607 28.8148 158.469 28.9273 158.364 29.0772C158.266 29.2197 158.218 29.3997 158.218 29.6172C158.218 29.8271 158.263 30.0033 158.352 30.1458C158.45 30.2808 158.589 30.397 158.769 30.4945C158.949 30.5845 159.159 30.6707 159.399 30.7532C159.639 30.8357 159.901 30.9257 160.186 31.0232C160.576 31.1507 160.928 31.3081 161.243 31.4956C161.566 31.6756 161.821 31.9118 162.008 32.2043C162.196 32.4967 162.289 32.8754 162.289 33.3403C162.289 33.7453 162.184 34.124 161.974 34.4764C161.764 34.8214 161.457 35.1026 161.052 35.32C160.647 35.53 160.141 35.635 159.534 35.635ZM165.325 35.5V28.7173H163.008V27.6262H168.981V28.7173H166.664V35.5H165.325ZM170.094 35.5V27.6262H172.917C173.539 27.6262 174.053 27.735 174.458 27.9524C174.871 28.1624 175.174 28.4473 175.369 28.8073C175.572 29.1597 175.673 29.5609 175.673 30.0108C175.673 30.4308 175.575 30.8207 175.38 31.1807C175.185 31.5406 174.882 31.8293 174.469 32.0468C174.057 32.2643 173.528 32.373 172.883 32.373H171.444V35.5H170.094ZM174.199 35.5L172.546 32.0243H174.008L175.74 35.5H174.199ZM171.444 31.3719H172.827C173.33 31.3719 173.697 31.2519 173.929 31.0119C174.169 30.7645 174.289 30.442 174.289 30.0446C174.289 29.6547 174.173 29.3435 173.941 29.111C173.708 28.871 173.337 28.751 172.827 28.751H171.444V31.3719ZM177.069 35.5V27.6262H178.419V35.5H177.069ZM179.484 35.5L182.364 27.6262H183.871L186.751 35.5H185.322L183.106 29.201L180.891 35.5H179.484ZM180.767 33.644L181.127 32.5755H185.007L185.367 33.644H180.767Z" fill="black"/>
</g>
<defs>
<filter id="filter0_dddd_1374_13172" x="0" y="0" width="260" height="215" filterUnits="userSpaceOnUse" color-interpolation-filters="sRGB">
<feFlood flood-opacity="0" result="BackgroundImageFix"/>
<feColorMatrix in="SourceAlpha" type="matrix" values="0 0 0 0 0 0 0 0 0 0 0 0 0 0 0 0 0 0 127 0" result="hardAlpha"/>
<feOffset dy="7"/>
<feGaussianBlur stdDeviation="8"/>
<feColorMatrix type="matrix" values="0 0 0 0 0.596078 0 0 0 0 0.678431 0 0 0 0 0.764706 0 0 0 0.1 0"/>
<feBlend mode="normal" in2="BackgroundImageFix" result="effect1_dropShadow_1374_13172"/>
<feColorMatrix in="SourceAlpha" type="matrix" values="0 0 0 0 0 0 0 0 0 0 0 0 0 0 0 0 0 0 127 0" result="hardAlpha"/>
<feOffset dy="29"/>
<feGaussianBlur stdDeviation="14.5"/>
<feColorMatrix type="matrix" values="0 0 0 0 0.596078 0 0 0 0 0.678431 0 0 0 0 0.764706 0 0 0 0.09 0"/>
<feBlend mode="normal" in2="effect1_dropShadow_1374_13172" result="effect2_dropShadow_1374_13172"/>
<feColorMatrix in="SourceAlpha" type="matrix" values="0 0 0 0 0 0 0 0 0 0 0 0 0 0 0 0 0 0 127 0" result="hardAlpha"/>
<feOffset dy="64"/>
<feGaussianBlur stdDeviation="19.5"/>
<feColorMatrix type="matrix" values="0 0 0 0 0.596078 0 0 0 0 0.678431 0 0 0 0 0.764706 0 0 0 0.05 0"/>
<feBlend mode="normal" in2="effect2_dropShadow_1374_13172" result="effect3_dropShadow_1374_13172"/>
<feColorMatrix in="SourceAlpha" type="matrix" values="0 0 0 0 0 0 0 0 0 0 0 0 0 0 0 0 0 0 127 0" result="hardAlpha"/>
<feOffset dy="114"/>
<feGaussianBlur stdDeviation="23"/>
<feColorMatrix type="matrix" values="0 0 0 0 0.596078 0 0 0 0 0.678431 0 0 0 0 0.764706 0 0 0 0.01 0"/>
<feBlend mode="normal" in2="effect3_dropShadow_1374_13172" result="effect4_dropShadow_1374_13172"/>
<feBlend mode="normal" in="SourceGraphic" in2="effect4_dropShadow_1374_13172" result="shape"/>
</filter>
<clipPath id="clip0_1374_13172">
<rect x="55" y="18.3136" width="28.0932" height="27.3729" rx="13.6864" fill="white"/>
</clipPath>
</defs>
</svg>
