<svg width="169" height="46" viewBox="0 0 169 46" fill="none" xmlns="http://www.w3.org/2000/svg">
<g filter="url(#filter0_dddd_1_16460)">
<rect width="168.093" height="46" rx="23" fill="white"/>
<rect x="0.36017" y="0.36017" width="167.373" height="45.2797" rx="22.6398" stroke="#00B67A" stroke-width="0.720339"/>
<path d="M54.2447 17.8289V10.9444H56.7132C57.2574 10.9444 57.7066 11.0395 58.0606 11.2296C58.4212 11.4132 58.6868 11.6623 58.8573 11.9771C59.0343 12.2852 59.1228 12.636 59.1228 13.0294C59.1228 13.3966 59.0376 13.7375 58.8671 14.0522C58.6966 14.367 58.4311 14.6194 58.0705 14.8095C57.7099 14.9997 57.2476 15.0947 56.6837 15.0947H55.4249V17.8289H54.2447ZM57.8344 17.8289L56.3887 14.7899H57.6672L59.1818 17.8289H57.8344ZM55.4249 14.2194H56.6346C57.0739 14.2194 57.3951 14.1145 57.5984 13.9047C57.8082 13.6883 57.9131 13.4064 57.9131 13.0589C57.9131 12.718 57.8115 12.4459 57.6082 12.2426C57.405 12.0328 57.0804 11.9279 56.6346 11.9279H55.4249V14.2194ZM62.3275 17.9469C61.8357 17.9469 61.403 17.842 61.0293 17.6322C60.6555 17.4158 60.3638 17.1142 60.1539 16.7273C59.9441 16.3405 59.8392 15.8946 59.8392 15.3898C59.8392 14.8653 59.9409 14.4063 60.1441 14.0129C60.3539 13.6195 60.6457 13.3113 61.0194 13.0884C61.3997 12.8655 61.839 12.754 62.3373 12.754C62.8225 12.754 63.2454 12.8622 63.606 13.0786C63.9666 13.2949 64.2453 13.5867 64.442 13.9539C64.6387 14.3145 64.737 14.721 64.737 15.1734C64.737 15.239 64.737 15.3111 64.737 15.3898C64.737 15.4685 64.7305 15.5504 64.7174 15.6357H60.685V14.8784H63.547C63.5339 14.5178 63.4126 14.2358 63.1831 14.0326C62.9536 13.8228 62.6684 13.7178 62.3275 13.7178C62.0849 13.7178 61.8619 13.7736 61.6587 13.885C61.4554 13.9965 61.2948 14.1637 61.1768 14.3866C61.0588 14.603 60.9997 14.8784 60.9997 15.2128V15.498C60.9997 15.8061 61.0555 16.0717 61.1669 16.2946C61.285 16.5175 61.4423 16.688 61.639 16.806C61.8423 16.9175 62.0685 16.9732 62.3176 16.9732C62.593 16.9732 62.8192 16.9142 62.9962 16.7962C63.1798 16.6782 63.3142 16.5208 63.3995 16.3241H64.5993C64.5075 16.6323 64.3567 16.9109 64.1469 17.1601C63.9371 17.4027 63.6781 17.5961 63.37 17.7403C63.0618 17.878 62.7143 17.9469 62.3275 17.9469ZM66.9918 17.8289L65.1625 12.872H66.4018L67.7098 16.7077L69.0178 12.872H70.2374L68.4081 17.8289H66.9918ZM71.1295 17.8289V12.872H72.3097V17.8289H71.1295ZM71.7196 12.0852C71.5033 12.0852 71.3229 12.0197 71.1787 11.8885C71.041 11.7509 70.9722 11.5837 70.9722 11.387C70.9722 11.1837 71.041 11.0198 71.1787 10.8952C71.3229 10.7641 71.5033 10.6985 71.7196 10.6985C71.936 10.6985 72.113 10.7641 72.2507 10.8952C72.395 11.0198 72.4671 11.1837 72.4671 11.387C72.4671 11.5837 72.395 11.7509 72.2507 11.8885C72.113 12.0197 71.936 12.0852 71.7196 12.0852ZM75.9946 17.9469C75.5029 17.9469 75.0701 17.842 74.6964 17.6322C74.3227 17.4158 74.0309 17.1142 73.8211 16.7273C73.6113 16.3405 73.5064 15.8946 73.5064 15.3898C73.5064 14.8653 73.608 14.4063 73.8112 14.0129C74.0211 13.6195 74.3128 13.3113 74.6865 13.0884C75.0668 12.8655 75.5061 12.754 76.0044 12.754C76.4896 12.754 76.9125 12.8622 77.2731 13.0786C77.6338 13.2949 77.9124 13.5867 78.1091 13.9539C78.3058 14.3145 78.4042 14.721 78.4042 15.1734C78.4042 15.239 78.4042 15.3111 78.4042 15.3898C78.4042 15.4685 78.3976 15.5504 78.3845 15.6357H74.3522V14.8784H77.2141C77.201 14.5178 77.0797 14.2358 76.8502 14.0326C76.6208 13.8228 76.3355 13.7178 75.9946 13.7178C75.752 13.7178 75.5291 13.7736 75.3258 13.885C75.1226 13.9965 74.9619 14.1637 74.8439 14.3866C74.7259 14.603 74.6669 14.8784 74.6669 15.2128V15.498C74.6669 15.8061 74.7226 16.0717 74.8341 16.2946C74.9521 16.5175 75.1095 16.688 75.3062 16.806C75.5094 16.9175 75.7356 16.9732 75.9848 16.9732C76.2601 16.9732 76.4863 16.9142 76.6634 16.7962C76.847 16.6782 76.9814 16.5208 77.0666 16.3241H78.2665C78.1747 16.6323 78.0239 16.9109 77.8141 17.1601C77.6043 17.4027 77.3453 17.5961 77.0371 17.7403C76.7289 17.878 76.3814 17.9469 75.9946 17.9469ZM80.2853 17.8289L78.8297 12.872H80L81.013 16.9437L80.7967 16.9339L81.9277 12.872H83.2456L84.3864 16.9339H84.1701L85.1831 12.872H86.3534L84.8978 17.8289H83.6783L82.4686 13.6293H82.7145L81.5048 17.8289H80.2853ZM91.4369 17.9469C91.0369 17.9469 90.6927 17.8682 90.4042 17.7108C90.1223 17.5469 89.9059 17.3043 89.7551 16.9831C89.6043 16.6552 89.5289 16.252 89.5289 15.7734V12.872H90.7091V15.6553C90.7091 16.0815 90.7976 16.4061 90.9746 16.629C91.1582 16.8454 91.4336 16.9535 91.8008 16.9535C92.0368 16.9535 92.2466 16.8978 92.4302 16.7864C92.6203 16.6749 92.7679 16.5143 92.8728 16.3044C92.9842 16.0881 93.04 15.8258 93.04 15.5176V12.872H94.2202V17.8289H93.1777L93.0891 17.0027C92.9383 17.2912 92.7187 17.5207 92.4302 17.6912C92.1483 17.8616 91.8171 17.9469 91.4369 17.9469ZM97.5101 17.9469C97.0708 17.9469 96.6872 17.878 96.3594 17.7403C96.0381 17.5961 95.7824 17.3994 95.5923 17.1502C95.4087 16.8945 95.3005 16.6028 95.2677 16.2749H96.4479C96.4807 16.4126 96.5397 16.5405 96.625 16.6585C96.7102 16.77 96.8249 16.8585 96.9692 16.924C97.12 16.9896 97.297 17.0224 97.5003 17.0224C97.697 17.0224 97.8576 16.9962 97.9822 16.9437C98.1068 16.8847 98.1986 16.8093 98.2576 16.7175C98.3166 16.6257 98.3461 16.5274 98.3461 16.4225C98.3461 16.2651 98.3035 16.1438 98.2182 16.0586C98.133 15.9733 98.0084 15.9078 97.8445 15.8619C97.6871 15.8094 97.497 15.7602 97.2741 15.7143C97.038 15.6684 96.8085 15.6127 96.5856 15.5471C96.3692 15.475 96.1726 15.3865 95.9955 15.2816C95.825 15.1767 95.6874 15.0423 95.5825 14.8784C95.4841 14.7145 95.4349 14.5145 95.4349 14.2784C95.4349 13.9899 95.5103 13.731 95.6611 13.5015C95.8185 13.272 96.0414 13.0917 96.3299 12.9606C96.625 12.8229 96.9757 12.754 97.3823 12.754C97.9592 12.754 98.4182 12.8884 98.7591 13.1573C99.1066 13.4195 99.3099 13.79 99.3689 14.2686H98.2477C98.2149 14.085 98.1232 13.944 97.9723 13.8457C97.8215 13.7408 97.6216 13.6883 97.3724 13.6883C97.1167 13.6883 96.92 13.7375 96.7823 13.8359C96.6512 13.9277 96.5856 14.0522 96.5856 14.2096C96.5856 14.3079 96.625 14.3997 96.7036 14.485C96.7889 14.5637 96.9102 14.6325 97.0675 14.6915C97.2249 14.744 97.4183 14.7964 97.6478 14.8489C98.015 14.921 98.3395 15.0062 98.6215 15.1046C98.9034 15.2029 99.1263 15.3472 99.2902 15.5373C99.4541 15.7275 99.5361 15.9963 99.5361 16.3438C99.5427 16.6585 99.4607 16.9372 99.2902 17.1798C99.1263 17.4223 98.8936 17.6125 98.592 17.7502C98.2903 17.8813 97.9297 17.9469 97.5101 17.9469ZM105.394 17.9469C104.922 17.9469 104.495 17.8387 104.115 17.6223C103.741 17.3994 103.446 17.0945 103.23 16.7077C103.02 16.3143 102.915 15.8651 102.915 15.3603C102.915 14.8423 103.023 14.3899 103.24 14.0031C103.456 13.6097 103.751 13.3048 104.125 13.0884C104.505 12.8655 104.931 12.754 105.403 12.754C105.876 12.754 106.298 12.8655 106.672 13.0884C107.052 13.3048 107.347 13.6064 107.557 13.9932C107.774 14.3801 107.882 14.8325 107.882 15.3504C107.882 15.8684 107.774 16.3208 107.557 16.7077C107.341 17.0945 107.043 17.3994 106.662 17.6223C106.289 17.8387 105.866 17.9469 105.394 17.9469ZM105.394 16.9339C105.63 16.9339 105.843 16.8749 106.033 16.7568C106.23 16.6388 106.387 16.4618 106.505 16.2258C106.623 15.9897 106.682 15.6979 106.682 15.3504C106.682 15.0029 106.623 14.7145 106.505 14.485C106.393 14.2489 106.239 14.0719 106.043 13.9539C105.853 13.8359 105.639 13.7769 105.403 13.7769C105.174 13.7769 104.961 13.8359 104.764 13.9539C104.567 14.0719 104.41 14.2489 104.292 14.485C104.174 14.7145 104.115 15.0029 104.115 15.3504C104.115 15.6979 104.174 15.9897 104.292 16.2258C104.41 16.4618 104.564 16.6388 104.754 16.7568C104.951 16.8749 105.164 16.9339 105.394 16.9339ZM109.037 17.8289V12.872H110.08L110.168 13.6982C110.319 13.4097 110.535 13.1802 110.817 13.0097C111.099 12.8393 111.434 12.754 111.82 12.754C112.22 12.754 112.561 12.8393 112.843 13.0097C113.125 13.1736 113.342 13.4162 113.492 13.7375C113.65 14.0588 113.728 14.4587 113.728 14.9374V17.8289H112.548V15.0456C112.548 14.6325 112.456 14.3145 112.273 14.0916C112.089 13.8686 111.817 13.7572 111.457 13.7572C111.22 13.7572 111.007 13.8129 110.817 13.9244C110.634 14.0358 110.486 14.1998 110.375 14.4161C110.27 14.6259 110.217 14.8816 110.217 15.1833V17.8289H109.037Z" fill="black"/>
<path d="M61.0467 21.7661L62.8883 27.4339H68.8477L64.0264 30.9367L65.868 36.6045L61.0467 33.1016L56.2254 36.6045L58.067 30.9367L53.2457 27.4339H59.2051L61.0467 21.7661Z" fill="#00B67A"/>
<path d="M65.875 36.6088L64.0263 30.9371L61.0469 33.1089L65.875 36.6088Z" fill="#00B67A"/>
<path d="M64.475 32.3192L61.0469 33.1089L64.0263 30.9371L64.475 32.3192Z" fill="#005128"/>
<path d="M72.0192 33V27.0695H69.9932V26.1155H75.2155V27.0695H73.1895V33H72.0192ZM75.6592 33V28.0432H76.7115L76.8197 28.9677C76.9377 28.7513 77.0852 28.5677 77.2623 28.4169C77.4393 28.2596 77.6458 28.1383 77.8819 28.053C78.1245 27.9678 78.39 27.9252 78.6785 27.9252V29.1742H78.2654C78.0687 29.1742 77.8819 29.2004 77.7048 29.2529C77.5278 29.2988 77.3737 29.3775 77.2426 29.4889C77.118 29.5938 77.0197 29.7414 76.9475 29.9315C76.8754 30.1151 76.8394 30.3478 76.8394 30.6298V33H75.6592ZM81.4073 33.118C81.0074 33.118 80.6631 33.0393 80.3746 32.882C80.0927 32.7181 79.8763 32.4755 79.7255 32.1542C79.5747 31.8264 79.4993 31.4231 79.4993 30.9445V28.0432H80.6795V30.8265C80.6795 31.2527 80.768 31.5772 80.9451 31.8001C81.1287 32.0165 81.404 32.1247 81.7712 32.1247C82.0072 32.1247 82.2171 32.069 82.4006 31.9575C82.5908 31.846 82.7383 31.6854 82.8432 31.4756C82.9547 31.2592 83.0104 30.9969 83.0104 30.6888V28.0432H84.1906V33H83.1481L83.0596 32.1739C82.9088 32.4624 82.6891 32.6918 82.4006 32.8623C82.1187 33.0328 81.7876 33.118 81.4073 33.118ZM87.4806 33.118C87.0413 33.118 86.6577 33.0492 86.3299 32.9115C86.0086 32.7672 85.7529 32.5705 85.5627 32.3214C85.3791 32.0657 85.271 31.7739 85.2382 31.4461H86.4184C86.4512 31.5838 86.5102 31.7116 86.5954 31.8296C86.6806 31.9411 86.7954 32.0296 86.9396 32.0952C87.0904 32.1608 87.2675 32.1935 87.4707 32.1935C87.6674 32.1935 87.8281 32.1673 87.9526 32.1149C88.0772 32.0558 88.169 31.9804 88.228 31.8886C88.287 31.7969 88.3165 31.6985 88.3165 31.5936C88.3165 31.4362 88.2739 31.3149 88.1887 31.2297C88.1034 31.1445 87.9789 31.0789 87.8149 31.033C87.6576 30.9806 87.4674 30.9314 87.2445 30.8855C87.0085 30.8396 86.779 30.7839 86.5561 30.7183C86.3397 30.6462 86.143 30.5577 85.966 30.4527C85.7955 30.3478 85.6578 30.2134 85.5529 30.0495C85.4546 29.8856 85.4054 29.6856 85.4054 29.4496C85.4054 29.1611 85.4808 28.9021 85.6316 28.6726C85.7889 28.4431 86.0119 28.2628 86.3004 28.1317C86.5954 27.994 86.9462 27.9252 87.3527 27.9252C87.9297 27.9252 88.3886 28.0596 88.7296 28.3284C89.0771 28.5907 89.2803 28.9611 89.3394 29.4397H88.2182C88.1854 29.2562 88.0936 29.1152 87.9428 29.0168C87.792 28.9119 87.592 28.8595 87.3429 28.8595C87.0872 28.8595 86.8905 28.9087 86.7528 29.007C86.6216 29.0988 86.5561 29.2234 86.5561 29.3807C86.5561 29.4791 86.5954 29.5709 86.6741 29.6561C86.7593 29.7348 86.8806 29.8036 87.038 29.8626C87.1953 29.9151 87.3888 29.9676 87.6182 30.02C87.9854 30.0921 88.31 30.1774 88.5919 30.2757C88.8738 30.3741 89.0968 30.5183 89.2607 30.7085C89.4246 30.8986 89.5066 31.1674 89.5066 31.5149C89.5131 31.8296 89.4312 32.1083 89.2607 32.3509C89.0968 32.5935 88.864 32.7836 88.5624 32.9213C88.2608 33.0525 87.9002 33.118 87.4806 33.118ZM92.6327 33C92.2983 33 92.0065 32.9475 91.7574 32.8426C91.5148 32.7377 91.3246 32.564 91.1869 32.3214C91.0493 32.0788 90.9804 31.751 90.9804 31.3379V29.0365H90.1346V28.0432H90.9804L91.1181 26.7351H92.1606V28.0432H93.508V29.0365H92.1606V31.3379C92.1606 31.587 92.2131 31.7608 92.318 31.8591C92.4294 31.9509 92.613 31.9968 92.8687 31.9968H93.4785V33H92.6327ZM94.6183 35.1637V28.0432H95.6707L95.7985 28.7611C95.9034 28.6169 96.028 28.4825 96.1723 28.3579C96.3231 28.2268 96.5034 28.1219 96.7132 28.0432C96.9296 27.9645 97.1754 27.9252 97.4508 27.9252C97.9163 27.9252 98.3261 28.0399 98.6802 28.2694C99.0408 28.4989 99.3227 28.8103 99.526 29.2037C99.7292 29.5905 99.8309 30.0331 99.8309 30.5314C99.8309 31.0297 99.726 31.4756 99.5162 31.869C99.3129 32.2558 99.031 32.5607 98.6704 32.7836C98.3163 33.0066 97.9098 33.118 97.4508 33.118C97.0771 33.118 96.7493 33.0492 96.4673 32.9115C96.1919 32.7672 95.969 32.564 95.7985 32.3017V35.1637H94.6183ZM97.2049 32.0952C97.4803 32.0952 97.7262 32.0296 97.9426 31.8985C98.1589 31.7674 98.3261 31.5838 98.4441 31.3477C98.5687 31.1117 98.631 30.8396 98.631 30.5314C98.631 30.2167 98.5687 29.9413 98.4441 29.7053C98.3261 29.4693 98.1589 29.2857 97.9426 29.1545C97.7262 29.0234 97.4803 28.9578 97.2049 28.9578C96.923 28.9578 96.6739 29.0234 96.4575 29.1545C96.2477 29.2857 96.0805 29.4693 95.9559 29.7053C95.8379 29.9413 95.7789 30.2134 95.7789 30.5216C95.7789 30.8363 95.8379 31.1117 95.9559 31.3477C96.0805 31.5772 96.2477 31.7608 96.4575 31.8985C96.6739 32.0296 96.923 32.0952 97.2049 32.0952ZM101.026 33V28.0432H102.206V33H101.026ZM101.616 27.2564C101.399 27.2564 101.219 27.1908 101.075 27.0597C100.937 26.922 100.868 26.7548 100.868 26.5581C100.868 26.3548 100.937 26.1909 101.075 26.0664C101.219 25.9352 101.399 25.8697 101.616 25.8697C101.832 25.8697 102.009 25.9352 102.147 26.0664C102.291 26.1909 102.363 26.3548 102.363 26.5581C102.363 26.7548 102.291 26.922 102.147 27.0597C102.009 27.1908 101.832 27.2564 101.616 27.2564ZM103.57 33V25.9188H104.75V33H103.57ZM108.378 33.118C107.906 33.118 107.48 33.0098 107.1 32.7935C106.726 32.5705 106.431 32.2657 106.214 31.8788C106.005 31.4854 105.9 31.0363 105.9 30.5314C105.9 30.0135 106.008 29.561 106.224 29.1742C106.441 28.7808 106.736 28.4759 107.109 28.2596C107.49 28.0366 107.916 27.9252 108.388 27.9252C108.86 27.9252 109.283 28.0366 109.657 28.2596C110.037 28.4759 110.332 28.7775 110.542 29.1644C110.758 29.5512 110.866 30.0036 110.866 30.5216C110.866 31.0396 110.758 31.492 110.542 31.8788C110.325 32.2657 110.027 32.5705 109.647 32.7935C109.273 33.0098 108.85 33.118 108.378 33.118ZM108.378 32.105C108.614 32.105 108.827 32.046 109.017 31.928C109.214 31.81 109.371 31.6329 109.489 31.3969C109.607 31.1609 109.666 30.8691 109.666 30.5216C109.666 30.1741 109.607 29.8856 109.489 29.6561C109.378 29.4201 109.224 29.243 109.027 29.125C108.837 29.007 108.624 28.948 108.388 28.948C108.158 28.948 107.945 29.007 107.749 29.125C107.552 29.243 107.395 29.4201 107.277 29.6561C107.159 29.8856 107.1 30.1741 107.1 30.5216C107.1 30.8691 107.159 31.1609 107.277 31.3969C107.395 31.6329 107.549 31.81 107.739 31.928C107.935 32.046 108.149 32.105 108.378 32.105ZM113.983 33C113.649 33 113.357 32.9475 113.108 32.8426C112.865 32.7377 112.675 32.564 112.538 32.3214C112.4 32.0788 112.331 31.751 112.331 31.3379V29.0365H111.485V28.0432H112.331L112.469 26.7351H113.511V28.0432H114.859V29.0365H113.511V31.3379C113.511 31.587 113.564 31.7608 113.669 31.8591C113.78 31.9509 113.964 31.9968 114.219 31.9968H114.829V33H113.983Z" fill="black"/>
</g>
<defs>
<filter id="filter0_dddd_1_16460" x="-46" y="-9" width="260.093" height="215" filterUnits="userSpaceOnUse" color-interpolation-filters="sRGB">
<feFlood flood-opacity="0" result="BackgroundImageFix"/>
<feColorMatrix in="SourceAlpha" type="matrix" values="0 0 0 0 0 0 0 0 0 0 0 0 0 0 0 0 0 0 127 0" result="hardAlpha"/>
<feOffset dy="7"/>
<feGaussianBlur stdDeviation="8"/>
<feColorMatrix type="matrix" values="0 0 0 0 0.596078 0 0 0 0 0.678431 0 0 0 0 0.764706 0 0 0 0.1 0"/>
<feBlend mode="normal" in2="BackgroundImageFix" result="effect1_dropShadow_1_16460"/>
<feColorMatrix in="SourceAlpha" type="matrix" values="0 0 0 0 0 0 0 0 0 0 0 0 0 0 0 0 0 0 127 0" result="hardAlpha"/>
<feOffset dy="29"/>
<feGaussianBlur stdDeviation="14.5"/>
<feColorMatrix type="matrix" values="0 0 0 0 0.596078 0 0 0 0 0.678431 0 0 0 0 0.764706 0 0 0 0.09 0"/>
<feBlend mode="normal" in2="effect1_dropShadow_1_16460" result="effect2_dropShadow_1_16460"/>
<feColorMatrix in="SourceAlpha" type="matrix" values="0 0 0 0 0 0 0 0 0 0 0 0 0 0 0 0 0 0 127 0" result="hardAlpha"/>
<feOffset dy="64"/>
<feGaussianBlur stdDeviation="19.5"/>
<feColorMatrix type="matrix" values="0 0 0 0 0.596078 0 0 0 0 0.678431 0 0 0 0 0.764706 0 0 0 0.05 0"/>
<feBlend mode="normal" in2="effect2_dropShadow_1_16460" result="effect3_dropShadow_1_16460"/>
<feColorMatrix in="SourceAlpha" type="matrix" values="0 0 0 0 0 0 0 0 0 0 0 0 0 0 0 0 0 0 127 0" result="hardAlpha"/>
<feOffset dy="114"/>
<feGaussianBlur stdDeviation="23"/>
<feColorMatrix type="matrix" values="0 0 0 0 0.596078 0 0 0 0 0.678431 0 0 0 0 0.764706 0 0 0 0.01 0"/>
<feBlend mode="normal" in2="effect3_dropShadow_1_16460" result="effect4_dropShadow_1_16460"/>
<feBlend mode="normal" in="SourceGraphic" in2="effect4_dropShadow_1_16460" result="shape"/>
</filter>
</defs>
</svg>
