<?xml version="1.0" encoding="UTF-8"?>
<svg xmlns="http://www.w3.org/2000/svg" width="143" height="63" viewBox="0 0 143 63" fill="none">
  <g clip-path="url(#clip0_1_6139)">
    <rect width="142.474" height="63" rx="10" fill="white"></rect>
    <rect width="59.0678" height="63.3898" transform="translate(0 -0.195312)" fill="#2050E0"></rect>
    <path d="M29.5156 14.9688L30.019 16.5181H31.6481L30.3301 17.4756L30.8335 19.0249L29.5156 18.0674L28.1977 19.0249L28.7011 17.4756L27.3832 16.5181H29.0122L29.5156 14.9688Z" fill="#F9D827"></path>
    <path d="M29.5156 43.5459L30.019 45.0952H31.6481L30.3301 46.0527L30.8335 47.6021L29.5156 46.6445L28.1977 47.6021L28.7011 46.0527L27.3832 45.0952H29.0122L29.5156 43.5459Z" fill="#F9D827"></path>
    <path d="M21.0684 42.2432L21.5718 43.7925H23.2008L21.8829 44.75L22.3863 46.2993L21.0684 45.3418L19.7504 46.2993L20.2538 44.75L18.9359 43.7925H20.565L21.0684 42.2432Z" fill="#F9D827"></path>
    <path d="M22.2939 17.5322L22.7973 19.0815H24.4264L23.1085 20.0391L23.6119 21.5884L22.2939 20.6309L20.976 21.5884L21.4794 20.0391L20.1615 19.0815H21.7905L22.2939 17.5322Z" fill="#F9D827"></path>
    <path d="M37.9629 42.2432L38.4663 43.7925H40.0953L38.7774 44.75L39.2808 46.2993L37.9629 45.3418L36.645 46.2993L37.1484 44.75L35.8304 43.7925H37.4595L37.9629 42.2432Z" fill="#F9D827"></path>
    <path d="M36.7383 17.5322L37.2417 19.0815H38.8707L37.5528 20.0391L38.0562 21.5884L36.7383 20.6309L35.4204 21.5884L35.9238 20.0391L34.6058 19.0815H36.2349L36.7383 17.5322Z" fill="#F9D827"></path>
    <path d="M42.542 22.0176L43.0454 23.5669H44.6744L43.3565 24.5244L43.8599 26.0737L42.542 25.1162L41.2241 26.0737L41.7275 24.5244L40.4095 23.5669H42.0386L42.542 22.0176Z" fill="#F9D827"></path>
    <path d="M42.542 36.3096L43.0454 37.8589H44.6744L43.3565 38.8164L43.8599 40.3657L42.542 39.4082L41.2241 40.3657L41.7275 38.8164L40.4095 37.8589H42.0386L42.542 36.3096Z" fill="#F9D827"></path>
    <path d="M16.9619 22.0176L17.4653 23.5669H19.0944L17.7764 24.5244L18.2798 26.0737L16.9619 25.1162L15.644 26.0737L16.1474 24.5244L14.8295 23.5669H16.4585L16.9619 22.0176Z" fill="#F9D827"></path>
    <path d="M16.457 36.3096L16.9604 37.8589H18.5895L17.2716 38.8164L17.775 40.3657L16.457 39.4082L15.1391 40.3657L15.6425 38.8164L14.3246 37.8589H15.9536L16.457 36.3096Z" fill="#F9D827"></path>
    <path d="M15.1953 29.335L15.6987 30.8843H17.3278L16.0098 31.8418L16.5132 33.3911L15.1953 32.4336L13.8774 33.3911L14.3808 31.8418L13.0629 30.8843H14.6919L15.1953 29.335Z" fill="#F9D827"></path>
    <path d="M43.873 29.335L44.3764 30.8843H46.0055L44.6876 31.8418L45.191 33.3911L43.873 32.4336L42.5551 33.3911L43.0585 31.8418L41.7406 30.8843H43.3696L43.873 29.335Z" fill="#F9D827"></path>
    <path d="M29.0439 27.3779L29.1035 27.543L31.9033 35.2861L32.0254 35.6211H30.4805L30.4209 35.4551L29.7207 33.501H26.8965L26.1904 35.4561L26.1309 35.6211H24.5918L24.7129 35.2861L27.5137 27.543L27.5732 27.3779H29.0439ZM34.3711 27.3779V35.6211H32.8799V27.3779H34.3711ZM27.3369 32.0898H29.2705L28.3047 29.3477L27.3369 32.0898Z" fill="white" stroke="white" stroke-width="0.5"></path>
    <rect x="60.0674" y="11.2529" width="82.4061" height="40.4948" rx="4.75992" fill="white"></rect>
    <path d="M66.5286 28.5L69.2597 21.0031H71.1017L73.8327 28.5H72.1299L70.17 22.8131L68.2101 28.5H66.5286ZM67.7174 26.8614L68.1458 25.6191H72.0763L72.494 26.8614H67.7174ZM74.7611 28.5V21.0031H76.3675V28.5H74.7611ZM79.7172 28.5L82.4482 21.0031H84.2903L87.0213 28.5H85.3184L83.3585 22.8131L81.3986 28.5H79.7172ZM80.906 26.8614L81.3344 25.6191H85.2649L85.6826 26.8614H80.906ZM90.9158 28.6285C90.1661 28.6285 89.52 28.4679 88.9774 28.1466C88.4347 27.8181 88.017 27.3648 87.7243 26.7864C87.4316 26.201 87.2852 25.5298 87.2852 24.773C87.2852 24.0019 87.4316 23.3272 87.7243 22.7488C88.017 22.1634 88.4347 21.7064 88.9774 21.378C89.52 21.0424 90.1661 20.8746 90.9158 20.8746C91.844 20.8746 92.6008 21.1067 93.1863 21.5707C93.7789 22.0348 94.1466 22.6881 94.2894 23.5306H92.533C92.4473 23.1522 92.2653 22.8595 91.9868 22.6524C91.7084 22.4382 91.3478 22.3311 90.9051 22.3311C90.4839 22.3311 90.1233 22.4311 89.8234 22.631C89.5307 22.8309 89.3058 23.113 89.1487 23.4771C88.9988 23.8341 88.9238 24.2661 88.9238 24.773C88.9238 25.2656 88.9988 25.694 89.1487 26.0582C89.3058 26.4152 89.5307 26.6936 89.8234 26.8935C90.1233 27.0863 90.4839 27.1827 90.9051 27.1827C91.3478 27.1827 91.7048 27.0899 91.9761 26.9042C92.2546 26.7115 92.4402 26.4366 92.533 26.0796H94.2894C94.1466 26.8721 93.7789 27.4968 93.1863 27.9538C92.6008 28.4036 91.844 28.6285 90.9158 28.6285ZM97.1836 28.5V22.299H95.0095V21.0031H100.964V22.299H98.7901V28.5H97.1836ZM70.3735 42.6285C69.6452 42.6285 69.0133 42.4679 68.4778 42.1466C67.9495 41.8181 67.5425 41.3648 67.2569 40.7864C66.9713 40.201 66.8285 39.5227 66.8285 38.7516C66.8285 37.9805 66.9713 37.3057 67.2569 36.7274C67.5425 36.1419 67.9495 35.6886 68.4778 35.3673C69.0133 35.0388 69.6452 34.8746 70.3735 34.8746C71.2303 34.8746 71.9264 35.0781 72.4619 35.4851C72.9974 35.892 73.3401 36.4668 73.49 37.2093H72.494C72.3798 36.7453 72.1477 36.374 71.7979 36.0955C71.448 35.8099 70.9732 35.6671 70.3735 35.6671C69.838 35.6671 69.3739 35.7921 68.9812 36.042C68.5885 36.2847 68.2851 36.6382 68.0709 37.1023C67.8567 37.5592 67.7496 38.109 67.7496 38.7516C67.7496 39.3942 67.8567 39.9475 68.0709 40.4116C68.2851 40.8685 68.5885 41.222 68.9812 41.4719C69.3739 41.7146 69.838 41.836 70.3735 41.836C70.9732 41.836 71.448 41.7003 71.7979 41.429C72.1477 41.1506 72.3798 40.7829 72.494 40.3259H73.49C73.3401 41.047 72.9974 41.6111 72.4619 42.0181C71.9264 42.425 71.2303 42.6285 70.3735 42.6285ZM78.1359 42.6285C77.4148 42.6285 76.7793 42.4679 76.2296 42.1466C75.6869 41.8181 75.2621 41.3648 74.9551 40.7864C74.6552 40.201 74.5053 39.5227 74.5053 38.7516C74.5053 37.9876 74.6552 37.3164 74.9551 36.7381C75.2621 36.1526 75.6869 35.6957 76.2296 35.3673C76.7793 35.0388 77.4148 34.8746 78.1359 34.8746C78.8713 34.8746 79.5103 35.0388 80.053 35.3673C80.5956 35.6957 81.0169 36.1526 81.3167 36.7381C81.6238 37.3164 81.7773 37.9876 81.7773 38.7516C81.7773 39.5227 81.6238 40.201 81.3167 40.7864C81.0169 41.3648 80.5956 41.8181 80.053 42.1466C79.5103 42.4679 78.8713 42.6285 78.1359 42.6285ZM78.1359 41.836C78.6785 41.836 79.1534 41.7146 79.5603 41.4719C79.9744 41.222 80.2922 40.8685 80.5135 40.4116C80.742 39.9475 80.8562 39.3942 80.8562 38.7516C80.8562 38.109 80.742 37.5592 80.5135 37.1023C80.2922 36.6382 79.9744 36.2847 79.5603 36.042C79.1534 35.7992 78.6785 35.6778 78.1359 35.6778C77.6004 35.6778 77.1256 35.7992 76.7115 36.042C76.3045 36.2847 75.9868 36.6382 75.7583 37.1023C75.537 37.5592 75.4263 38.109 75.4263 38.7516C75.4263 39.3942 75.537 39.9475 75.7583 40.4116C75.9868 40.8685 76.3045 41.222 76.7115 41.4719C77.1256 41.7146 77.6004 41.836 78.1359 41.836ZM83.0883 42.5V35.0031H84.1379L86.7832 40.2402L89.4392 35.0031H90.4995V42.5H89.5999V36.6096L87.1259 41.4504H86.4512L83.9879 36.631V42.5H83.0883ZM92.0933 42.5V35.0031H94.5352C95.1278 35.0031 95.6133 35.1031 95.9917 35.303C96.3773 35.4958 96.6593 35.7564 96.8378 36.0848C97.0234 36.4133 97.1162 36.7881 97.1162 37.2093C97.1162 37.6163 97.0234 37.9876 96.8378 38.3232C96.6593 38.6516 96.3808 38.9158 96.0024 39.1157C95.624 39.3156 95.1349 39.4156 94.5352 39.4156H92.993V42.5H92.0933ZM92.993 38.6552H94.5245C95.1242 38.6552 95.5526 38.5231 95.8096 38.2589C96.0667 37.9947 96.1952 37.6449 96.1952 37.2093C96.1952 36.7453 96.0667 36.3883 95.8096 36.1384C95.5526 35.8813 95.1242 35.7528 94.5245 35.7528H92.993V38.6552ZM98.3059 42.5V35.0031H99.2055V41.7824H102.697V42.5H98.3059ZM103.954 42.5V35.0031H104.853V42.5H103.954ZM105.982 42.5L108.745 35.0031H109.698L112.451 42.5H111.497L109.216 36.1277L106.924 42.5H105.982ZM107.246 40.5722L107.503 39.844H110.898L111.155 40.5722H107.246ZM113.576 42.5V35.0031H114.475L118.47 41.0113V35.0031H119.37V42.5H118.47L114.475 36.4918V42.5H113.576ZM122.737 42.5V35.7421H120.499V35.0031H125.875V35.7421H123.637V42.5H122.737Z" fill="#172A47"></path>
  </g>
  <defs>
    <clipPath id="clip0_1_6139">
      <rect width="142.474" height="63" rx="10" fill="white"></rect>
    </clipPath>
  </defs>
</svg>
