<svg xmlns="http://www.w3.org/2000/svg" width="172" height="64" viewBox="0 0 172 64" fill="none"><g clip-path="url(#clip0_1271_29237)"><rect y="0.977539" width="172" height="63" rx="10" fill="white"></rect><rect width="59.0678" height="63.3898" transform="translate(0 0.782715)" fill="#2050E0"></rect><path d="M29.5151 15.9473L30.0185 17.4966H31.6476L30.3297 18.4541L30.8331 20.0034L29.5151 19.0459L28.1972 20.0034L28.7006 18.4541L27.3827 17.4966H29.0117L29.5151 15.9473Z" fill="#F9D827"></path><path d="M29.5151 44.5244L30.0185 46.0737H31.6476L30.3297 47.0313L30.8331 48.5806L29.5151 47.623L28.1972 48.5806L28.7006 47.0313L27.3827 46.0737H29.0117L29.5151 44.5244Z" fill="#F9D827"></path><path d="M21.0679 43.2217L21.5713 44.771H23.2003L21.8824 45.7285L22.3858 47.2778L21.0679 46.3203L19.7499 47.2778L20.2533 45.7285L18.9354 44.771H20.5645L21.0679 43.2217Z" fill="#F9D827"></path><path d="M22.2935 18.5107L22.7969 20.0601H24.4259L23.108 21.0176L23.6114 22.5669L22.2935 21.6094L20.9755 22.5669L21.4789 21.0176L20.161 20.0601H21.7901L22.2935 18.5107Z" fill="#F9D827"></path><path d="M37.9624 43.2217L38.4658 44.771H40.0948L38.7769 45.7285L39.2803 47.2778L37.9624 46.3203L36.6445 47.2778L37.1479 45.7285L35.83 44.771H37.459L37.9624 43.2217Z" fill="#F9D827"></path><path d="M36.7373 18.5107L37.2407 20.0601H38.8698L37.5518 21.0176L38.0552 22.5669L36.7373 21.6094L35.4194 22.5669L35.9228 21.0176L34.6049 20.0601H36.2339L36.7373 18.5107Z" fill="#F9D827"></path><path d="M42.542 22.9961L43.0454 24.5454H44.6744L43.3565 25.5029L43.8599 27.0522L42.542 26.0947L41.2241 27.0522L41.7275 25.5029L40.4095 24.5454H42.0386L42.542 22.9961Z" fill="#F9D827"></path><path d="M42.542 37.2881L43.0454 38.8374H44.6744L43.3565 39.7949L43.8599 41.3442L42.542 40.3867L41.2241 41.3442L41.7275 39.7949L40.4095 38.8374H42.0386L42.542 37.2881Z" fill="#F9D827"></path><path d="M16.9614 22.9961L17.4648 24.5454H19.0939L17.7759 25.5029L18.2793 27.0522L16.9614 26.0947L15.6435 27.0522L16.1469 25.5029L14.829 24.5454H16.458L16.9614 22.9961Z" fill="#F9D827"></path><path d="M16.4561 37.2881L16.9595 38.8374H18.5885L17.2706 39.7949L17.774 41.3442L16.4561 40.3867L15.1381 41.3442L15.6415 39.7949L14.3236 38.8374H15.9527L16.4561 37.2881Z" fill="#F9D827"></path><path d="M15.1948 30.3135L15.6982 31.8628H17.3273L16.0093 32.8203L16.5127 34.3696L15.1948 33.4121L13.8769 34.3696L14.3803 32.8203L13.0624 31.8628H14.6914L15.1948 30.3135Z" fill="#F9D827"></path><path d="M43.8726 30.3135L44.376 31.8628H46.005L44.6871 32.8203L45.1905 34.3696L43.8726 33.4121L42.5546 34.3696L43.058 32.8203L41.7401 31.8628H43.3692L43.8726 30.3135Z" fill="#F9D827"></path><rect x="24.6709" y="31.2383" width="9.72533" height="6.44344" rx="1.10023" fill="white"></rect><rect x="27.314" y="27.2739" width="4.67759" height="8.50987" rx="2.3388" stroke="white" stroke-width="1.46697"></rect><g clip-path="url(#clip1_1271_29237)"><rect x="73.0679" y="12.23" width="82.4061" height="40.4948" rx="4.75992" fill="white"></rect><path d="M73.9886 29.4775V21.9807H76.591C77.4621 21.9807 78.1797 22.1377 78.7437 22.4519C79.3149 22.7589 79.7362 23.1944 80.0075 23.7585C80.2859 24.3154 80.4252 24.9723 80.4252 25.7291C80.4252 26.4788 80.2859 27.1357 80.0075 27.6997C79.7362 28.2566 79.3149 28.6922 78.7437 29.0063C78.1797 29.3205 77.4621 29.4775 76.591 29.4775H73.9886ZM75.595 28.096H76.4947C77.073 28.096 77.5299 28.0032 77.8655 27.8175C78.2011 27.6247 78.4367 27.3534 78.5724 27.0036C78.7152 26.6466 78.7866 26.2218 78.7866 25.7291C78.7866 25.2293 78.7152 24.8045 78.5724 24.4546C78.4367 24.0976 78.2011 23.8263 77.8655 23.6407C77.5299 23.4479 77.073 23.3515 76.4947 23.3515H75.595V28.096ZM84.2581 29.6061C83.7226 29.6061 83.2371 29.5168 82.8016 29.3383C82.3732 29.1527 82.034 28.8814 81.7841 28.5244C81.5342 28.1674 81.3986 27.7283 81.3772 27.2071H83.0907C83.0979 27.4141 83.1514 27.5962 83.2514 27.7533C83.3513 27.9103 83.487 28.0353 83.6583 28.1281C83.8297 28.2138 84.0296 28.2566 84.2581 28.2566C84.4509 28.2566 84.6187 28.2281 84.7615 28.1709C84.9114 28.1067 85.0292 28.0174 85.1149 27.9032C85.2006 27.7818 85.2434 27.6319 85.2434 27.4534C85.2434 27.2677 85.1934 27.1107 85.0935 26.9822C84.9935 26.8465 84.8578 26.7323 84.6865 26.6394C84.5151 26.5395 84.3152 26.4502 84.0867 26.3717C83.8654 26.286 83.6262 26.2039 83.3692 26.1254C82.7766 25.9326 82.3196 25.672 81.9983 25.3435C81.6842 25.0151 81.5271 24.576 81.5271 24.0262C81.5271 23.5693 81.6378 23.1802 81.8591 22.8589C82.0876 22.5304 82.3982 22.2805 82.7909 22.1092C83.1835 21.9378 83.6298 21.8521 84.1296 21.8521C84.6437 21.8521 85.097 21.9414 85.4897 22.1199C85.8824 22.2912 86.193 22.5447 86.4215 22.8803C86.65 23.2087 86.7713 23.6014 86.7856 24.0584H85.0613C85.0542 23.9013 85.0078 23.7585 84.9221 23.63C84.8436 23.5015 84.7329 23.3979 84.5901 23.3194C84.4544 23.2409 84.2938 23.2016 84.1082 23.2016C83.9439 23.1944 83.794 23.2194 83.6583 23.2766C83.5298 23.3265 83.4227 23.4086 83.3371 23.5229C83.2585 23.63 83.2192 23.7656 83.2192 23.9299C83.2192 24.0869 83.2585 24.2262 83.3371 24.3475C83.4227 24.4618 83.537 24.5617 83.6798 24.6474C83.8297 24.7259 84.0011 24.8009 84.1938 24.8723C84.3938 24.9437 84.6115 25.0151 84.8471 25.0865C85.2256 25.215 85.5718 25.3685 85.886 25.547C86.2073 25.7184 86.4643 25.9469 86.6571 26.2325C86.857 26.5109 86.957 26.8822 86.957 27.3463C86.957 27.7533 86.8499 28.1281 86.6357 28.4708C86.4286 28.8135 86.1252 29.0884 85.7253 29.2955C85.3327 29.5025 84.8436 29.6061 84.2581 29.6061ZM91.48 29.6061C90.766 29.6061 90.1413 29.449 89.6058 29.1348C89.0775 28.8135 88.6669 28.3673 88.3742 27.7961C88.0814 27.2249 87.9351 26.5573 87.9351 25.7934C87.9351 25.0223 88.085 24.3404 88.3849 23.7478C88.6919 23.1552 89.131 22.6911 89.7022 22.3555C90.2734 22.0199 90.9553 21.8521 91.7478 21.8521C92.6403 21.8521 93.3792 22.0663 93.9647 22.4947C94.5573 22.9231 94.9393 23.5157 95.1107 24.2726H93.3221C93.215 23.9727 93.0258 23.7406 92.7545 23.5764C92.4903 23.4122 92.1512 23.3301 91.7371 23.3301C91.2658 23.3301 90.8696 23.4336 90.5483 23.6407C90.227 23.8406 89.9842 24.1262 89.82 24.4975C89.6558 24.8616 89.5737 25.2936 89.5737 25.7934C89.5737 26.3074 89.6558 26.743 89.82 27.1C89.9842 27.457 90.2234 27.7283 90.5376 27.9139C90.8517 28.0924 91.223 28.1817 91.6514 28.1817C92.2654 28.1817 92.7295 28.021 93.0437 27.6997C93.365 27.3784 93.5613 26.975 93.6327 26.4895H91.887V25.29H95.2392V29.4775H93.7612L93.6327 28.61C93.4828 28.8242 93.3043 29.0063 93.0972 29.1562C92.8973 29.3062 92.6617 29.4169 92.3904 29.4882C92.1262 29.5668 91.8227 29.6061 91.48 29.6061ZM98.6792 29.4775L95.9803 21.9807H97.6939L99.6752 27.8496L101.678 21.9807H103.381L100.671 29.4775H98.6792ZM107.486 29.6061C106.751 29.6061 106.105 29.4418 105.548 29.1134C104.991 28.785 104.552 28.3316 104.23 27.7533C103.916 27.1678 103.759 26.4931 103.759 25.7291C103.759 24.9651 103.916 24.294 104.23 23.7157C104.552 23.1302 104.991 22.6732 105.548 22.3448C106.105 22.0164 106.751 21.8521 107.486 21.8521C108.222 21.8521 108.871 22.0164 109.435 22.3448C110 22.6732 110.435 23.1302 110.742 23.7157C111.056 24.294 111.213 24.9651 111.213 25.7291C111.213 26.4931 111.056 27.1678 110.742 27.7533C110.435 28.3316 110 28.785 109.435 29.1134C108.871 29.4418 108.222 29.6061 107.486 29.6061ZM107.486 28.1602C107.922 28.1602 108.293 28.0603 108.6 27.8604C108.914 27.6604 109.157 27.382 109.328 27.025C109.5 26.6609 109.585 26.2289 109.585 25.7291C109.585 25.2293 109.5 24.8009 109.328 24.4439C109.157 24.0798 108.914 23.8013 108.6 23.6086C108.293 23.4086 107.922 23.3087 107.486 23.3087C107.065 23.3087 106.697 23.4086 106.383 23.6086C106.069 23.8013 105.826 24.0798 105.655 24.4439C105.484 24.8009 105.398 25.2293 105.398 25.7291C105.398 26.2289 105.484 26.6609 105.655 27.025C105.826 27.382 106.069 27.6604 106.383 27.8604C106.697 28.0603 107.065 28.1602 107.486 28.1602ZM120.474 29.4775L116.405 25.4614C116.076 25.1329 115.844 24.8366 115.708 24.5724C115.58 24.3011 115.516 24.0191 115.516 23.7264C115.516 23.3765 115.605 23.0624 115.783 22.7839C115.962 22.4983 116.219 22.2734 116.554 22.1092C116.897 21.9378 117.311 21.8521 117.797 21.8521C118.282 21.8521 118.689 21.9414 119.018 22.1199C119.346 22.2984 119.593 22.5304 119.757 22.816C119.928 23.1016 120.01 23.4194 120.003 23.7692H118.472C118.479 23.5336 118.414 23.3587 118.279 23.2444C118.143 23.1302 117.975 23.0731 117.775 23.0731C117.554 23.0731 117.376 23.1338 117.24 23.2551C117.104 23.3694 117.036 23.5229 117.036 23.7157C117.036 23.8727 117.086 24.0405 117.186 24.219C117.293 24.3904 117.451 24.5867 117.658 24.8081L122.37 29.4775H120.474ZM117.283 29.5953C116.726 29.5953 116.24 29.5025 115.826 29.3169C115.412 29.1241 115.094 28.8564 114.873 28.5137C114.652 28.1638 114.541 27.7604 114.541 27.3034C114.541 26.9393 114.612 26.6037 114.755 26.2967C114.905 25.9826 115.13 25.7077 115.43 25.4721C115.737 25.2293 116.115 25.0365 116.565 24.8937L117.165 24.701L117.861 25.6863L117.336 25.8576C116.915 25.9861 116.601 26.1682 116.394 26.4038C116.194 26.6323 116.094 26.8965 116.094 27.1963C116.094 27.3963 116.144 27.5819 116.244 27.7533C116.344 27.9175 116.49 28.0496 116.683 28.1495C116.876 28.2423 117.104 28.2887 117.368 28.2887C117.747 28.2887 118.086 28.2066 118.386 28.0424C118.693 27.8711 118.978 27.6033 119.243 27.2392C119.364 27.075 119.482 26.8929 119.596 26.693C119.717 26.4859 119.835 26.2539 119.949 25.9968L120.153 25.5792H121.77L121.438 26.286C121.267 26.6573 121.088 27 120.903 27.3142C120.717 27.6212 120.524 27.8961 120.324 28.1388C119.917 28.6386 119.464 29.0063 118.964 29.2419C118.472 29.4775 117.911 29.5953 117.283 29.5953ZM129.069 29.6061C128.355 29.6061 127.73 29.449 127.195 29.1348C126.666 28.8135 126.256 28.3673 125.963 27.7961C125.67 27.2249 125.524 26.5573 125.524 25.7934C125.524 25.0223 125.674 24.3404 125.974 23.7478C126.281 23.1552 126.72 22.6911 127.291 22.3555C127.862 22.0199 128.544 21.8521 129.337 21.8521C130.229 21.8521 130.968 22.0663 131.554 22.4947C132.146 22.9231 132.528 23.5157 132.7 24.2726H130.911C130.804 23.9727 130.615 23.7406 130.343 23.5764C130.079 23.4122 129.74 23.3301 129.326 23.3301C128.855 23.3301 128.459 23.4336 128.137 23.6407C127.816 23.8406 127.573 24.1262 127.409 24.4975C127.245 24.8616 127.163 25.2936 127.163 25.7934C127.163 26.3074 127.245 26.743 127.409 27.1C127.573 27.457 127.812 27.7283 128.127 27.9139C128.441 28.0924 128.812 28.1817 129.24 28.1817C129.854 28.1817 130.318 28.021 130.633 27.6997C130.954 27.3784 131.15 26.975 131.222 26.4895H129.476V25.29H132.828V29.4775H131.35L131.222 28.61C131.072 28.8242 130.893 29.0063 130.686 29.1562C130.486 29.3062 130.251 29.4169 129.979 29.4882C129.715 29.5668 129.412 29.6061 129.069 29.6061ZM134.148 29.4775V21.9807H136.75C137.621 21.9807 138.339 22.1377 138.903 22.4519C139.474 22.7589 139.895 23.1944 140.167 23.7585C140.445 24.3154 140.584 24.9723 140.584 25.7291C140.584 26.4788 140.445 27.1357 140.167 27.6997C139.895 28.2566 139.474 28.6922 138.903 29.0063C138.339 29.3205 137.621 29.4775 136.75 29.4775H134.148ZM135.754 28.096H136.654C137.232 28.096 137.689 28.0032 138.025 27.8175C138.36 27.6247 138.596 27.3534 138.731 27.0036C138.874 26.6466 138.946 26.2218 138.946 25.7291C138.946 25.2293 138.874 24.8045 138.731 24.4546C138.596 24.0976 138.36 23.8263 138.025 23.6407C137.689 23.4479 137.232 23.3515 136.654 23.3515H135.754V28.096ZM141.783 29.4775V21.9807H144.696C145.31 21.9807 145.817 22.0842 146.216 22.2912C146.623 22.4983 146.927 22.7839 147.127 23.148C147.327 23.505 147.427 23.9084 147.427 24.3582C147.427 24.7795 147.33 25.1686 147.137 25.5256C146.945 25.8826 146.648 26.1718 146.249 26.3931C145.849 26.6144 145.331 26.7251 144.696 26.7251H143.389V29.4775H141.783ZM143.389 25.4399H144.589C145.01 25.4399 145.313 25.3435 145.499 25.1508C145.692 24.9509 145.788 24.6867 145.788 24.3582C145.788 24.0227 145.692 23.7621 145.499 23.5764C145.313 23.3837 145.01 23.2873 144.589 23.2873H143.389V25.4399ZM148.466 29.4775V21.9807H151.379C151.986 21.9807 152.489 22.0878 152.889 22.302C153.296 22.509 153.596 22.7875 153.789 23.1373C153.988 23.4872 154.088 23.8763 154.088 24.3047C154.088 24.7045 153.992 25.0794 153.799 25.4292C153.614 25.7791 153.321 26.0611 152.921 26.2753C152.521 26.4895 152.004 26.5966 151.368 26.5966H150.072V29.4775H148.466ZM152.332 29.4775L150.822 26.2003H152.546L154.153 29.4775H152.332ZM150.072 25.4399H151.282C151.682 25.4399 151.975 25.3435 152.161 25.1508C152.353 24.958 152.45 24.6974 152.45 24.369C152.45 24.0477 152.353 23.7942 152.161 23.6086C151.975 23.4158 151.682 23.3194 151.282 23.3194H150.072V25.4399ZM77.33 43.6061C76.6018 43.6061 75.9699 43.4454 75.4344 43.1241C74.906 42.7957 74.4991 42.3423 74.2135 41.764C73.9279 41.1785 73.7851 40.5002 73.7851 39.7291C73.7851 38.958 73.9279 38.2833 74.2135 37.7049C74.4991 37.1195 74.906 36.6661 75.4344 36.3448C75.9699 36.0164 76.6018 35.8521 77.33 35.8521C78.1868 35.8521 78.8829 36.0556 79.4184 36.4626C79.9539 36.8696 80.2966 37.4443 80.4466 38.1869H79.4506C79.3363 37.7228 79.1043 37.3515 78.7544 37.0731C78.4046 36.7875 77.9298 36.6447 77.33 36.6447C76.7945 36.6447 76.3304 36.7696 75.9377 37.0195C75.545 37.2623 75.2416 37.6157 75.0274 38.0798C74.8132 38.5367 74.7061 39.0865 74.7061 39.7291C74.7061 40.3717 74.8132 40.925 75.0274 41.3891C75.2416 41.8461 75.545 42.1995 75.9377 42.4494C76.3304 42.6922 76.7945 42.8135 77.33 42.8135C77.9298 42.8135 78.4046 42.6779 78.7544 42.4066C79.1043 42.1281 79.3363 41.7604 79.4506 41.3034H80.4466C80.2966 42.0246 79.9539 42.5886 79.4184 42.9956C78.8829 43.4026 78.1868 43.6061 77.33 43.6061ZM85.0925 43.6061C84.3713 43.6061 83.7359 43.4454 83.1861 43.1241C82.6435 42.7957 82.2187 42.3423 81.9116 41.764C81.6118 41.1785 81.4618 40.5002 81.4618 39.7291C81.4618 38.9651 81.6118 38.294 81.9116 37.7157C82.2187 37.1302 82.6435 36.6732 83.1861 36.3448C83.7359 36.0164 84.3713 35.8521 85.0925 35.8521C85.8279 35.8521 86.4669 36.0164 87.0095 36.3448C87.5522 36.6732 87.9734 37.1302 88.2733 37.7157C88.5803 38.294 88.7338 38.9651 88.7338 39.7291C88.7338 40.5002 88.5803 41.1785 88.2733 41.764C87.9734 42.3423 87.5522 42.7957 87.0095 43.1241C86.4669 43.4454 85.8279 43.6061 85.0925 43.6061ZM85.0925 42.8135C85.6351 42.8135 86.1099 42.6922 86.5169 42.4494C86.931 42.1995 87.2487 41.8461 87.47 41.3891C87.6985 40.925 87.8128 40.3717 87.8128 39.7291C87.8128 39.0865 87.6985 38.5367 87.47 38.0798C87.2487 37.6157 86.931 37.2623 86.5169 37.0195C86.1099 36.7768 85.6351 36.6554 85.0925 36.6554C84.557 36.6554 84.0822 36.7768 83.6681 37.0195C83.2611 37.2623 82.9434 37.6157 82.7149 38.0798C82.4935 38.5367 82.3829 39.0865 82.3829 39.7291C82.3829 40.3717 82.4935 40.925 82.7149 41.3891C82.9434 41.8461 83.2611 42.1995 83.6681 42.4494C84.0822 42.6922 84.557 42.8135 85.0925 42.8135ZM90.0448 43.4775V35.9807H91.0944L93.7397 41.2178L96.3958 35.9807H97.456V43.4775H96.5564V37.5871L94.0824 42.428H93.4077L90.9445 37.6086V43.4775H90.0448ZM99.0499 43.4775V35.9807H101.492C102.084 35.9807 102.57 36.0806 102.948 36.2805C103.334 36.4733 103.616 36.7339 103.794 37.0624C103.98 37.3908 104.073 37.7656 104.073 38.1869C104.073 38.5939 103.98 38.9651 103.794 39.3007C103.616 39.6291 103.337 39.8933 102.959 40.0932C102.581 40.2932 102.091 40.3931 101.492 40.3931H99.9495V43.4775H99.0499ZM99.9495 39.6327H101.481C102.081 39.6327 102.509 39.5006 102.766 39.2365C103.023 38.9723 103.152 38.6224 103.152 38.1869C103.152 37.7228 103.023 37.3658 102.766 37.1159C102.509 36.8589 102.081 36.7304 101.481 36.7304H99.9495V39.6327ZM105.262 43.4775V35.9807H106.162V42.76H109.653V43.4775H105.262ZM110.91 43.4775V35.9807H111.81V43.4775H110.91ZM112.938 43.4775L115.701 35.9807H116.655L119.407 43.4775H118.454L116.173 37.1052L113.881 43.4775H112.938ZM114.202 41.5498L114.459 40.8215H117.854L118.111 41.5498H114.202ZM120.532 43.4775V35.9807H121.432L125.427 41.9889V35.9807H126.326V43.4775H125.427L121.432 37.4693V43.4775H120.532ZM129.694 43.4775V36.7196H127.455V35.9807H132.831V36.7196H130.593V43.4775H129.694Z" fill="#172A47"></path></g></g><defs><clipPath id="clip0_1271_29237"><rect y="0.977539" width="172" height="63" rx="10" fill="white"></rect></clipPath><clipPath id="clip1_1271_29237"><rect x="73.0679" y="12.23" width="82.4061" height="40.4948" rx="4.75992" fill="white"></rect></clipPath></defs></svg>