<svg xmlns="http://www.w3.org/2000/svg" width="120" height="64" viewBox="0 0 120 64" fill="none"><rect y="0.3125" width="119.034" height="63.3898" rx="10" fill="white"></rect><rect x="17.2881" y="18.3208" width="28.0932" height="27.3729" fill="#ED2939"></rect><rect x="17.2881" y="27.6851" width="28.0932" height="8.64407" fill="#EEEEEE"></rect><path d="M55.5442 28.0073V20.1335H57.1415L59.6611 25.2178L62.1582 20.1335H63.7667V28.0073H62.4169V22.4507L60.1898 26.905H59.1324L56.894 22.4619V28.0073H55.5442ZM64.8471 28.0073L67.7266 20.1335H69.2339L72.1134 28.0073H70.6849L68.469 21.7083L66.2531 28.0073H64.8471ZM66.1294 26.1514L66.4893 25.0828H70.37L70.7299 26.1514H66.1294ZM73.1965 28.0073V20.1335H75.7386C76.6535 20.1335 77.4071 20.2948 77.9995 20.6172C78.5994 20.9397 79.0419 21.3971 79.3268 21.9895C79.6193 22.5744 79.7655 23.2718 79.7655 24.0817C79.7655 24.8766 79.6193 25.5702 79.3268 26.1626C79.0419 26.7475 78.5994 27.2012 77.9995 27.5236C77.4071 27.8461 76.6535 28.0073 75.7386 28.0073H73.1965ZM74.5463 26.86H75.6711C76.3535 26.86 76.8897 26.7513 77.2797 26.5338C77.6771 26.3088 77.9583 25.9901 78.1233 25.5777C78.2957 25.1578 78.382 24.6591 78.382 24.0817C78.382 23.4968 78.2957 22.9981 78.1233 22.5857C77.9583 22.1657 77.6771 21.8433 77.2797 21.6183C76.8897 21.3858 76.3535 21.2696 75.6711 21.2696H74.5463V26.86ZM81.0835 28.0073V20.1335H86.1677V21.2246H82.4333V23.4855H85.8303V24.5541H82.4333V26.9162H86.1677V28.0073H81.0835ZM90.3326 28.0073V20.1335H91.6823V28.0073H90.3326ZM93.2655 28.0073V20.1335H94.6152L98.4059 25.8252V20.1335H99.7557V28.0073H98.4059L94.6152 22.327V28.0073H93.2655ZM55.0268 43.0073L57.9064 35.1335H59.4136L62.2932 43.0073H60.8647L58.6488 36.7083L56.4328 43.0073H55.0268ZM56.3091 41.1514L56.6691 40.0828H60.5497L60.9097 41.1514H56.3091ZM66.0165 43.1423C65.4466 43.1423 64.9292 43.0298 64.4643 42.8049C64.0068 42.5799 63.6394 42.2349 63.3619 41.77C63.092 41.3051 62.957 40.7202 62.957 40.0153V35.1335H64.3068V40.0265C64.3068 40.454 64.378 40.8064 64.5205 41.0839C64.663 41.3613 64.8617 41.5713 65.1167 41.7138C65.3791 41.8488 65.6866 41.9162 66.039 41.9162C66.399 41.9162 66.7064 41.8488 66.9614 41.7138C67.2239 41.5713 67.4226 41.3613 67.5575 41.0839C67.7 40.8064 67.7713 40.454 67.7713 40.0265V35.1335H69.1211V40.0153C69.1211 40.7202 68.9823 41.3051 68.7049 41.77C68.4274 42.2349 68.0525 42.5799 67.58 42.8049C67.1076 43.0298 66.5865 43.1423 66.0165 43.1423ZM73.2805 43.1423C72.7105 43.1423 72.2044 43.0411 71.7619 42.8386C71.3195 42.6361 70.9746 42.3474 70.7271 41.9725C70.4796 41.5975 70.3522 41.1514 70.3447 40.6339H71.7732C71.7732 40.8964 71.8332 41.1326 71.9532 41.3426C72.0806 41.5451 72.2531 41.7063 72.4706 41.8263C72.6955 41.9462 72.9655 42.0062 73.2805 42.0062C73.5504 42.0062 73.7829 41.965 73.9778 41.8825C74.1803 41.7925 74.334 41.6688 74.439 41.5113C74.5515 41.3463 74.6077 41.1551 74.6077 40.9376C74.6077 40.6902 74.5478 40.4877 74.4278 40.3302C74.3153 40.1653 74.1578 40.0265 73.9553 39.9141C73.7529 39.8016 73.5204 39.7041 73.258 39.6216C72.9955 39.5316 72.718 39.4379 72.4256 39.3404C71.8032 39.1304 71.3345 38.8642 71.0196 38.5418C70.7046 38.2118 70.5471 37.7731 70.5471 37.2257C70.5471 36.7683 70.6559 36.3746 70.8733 36.0447C71.0908 35.7147 71.3945 35.4597 71.7844 35.2798C72.1819 35.0923 72.6393 34.9986 73.1567 34.9986C73.6816 34.9986 74.1391 35.0923 74.529 35.2798C74.9264 35.4672 75.2377 35.7297 75.4626 36.0671C75.6951 36.3971 75.8151 36.7945 75.8226 37.2595H74.3828C74.3753 37.0645 74.3228 36.8845 74.2253 36.7195C74.1278 36.5471 73.9853 36.4083 73.7979 36.3034C73.6179 36.1909 73.3967 36.1346 73.1342 36.1346C72.9093 36.1271 72.7068 36.1646 72.5268 36.2471C72.3543 36.3221 72.2156 36.4346 72.1106 36.5846C72.0131 36.727 71.9644 36.907 71.9644 37.1245C71.9644 37.3345 72.0094 37.5107 72.0994 37.6532C72.1969 37.7881 72.3356 37.9044 72.5156 38.0018C72.6955 38.0918 72.9055 38.1781 73.1455 38.2606C73.3854 38.343 73.6479 38.433 73.9329 38.5305C74.3228 38.658 74.6752 38.8155 74.9902 39.0029C75.3126 39.1829 75.5676 39.4191 75.7551 39.7116C75.9425 40.004 76.0363 40.3827 76.0363 40.8477C76.0363 41.2526 75.9313 41.6313 75.7213 41.9837C75.5114 42.3287 75.2039 42.6099 74.799 42.8274C74.394 43.0373 73.8879 43.1423 73.2805 43.1423ZM79.0723 43.0073V36.2246H76.7552V35.1335H82.728V36.2246H80.4109V43.0073H79.0723ZM83.8406 43.0073V35.1335H86.664C87.2864 35.1335 87.8 35.2423 88.205 35.4597C88.6174 35.6697 88.9211 35.9547 89.1161 36.3146C89.3185 36.6671 89.4198 37.0682 89.4198 37.5182C89.4198 37.9381 89.3223 38.328 89.1273 38.688C88.9324 39.0479 88.6286 39.3366 88.2162 39.5541C87.8038 39.7716 87.2751 39.8803 86.6302 39.8803H85.1904V43.0073H83.8406ZM87.9463 43.0073L86.2928 39.5316H87.755L89.4873 43.0073H87.9463ZM85.1904 38.8792H86.574C87.0764 38.8792 87.4438 38.7592 87.6763 38.5193C87.9163 38.2718 88.0362 37.9494 88.0362 37.5519C88.0362 37.162 87.92 36.8508 87.6875 36.6183C87.4551 36.3783 87.0839 36.2584 86.574 36.2584H85.1904V38.8792ZM90.8159 43.0073V35.1335H92.1657V43.0073H90.8159ZM93.2314 43.0073L96.1109 35.1335H97.6182L100.498 43.0073H99.0692L96.8533 36.7083L94.6374 43.0073H93.2314ZM94.5137 41.1514L94.8736 40.0828H98.7542L99.1142 41.1514H94.5137Z" fill="black"></path></svg>