<svg xmlns="http://www.w3.org/2000/svg" width="181" height="64" viewBox="0 0 181 64" fill="none"><rect x="0.262695" y="0.3125" width="180.669" height="63.3898" rx="10" fill="white"></rect><rect x="17.5508" y="36.3296" width="28.0932" height="9.36441" fill="#FFCD05"></rect><rect x="17.5508" y="18.3208" width="28.0932" height="9.36441" fill="#141414"></rect><rect x="17.5508" y="27.6851" width="28.0932" height="8.64407" fill="#ED1F24"></rect><path d="M59.1315 30.0618C58.5615 30.0618 58.0515 29.9643 57.6015 29.7693C57.159 29.5743 56.8065 29.2893 56.544 28.9143C56.289 28.5393 56.1578 28.0855 56.1503 27.553H57.759C57.7665 27.7855 57.8265 27.9955 57.939 28.183C58.0515 28.3705 58.2053 28.5205 58.4003 28.633C58.6028 28.738 58.8428 28.7905 59.1203 28.7905C59.3603 28.7905 59.5665 28.753 59.739 28.678C59.919 28.5955 60.0578 28.483 60.1553 28.3405C60.2528 28.198 60.3015 28.0293 60.3015 27.8343C60.3015 27.6093 60.2453 27.4218 60.1328 27.2718C60.0278 27.1218 59.8778 26.9943 59.6828 26.8893C59.4953 26.7843 59.274 26.6905 59.019 26.608C58.7715 26.518 58.509 26.4243 58.2315 26.3268C57.609 26.1243 57.1328 25.8543 56.8028 25.5168C56.4803 25.1793 56.319 24.733 56.319 24.178C56.319 23.7055 56.4315 23.3005 56.6565 22.963C56.889 22.6255 57.2078 22.3668 57.6128 22.1868C58.0178 22.0068 58.479 21.9168 58.9965 21.9168C59.529 21.9168 59.994 22.0105 60.3915 22.198C60.7965 22.378 61.1153 22.6405 61.3478 22.9855C61.5878 23.3305 61.7115 23.7355 61.719 24.2005H60.099C60.0915 24.028 60.039 23.8668 59.9415 23.7168C59.8515 23.5593 59.724 23.4355 59.559 23.3455C59.394 23.248 59.199 23.1993 58.974 23.1993C58.779 23.1918 58.599 23.2218 58.434 23.2893C58.2765 23.3568 58.149 23.458 58.0515 23.593C57.9615 23.7205 57.9165 23.8818 57.9165 24.0768C57.9165 24.2643 57.9615 24.4218 58.0515 24.5493C58.149 24.6768 58.2803 24.7893 58.4453 24.8868C58.6103 24.9768 58.8053 25.063 59.0303 25.1455C59.2553 25.2205 59.499 25.2993 59.7615 25.3818C60.1515 25.5168 60.5115 25.678 60.8415 25.8655C61.1715 26.0455 61.434 26.2818 61.629 26.5743C61.824 26.8668 61.9215 27.253 61.9215 27.733C61.9215 28.1455 61.8128 28.528 61.5953 28.8805C61.3778 29.233 61.0628 29.518 60.6503 29.7355C60.2453 29.953 59.739 30.0618 59.1315 30.0618ZM63.2098 29.9268V22.0518H68.3848V23.278H64.7286V25.3368H68.0473V26.518H64.7286V28.7005H68.3848V29.9268H63.2098ZM69.7687 29.9268V22.0518H72.7049C73.3424 22.0518 73.8674 22.1605 74.2799 22.378C74.6924 22.5955 74.9999 22.888 75.2024 23.2555C75.4049 23.6155 75.5062 24.0168 75.5062 24.4593C75.5062 24.8793 75.4087 25.273 75.2137 25.6405C75.0187 26.0005 74.7112 26.293 74.2912 26.518C73.8787 26.7355 73.3462 26.8443 72.6937 26.8443H71.2874V29.9268H69.7687ZM73.8524 29.9268L72.2324 26.4618H73.8749L75.5849 29.9268H73.8524ZM71.2874 25.7418H72.6149C73.0724 25.7418 73.4099 25.6293 73.6274 25.4043C73.8449 25.1793 73.9537 24.883 73.9537 24.5155C73.9537 24.148 73.8449 23.8593 73.6274 23.6493C73.4174 23.4318 73.0799 23.323 72.6149 23.323H71.2874V25.7418ZM78.8524 29.9268L75.9837 22.0518H77.6037L79.7862 28.3743L81.9799 22.0518H83.5887L80.7199 29.9268H78.8524ZM84.5343 29.9268V22.0518H89.7093V23.278H86.0531V25.3368H89.3718V26.518H86.0531V28.7005H89.7093V29.9268H84.5343ZM91.0931 29.9268V22.0518H94.0294C94.6669 22.0518 95.1919 22.1605 95.6044 22.378C96.0169 22.5955 96.3244 22.888 96.5269 23.2555C96.7294 23.6155 96.8306 24.0168 96.8306 24.4593C96.8306 24.8793 96.7331 25.273 96.5381 25.6405C96.3431 26.0005 96.0356 26.293 95.6156 26.518C95.2031 26.7355 94.6706 26.8443 94.0181 26.8443H92.6119V29.9268H91.0931ZM95.1769 29.9268L93.5569 26.4618H95.1994L96.9094 29.9268H95.1769ZM92.6119 25.7418H93.9394C94.3969 25.7418 94.7344 25.6293 94.9519 25.4043C95.1694 25.1793 95.2781 24.883 95.2781 24.5155C95.2781 24.148 95.1694 23.8593 94.9519 23.6493C94.7419 23.4318 94.4044 23.323 93.9394 23.323H92.6119V25.7418ZM100.838 29.9268V22.0518H102.357V28.7455H105.811V29.9268H100.838ZM110.042 30.0618C109.277 30.0618 108.602 29.8893 108.017 29.5443C107.432 29.1993 106.974 28.723 106.644 28.1155C106.314 27.5005 106.149 26.7918 106.149 25.9893C106.149 25.1868 106.314 24.4818 106.644 23.8743C106.974 23.2593 107.432 22.7793 108.017 22.4343C108.602 22.0893 109.277 21.9168 110.042 21.9168C110.814 21.9168 111.493 22.0893 112.078 22.4343C112.663 22.7793 113.117 23.2593 113.439 23.8743C113.769 24.4818 113.934 25.1868 113.934 25.9893C113.934 26.7918 113.769 27.5005 113.439 28.1155C113.117 28.723 112.663 29.1993 112.078 29.5443C111.493 29.8893 110.814 30.0618 110.042 30.0618ZM110.042 28.7005C110.522 28.7005 110.934 28.5918 111.279 28.3743C111.632 28.1493 111.906 27.8343 112.101 27.4293C112.296 27.0243 112.393 26.5443 112.393 25.9893C112.393 25.4268 112.296 24.9468 112.101 24.5493C111.906 24.1443 111.632 23.833 111.279 23.6155C110.934 23.398 110.522 23.2893 110.042 23.2893C109.569 23.2893 109.157 23.398 108.804 23.6155C108.452 23.833 108.178 24.1443 107.983 24.5493C107.788 24.9468 107.691 25.4268 107.691 25.9893C107.691 26.5443 107.788 27.0243 107.983 27.4293C108.178 27.8343 108.452 28.1493 108.804 28.3743C109.157 28.5918 109.569 28.7005 110.042 28.7005ZM118.763 30.0618C117.975 30.0618 117.296 29.893 116.726 29.5555C116.164 29.2105 115.729 28.7343 115.421 28.1268C115.121 27.5118 114.971 26.803 114.971 26.0005C114.971 25.198 115.121 24.4893 115.421 23.8743C115.729 23.2593 116.164 22.7793 116.726 22.4343C117.296 22.0893 117.975 21.9168 118.763 21.9168C119.715 21.9168 120.495 22.153 121.103 22.6255C121.71 23.098 122.089 23.7655 122.239 24.628H120.585C120.488 24.208 120.281 23.8818 119.966 23.6493C119.659 23.4093 119.254 23.2893 118.751 23.2893C118.286 23.2893 117.885 23.4018 117.548 23.6268C117.218 23.8443 116.963 24.1555 116.783 24.5605C116.603 24.958 116.513 25.438 116.513 26.0005C116.513 26.5555 116.603 27.0355 116.783 27.4405C116.963 27.8455 117.218 28.1568 117.548 28.3743C117.885 28.5918 118.286 28.7005 118.751 28.7005C119.254 28.7005 119.659 28.5918 119.966 28.3743C120.274 28.1493 120.476 27.838 120.574 27.4405H122.239C122.089 28.258 121.71 28.8993 121.103 29.3643C120.495 29.8293 119.715 30.0618 118.763 30.0618ZM122.93 29.9268L125.81 22.0518H127.531L130.4 29.9268H128.791L126.665 23.7843L124.528 29.9268H122.93ZM124.201 28.138L124.606 26.9568H128.611L129.005 28.138H124.201ZM132.434 29.9268V23.278H130.127V22.0518H136.236V23.278H133.941V29.9268H132.434ZM137.313 29.9268V22.0518H138.831V29.9268H137.313ZM144.012 30.0618C143.247 30.0618 142.572 29.8893 141.987 29.5443C141.402 29.1993 140.944 28.723 140.614 28.1155C140.284 27.5005 140.119 26.7918 140.119 25.9893C140.119 25.1868 140.284 24.4818 140.614 23.8743C140.944 23.2593 141.402 22.7793 141.987 22.4343C142.572 22.0893 143.247 21.9168 144.012 21.9168C144.784 21.9168 145.463 22.0893 146.048 22.4343C146.633 22.7793 147.087 23.2593 147.409 23.8743C147.739 24.4818 147.904 25.1868 147.904 25.9893C147.904 26.7918 147.739 27.5005 147.409 28.1155C147.087 28.723 146.633 29.1993 146.048 29.5443C145.463 29.8893 144.784 30.0618 144.012 30.0618ZM144.012 28.7005C144.492 28.7005 144.904 28.5918 145.249 28.3743C145.602 28.1493 145.875 27.8343 146.07 27.4293C146.265 27.0243 146.363 26.5443 146.363 25.9893C146.363 25.4268 146.265 24.9468 146.07 24.5493C145.875 24.1443 145.602 23.833 145.249 23.6155C144.904 23.398 144.492 23.2893 144.012 23.2893C143.539 23.2893 143.127 23.398 142.774 23.6155C142.422 23.833 142.148 24.1443 141.953 24.5493C141.758 24.9468 141.66 25.4268 141.66 25.9893C141.66 26.5443 141.758 27.0243 141.953 27.4293C142.148 27.8343 142.422 28.1493 142.774 28.3743C143.127 28.5918 143.539 28.7005 144.012 28.7005ZM149.2 29.9268V22.0518H150.719L154.341 27.4855V22.0518H155.86V29.9268H154.341L150.719 24.5043V29.9268H149.2ZM160.107 30.0618C159.537 30.0618 159.027 29.9643 158.577 29.7693C158.134 29.5743 157.782 29.2893 157.519 28.9143C157.264 28.5393 157.133 28.0855 157.126 27.553H158.734C158.742 27.7855 158.802 27.9955 158.914 28.183C159.027 28.3705 159.181 28.5205 159.376 28.633C159.578 28.738 159.818 28.7905 160.096 28.7905C160.336 28.7905 160.542 28.753 160.714 28.678C160.894 28.5955 161.033 28.483 161.131 28.3405C161.228 28.198 161.277 28.0293 161.277 27.8343C161.277 27.6093 161.221 27.4218 161.108 27.2718C161.003 27.1218 160.853 26.9943 160.658 26.8893C160.471 26.7843 160.249 26.6905 159.994 26.608C159.747 26.518 159.484 26.4243 159.207 26.3268C158.584 26.1243 158.108 25.8543 157.778 25.5168C157.456 25.1793 157.294 24.733 157.294 24.178C157.294 23.7055 157.407 23.3005 157.632 22.963C157.864 22.6255 158.183 22.3668 158.588 22.1868C158.993 22.0068 159.454 21.9168 159.972 21.9168C160.504 21.9168 160.969 22.0105 161.367 22.198C161.772 22.378 162.091 22.6405 162.323 22.9855C162.563 23.3305 162.687 23.7355 162.694 24.2005H161.074C161.067 24.028 161.014 23.8668 160.917 23.7168C160.827 23.5593 160.699 23.4355 160.534 23.3455C160.369 23.248 160.174 23.1993 159.949 23.1993C159.754 23.1918 159.574 23.2218 159.409 23.2893C159.252 23.3568 159.124 23.458 159.027 23.593C158.937 23.7205 158.892 23.8818 158.892 24.0768C158.892 24.2643 158.937 24.4218 159.027 24.5493C159.124 24.6768 159.256 24.7893 159.421 24.8868C159.586 24.9768 159.781 25.063 160.006 25.1455C160.231 25.2205 160.474 25.2993 160.737 25.3818C161.127 25.5168 161.487 25.678 161.817 25.8655C162.147 26.0455 162.409 26.2818 162.604 26.5743C162.799 26.8668 162.897 27.253 162.897 27.733C162.897 28.1455 162.788 28.528 162.571 28.8805C162.353 29.233 162.038 29.518 161.626 29.7355C161.221 29.953 160.714 30.0618 160.107 30.0618Z" fill="#212B36"></path><path d="M58.1896 43.1691C57.7473 43.1691 57.3591 43.0676 57.0251 42.8645C56.6911 42.6569 56.4316 42.3703 56.2466 42.0047C56.0615 41.6391 55.969 41.2126 55.969 40.7252C55.969 40.2422 56.0615 39.8157 56.2466 39.4456C56.4361 39.0755 56.7024 38.7867 57.0454 38.5791C57.393 38.3715 57.8014 38.2677 58.2708 38.2677C58.8034 38.2677 59.2479 38.3963 59.6045 38.6535C59.961 38.9063 60.189 39.2606 60.2883 39.7164H59.6316C59.5684 39.4321 59.4194 39.2064 59.1848 39.0394C58.9501 38.8724 58.6454 38.7889 58.2708 38.7889C57.9233 38.7889 57.6186 38.8679 57.3569 39.0259C57.0996 39.1793 56.901 39.4005 56.7611 39.6894C56.6212 39.9782 56.5512 40.3235 56.5512 40.7252C56.5512 41.1268 56.6212 41.4744 56.7611 41.7677C56.901 42.0566 57.0951 42.2777 57.3433 42.4312C57.5961 42.5847 57.8849 42.6614 58.2099 42.6614C58.7154 42.6614 59.0967 42.5124 59.354 42.2146C59.6113 41.9167 59.7579 41.5127 59.7941 41.0027H58.4265V40.5559H60.3763V43.0879H59.855L59.8076 42.3093C59.6948 42.4944 59.5639 42.6524 59.4149 42.7832C59.2705 42.9096 59.099 43.0067 58.9004 43.0744C58.7018 43.1375 58.4649 43.1691 58.1896 43.1691ZM61.2822 43.0879V38.3489H64.2136V38.816H61.8509V40.4679H64.0105V40.9283H61.8509V42.6208H64.2136V43.0879H61.2822ZM65.1101 43.0879V38.3489H66.6402C67.0103 38.3489 67.3126 38.4121 67.5473 38.5385C67.782 38.6603 67.9558 38.825 68.0686 39.0327C68.1815 39.2403 68.2379 39.475 68.2379 39.7367C68.2379 39.9895 68.1792 40.2219 68.0619 40.4341C67.949 40.6462 67.773 40.8154 67.5338 40.9418C67.2946 41.0682 66.9877 41.1314 66.6131 41.1314H65.6788V43.0879H65.1101ZM67.615 43.0879L66.5725 40.9689H67.2088L68.2853 43.0879H67.615ZM65.6788 40.6845H66.5995C66.9606 40.6845 67.2246 40.5965 67.3916 40.4205C67.5631 40.2445 67.6489 40.0188 67.6489 39.7435C67.6489 39.4637 67.5654 39.2425 67.3984 39.0801C67.2359 38.9131 66.9674 38.8296 66.5928 38.8296H65.6788V40.6845ZM69.1298 43.0879V38.3489H69.7933L71.4655 41.6594L73.1444 38.3489H73.8147V43.0879H73.246V39.3644L71.6821 42.4244H71.2556L69.6985 39.3779V43.0879H69.1298ZM74.5175 43.0879L76.2642 38.3489H76.8667L78.6066 43.0879H78.0041L76.5621 39.0597L75.1133 43.0879H74.5175ZM75.3164 41.8693L75.4789 41.4089H77.625L77.7874 41.8693H75.3164ZM79.3179 43.0879V38.3489H79.8866L82.4118 42.1469V38.3489H82.9805V43.0879H82.4118L79.8866 39.2899V43.0879H79.3179ZM85.1699 43.0879V41.2871L83.6264 38.3489H84.2695L85.5423 40.9147H85.373L86.639 38.3489H87.2754L85.7386 41.2871V43.0879H85.1699Z" fill="#637381"></path></svg>