<svg xmlns="http://www.w3.org/2000/svg" width="133" height="64" viewBox="0 0 133 64" fill="none"><rect x="0.393861" y="0.397279" width="131.508" height="63.2203" rx="9.63983" fill="white"></rect><rect x="0.393861" y="0.397279" width="131.508" height="63.2203" rx="9.63983" stroke="#00B67A" stroke-width="0.720339"></rect><path d="M20.2211 23.6812V13.1008H24.0149C24.8513 13.1008 25.5415 13.2469 26.0857 13.5391C26.6399 13.8212 27.048 14.2041 27.31 14.6878C27.582 15.1614 27.7181 15.7005 27.7181 16.3051C27.7181 16.8694 27.5871 17.3934 27.3251 17.877C27.0631 18.3607 26.655 18.7487 26.1008 19.0409C25.5466 19.3331 24.8362 19.4792 23.9696 19.4792H22.0349V23.6812H20.2211ZM25.738 23.6812L23.5161 19.0107H25.4811L27.8088 23.6812H25.738ZM22.0349 18.134H23.894C24.5691 18.134 25.0629 17.9728 25.3753 17.6503C25.6977 17.3178 25.8589 16.8845 25.8589 16.3504C25.8589 15.8265 25.7028 15.4083 25.3904 15.0959C25.078 14.7735 24.5792 14.6122 23.894 14.6122H22.0349V18.134ZM32.6431 23.8625C31.8874 23.8625 31.2224 23.7013 30.648 23.3789C30.0736 23.0463 29.6252 22.5828 29.3028 21.9883C28.9803 21.3938 28.8191 20.7086 28.8191 19.9327C28.8191 19.1265 28.9753 18.4212 29.2877 17.8166C29.6101 17.212 30.0585 16.7384 30.6329 16.3958C31.2173 16.0532 31.8924 15.8819 32.6583 15.8819C33.4039 15.8819 34.0539 16.0482 34.6081 16.3807C35.1623 16.7132 35.5905 17.1616 35.8928 17.7259C36.1951 18.2801 36.3463 18.9049 36.3463 19.6001C36.3463 19.7009 36.3463 19.8118 36.3463 19.9327C36.3463 20.0536 36.3362 20.1795 36.3161 20.3105H30.119V19.1467H34.5174C34.4972 18.5925 34.3108 18.1592 33.9581 17.8468C33.6055 17.5244 33.1671 17.3631 32.6431 17.3631C32.2703 17.3631 31.9277 17.4488 31.6153 17.6201C31.303 17.7914 31.0561 18.0484 30.8747 18.391C30.6933 18.7235 30.6026 19.1467 30.6026 19.6606V20.0989C30.6026 20.5725 30.6883 20.9806 30.8596 21.3232C31.041 21.6658 31.2828 21.9278 31.5851 22.1092C31.8975 22.2805 32.2451 22.3662 32.628 22.3662C33.0513 22.3662 33.3989 22.2755 33.671 22.0941C33.9531 21.9127 34.1597 21.6709 34.2907 21.3686H36.1347C35.9936 21.8422 35.7618 22.2704 35.4394 22.6533C35.1169 23.0262 34.7189 23.3234 34.2453 23.5451C33.7717 23.7567 33.2377 23.8625 32.6431 23.8625ZM39.8116 23.6812L37.0002 16.0633H38.9047L40.915 21.9581L42.9253 16.0633H44.7995L41.9881 23.6812H39.8116ZM46.1706 23.6812V16.0633H47.9844V23.6812H46.1706ZM47.0775 14.8541C46.745 14.8541 46.4678 14.7533 46.2462 14.5518C46.0346 14.3402 45.9287 14.0832 45.9287 13.7809C45.9287 13.4686 46.0346 13.2166 46.2462 13.0252C46.4678 12.8237 46.745 12.7229 47.0775 12.7229C47.41 12.7229 47.6821 12.8237 47.8937 13.0252C48.1154 13.2166 48.2262 13.4686 48.2262 13.7809C48.2262 14.0832 48.1154 14.3402 47.8937 14.5518C47.6821 14.7533 47.41 14.8541 47.0775 14.8541ZM53.6475 23.8625C52.8917 23.8625 52.2267 23.7013 51.6523 23.3789C51.078 23.0463 50.6295 22.5828 50.3071 21.9883C49.9846 21.3938 49.8234 20.7086 49.8234 19.9327C49.8234 19.1265 49.9796 18.4212 50.292 17.8166C50.6144 17.212 51.0628 16.7384 51.6372 16.3958C52.2216 16.0532 52.8968 15.8819 53.6626 15.8819C54.4083 15.8819 55.0582 16.0482 55.6124 16.3807C56.1666 16.7132 56.5949 17.1616 56.8972 17.7259C57.1995 18.2801 57.3506 18.9049 57.3506 19.6001C57.3506 19.7009 57.3506 19.8118 57.3506 19.9327C57.3506 20.0536 57.3405 20.1795 57.3204 20.3105H51.1233V19.1467H55.5217C55.5016 18.5925 55.3152 18.1592 54.9625 17.8468C54.6098 17.5244 54.1715 17.3631 53.6475 17.3631C53.2746 17.3631 52.932 17.4488 52.6197 17.6201C52.3073 17.7914 52.0604 18.0484 51.879 18.391C51.6977 18.7235 51.607 19.1467 51.607 19.6606V20.0989C51.607 20.5725 51.6926 20.9806 51.8639 21.3232C52.0453 21.6658 52.2871 21.9278 52.5894 22.1092C52.9018 22.2805 53.2495 22.3662 53.6324 22.3662C54.0556 22.3662 54.4032 22.2755 54.6753 22.0941C54.9574 21.9127 55.164 21.6709 55.295 21.3686H57.139C56.9979 21.8422 56.7662 22.2704 56.4437 22.6533C56.1213 23.0262 55.7233 23.3234 55.2497 23.5451C54.7761 23.7567 54.242 23.8625 53.6475 23.8625ZM60.2416 23.6812L58.0046 16.0633H59.8032L61.3601 22.3208L61.0275 22.3057L62.7657 16.0633H64.7911L66.5445 22.3057H66.2119L67.7688 16.0633H69.5674L67.3304 23.6812H65.4562L63.5971 17.2271H63.9749L62.1158 23.6812H60.2416ZM77.3799 23.8625C76.7653 23.8625 76.2362 23.7416 75.7929 23.4998C75.3596 23.2479 75.027 22.875 74.7953 22.3813C74.5635 21.8774 74.4476 21.2577 74.4476 20.5221V16.0633H76.2614V20.3408C76.2614 20.9957 76.3975 21.4945 76.6695 21.8371C76.9517 22.1697 77.3749 22.3359 77.9392 22.3359C78.3019 22.3359 78.6244 22.2503 78.9065 22.079C79.1987 21.9077 79.4255 21.6608 79.5867 21.3384C79.758 21.0058 79.8436 20.6028 79.8436 20.1292V16.0633H81.6574V23.6812H80.0552L79.9192 22.4115C79.6875 22.8549 79.3499 23.2076 78.9065 23.4695C78.4732 23.7315 77.9644 23.8625 77.3799 23.8625ZM86.7136 23.8625C86.0384 23.8625 85.449 23.7567 84.9451 23.5451C84.4514 23.3234 84.0584 23.0211 83.7662 22.6382C83.484 22.2452 83.3178 21.7968 83.2674 21.293H85.0812C85.1316 21.5046 85.2222 21.7011 85.3532 21.8825C85.4842 22.0538 85.6606 22.1898 85.8823 22.2906C86.114 22.3914 86.3861 22.4417 86.6985 22.4417C87.0008 22.4417 87.2476 22.4014 87.4391 22.3208C87.6305 22.2301 87.7716 22.1142 87.8623 21.9732C87.953 21.8321 87.9983 21.681 87.9983 21.5197C87.9983 21.2779 87.9328 21.0915 87.8018 20.9605C87.6709 20.8295 87.4794 20.7287 87.2275 20.6582C86.9856 20.5776 86.6934 20.502 86.3508 20.4315C85.9881 20.3609 85.6354 20.2753 85.2928 20.1745C84.9603 20.0637 84.658 19.9276 84.3859 19.7664C84.1239 19.6052 83.9123 19.3986 83.7511 19.1467C83.5999 18.8948 83.5243 18.5874 83.5243 18.2247C83.5243 17.7813 83.6402 17.3833 83.872 17.0306C84.1138 16.6779 84.4564 16.4008 84.8998 16.1993C85.3532 15.9877 85.8923 15.8819 86.5171 15.8819C87.4038 15.8819 88.1092 16.0885 88.6332 16.5016C89.1672 16.9047 89.4796 17.474 89.5703 18.2096H87.8472C87.7968 17.9274 87.6557 17.7108 87.424 17.5596C87.1922 17.3984 86.8849 17.3178 86.502 17.3178C86.109 17.3178 85.8067 17.3934 85.5951 17.5445C85.3935 17.6856 85.2928 17.877 85.2928 18.1189C85.2928 18.27 85.3532 18.4111 85.4742 18.5421C85.6052 18.663 85.7916 18.7688 86.0334 18.8595C86.2752 18.9401 86.5725 19.0207 86.9252 19.1014C87.4895 19.2122 87.9883 19.3432 88.4216 19.4943C88.8548 19.6455 89.1975 19.8672 89.4494 20.1594C89.7013 20.4516 89.8272 20.8648 89.8272 21.3988C89.8373 21.8825 89.7114 22.3107 89.4494 22.6836C89.1975 23.0564 88.8397 23.3486 88.3762 23.5602C87.9127 23.7618 87.3585 23.8625 86.7136 23.8625ZM98.8293 23.8625C98.1038 23.8625 97.4488 23.6963 96.8644 23.3637C96.29 23.0211 95.8366 22.5526 95.504 21.9581C95.1816 21.3535 95.0204 20.6632 95.0204 19.8873C95.0204 19.0913 95.1866 18.396 95.5192 17.8015C95.8517 17.1969 96.3051 16.7283 96.8795 16.3958C97.4639 16.0532 98.1189 15.8819 98.8444 15.8819C99.5699 15.8819 100.22 16.0532 100.794 16.3958C101.379 16.7283 101.832 17.1918 102.155 17.7864C102.487 18.3809 102.653 19.0762 102.653 19.8722C102.653 20.6683 102.487 21.3635 102.155 21.9581C101.822 22.5526 101.364 23.0211 100.779 23.3637C100.205 23.6963 99.5548 23.8625 98.8293 23.8625ZM98.8293 22.3057C99.1921 22.3057 99.5196 22.215 99.8118 22.0336C100.114 21.8523 100.356 21.5802 100.537 21.2174C100.719 20.8547 100.809 20.4063 100.809 19.8722C100.809 19.3382 100.719 18.8948 100.537 18.5421C100.366 18.1793 100.129 17.9073 99.8269 17.7259C99.5347 17.5445 99.2072 17.4538 98.8444 17.4538C98.4917 17.4538 98.1643 17.5445 97.862 17.7259C97.5597 17.9073 97.3178 18.1793 97.1364 18.5421C96.9551 18.8948 96.8644 19.3382 96.8644 19.8722C96.8644 20.4063 96.9551 20.8547 97.1364 21.2174C97.3178 21.5802 97.5546 21.8523 97.8468 22.0336C98.1491 22.215 98.4766 22.3057 98.8293 22.3057ZM104.429 23.6812V16.0633H106.031L106.167 17.3329C106.399 16.8895 106.731 16.5369 107.165 16.2749C107.598 16.0129 108.112 15.8819 108.706 15.8819C109.321 15.8819 109.845 16.0129 110.278 16.2749C110.712 16.5268 111.044 16.8996 111.276 17.3934C111.518 17.8871 111.639 18.5018 111.639 19.2374V23.6812H109.825V19.4036C109.825 18.7688 109.684 18.2801 109.402 17.9375C109.12 17.5949 108.701 17.4236 108.147 17.4236C107.784 17.4236 107.457 17.5093 107.165 17.6806C106.883 17.8519 106.656 18.1038 106.485 18.4363C106.323 18.7587 106.243 19.1517 106.243 19.6153V23.6812H104.429Z" fill="black"></path><path d="M30.6479 30.1216L33.4781 38.8321L42.6369 38.8321L35.2273 44.2154L38.0575 52.9259L30.6479 47.5426L23.2383 52.9259L26.0686 44.2154L18.659 38.8321L27.8177 38.8321L30.6479 30.1216Z" fill="#00B67A"></path><path d="M38.0681 52.9329L35.2269 44.2163L30.6479 47.554L38.0681 52.9329Z" fill="#00B67A"></path><path d="M35.9165 46.3403L30.6479 47.554L35.2269 44.2163L35.9165 46.3403Z" fill="#005128"></path><path d="M47.511 47.0073V37.8931H44.3973V36.4269H52.4233V37.8931H49.3097V47.0073H47.511ZM53.1051 47.0073V39.3894H54.7224L54.8887 40.8102C55.0701 40.4777 55.2968 40.1956 55.5689 39.9638C55.8409 39.722 56.1583 39.5355 56.5211 39.4046C56.8939 39.2736 57.302 39.2081 57.7454 39.2081V41.1276H57.1106C56.8083 41.1276 56.5211 41.168 56.249 41.2486C55.977 41.3191 55.7402 41.44 55.5386 41.6113C55.3472 41.7725 55.196 41.9993 55.0852 42.2915C54.9743 42.5736 54.9189 42.9314 54.9189 43.3646V47.0073H53.1051ZM61.9392 47.1887C61.3245 47.1887 60.7955 47.0678 60.3521 46.8259C59.9188 46.574 59.5863 46.2012 59.3545 45.7074C59.1228 45.2036 59.0069 44.5839 59.0069 43.8483V39.3894H60.8207V43.6669C60.8207 44.3219 60.9567 44.8207 61.2288 45.1633C61.5109 45.4958 61.9341 45.6621 62.4984 45.6621C62.8612 45.6621 63.1836 45.5765 63.4658 45.4051C63.758 45.2338 63.9847 44.987 64.146 44.6645C64.3173 44.332 64.4029 43.9289 64.4029 43.4553V39.3894H66.2167V47.0073H64.6145L64.4785 45.7377C64.2467 46.181 63.9092 46.5337 63.4658 46.7957C63.0325 47.0577 62.5236 47.1887 61.9392 47.1887ZM71.2728 47.1887C70.5977 47.1887 70.0082 47.0829 69.5044 46.8713C69.0107 46.6496 68.6177 46.3473 68.3254 45.9644C68.0433 45.5714 67.877 45.123 67.8267 44.6192H69.6404C69.6908 44.8308 69.7815 45.0273 69.9125 45.2087C70.0435 45.38 70.2198 45.516 70.4415 45.6168C70.6733 45.7175 70.9454 45.7679 71.2577 45.7679C71.56 45.7679 71.8069 45.7276 71.9984 45.647C72.1898 45.5563 72.3309 45.4404 72.4216 45.2993C72.5123 45.1583 72.5576 45.0071 72.5576 44.8459C72.5576 44.6041 72.4921 44.4176 72.3611 44.2867C72.2301 44.1557 72.0387 44.0549 71.7867 43.9844C71.5449 43.9037 71.2527 43.8282 70.9101 43.7576C70.5473 43.6871 70.1946 43.6014 69.852 43.5007C69.5195 43.3898 69.2172 43.2538 68.9452 43.0926C68.6832 42.9314 68.4716 42.7248 68.3103 42.4729C68.1592 42.221 68.0836 41.9136 68.0836 41.5509C68.0836 41.1075 68.1995 40.7095 68.4312 40.3568C68.6731 40.0041 69.0157 39.727 69.4591 39.5255C69.9125 39.3139 70.4516 39.2081 71.0763 39.2081C71.9631 39.2081 72.6684 39.4146 73.1924 39.8278C73.7265 40.2308 74.0389 40.8002 74.1295 41.5357H72.4065C72.3561 41.2536 72.215 41.037 71.9832 40.8858C71.7515 40.7246 71.4441 40.644 71.0612 40.644C70.6682 40.644 70.366 40.7195 70.1543 40.8707C69.9528 41.0118 69.852 41.2032 69.852 41.4451C69.852 41.5962 69.9125 41.7373 70.0334 41.8683C70.1644 41.9892 70.3508 42.095 70.5927 42.1857C70.8345 42.2663 71.1318 42.3469 71.4844 42.4275C72.0487 42.5384 72.5475 42.6694 72.9808 42.8205C73.4141 42.9717 73.7567 43.1933 74.0086 43.4856C74.2605 43.7778 74.3865 44.1909 74.3865 44.725C74.3966 45.2087 74.2706 45.6369 74.0086 46.0097C73.7567 46.3826 73.399 46.6748 72.9355 46.8864C72.472 47.0879 71.9177 47.1887 71.2728 47.1887ZM79.1909 47.0073C78.677 47.0073 78.2286 46.9267 77.8457 46.7655C77.4728 46.6043 77.1806 46.3372 76.969 45.9644C76.7574 45.5916 76.6516 45.0877 76.6516 44.4529V40.916H75.3517V39.3894H76.6516L76.8632 37.3792H78.4654V39.3894H80.5361V40.916H78.4654V44.4529C78.4654 44.8358 78.546 45.1029 78.7072 45.254C78.8785 45.3951 79.1607 45.4656 79.5537 45.4656H80.4908V47.0073H79.1909ZM82.2426 50.3326V39.3894H83.8599L84.0563 40.4928C84.2176 40.2711 84.409 40.0646 84.6307 39.8731C84.8625 39.6716 85.1396 39.5104 85.462 39.3894C85.7946 39.2685 86.1724 39.2081 86.5956 39.2081C87.3111 39.2081 87.9409 39.3844 88.485 39.7371C89.0392 40.0898 89.4725 40.5684 89.7849 41.173C90.0972 41.7675 90.2534 42.4477 90.2534 43.2135C90.2534 43.9793 90.0922 44.6645 89.7698 45.2691C89.4574 45.8636 89.0241 46.3322 88.4699 46.6748C87.9257 47.0174 87.301 47.1887 86.5956 47.1887C86.0213 47.1887 85.5174 47.0829 85.0842 46.8713C84.6609 46.6496 84.3183 46.3372 84.0563 45.9342V50.3326H82.2426ZM86.2178 45.6168C86.641 45.6168 87.0189 45.516 87.3514 45.3145C87.6839 45.1129 87.9409 44.8308 88.1222 44.468C88.3137 44.1053 88.4094 43.6871 88.4094 43.2135C88.4094 42.7298 88.3137 42.3066 88.1222 41.9438C87.9409 41.5811 87.6839 41.2989 87.3514 41.0974C87.0189 40.8959 86.641 40.7951 86.2178 40.7951C85.7845 40.7951 85.4016 40.8959 85.069 41.0974C84.7466 41.2989 84.4896 41.5811 84.2982 41.9438C84.1168 42.3066 84.0261 42.7248 84.0261 43.1984C84.0261 43.6821 84.1168 44.1053 84.2982 44.468C84.4896 44.8207 84.7466 45.1029 85.069 45.3145C85.4016 45.516 85.7845 45.6168 86.2178 45.6168ZM92.0897 47.0073V39.3894H93.9034V47.0073H92.0897ZM92.9965 38.1803C92.664 38.1803 92.3869 38.0795 92.1652 37.878C91.9536 37.6663 91.8478 37.4094 91.8478 37.1071C91.8478 36.7947 91.9536 36.5428 92.1652 36.3514C92.3869 36.1498 92.664 36.0491 92.9965 36.0491C93.3291 36.0491 93.6011 36.1498 93.8127 36.3514C94.0344 36.5428 94.1453 36.7947 94.1453 37.1071C94.1453 37.4094 94.0344 37.6663 93.8127 37.878C93.6011 38.0795 93.3291 38.1803 92.9965 38.1803ZM95.9994 47.0073V36.1246H97.8132V47.0073H95.9994ZM103.389 47.1887C102.664 47.1887 102.009 47.0224 101.424 46.6899C100.85 46.3473 100.396 45.8787 100.064 45.2842C99.7415 44.6796 99.5802 43.9894 99.5802 43.2135C99.5802 42.4174 99.7465 41.7222 100.079 41.1276C100.412 40.5231 100.865 40.0545 101.439 39.722C102.024 39.3794 102.679 39.2081 103.404 39.2081C104.13 39.2081 104.78 39.3794 105.354 39.722C105.939 40.0545 106.392 40.518 106.714 41.1125C107.047 41.707 107.213 42.4023 107.213 43.1984C107.213 43.9944 107.047 44.6897 106.714 45.2842C106.382 45.8787 105.923 46.3473 105.339 46.6899C104.765 47.0224 104.115 47.1887 103.389 47.1887ZM103.389 45.6319C103.752 45.6319 104.079 45.5412 104.372 45.3598C104.674 45.1784 104.916 44.9064 105.097 44.5436C105.279 44.1808 105.369 43.7324 105.369 43.1984C105.369 42.6643 105.279 42.221 105.097 41.8683C104.926 41.5055 104.689 41.2335 104.387 41.0521C104.095 40.8707 103.767 40.78 103.404 40.78C103.052 40.78 102.724 40.8707 102.422 41.0521C102.12 41.2335 101.878 41.5055 101.696 41.8683C101.515 42.221 101.424 42.6643 101.424 43.1984C101.424 43.7324 101.515 44.1808 101.696 44.5436C101.878 44.9064 102.114 45.1784 102.407 45.3598C102.709 45.5412 103.037 45.6319 103.389 45.6319ZM112.004 47.0073C111.49 47.0073 111.041 46.9267 110.658 46.7655C110.286 46.6043 109.993 46.3372 109.782 45.9644C109.57 45.5916 109.464 45.0877 109.464 44.4529V40.916H108.165V39.3894H109.464L109.676 37.3792H111.278V39.3894H113.349V40.916H111.278V44.4529C111.278 44.8358 111.359 45.1029 111.52 45.254C111.691 45.3951 111.973 45.4656 112.366 45.4656H113.304V47.0073H112.004Z" fill="black"></path></svg>