<svg width="269" height="505" viewBox="0 0 269 505" fill="none" xmlns="http://www.w3.org/2000/svg">
<g clip-path="url(#clip0_1_12928)">
<rect width="268.8" height="505" rx="10" fill="#212B36"/>
<g filter="url(#filter0_f_1_12928)">
<ellipse cx="134" cy="-21.5" rx="178.5" ry="185" transform="rotate(-90 134 -21.5)" fill="#006980"/>
</g>
<g opacity="0.56" clip-path="url(#clip1_1_12928)">
<g clip-path="url(#clip2_1_12928)">
<g clip-path="url(#clip3_1_12928)">
<mask id="mask0_1_12928" style="mask-type:alpha" maskUnits="userSpaceOnUse" x="-41" y="-64" width="400" height="363">
<path d="M358.109 -63.9998H-41V298.41H358.109V-63.9998Z" fill="url(#paint0_radial_1_12928)"/>
</mask>
<g mask="url(#mask0_1_12928)">
<path d="M0.76561 196.085H-38.6614V235.512H0.76561V196.085Z" stroke="white" stroke-opacity="0.13" stroke-width="0.963855"/>
<path d="M40.1931 196.085H0.766113V235.512H40.1931V196.085Z" stroke="white" stroke-opacity="0.13" stroke-width="0.963855"/>
<path d="M79.6199 196.085H40.1929V235.512H79.6199V196.085Z" stroke="white" stroke-opacity="0.13" stroke-width="0.963855"/>
<path d="M119.049 196.085H79.6218V235.512H119.049V196.085Z" stroke="white" stroke-opacity="0.13" stroke-width="0.963855"/>
<path d="M158.478 196.085H119.051V235.512H158.478V196.085Z" stroke="white" stroke-opacity="0.13" stroke-width="0.963855"/>
<path d="M197.906 196.085H158.479V235.512H197.906V196.085Z" stroke="white" stroke-opacity="0.13" stroke-width="0.963855"/>
<path d="M237.334 196.085H197.907V235.512H237.334V196.085Z" stroke="white" stroke-opacity="0.13" stroke-width="0.963855"/>
<path d="M276.763 196.085H237.336V235.512H276.763V196.085Z" stroke="white" stroke-opacity="0.13" stroke-width="0.963855"/>
<path d="M0.765366 235.501H-38.6616V274.928H0.765366V235.501Z" stroke="white" stroke-opacity="0.13" stroke-width="0.963855"/>
<path d="M40.1931 235.501H0.766113V274.928H40.1931V235.501Z" stroke="white" stroke-opacity="0.13" stroke-width="0.963855"/>
<path d="M79.6199 235.501H40.1929V274.928H79.6199V235.501Z" stroke="white" stroke-opacity="0.13" stroke-width="0.963855"/>
<path d="M119.049 235.501H79.6218V274.928H119.049V235.501Z" stroke="white" stroke-opacity="0.13" stroke-width="0.963855"/>
<path d="M158.478 235.501H119.051V274.928H158.478V235.501Z" stroke="white" stroke-opacity="0.13" stroke-width="0.963855"/>
<path d="M197.906 235.501H158.479V274.928H197.906V235.501Z" stroke="white" stroke-opacity="0.13" stroke-width="0.963855"/>
<path d="M237.334 235.501H197.907V274.928H237.334V235.501Z" stroke="white" stroke-opacity="0.13" stroke-width="0.963855"/>
<path d="M276.763 235.501H237.336V274.928H276.763V235.501Z" stroke="white" stroke-opacity="0.13" stroke-width="0.963855"/>
<path d="M0.76561 274.919H-38.6614V314.346H0.76561V274.919Z" stroke="white" stroke-opacity="0.13" stroke-width="0.963855"/>
<path d="M40.1931 274.919H0.766113V314.346H40.1931V274.919Z" stroke="white" stroke-opacity="0.13" stroke-width="0.963855"/>
<path d="M79.6199 274.919H40.1929V314.346H79.6199V274.919Z" stroke="white" stroke-opacity="0.13" stroke-width="0.963855"/>
<path d="M119.049 274.919H79.6218V314.346H119.049V274.919Z" stroke="white" stroke-opacity="0.13" stroke-width="0.963855"/>
<path d="M158.478 274.919H119.051V314.346H158.478V274.919Z" stroke="white" stroke-opacity="0.13" stroke-width="0.963855"/>
<path d="M197.906 274.919H158.479V314.346H197.906V274.919Z" stroke="white" stroke-opacity="0.13" stroke-width="0.963855"/>
<path d="M237.334 274.919H197.907V314.346H237.334V274.919Z" stroke="white" stroke-opacity="0.13" stroke-width="0.963855"/>
<path d="M276.763 274.919H237.336V314.346H276.763V274.919Z" stroke="white" stroke-opacity="0.13" stroke-width="0.963855"/>
<path d="M0.76561 -0.999268H-38.6614V38.4277H0.76561V-0.999268Z" stroke="white" stroke-opacity="0.13" stroke-width="0.963855"/>
<path d="M40.1931 -0.999268H0.766113V38.4277H40.1931V-0.999268Z" stroke="white" stroke-opacity="0.13" stroke-width="0.963855"/>
<path d="M79.6199 -0.999268H40.1929V38.4277H79.6199V-0.999268Z" stroke="white" stroke-opacity="0.13" stroke-width="0.963855"/>
<path d="M119.049 -0.999268H79.6218V38.4277H119.049V-0.999268Z" stroke="white" stroke-opacity="0.13" stroke-width="0.963855"/>
<path d="M158.478 -0.999268H119.051V38.4277H158.478V-0.999268Z" stroke="white" stroke-opacity="0.13" stroke-width="0.963855"/>
<path d="M197.906 -0.999268H158.479V38.4277H197.906V-0.999268Z" stroke="white" stroke-opacity="0.13" stroke-width="0.963855"/>
<path d="M237.334 -0.999023H197.907V38.428H237.334V-0.999023Z" stroke="white" stroke-opacity="0.13" stroke-width="0.963855"/>
<path d="M276.763 -0.999023H237.336V38.428H276.763V-0.999023Z" stroke="white" stroke-opacity="0.13" stroke-width="0.963855"/>
<path d="M0.76561 38.4177H-38.6614V77.8447H0.76561V38.4177Z" stroke="white" stroke-opacity="0.13" stroke-width="0.963855"/>
<path d="M40.1931 38.4177H0.766113V77.8447H40.1931V38.4177Z" stroke="white" stroke-opacity="0.13" stroke-width="0.963855"/>
<path d="M79.6199 38.4177H40.1929V77.8447H79.6199V38.4177Z" stroke="white" stroke-opacity="0.13" stroke-width="0.963855"/>
<path d="M119.049 38.4177H79.6218V77.8447H119.049V38.4177Z" stroke="white" stroke-opacity="0.13" stroke-width="0.963855"/>
<path d="M158.478 38.4177H119.051V77.8447H158.478V38.4177Z" stroke="white" stroke-opacity="0.13" stroke-width="0.963855"/>
<path d="M197.906 38.4177H158.479V77.8447H197.906V38.4177Z" stroke="white" stroke-opacity="0.13" stroke-width="0.963855"/>
<path d="M237.334 38.4177H197.907V77.8447H237.334V38.4177Z" stroke="white" stroke-opacity="0.13" stroke-width="0.963855"/>
<path d="M276.763 38.4177H237.336V77.8447H276.763V38.4177Z" stroke="white" stroke-opacity="0.13" stroke-width="0.963855"/>
<path d="M0.76561 77.8345H-38.6614V117.261H0.76561V77.8345Z" stroke="white" stroke-opacity="0.13" stroke-width="0.963855"/>
<path d="M40.1931 77.8345H0.766113V117.261H40.1931V77.8345Z" stroke="white" stroke-opacity="0.13" stroke-width="0.963855"/>
<path d="M79.6199 77.8345H40.1929V117.261H79.6199V77.8345Z" stroke="white" stroke-opacity="0.13" stroke-width="0.963855"/>
<path d="M119.049 77.8345H79.6218V117.261H119.049V77.8345Z" stroke="white" stroke-opacity="0.13" stroke-width="0.963855"/>
<path d="M158.478 77.8345H119.051V117.261H158.478V77.8345Z" stroke="white" stroke-opacity="0.13" stroke-width="0.963855"/>
<path d="M197.906 77.8345H158.479V117.261H197.906V77.8345Z" stroke="white" stroke-opacity="0.13" stroke-width="0.963855"/>
<path d="M237.334 77.8345H197.907V117.261H237.334V77.8345Z" stroke="white" stroke-opacity="0.13" stroke-width="0.963855"/>
<path d="M276.763 77.8345H237.336V117.261H276.763V77.8345Z" stroke="white" stroke-opacity="0.13" stroke-width="0.963855"/>
<path d="M0.76561 117.251H-38.6614V156.678H0.76561V117.251Z" stroke="white" stroke-opacity="0.13" stroke-width="0.963855"/>
<path d="M40.1931 117.251H0.766113V156.678H40.1931V117.251Z" stroke="white" stroke-opacity="0.13" stroke-width="0.963855"/>
<path d="M79.6199 117.251H40.1929V156.678H79.6199V117.251Z" stroke="white" stroke-opacity="0.13" stroke-width="0.963855"/>
<path d="M119.049 117.251H79.6218V156.678H119.049V117.251Z" stroke="white" stroke-opacity="0.13" stroke-width="0.963855"/>
<path d="M158.478 117.251H119.051V156.678H158.478V117.251Z" stroke="white" stroke-opacity="0.13" stroke-width="0.963855"/>
<path d="M197.906 117.251H158.479V156.678H197.906V117.251Z" stroke="white" stroke-opacity="0.13" stroke-width="0.963855"/>
<path d="M237.334 117.252H197.907V156.679H237.334V117.252Z" stroke="white" stroke-opacity="0.13" stroke-width="0.963855"/>
<path d="M276.763 117.252H237.336V156.679H276.763V117.252Z" stroke="white" stroke-opacity="0.13" stroke-width="0.963855"/>
<path d="M0.76561 156.668H-38.6614V196.095H0.76561V156.668Z" stroke="white" stroke-opacity="0.13" stroke-width="0.963855"/>
<path d="M40.1931 156.668H0.766113V196.095H40.1931V156.668Z" stroke="white" stroke-opacity="0.13" stroke-width="0.963855"/>
<path d="M79.6199 156.668H40.1929V196.095H79.6199V156.668Z" stroke="white" stroke-opacity="0.13" stroke-width="0.963855"/>
<path d="M119.049 156.668H79.6218V196.095H119.049V156.668Z" stroke="white" stroke-opacity="0.13" stroke-width="0.963855"/>
<path d="M158.478 156.668H119.051V196.095H158.478V156.668Z" stroke="white" stroke-opacity="0.13" stroke-width="0.963855"/>
<path d="M197.906 156.668H158.479V196.095H197.906V156.668Z" stroke="white" stroke-opacity="0.13" stroke-width="0.963855"/>
<path d="M237.334 156.668H197.907V196.095H237.334V156.668Z" stroke="white" stroke-opacity="0.13" stroke-width="0.963855"/>
<path d="M276.763 156.668H237.336V196.095H276.763V156.668Z" stroke="white" stroke-opacity="0.13" stroke-width="0.963855"/>
<path d="M40.2517 107.171V117.355H30.0681" stroke="url(#paint1_linear_1_12928)" stroke-width="0.963855" stroke-linecap="round"/>
<path d="M40.0354 107.171V117.139H50.4356" stroke="url(#paint2_linear_1_12928)" stroke-width="0.963855" stroke-linecap="round"/>
<path d="M40.0354 127.105V117.138H50.4356" stroke="url(#paint3_linear_1_12928)" stroke-width="0.963855" stroke-linecap="round"/>
<path d="M40.036 127.105V117.138H29.6357" stroke="url(#paint4_linear_1_12928)" stroke-width="0.963855" stroke-linecap="round"/>
<path d="M79.6863 28.3022V38.4862H69.5022" stroke="url(#paint5_linear_1_12928)" stroke-width="0.963855" stroke-linecap="round"/>
<path d="M79.4695 28.3022V38.2693H89.8695" stroke="url(#paint6_linear_1_12928)" stroke-width="0.963855" stroke-linecap="round"/>
<path d="M79.4695 48.2365V38.2693H89.8695" stroke="url(#paint7_linear_1_12928)" stroke-width="0.963855" stroke-linecap="round"/>
<path d="M79.4696 48.2365V38.2693H69.0696" stroke="url(#paint8_linear_1_12928)" stroke-width="0.963855" stroke-linecap="round"/>
<path d="M276.857 67.7371V77.9202H266.673" stroke="url(#paint9_linear_1_12928)" stroke-width="0.963855" stroke-linecap="round"/>
<path d="M276.641 87.6706V77.7034H266.241" stroke="url(#paint10_linear_1_12928)" stroke-width="0.963855" stroke-linecap="round"/>
</g>
</g>
</g>
</g>
</g>
<rect x="0.5" y="0.5" width="267.8" height="504" rx="9.5" stroke="#E4E7EC"/>
<defs>
<filter id="filter0_f_1_12928" x="-262.3" y="-411.3" width="792.6" height="779.6" filterUnits="userSpaceOnUse" color-interpolation-filters="sRGB">
<feFlood flood-opacity="0" result="BackgroundImageFix"/>
<feBlend mode="normal" in="SourceGraphic" in2="BackgroundImageFix" result="shape"/>
<feGaussianBlur stdDeviation="105.65" result="effect1_foregroundBlur_1_12928"/>
</filter>
<radialGradient id="paint0_radial_1_12928" cx="0" cy="0" r="1" gradientUnits="userSpaceOnUse" gradientTransform="translate(158.555 117.205) rotate(90) scale(481.828 530.622)">
<stop stop-color="white" stop-opacity="0.46"/>
<stop offset="0.54" stop-color="white" stop-opacity="0"/>
</radialGradient>
<linearGradient id="paint1_linear_1_12928" x1="40.384" y1="107.171" x2="29.9368" y2="117.219" gradientUnits="userSpaceOnUse">
<stop offset="0.0394381" stop-color="#EBEBEB"/>
<stop offset="0.55"/>
<stop offset="1" stop-color="#EBEBEB"/>
</linearGradient>
<linearGradient id="paint2_linear_1_12928" x1="39.9003" y1="107.171" x2="50.1328" y2="117.439" gradientUnits="userSpaceOnUse">
<stop offset="0.0394381" stop-color="#EBEBEB"/>
<stop offset="0.55"/>
<stop offset="1" stop-color="#EBEBEB"/>
</linearGradient>
<linearGradient id="paint3_linear_1_12928" x1="39.9003" y1="127.105" x2="50.1328" y2="116.836" gradientUnits="userSpaceOnUse">
<stop offset="0.0394381" stop-color="#EBEBEB"/>
<stop offset="0.55"/>
<stop offset="1" stop-color="#EBEBEB"/>
</linearGradient>
<linearGradient id="paint4_linear_1_12928" x1="40.1711" y1="127.105" x2="29.9385" y2="116.836" gradientUnits="userSpaceOnUse">
<stop offset="0.0394381" stop-color="#EBEBEB"/>
<stop offset="0.55"/>
<stop offset="1" stop-color="#EBEBEB"/>
</linearGradient>
<linearGradient id="paint5_linear_1_12928" x1="79.8183" y1="28.3022" x2="69.3711" y2="38.3493" gradientUnits="userSpaceOnUse">
<stop offset="0.0394381" stop-color="#EBEBEB"/>
<stop offset="0.55"/>
<stop offset="1" stop-color="#EBEBEB"/>
</linearGradient>
<linearGradient id="paint6_linear_1_12928" x1="79.3345" y1="28.3022" x2="89.5668" y2="38.571" gradientUnits="userSpaceOnUse">
<stop offset="0.0394381" stop-color="#EBEBEB"/>
<stop offset="0.55"/>
<stop offset="1" stop-color="#EBEBEB"/>
</linearGradient>
<linearGradient id="paint7_linear_1_12928" x1="79.3345" y1="48.2365" x2="89.5668" y2="37.9676" gradientUnits="userSpaceOnUse">
<stop offset="0.0394381" stop-color="#EBEBEB"/>
<stop offset="0.55"/>
<stop offset="1" stop-color="#EBEBEB"/>
</linearGradient>
<linearGradient id="paint8_linear_1_12928" x1="79.6055" y1="48.2365" x2="69.3722" y2="37.9676" gradientUnits="userSpaceOnUse">
<stop offset="0.0394381" stop-color="#EBEBEB"/>
<stop offset="0.55"/>
<stop offset="1" stop-color="#EBEBEB"/>
</linearGradient>
<linearGradient id="paint9_linear_1_12928" x1="276.989" y1="67.7371" x2="266.542" y2="77.7833" gradientUnits="userSpaceOnUse">
<stop offset="0.0394381" stop-color="#EBEBEB"/>
<stop offset="0.55"/>
<stop offset="1" stop-color="#EBEBEB"/>
</linearGradient>
<linearGradient id="paint10_linear_1_12928" x1="276.776" y1="87.6706" x2="266.544" y2="77.4017" gradientUnits="userSpaceOnUse">
<stop offset="0.0394381" stop-color="#EBEBEB"/>
<stop offset="0.55"/>
<stop offset="1" stop-color="#EBEBEB"/>
</linearGradient>
<clipPath id="clip0_1_12928">
<rect width="268.8" height="505" rx="10" fill="white"/>
</clipPath>
<clipPath id="clip1_1_12928">
<rect width="400" height="362.41" fill="white" transform="translate(-41 -64)"/>
</clipPath>
<clipPath id="clip2_1_12928">
<rect width="400" height="362.41" fill="white" transform="translate(-41 -64)"/>
</clipPath>
<clipPath id="clip3_1_12928">
<rect width="400" height="362.41" fill="white" transform="translate(-41 -63.9998)"/>
</clipPath>
</defs>
</svg>
