<svg width="696" height="505" viewBox="0 0 696 505" fill="none" xmlns="http://www.w3.org/2000/svg">
<g clip-path="url(#clip0_1_13073)">
<rect width="696" height="505" rx="10" fill="#212B36"/>
<g filter="url(#filter0_f_1_13073)">
<ellipse cx="348" cy="-21.5" rx="178.5" ry="185" transform="rotate(-90 348 -21.5)" fill="#006980"/>
</g>
<g opacity="0.56" clip-path="url(#clip1_1_13073)">
<g clip-path="url(#clip2_1_13073)">
<g clip-path="url(#clip3_1_13073)">
<mask id="mask0_1_13073" style="mask-type:alpha" maskUnits="userSpaceOnUse" x="386" y="-64" width="400" height="363">
<path d="M785.109 -63.9998H386V298.41H785.109V-63.9998Z" fill="url(#paint0_radial_1_13073)"/>
</mask>
<g mask="url(#mask0_1_13073)">
<path d="M388.337 196.085H348.91V235.512H388.337V196.085Z" stroke="white" stroke-opacity="0.13" stroke-width="0.963855"/>
<path d="M427.765 196.085H388.338V235.512H427.765V196.085Z" stroke="white" stroke-opacity="0.13" stroke-width="0.963855"/>
<path d="M467.193 196.085H427.766V235.512H467.193V196.085Z" stroke="white" stroke-opacity="0.13" stroke-width="0.963855"/>
<path d="M506.62 196.085H467.193V235.512H506.62V196.085Z" stroke="white" stroke-opacity="0.13" stroke-width="0.963855"/>
<path d="M546.049 196.085H506.622V235.512H546.049V196.085Z" stroke="white" stroke-opacity="0.13" stroke-width="0.963855"/>
<path d="M585.478 196.085H546.051V235.512H585.478V196.085Z" stroke="white" stroke-opacity="0.13" stroke-width="0.963855"/>
<path d="M624.906 196.085H585.479V235.512H624.906V196.085Z" stroke="white" stroke-opacity="0.13" stroke-width="0.963855"/>
<path d="M664.334 196.085H624.907V235.512H664.334V196.085Z" stroke="white" stroke-opacity="0.13" stroke-width="0.963855"/>
<path d="M703.763 196.085H664.336V235.512H703.763V196.085Z" stroke="white" stroke-opacity="0.13" stroke-width="0.963855"/>
<path d="M388.337 235.501H348.91V274.928H388.337V235.501Z" stroke="white" stroke-opacity="0.13" stroke-width="0.963855"/>
<path d="M427.765 235.501H388.338V274.928H427.765V235.501Z" stroke="white" stroke-opacity="0.13" stroke-width="0.963855"/>
<path d="M467.193 235.501H427.766V274.928H467.193V235.501Z" stroke="white" stroke-opacity="0.13" stroke-width="0.963855"/>
<path d="M506.62 235.501H467.193V274.928H506.62V235.501Z" stroke="white" stroke-opacity="0.13" stroke-width="0.963855"/>
<path d="M546.049 235.501H506.622V274.928H546.049V235.501Z" stroke="white" stroke-opacity="0.13" stroke-width="0.963855"/>
<path d="M585.478 235.501H546.051V274.928H585.478V235.501Z" stroke="white" stroke-opacity="0.13" stroke-width="0.963855"/>
<path d="M624.906 235.501H585.479V274.928H624.906V235.501Z" stroke="white" stroke-opacity="0.13" stroke-width="0.963855"/>
<path d="M664.334 235.501H624.907V274.928H664.334V235.501Z" stroke="white" stroke-opacity="0.13" stroke-width="0.963855"/>
<path d="M703.763 235.501H664.336V274.928H703.763V235.501Z" stroke="white" stroke-opacity="0.13" stroke-width="0.963855"/>
<path d="M388.337 274.919H348.91V314.346H388.337V274.919Z" stroke="white" stroke-opacity="0.13" stroke-width="0.963855"/>
<path d="M427.765 274.919H388.338V314.346H427.765V274.919Z" stroke="white" stroke-opacity="0.13" stroke-width="0.963855"/>
<path d="M467.193 274.919H427.766V314.346H467.193V274.919Z" stroke="white" stroke-opacity="0.13" stroke-width="0.963855"/>
<path d="M506.62 274.919H467.193V314.346H506.62V274.919Z" stroke="white" stroke-opacity="0.13" stroke-width="0.963855"/>
<path d="M546.049 274.919H506.622V314.346H546.049V274.919Z" stroke="white" stroke-opacity="0.13" stroke-width="0.963855"/>
<path d="M585.478 274.919H546.051V314.346H585.478V274.919Z" stroke="white" stroke-opacity="0.13" stroke-width="0.963855"/>
<path d="M624.906 274.919H585.479V314.346H624.906V274.919Z" stroke="white" stroke-opacity="0.13" stroke-width="0.963855"/>
<path d="M664.334 274.919H624.907V314.346H664.334V274.919Z" stroke="white" stroke-opacity="0.13" stroke-width="0.963855"/>
<path d="M703.763 274.919H664.336V314.346H703.763V274.919Z" stroke="white" stroke-opacity="0.13" stroke-width="0.963855"/>
<path d="M388.337 -0.999268H348.91V38.4277H388.337V-0.999268Z" stroke="white" stroke-opacity="0.13" stroke-width="0.963855"/>
<path d="M427.765 -0.999268H388.338V38.4277H427.765V-0.999268Z" stroke="white" stroke-opacity="0.13" stroke-width="0.963855"/>
<path d="M467.193 -0.999268H427.766V38.4277H467.193V-0.999268Z" stroke="white" stroke-opacity="0.13" stroke-width="0.963855"/>
<path d="M506.62 -0.999268H467.193V38.4277H506.62V-0.999268Z" stroke="white" stroke-opacity="0.13" stroke-width="0.963855"/>
<path d="M546.049 -0.999268H506.622V38.4277H546.049V-0.999268Z" stroke="white" stroke-opacity="0.13" stroke-width="0.963855"/>
<path d="M585.478 -0.999268H546.051V38.4277H585.478V-0.999268Z" stroke="white" stroke-opacity="0.13" stroke-width="0.963855"/>
<path d="M624.906 -0.999268H585.479V38.4277H624.906V-0.999268Z" stroke="white" stroke-opacity="0.13" stroke-width="0.963855"/>
<path d="M664.334 -0.999023H624.907V38.428H664.334V-0.999023Z" stroke="white" stroke-opacity="0.13" stroke-width="0.963855"/>
<path d="M703.763 -0.999023H664.336V38.428H703.763V-0.999023Z" stroke="white" stroke-opacity="0.13" stroke-width="0.963855"/>
<path d="M388.337 38.4177H348.91V77.8447H388.337V38.4177Z" stroke="white" stroke-opacity="0.13" stroke-width="0.963855"/>
<path d="M427.765 38.4177H388.338V77.8447H427.765V38.4177Z" stroke="white" stroke-opacity="0.13" stroke-width="0.963855"/>
<path d="M467.193 38.4177H427.766V77.8447H467.193V38.4177Z" stroke="white" stroke-opacity="0.13" stroke-width="0.963855"/>
<path d="M506.62 38.4177H467.193V77.8447H506.62V38.4177Z" stroke="white" stroke-opacity="0.13" stroke-width="0.963855"/>
<path d="M546.049 38.4177H506.622V77.8447H546.049V38.4177Z" stroke="white" stroke-opacity="0.13" stroke-width="0.963855"/>
<path d="M585.478 38.4177H546.051V77.8447H585.478V38.4177Z" stroke="white" stroke-opacity="0.13" stroke-width="0.963855"/>
<path d="M624.906 38.4177H585.479V77.8447H624.906V38.4177Z" stroke="white" stroke-opacity="0.13" stroke-width="0.963855"/>
<path d="M664.334 38.4177H624.907V77.8447H664.334V38.4177Z" stroke="white" stroke-opacity="0.13" stroke-width="0.963855"/>
<path d="M703.763 38.4177H664.336V77.8447H703.763V38.4177Z" stroke="white" stroke-opacity="0.13" stroke-width="0.963855"/>
<path d="M388.337 77.8345H348.91V117.261H388.337V77.8345Z" stroke="white" stroke-opacity="0.13" stroke-width="0.963855"/>
<path d="M427.765 77.8345H388.338V117.261H427.765V77.8345Z" stroke="white" stroke-opacity="0.13" stroke-width="0.963855"/>
<path d="M467.193 77.8345H427.766V117.261H467.193V77.8345Z" stroke="white" stroke-opacity="0.13" stroke-width="0.963855"/>
<path d="M506.62 77.8345H467.193V117.261H506.62V77.8345Z" stroke="white" stroke-opacity="0.13" stroke-width="0.963855"/>
<path d="M546.049 77.8345H506.622V117.261H546.049V77.8345Z" stroke="white" stroke-opacity="0.13" stroke-width="0.963855"/>
<path d="M585.478 77.8345H546.051V117.261H585.478V77.8345Z" stroke="white" stroke-opacity="0.13" stroke-width="0.963855"/>
<path d="M624.906 77.8345H585.479V117.261H624.906V77.8345Z" stroke="white" stroke-opacity="0.13" stroke-width="0.963855"/>
<path d="M664.334 77.8345H624.907V117.261H664.334V77.8345Z" stroke="white" stroke-opacity="0.13" stroke-width="0.963855"/>
<path d="M703.763 77.8345H664.336V117.261H703.763V77.8345Z" stroke="white" stroke-opacity="0.13" stroke-width="0.963855"/>
<path d="M388.337 117.251H348.91V156.678H388.337V117.251Z" stroke="white" stroke-opacity="0.13" stroke-width="0.963855"/>
<path d="M427.765 117.251H388.338V156.678H427.765V117.251Z" stroke="white" stroke-opacity="0.13" stroke-width="0.963855"/>
<path d="M467.193 117.251H427.766V156.678H467.193V117.251Z" stroke="white" stroke-opacity="0.13" stroke-width="0.963855"/>
<path d="M506.62 117.251H467.193V156.678H506.62V117.251Z" stroke="white" stroke-opacity="0.13" stroke-width="0.963855"/>
<path d="M546.049 117.251H506.622V156.678H546.049V117.251Z" stroke="white" stroke-opacity="0.13" stroke-width="0.963855"/>
<path d="M585.478 117.251H546.051V156.678H585.478V117.251Z" stroke="white" stroke-opacity="0.13" stroke-width="0.963855"/>
<path d="M624.906 117.251H585.479V156.678H624.906V117.251Z" stroke="white" stroke-opacity="0.13" stroke-width="0.963855"/>
<path d="M664.334 117.252H624.907V156.679H664.334V117.252Z" stroke="white" stroke-opacity="0.13" stroke-width="0.963855"/>
<path d="M703.763 117.252H664.336V156.679H703.763V117.252Z" stroke="white" stroke-opacity="0.13" stroke-width="0.963855"/>
<path d="M388.337 156.668H348.91V196.095H388.337V156.668Z" stroke="white" stroke-opacity="0.13" stroke-width="0.963855"/>
<path d="M427.765 156.668H388.338V196.095H427.765V156.668Z" stroke="white" stroke-opacity="0.13" stroke-width="0.963855"/>
<path d="M467.193 156.668H427.766V196.095H467.193V156.668Z" stroke="white" stroke-opacity="0.13" stroke-width="0.963855"/>
<path d="M506.62 156.668H467.193V196.095H506.62V156.668Z" stroke="white" stroke-opacity="0.13" stroke-width="0.963855"/>
<path d="M546.049 156.668H506.622V196.095H546.049V156.668Z" stroke="white" stroke-opacity="0.13" stroke-width="0.963855"/>
<path d="M585.478 156.668H546.051V196.095H585.478V156.668Z" stroke="white" stroke-opacity="0.13" stroke-width="0.963855"/>
<path d="M624.906 156.668H585.479V196.095H624.906V156.668Z" stroke="white" stroke-opacity="0.13" stroke-width="0.963855"/>
<path d="M664.334 156.668H624.907V196.095H664.334V156.668Z" stroke="white" stroke-opacity="0.13" stroke-width="0.963855"/>
<path d="M703.763 156.668H664.336V196.095H703.763V156.668Z" stroke="white" stroke-opacity="0.13" stroke-width="0.963855"/>
<path d="M467.251 107.171V117.355H457.068" stroke="url(#paint1_linear_1_13073)" stroke-width="0.963855" stroke-linecap="round"/>
<path d="M467.035 107.171V117.139H477.435" stroke="url(#paint2_linear_1_13073)" stroke-width="0.963855" stroke-linecap="round"/>
<path d="M467.035 127.105V117.138H477.435" stroke="url(#paint3_linear_1_13073)" stroke-width="0.963855" stroke-linecap="round"/>
<path d="M467.036 127.105V117.138H456.636" stroke="url(#paint4_linear_1_13073)" stroke-width="0.963855" stroke-linecap="round"/>
<path d="M506.687 28.3022V38.4862H496.502" stroke="url(#paint5_linear_1_13073)" stroke-width="0.963855" stroke-linecap="round"/>
<path d="M506.469 28.3022V38.2693H516.869" stroke="url(#paint6_linear_1_13073)" stroke-width="0.963855" stroke-linecap="round"/>
<path d="M506.469 48.2365V38.2693H516.869" stroke="url(#paint7_linear_1_13073)" stroke-width="0.963855" stroke-linecap="round"/>
<path d="M506.469 48.2365V38.2693H496.069" stroke="url(#paint8_linear_1_13073)" stroke-width="0.963855" stroke-linecap="round"/>
<path d="M703.857 67.7371V77.9202H693.673" stroke="url(#paint9_linear_1_13073)" stroke-width="0.963855" stroke-linecap="round"/>
<path d="M703.642 87.6706V77.7034H693.242" stroke="url(#paint10_linear_1_13073)" stroke-width="0.963855" stroke-linecap="round"/>
</g>
</g>
</g>
</g>
</g>
<rect x="0.5" y="0.5" width="695" height="504" rx="9.5" stroke="#E4E7EC"/>
<defs>
<filter id="filter0_f_1_13073" x="-48.3" y="-411.3" width="792.6" height="779.6" filterUnits="userSpaceOnUse" color-interpolation-filters="sRGB">
<feFlood flood-opacity="0" result="BackgroundImageFix"/>
<feBlend mode="normal" in="SourceGraphic" in2="BackgroundImageFix" result="shape"/>
<feGaussianBlur stdDeviation="105.65" result="effect1_foregroundBlur_1_13073"/>
</filter>
<radialGradient id="paint0_radial_1_13073" cx="0" cy="0" r="1" gradientUnits="userSpaceOnUse" gradientTransform="translate(585.555 117.205) rotate(90) scale(481.828 530.622)">
<stop stop-color="white" stop-opacity="0.46"/>
<stop offset="0.54" stop-color="white" stop-opacity="0"/>
</radialGradient>
<linearGradient id="paint1_linear_1_13073" x1="467.384" y1="107.171" x2="456.937" y2="117.219" gradientUnits="userSpaceOnUse">
<stop offset="0.0394381" stop-color="#EBEBEB"/>
<stop offset="0.55"/>
<stop offset="1" stop-color="#EBEBEB"/>
</linearGradient>
<linearGradient id="paint2_linear_1_13073" x1="466.9" y1="107.171" x2="477.133" y2="117.439" gradientUnits="userSpaceOnUse">
<stop offset="0.0394381" stop-color="#EBEBEB"/>
<stop offset="0.55"/>
<stop offset="1" stop-color="#EBEBEB"/>
</linearGradient>
<linearGradient id="paint3_linear_1_13073" x1="466.9" y1="127.105" x2="477.133" y2="116.836" gradientUnits="userSpaceOnUse">
<stop offset="0.0394381" stop-color="#EBEBEB"/>
<stop offset="0.55"/>
<stop offset="1" stop-color="#EBEBEB"/>
</linearGradient>
<linearGradient id="paint4_linear_1_13073" x1="467.171" y1="127.105" x2="456.938" y2="116.836" gradientUnits="userSpaceOnUse">
<stop offset="0.0394381" stop-color="#EBEBEB"/>
<stop offset="0.55"/>
<stop offset="1" stop-color="#EBEBEB"/>
</linearGradient>
<linearGradient id="paint5_linear_1_13073" x1="506.819" y1="28.3022" x2="496.371" y2="38.3493" gradientUnits="userSpaceOnUse">
<stop offset="0.0394381" stop-color="#EBEBEB"/>
<stop offset="0.55"/>
<stop offset="1" stop-color="#EBEBEB"/>
</linearGradient>
<linearGradient id="paint6_linear_1_13073" x1="506.334" y1="28.3022" x2="516.567" y2="38.571" gradientUnits="userSpaceOnUse">
<stop offset="0.0394381" stop-color="#EBEBEB"/>
<stop offset="0.55"/>
<stop offset="1" stop-color="#EBEBEB"/>
</linearGradient>
<linearGradient id="paint7_linear_1_13073" x1="506.334" y1="48.2365" x2="516.567" y2="37.9676" gradientUnits="userSpaceOnUse">
<stop offset="0.0394381" stop-color="#EBEBEB"/>
<stop offset="0.55"/>
<stop offset="1" stop-color="#EBEBEB"/>
</linearGradient>
<linearGradient id="paint8_linear_1_13073" x1="506.605" y1="48.2365" x2="496.372" y2="37.9676" gradientUnits="userSpaceOnUse">
<stop offset="0.0394381" stop-color="#EBEBEB"/>
<stop offset="0.55"/>
<stop offset="1" stop-color="#EBEBEB"/>
</linearGradient>
<linearGradient id="paint9_linear_1_13073" x1="703.989" y1="67.7371" x2="693.542" y2="77.7833" gradientUnits="userSpaceOnUse">
<stop offset="0.0394381" stop-color="#EBEBEB"/>
<stop offset="0.55"/>
<stop offset="1" stop-color="#EBEBEB"/>
</linearGradient>
<linearGradient id="paint10_linear_1_13073" x1="703.777" y1="87.6706" x2="693.544" y2="77.4017" gradientUnits="userSpaceOnUse">
<stop offset="0.0394381" stop-color="#EBEBEB"/>
<stop offset="0.55"/>
<stop offset="1" stop-color="#EBEBEB"/>
</linearGradient>
<clipPath id="clip0_1_13073">
<rect width="696" height="505" rx="10" fill="white"/>
</clipPath>
<clipPath id="clip1_1_13073">
<rect width="400" height="362.41" fill="white" transform="translate(386 -64)"/>
</clipPath>
<clipPath id="clip2_1_13073">
<rect width="400" height="362.41" fill="white" transform="translate(386 -64)"/>
</clipPath>
<clipPath id="clip3_1_13073">
<rect width="400" height="362.41" fill="white" transform="translate(386 -63.9998)"/>
</clipPath>
</defs>
</svg>
