<svg width="1872" height="799" viewBox="0 0 1872 799" fill="none" xmlns="http://www.w3.org/2000/svg">
<g clip-path="url(#clip0_1_12641)">
<rect width="1872" height="799" rx="10" fill="#212B36"/>
<g filter="url(#filter0_f_1_12641)">
<ellipse cx="936" cy="-309.5" rx="646.5" ry="670" transform="rotate(-90 936 -309.5)" fill="#006980"/>
</g>
<g opacity="0.56" clip-path="url(#clip1_1_12641)">
<g clip-path="url(#clip2_1_12641)">
<g clip-path="url(#clip3_1_12641)">
<mask id="mask0_1_12641" style="mask-type:alpha" maskUnits="userSpaceOnUse" x="1318" y="24" width="519" height="471">
<path d="M1836.05 24.2875H1318.77V494.273H1836.05V24.2875Z" fill="url(#paint0_radial_1_12641)"/>
</mask>
<g mask="url(#mask0_1_12641)">
<path d="M1321.8 361.574H1270.7V412.705H1321.8V361.574Z" stroke="white" stroke-opacity="0.13" stroke-width="1.16752"/>
<path d="M1372.9 361.574H1321.8V412.705H1372.9V361.574Z" stroke="white" stroke-opacity="0.13" stroke-width="1.16752"/>
<path d="M1424 361.574H1372.9V412.705H1424V361.574Z" stroke="white" stroke-opacity="0.13" stroke-width="1.16752"/>
<path d="M1475.11 361.574H1424V412.705H1475.11V361.574Z" stroke="white" stroke-opacity="0.13" stroke-width="1.16752"/>
<path d="M1526.21 361.574H1475.11V412.705H1526.21V361.574Z" stroke="white" stroke-opacity="0.13" stroke-width="1.16752"/>
<path d="M1577.31 361.574H1526.21V412.705H1577.31V361.574Z" stroke="white" stroke-opacity="0.13" stroke-width="1.16752"/>
<path d="M1628.42 361.574H1577.32V412.705H1628.42V361.574Z" stroke="white" stroke-opacity="0.13" stroke-width="1.16752"/>
<path d="M1679.52 361.574H1628.42V412.705H1679.52V361.574Z" stroke="white" stroke-opacity="0.13" stroke-width="1.16752"/>
<path d="M1730.62 361.574H1679.52V412.705H1730.62V361.574Z" stroke="white" stroke-opacity="0.13" stroke-width="1.16752"/>
<path d="M1781.72 361.574H1730.62V412.705H1781.72V361.574Z" stroke="white" stroke-opacity="0.13" stroke-width="1.16752"/>
<path d="M1832.83 361.574H1781.73V412.705H1832.83V361.574Z" stroke="white" stroke-opacity="0.13" stroke-width="1.16752"/>
<path d="M1883.93 361.574H1832.83V412.705H1883.93V361.574Z" stroke="white" stroke-opacity="0.13" stroke-width="1.16752"/>
<path d="M1321.8 412.69H1270.7V463.821H1321.8V412.69Z" stroke="white" stroke-opacity="0.13" stroke-width="1.16752"/>
<path d="M1321.8 3.7546H1270.7V54.8849H1321.8V3.7546Z" stroke="white" stroke-opacity="0.13" stroke-width="1.16752"/>
<path d="M1372.9 412.69H1321.8V463.821H1372.9V412.69Z" stroke="white" stroke-opacity="0.13" stroke-width="1.16752"/>
<path d="M1372.9 3.75459H1321.8V54.8849H1372.9V3.75459Z" stroke="white" stroke-opacity="0.13" stroke-width="1.16752"/>
<path d="M1424 412.69H1372.9V463.821H1424V412.69Z" stroke="white" stroke-opacity="0.13" stroke-width="1.16752"/>
<path d="M1424 3.75459H1372.9V54.8849H1424V3.75459Z" stroke="white" stroke-opacity="0.13" stroke-width="1.16752"/>
<path d="M1475.11 412.69H1424V463.821H1475.11V412.69Z" stroke="white" stroke-opacity="0.13" stroke-width="1.16752"/>
<path d="M1475.11 3.75459H1424V54.8849H1475.11V3.75459Z" stroke="white" stroke-opacity="0.13" stroke-width="1.16752"/>
<path d="M1526.21 412.69H1475.11V463.821H1526.21V412.69Z" stroke="white" stroke-opacity="0.13" stroke-width="1.16752"/>
<path d="M1526.21 3.75459H1475.11V54.8849H1526.21V3.75459Z" stroke="white" stroke-opacity="0.13" stroke-width="1.16752"/>
<path d="M1577.31 412.69H1526.21V463.821H1577.31V412.69Z" stroke="white" stroke-opacity="0.13" stroke-width="1.16752"/>
<path d="M1577.31 3.75459H1526.21V54.8849H1577.31V3.75459Z" stroke="white" stroke-opacity="0.13" stroke-width="1.16752"/>
<path d="M1628.42 412.69H1577.32V463.821H1628.42V412.69Z" stroke="white" stroke-opacity="0.13" stroke-width="1.16752"/>
<path d="M1628.42 3.75459H1577.32V54.8849H1628.42V3.75459Z" stroke="white" stroke-opacity="0.13" stroke-width="1.16752"/>
<path d="M1679.52 412.69H1628.42V463.821H1679.52V412.69Z" stroke="white" stroke-opacity="0.13" stroke-width="1.16752"/>
<path d="M1679.52 3.75459H1628.42V54.8849H1679.52V3.75459Z" stroke="white" stroke-opacity="0.13" stroke-width="1.16752"/>
<path d="M1730.62 412.69H1679.52V463.821H1730.62V412.69Z" stroke="white" stroke-opacity="0.13" stroke-width="1.16752"/>
<path d="M1730.62 3.75459H1679.52V54.8849H1730.62V3.75459Z" stroke="white" stroke-opacity="0.13" stroke-width="1.16752"/>
<path d="M1781.72 412.692H1730.62V463.822H1781.72V412.692Z" stroke="white" stroke-opacity="0.13" stroke-width="1.16752"/>
<path d="M1781.72 3.75459H1730.62V54.8849H1781.72V3.75459Z" stroke="white" stroke-opacity="0.13" stroke-width="1.16752"/>
<path d="M1832.83 412.69H1781.73V463.821H1832.83V412.69Z" stroke="white" stroke-opacity="0.13" stroke-width="1.16752"/>
<path d="M1832.83 3.75459H1781.73V54.8849H1832.83V3.75459Z" stroke="white" stroke-opacity="0.13" stroke-width="1.16752"/>
<path d="M1883.93 412.69H1832.83V463.821H1883.93V412.69Z" stroke="white" stroke-opacity="0.13" stroke-width="1.16752"/>
<path d="M1883.93 3.75459H1832.83V54.8849H1883.93V3.75459Z" stroke="white" stroke-opacity="0.13" stroke-width="1.16752"/>
<path d="M1321.8 463.809H1270.7V514.939H1321.8V463.809Z" stroke="white" stroke-opacity="0.13" stroke-width="1.16752"/>
<path d="M1321.8 54.8721H1270.7V106.002H1321.8V54.8721Z" stroke="white" stroke-opacity="0.13" stroke-width="1.16752"/>
<path d="M1372.9 463.809H1321.8V514.939H1372.9V463.809Z" stroke="white" stroke-opacity="0.13" stroke-width="1.16752"/>
<path d="M1372.9 54.8721H1321.8V106.002H1372.9V54.8721Z" stroke="white" stroke-opacity="0.13" stroke-width="1.16752"/>
<path d="M1424 463.809H1372.9V514.939H1424V463.809Z" stroke="white" stroke-opacity="0.13" stroke-width="1.16752"/>
<path d="M1424 54.8721H1372.9V106.002H1424V54.8721Z" stroke="white" stroke-opacity="0.13" stroke-width="1.16752"/>
<path d="M1475.11 463.809H1424V514.939H1475.11V463.809Z" stroke="white" stroke-opacity="0.13" stroke-width="1.16752"/>
<path d="M1475.11 54.8721H1424V106.002H1475.11V54.8721Z" stroke="white" stroke-opacity="0.13" stroke-width="1.16752"/>
<path d="M1526.21 463.809H1475.11V514.939H1526.21V463.809Z" stroke="white" stroke-opacity="0.13" stroke-width="1.16752"/>
<path d="M1526.21 54.8721H1475.11V106.002H1526.21V54.8721Z" stroke="white" stroke-opacity="0.13" stroke-width="1.16752"/>
<path d="M1577.31 463.809H1526.21V514.939H1577.31V463.809Z" stroke="white" stroke-opacity="0.13" stroke-width="1.16752"/>
<path d="M1577.31 54.8721H1526.21V106.002H1577.31V54.8721Z" stroke="white" stroke-opacity="0.13" stroke-width="1.16752"/>
<path d="M1628.42 463.809H1577.32V514.939H1628.42V463.809Z" stroke="white" stroke-opacity="0.13" stroke-width="1.16752"/>
<path d="M1628.42 54.8721H1577.32V106.002H1628.42V54.8721Z" stroke="white" stroke-opacity="0.13" stroke-width="1.16752"/>
<path d="M1679.52 463.809H1628.42V514.939H1679.52V463.809Z" stroke="white" stroke-opacity="0.13" stroke-width="1.16752"/>
<path d="M1679.52 54.8725H1628.42V106.003H1679.52V54.8725Z" stroke="white" stroke-opacity="0.13" stroke-width="1.16752"/>
<path d="M1730.62 463.809H1679.52V514.939H1730.62V463.809Z" stroke="white" stroke-opacity="0.13" stroke-width="1.16752"/>
<path d="M1730.62 54.8725H1679.52V106.003H1730.62V54.8725Z" stroke="white" stroke-opacity="0.13" stroke-width="1.16752"/>
<path d="M1781.72 463.809H1730.62V514.939H1781.72V463.809Z" stroke="white" stroke-opacity="0.13" stroke-width="1.16752"/>
<path d="M1781.72 54.8725H1730.62V106.003H1781.72V54.8725Z" stroke="white" stroke-opacity="0.13" stroke-width="1.16752"/>
<path d="M1832.83 463.809H1781.73V514.939H1832.83V463.809Z" stroke="white" stroke-opacity="0.13" stroke-width="1.16752"/>
<path d="M1832.83 54.8725H1781.73V106.003H1832.83V54.8725Z" stroke="white" stroke-opacity="0.13" stroke-width="1.16752"/>
<path d="M1883.93 463.809H1832.83V514.939H1883.93V463.809Z" stroke="white" stroke-opacity="0.13" stroke-width="1.16752"/>
<path d="M1883.93 54.8725H1832.83V106.003H1883.93V54.8725Z" stroke="white" stroke-opacity="0.13" stroke-width="1.16752"/>
<path d="M1321.8 105.989H1270.7V157.119H1321.8V105.989Z" stroke="white" stroke-opacity="0.13" stroke-width="1.16752"/>
<path d="M1372.9 105.989H1321.8V157.119H1372.9V105.989Z" stroke="white" stroke-opacity="0.13" stroke-width="1.16752"/>
<path d="M1424 105.989H1372.9V157.119H1424V105.989Z" stroke="white" stroke-opacity="0.13" stroke-width="1.16752"/>
<path d="M1475.11 105.989H1424V157.119H1475.11V105.989Z" stroke="white" stroke-opacity="0.13" stroke-width="1.16752"/>
<path d="M1526.21 105.989H1475.11V157.119H1526.21V105.989Z" stroke="white" stroke-opacity="0.13" stroke-width="1.16752"/>
<path d="M1577.31 105.989H1526.21V157.119H1577.31V105.989Z" stroke="white" stroke-opacity="0.13" stroke-width="1.16752"/>
<path d="M1628.42 105.989H1577.32V157.119H1628.42V105.989Z" stroke="white" stroke-opacity="0.13" stroke-width="1.16752"/>
<path d="M1679.52 105.989H1628.42V157.119H1679.52V105.989Z" stroke="white" stroke-opacity="0.13" stroke-width="1.16752"/>
<path d="M1730.62 105.989H1679.52V157.119H1730.62V105.989Z" stroke="white" stroke-opacity="0.13" stroke-width="1.16752"/>
<path d="M1781.72 105.989H1730.62V157.119H1781.72V105.989Z" stroke="white" stroke-opacity="0.13" stroke-width="1.16752"/>
<path d="M1832.83 105.989H1781.73V157.119H1832.83V105.989Z" stroke="white" stroke-opacity="0.13" stroke-width="1.16752"/>
<path d="M1883.93 105.989H1832.83V157.119H1883.93V105.989Z" stroke="white" stroke-opacity="0.13" stroke-width="1.16752"/>
<path d="M1321.8 157.106H1270.7V208.236H1321.8V157.106Z" stroke="white" stroke-opacity="0.13" stroke-width="1.16752"/>
<path d="M1372.9 157.106H1321.8V208.236H1372.9V157.106Z" stroke="white" stroke-opacity="0.13" stroke-width="1.16752"/>
<path d="M1424 157.106H1372.9V208.236H1424V157.106Z" stroke="white" stroke-opacity="0.13" stroke-width="1.16752"/>
<path d="M1475.11 157.106H1424V208.236H1475.11V157.106Z" stroke="white" stroke-opacity="0.13" stroke-width="1.16752"/>
<path d="M1526.21 157.106H1475.11V208.236H1526.21V157.106Z" stroke="white" stroke-opacity="0.13" stroke-width="1.16752"/>
<path d="M1577.31 157.106H1526.21V208.236H1577.31V157.106Z" stroke="white" stroke-opacity="0.13" stroke-width="1.16752"/>
<path d="M1628.42 157.106H1577.32V208.236H1628.42V157.106Z" stroke="white" stroke-opacity="0.13" stroke-width="1.16752"/>
<path d="M1679.52 157.106H1628.42V208.236H1679.52V157.106Z" stroke="white" stroke-opacity="0.13" stroke-width="1.16752"/>
<path d="M1730.62 157.106H1679.52V208.236H1730.62V157.106Z" stroke="white" stroke-opacity="0.13" stroke-width="1.16752"/>
<path d="M1781.72 157.106H1730.62V208.236H1781.72V157.106Z" stroke="white" stroke-opacity="0.13" stroke-width="1.16752"/>
<path d="M1832.83 157.106H1781.73V208.236H1832.83V157.106Z" stroke="white" stroke-opacity="0.13" stroke-width="1.16752"/>
<path d="M1883.93 157.106H1832.83V208.236H1883.93V157.106Z" stroke="white" stroke-opacity="0.13" stroke-width="1.16752"/>
<path d="M1321.8 208.223H1270.7V259.353H1321.8V208.223Z" stroke="white" stroke-opacity="0.13" stroke-width="1.16752"/>
<path d="M1372.9 208.223H1321.8V259.353H1372.9V208.223Z" stroke="white" stroke-opacity="0.13" stroke-width="1.16752"/>
<path d="M1424 208.223H1372.9V259.353H1424V208.223Z" stroke="white" stroke-opacity="0.13" stroke-width="1.16752"/>
<path d="M1475.11 208.223H1424V259.353H1475.11V208.223Z" stroke="white" stroke-opacity="0.13" stroke-width="1.16752"/>
<path d="M1526.21 208.223H1475.11V259.353H1526.21V208.223Z" stroke="white" stroke-opacity="0.13" stroke-width="1.16752"/>
<path d="M1577.31 208.223H1526.21V259.353H1577.31V208.223Z" stroke="white" stroke-opacity="0.13" stroke-width="1.16752"/>
<path d="M1628.42 208.223H1577.32V259.353H1628.42V208.223Z" stroke="white" stroke-opacity="0.13" stroke-width="1.16752"/>
<path d="M1679.52 208.223H1628.42V259.353H1679.52V208.223Z" stroke="white" stroke-opacity="0.13" stroke-width="1.16752"/>
<path d="M1730.62 208.223H1679.52V259.353H1730.62V208.223Z" stroke="white" stroke-opacity="0.13" stroke-width="1.16752"/>
<path d="M1781.72 208.223H1730.62V259.353H1781.72V208.223Z" stroke="white" stroke-opacity="0.13" stroke-width="1.16752"/>
<path d="M1832.83 208.223H1781.73V259.353H1832.83V208.223Z" stroke="white" stroke-opacity="0.13" stroke-width="1.16752"/>
<path d="M1883.93 208.223H1832.83V259.353H1883.93V208.223Z" stroke="white" stroke-opacity="0.13" stroke-width="1.16752"/>
<path d="M1321.8 259.34H1270.7V310.47H1321.8V259.34Z" stroke="white" stroke-opacity="0.13" stroke-width="1.16752"/>
<path d="M1372.9 259.34H1321.8V310.47H1372.9V259.34Z" stroke="white" stroke-opacity="0.13" stroke-width="1.16752"/>
<path d="M1424 259.34H1372.9V310.47H1424V259.34Z" stroke="white" stroke-opacity="0.13" stroke-width="1.16752"/>
<path d="M1475.11 259.34H1424V310.47H1475.11V259.34Z" stroke="white" stroke-opacity="0.13" stroke-width="1.16752"/>
<path d="M1526.21 259.34H1475.11V310.47H1526.21V259.34Z" stroke="white" stroke-opacity="0.13" stroke-width="1.16752"/>
<path d="M1577.31 259.34H1526.21V310.47H1577.31V259.34Z" stroke="white" stroke-opacity="0.13" stroke-width="1.16752"/>
<path d="M1628.42 259.34H1577.32V310.47H1628.42V259.34Z" stroke="white" stroke-opacity="0.13" stroke-width="1.16752"/>
<path d="M1679.52 259.341H1628.42V310.472H1679.52V259.341Z" stroke="white" stroke-opacity="0.13" stroke-width="1.16752"/>
<path d="M1730.62 259.341H1679.52V310.472H1730.62V259.341Z" stroke="white" stroke-opacity="0.13" stroke-width="1.16752"/>
<path d="M1781.72 259.341H1730.62V310.472H1781.72V259.341Z" stroke="white" stroke-opacity="0.13" stroke-width="1.16752"/>
<path d="M1832.83 259.341H1781.73V310.472H1832.83V259.341Z" stroke="white" stroke-opacity="0.13" stroke-width="1.16752"/>
<path d="M1883.93 259.341H1832.83V310.472H1883.93V259.341Z" stroke="white" stroke-opacity="0.13" stroke-width="1.16752"/>
<path d="M1321.8 310.457H1270.7V361.588H1321.8V310.457Z" stroke="white" stroke-opacity="0.13" stroke-width="1.16752"/>
<path d="M1372.9 310.457H1321.8V361.588H1372.9V310.457Z" stroke="white" stroke-opacity="0.13" stroke-width="1.16752"/>
<path d="M1424 310.457H1372.9V361.588H1424V310.457Z" stroke="white" stroke-opacity="0.13" stroke-width="1.16752"/>
<path d="M1475.11 310.457H1424V361.588H1475.11V310.457Z" stroke="white" stroke-opacity="0.13" stroke-width="1.16752"/>
<path d="M1526.21 310.457H1475.11V361.588H1526.21V310.457Z" stroke="white" stroke-opacity="0.13" stroke-width="1.16752"/>
<path d="M1577.31 310.457H1526.21V361.588H1577.31V310.457Z" stroke="white" stroke-opacity="0.13" stroke-width="1.16752"/>
<path d="M1628.42 310.457H1577.32V361.588H1628.42V310.457Z" stroke="white" stroke-opacity="0.13" stroke-width="1.16752"/>
<path d="M1679.52 310.457H1628.42V361.588H1679.52V310.457Z" stroke="white" stroke-opacity="0.13" stroke-width="1.16752"/>
<path d="M1730.62 310.457H1679.52V361.588H1730.62V310.457Z" stroke="white" stroke-opacity="0.13" stroke-width="1.16752"/>
<path d="M1781.72 310.457H1730.62V361.588H1781.72V310.457Z" stroke="white" stroke-opacity="0.13" stroke-width="1.16752"/>
<path d="M1832.83 310.457H1781.73V361.588H1832.83V310.457Z" stroke="white" stroke-opacity="0.13" stroke-width="1.16752"/>
<path d="M1883.93 310.457H1832.83V361.588H1883.93V310.457Z" stroke="white" stroke-opacity="0.13" stroke-width="1.16752"/>
<path d="M1424.08 246.268V259.474H1410.88" stroke="url(#paint1_linear_1_12641)" stroke-width="1.16752" stroke-linecap="round"/>
<path d="M1423.8 246.268V259.194H1437.28" stroke="url(#paint2_linear_1_12641)" stroke-width="1.16752" stroke-linecap="round"/>
<path d="M1423.8 272.118V259.193H1437.28" stroke="url(#paint3_linear_1_12641)" stroke-width="1.16752" stroke-linecap="round"/>
<path d="M1423.8 272.118V259.193H1410.32" stroke="url(#paint4_linear_1_12641)" stroke-width="1.16752" stroke-linecap="round"/>
<path d="M1475.19 143.988V157.195H1461.99" stroke="url(#paint5_linear_1_12641)" stroke-width="1.16752" stroke-linecap="round"/>
<path d="M1474.91 143.988V156.913H1488.39" stroke="url(#paint6_linear_1_12641)" stroke-width="1.16752" stroke-linecap="round"/>
<path d="M1474.91 169.839V156.913H1488.39" stroke="url(#paint7_linear_1_12641)" stroke-width="1.16752" stroke-linecap="round"/>
<path d="M1474.91 169.839V156.913H1461.43" stroke="url(#paint8_linear_1_12641)" stroke-width="1.16752" stroke-linecap="round"/>
<path d="M1730.74 195.128V208.334H1717.54" stroke="url(#paint9_linear_1_12641)" stroke-width="1.16752" stroke-linecap="round"/>
<path d="M1730.46 195.128V208.053H1743.94" stroke="url(#paint10_linear_1_12641)" stroke-width="1.16752" stroke-linecap="round"/>
<path d="M1730.46 220.979V208.053H1743.94" stroke="url(#paint11_linear_1_12641)" stroke-width="1.16752" stroke-linecap="round"/>
<path d="M1730.46 220.979V208.053H1716.98" stroke="url(#paint12_linear_1_12641)" stroke-width="1.16752" stroke-linecap="round"/>
<path d="M1781.85 297.408V310.613H1768.65" stroke="url(#paint13_linear_1_12641)" stroke-width="1.16752" stroke-linecap="round"/>
<path d="M1781.57 297.408V310.332H1795.05" stroke="url(#paint14_linear_1_12641)" stroke-width="1.16752" stroke-linecap="round"/>
<path d="M1781.57 323.258V310.332H1795.05" stroke="url(#paint15_linear_1_12641)" stroke-width="1.16752" stroke-linecap="round"/>
<path d="M1781.57 323.258V310.332H1768.09" stroke="url(#paint16_linear_1_12641)" stroke-width="1.16752" stroke-linecap="round"/>
</g>
</g>
<g clip-path="url(#clip4_1_12641)">
<mask id="mask1_1_12641" style="mask-type:alpha" maskUnits="userSpaceOnUse" x="807" y="24" width="518" height="471">
<path d="M1324.89 24.2875H807.602V494.273H1324.89V24.2875Z" fill="url(#paint17_radial_1_12641)"/>
</mask>
<g mask="url(#mask1_1_12641)">
<path d="M963.937 361.574H912.835V412.705H963.937V361.574Z" stroke="white" stroke-opacity="0.13" stroke-width="1.16752"/>
<path d="M1015.04 361.574H963.939V412.705H1015.04V361.574Z" stroke="white" stroke-opacity="0.13" stroke-width="1.16752"/>
<path d="M1066.14 361.574H1015.04V412.705H1066.14V361.574Z" stroke="white" stroke-opacity="0.13" stroke-width="1.16752"/>
<path d="M1117.25 361.574H1066.15V412.705H1117.25V361.574Z" stroke="white" stroke-opacity="0.13" stroke-width="1.16752"/>
<path d="M1168.35 361.574H1117.25V412.705H1168.35V361.574Z" stroke="white" stroke-opacity="0.13" stroke-width="1.16752"/>
<path d="M1219.45 361.574H1168.35V412.705H1219.45V361.574Z" stroke="white" stroke-opacity="0.13" stroke-width="1.16752"/>
<path d="M1270.55 361.574H1219.45V412.705H1270.55V361.574Z" stroke="white" stroke-opacity="0.13" stroke-width="1.16752"/>
<path d="M1321.66 361.574H1270.56V412.705H1321.66V361.574Z" stroke="white" stroke-opacity="0.13" stroke-width="1.16752"/>
<path d="M1372.76 361.574H1321.66V412.705H1372.76V361.574Z" stroke="white" stroke-opacity="0.13" stroke-width="1.16752"/>
<path d="M963.937 412.69H912.835V463.821H963.937V412.69Z" stroke="white" stroke-opacity="0.13" stroke-width="1.16752"/>
<path d="M963.937 3.75459H912.835V54.8849H963.937V3.75459Z" stroke="white" stroke-opacity="0.13" stroke-width="1.16752"/>
<path d="M1015.04 412.69H963.939V463.821H1015.04V412.69Z" stroke="white" stroke-opacity="0.13" stroke-width="1.16752"/>
<path d="M1015.04 3.75459H963.939V54.8849H1015.04V3.75459Z" stroke="white" stroke-opacity="0.13" stroke-width="1.16752"/>
<path d="M1066.14 412.69H1015.04V463.821H1066.14V412.69Z" stroke="white" stroke-opacity="0.13" stroke-width="1.16752"/>
<path d="M1066.14 3.75459H1015.04V54.8849H1066.14V3.75459Z" stroke="white" stroke-opacity="0.13" stroke-width="1.16752"/>
<path d="M1117.25 412.69H1066.15V463.821H1117.25V412.69Z" stroke="white" stroke-opacity="0.13" stroke-width="1.16752"/>
<path d="M1117.25 3.75459H1066.15V54.8849H1117.25V3.75459Z" stroke="white" stroke-opacity="0.13" stroke-width="1.16752"/>
<path d="M1168.35 412.69H1117.25V463.821H1168.35V412.69Z" stroke="white" stroke-opacity="0.13" stroke-width="1.16752"/>
<path d="M1168.35 3.75459H1117.25V54.8849H1168.35V3.75459Z" stroke="white" stroke-opacity="0.13" stroke-width="1.16752"/>
<path d="M1219.45 412.69H1168.35V463.821H1219.45V412.69Z" stroke="white" stroke-opacity="0.13" stroke-width="1.16752"/>
<path d="M1219.45 3.75459H1168.35V54.8849H1219.45V3.75459Z" stroke="white" stroke-opacity="0.13" stroke-width="1.16752"/>
<path d="M1270.55 412.692H1219.45V463.822H1270.55V412.692Z" stroke="white" stroke-opacity="0.13" stroke-width="1.16752"/>
<path d="M1270.55 3.75459H1219.45V54.8849H1270.55V3.75459Z" stroke="white" stroke-opacity="0.13" stroke-width="1.16752"/>
<path d="M1321.66 412.69H1270.56V463.821H1321.66V412.69Z" stroke="white" stroke-opacity="0.13" stroke-width="1.16752"/>
<path d="M1321.66 3.75459H1270.56V54.8849H1321.66V3.75459Z" stroke="white" stroke-opacity="0.13" stroke-width="1.16752"/>
<path d="M1372.76 412.69H1321.66V463.821H1372.76V412.69Z" stroke="white" stroke-opacity="0.13" stroke-width="1.16752"/>
<path d="M1372.76 3.75459H1321.66V54.8849H1372.76V3.75459Z" stroke="white" stroke-opacity="0.13" stroke-width="1.16752"/>
<path d="M963.937 463.809H912.835V514.939H963.937V463.809Z" stroke="white" stroke-opacity="0.13" stroke-width="1.16752"/>
<path d="M963.937 54.8721H912.835V106.002H963.937V54.8721Z" stroke="white" stroke-opacity="0.13" stroke-width="1.16752"/>
<path d="M1015.04 463.809H963.939V514.939H1015.04V463.809Z" stroke="white" stroke-opacity="0.13" stroke-width="1.16752"/>
<path d="M1015.04 54.8721H963.939V106.002H1015.04V54.8721Z" stroke="white" stroke-opacity="0.13" stroke-width="1.16752"/>
<path d="M1066.14 463.809H1015.04V514.939H1066.14V463.809Z" stroke="white" stroke-opacity="0.13" stroke-width="1.16752"/>
<path d="M1066.14 54.8721H1015.04V106.002H1066.14V54.8721Z" stroke="white" stroke-opacity="0.13" stroke-width="1.16752"/>
<path d="M1117.25 463.809H1066.15V514.939H1117.25V463.809Z" stroke="white" stroke-opacity="0.13" stroke-width="1.16752"/>
<path d="M1117.25 54.8721H1066.15V106.002H1117.25V54.8721Z" stroke="white" stroke-opacity="0.13" stroke-width="1.16752"/>
<path d="M1168.35 463.809H1117.25V514.939H1168.35V463.809Z" stroke="white" stroke-opacity="0.13" stroke-width="1.16752"/>
<path d="M1168.35 54.8725H1117.25V106.003H1168.35V54.8725Z" stroke="white" stroke-opacity="0.13" stroke-width="1.16752"/>
<path d="M1219.45 463.809H1168.35V514.939H1219.45V463.809Z" stroke="white" stroke-opacity="0.13" stroke-width="1.16752"/>
<path d="M1219.45 54.8725H1168.35V106.003H1219.45V54.8725Z" stroke="white" stroke-opacity="0.13" stroke-width="1.16752"/>
<path d="M1270.55 463.809H1219.45V514.939H1270.55V463.809Z" stroke="white" stroke-opacity="0.13" stroke-width="1.16752"/>
<path d="M1270.55 54.8725H1219.45V106.003H1270.55V54.8725Z" stroke="white" stroke-opacity="0.13" stroke-width="1.16752"/>
<path d="M1321.66 463.809H1270.56V514.939H1321.66V463.809Z" stroke="white" stroke-opacity="0.13" stroke-width="1.16752"/>
<path d="M1321.66 54.8725H1270.56V106.003H1321.66V54.8725Z" stroke="white" stroke-opacity="0.13" stroke-width="1.16752"/>
<path d="M1372.76 463.809H1321.66V514.939H1372.76V463.809Z" stroke="white" stroke-opacity="0.13" stroke-width="1.16752"/>
<path d="M1372.76 54.8725H1321.66V106.003H1372.76V54.8725Z" stroke="white" stroke-opacity="0.13" stroke-width="1.16752"/>
<path d="M963.937 105.989H912.835V157.119H963.937V105.989Z" stroke="white" stroke-opacity="0.13" stroke-width="1.16752"/>
<path d="M1015.04 105.989H963.939V157.119H1015.04V105.989Z" stroke="white" stroke-opacity="0.13" stroke-width="1.16752"/>
<path d="M1066.14 105.989H1015.04V157.119H1066.14V105.989Z" stroke="white" stroke-opacity="0.13" stroke-width="1.16752"/>
<path d="M1117.25 105.989H1066.15V157.119H1117.25V105.989Z" stroke="white" stroke-opacity="0.13" stroke-width="1.16752"/>
<path d="M1168.35 105.989H1117.25V157.119H1168.35V105.989Z" stroke="white" stroke-opacity="0.13" stroke-width="1.16752"/>
<path d="M1219.45 105.989H1168.35V157.119H1219.45V105.989Z" stroke="white" stroke-opacity="0.13" stroke-width="1.16752"/>
<path d="M1270.55 105.989H1219.45V157.119H1270.55V105.989Z" stroke="white" stroke-opacity="0.13" stroke-width="1.16752"/>
<path d="M1321.66 105.989H1270.56V157.119H1321.66V105.989Z" stroke="white" stroke-opacity="0.13" stroke-width="1.16752"/>
<path d="M1372.76 105.989H1321.66V157.119H1372.76V105.989Z" stroke="white" stroke-opacity="0.13" stroke-width="1.16752"/>
<path d="M963.937 157.106H912.835V208.236H963.937V157.106Z" stroke="white" stroke-opacity="0.13" stroke-width="1.16752"/>
<path d="M1015.04 157.106H963.939V208.236H1015.04V157.106Z" stroke="white" stroke-opacity="0.13" stroke-width="1.16752"/>
<path d="M1066.14 157.106H1015.04V208.236H1066.14V157.106Z" stroke="white" stroke-opacity="0.13" stroke-width="1.16752"/>
<path d="M1117.25 157.106H1066.15V208.236H1117.25V157.106Z" stroke="white" stroke-opacity="0.13" stroke-width="1.16752"/>
<path d="M1168.35 157.106H1117.25V208.236H1168.35V157.106Z" stroke="white" stroke-opacity="0.13" stroke-width="1.16752"/>
<path d="M1219.45 157.106H1168.35V208.236H1219.45V157.106Z" stroke="white" stroke-opacity="0.13" stroke-width="1.16752"/>
<path d="M1270.55 157.106H1219.45V208.236H1270.55V157.106Z" stroke="white" stroke-opacity="0.13" stroke-width="1.16752"/>
<path d="M1321.66 157.106H1270.56V208.236H1321.66V157.106Z" stroke="white" stroke-opacity="0.13" stroke-width="1.16752"/>
<path d="M1372.76 157.106H1321.66V208.236H1372.76V157.106Z" stroke="white" stroke-opacity="0.13" stroke-width="1.16752"/>
<path d="M963.937 208.223H912.835V259.353H963.937V208.223Z" stroke="white" stroke-opacity="0.13" stroke-width="1.16752"/>
<path d="M1015.04 208.223H963.939V259.353H1015.04V208.223Z" stroke="white" stroke-opacity="0.13" stroke-width="1.16752"/>
<path d="M1066.14 208.223H1015.04V259.353H1066.14V208.223Z" stroke="white" stroke-opacity="0.13" stroke-width="1.16752"/>
<path d="M1117.25 208.223H1066.15V259.353H1117.25V208.223Z" stroke="white" stroke-opacity="0.13" stroke-width="1.16752"/>
<path d="M1168.35 208.223H1117.25V259.353H1168.35V208.223Z" stroke="white" stroke-opacity="0.13" stroke-width="1.16752"/>
<path d="M1219.45 208.223H1168.35V259.353H1219.45V208.223Z" stroke="white" stroke-opacity="0.13" stroke-width="1.16752"/>
<path d="M1270.55 208.223H1219.45V259.353H1270.55V208.223Z" stroke="white" stroke-opacity="0.13" stroke-width="1.16752"/>
<path d="M1321.66 208.223H1270.56V259.353H1321.66V208.223Z" stroke="white" stroke-opacity="0.13" stroke-width="1.16752"/>
<path d="M1372.76 208.223H1321.66V259.353H1372.76V208.223Z" stroke="white" stroke-opacity="0.13" stroke-width="1.16752"/>
<path d="M963.937 259.34H912.835V310.47H963.937V259.34Z" stroke="white" stroke-opacity="0.13" stroke-width="1.16752"/>
<path d="M1015.04 259.34H963.939V310.47H1015.04V259.34Z" stroke="white" stroke-opacity="0.13" stroke-width="1.16752"/>
<path d="M1066.14 259.34H1015.04V310.47H1066.14V259.34Z" stroke="white" stroke-opacity="0.13" stroke-width="1.16752"/>
<path d="M1117.25 259.34H1066.15V310.47H1117.25V259.34Z" stroke="white" stroke-opacity="0.13" stroke-width="1.16752"/>
<path d="M1168.35 259.341H1117.25V310.472H1168.35V259.341Z" stroke="white" stroke-opacity="0.13" stroke-width="1.16752"/>
<path d="M1219.45 259.341H1168.35V310.472H1219.45V259.341Z" stroke="white" stroke-opacity="0.13" stroke-width="1.16752"/>
<path d="M1270.55 259.341H1219.45V310.472H1270.55V259.341Z" stroke="white" stroke-opacity="0.13" stroke-width="1.16752"/>
<path d="M1321.66 259.341H1270.56V310.472H1321.66V259.341Z" stroke="white" stroke-opacity="0.13" stroke-width="1.16752"/>
<path d="M1372.76 259.341H1321.66V310.472H1372.76V259.341Z" stroke="white" stroke-opacity="0.13" stroke-width="1.16752"/>
<path d="M963.937 310.457H912.835V361.588H963.937V310.457Z" stroke="white" stroke-opacity="0.13" stroke-width="1.16752"/>
<path d="M1015.04 310.457H963.939V361.588H1015.04V310.457Z" stroke="white" stroke-opacity="0.13" stroke-width="1.16752"/>
<path d="M1066.14 310.457H1015.04V361.588H1066.14V310.457Z" stroke="white" stroke-opacity="0.13" stroke-width="1.16752"/>
<path d="M1117.25 310.457H1066.15V361.588H1117.25V310.457Z" stroke="white" stroke-opacity="0.13" stroke-width="1.16752"/>
<path d="M1168.35 310.457H1117.25V361.588H1168.35V310.457Z" stroke="white" stroke-opacity="0.13" stroke-width="1.16752"/>
<path d="M1219.45 310.457H1168.35V361.588H1219.45V310.457Z" stroke="white" stroke-opacity="0.13" stroke-width="1.16752"/>
<path d="M1270.55 310.457H1219.45V361.588H1270.55V310.457Z" stroke="white" stroke-opacity="0.13" stroke-width="1.16752"/>
<path d="M1321.66 310.457H1270.56V361.588H1321.66V310.457Z" stroke="white" stroke-opacity="0.13" stroke-width="1.16752"/>
<path d="M1372.76 310.457H1321.66V361.588H1372.76V310.457Z" stroke="white" stroke-opacity="0.13" stroke-width="1.16752"/>
<path d="M964.023 143.988V157.195H950.823" stroke="url(#paint18_linear_1_12641)" stroke-width="1.16752" stroke-linecap="round"/>
<path d="M963.742 143.988V156.913H977.221" stroke="url(#paint19_linear_1_12641)" stroke-width="1.16752" stroke-linecap="round"/>
<path d="M963.742 169.839V156.913H977.221" stroke="url(#paint20_linear_1_12641)" stroke-width="1.16752" stroke-linecap="round"/>
<path d="M963.742 169.839V156.913H950.262" stroke="url(#paint21_linear_1_12641)" stroke-width="1.16752" stroke-linecap="round"/>
<path d="M1219.58 195.128V208.334H1206.38" stroke="url(#paint22_linear_1_12641)" stroke-width="1.16752" stroke-linecap="round"/>
<path d="M1219.29 195.128V208.053H1232.77" stroke="url(#paint23_linear_1_12641)" stroke-width="1.16752" stroke-linecap="round"/>
<path d="M1219.29 220.979V208.053H1232.77" stroke="url(#paint24_linear_1_12641)" stroke-width="1.16752" stroke-linecap="round"/>
<path d="M1219.29 220.979V208.053H1205.82" stroke="url(#paint25_linear_1_12641)" stroke-width="1.16752" stroke-linecap="round"/>
<path d="M1270.68 297.408V310.613H1257.48" stroke="url(#paint26_linear_1_12641)" stroke-width="1.16752" stroke-linecap="round"/>
<path d="M1270.41 297.408V310.332H1283.88" stroke="url(#paint27_linear_1_12641)" stroke-width="1.16752" stroke-linecap="round"/>
<path d="M1270.41 323.258V310.332H1283.88" stroke="url(#paint28_linear_1_12641)" stroke-width="1.16752" stroke-linecap="round"/>
<path d="M1270.4 323.258V310.332H1256.92" stroke="url(#paint29_linear_1_12641)" stroke-width="1.16752" stroke-linecap="round"/>
</g>
</g>
</g>
</g>
</g>
<rect x="0.5" y="0.5" width="1871" height="798" rx="9.5" stroke="#E4E7EC"/>
<defs>
<filter id="filter0_f_1_12641" x="-177.8" y="-1399.8" width="2227.6" height="2180.6" filterUnits="userSpaceOnUse" color-interpolation-filters="sRGB">
<feFlood flood-opacity="0" result="BackgroundImageFix"/>
<feBlend mode="normal" in="SourceGraphic" in2="BackgroundImageFix" result="shape"/>
<feGaussianBlur stdDeviation="221.9" result="effect1_foregroundBlur_1_12641"/>
</filter>
<radialGradient id="paint0_radial_1_12641" cx="0" cy="0" r="1" gradientUnits="userSpaceOnUse" gradientTransform="translate(1577.41 259.28) rotate(90) scale(624.852 687.735)">
<stop stop-color="white" stop-opacity="0.46"/>
<stop offset="0.54" stop-color="white" stop-opacity="0"/>
</radialGradient>
<linearGradient id="paint1_linear_1_12641" x1="1424.25" y1="246.268" x2="1410.7" y2="259.29" gradientUnits="userSpaceOnUse">
<stop offset="0.0394381" stop-color="#EBEBEB"/>
<stop offset="0.55"/>
<stop offset="1" stop-color="#EBEBEB"/>
</linearGradient>
<linearGradient id="paint2_linear_1_12641" x1="1423.63" y1="246.268" x2="1436.9" y2="259.576" gradientUnits="userSpaceOnUse">
<stop offset="0.0394381" stop-color="#EBEBEB"/>
<stop offset="0.55"/>
<stop offset="1" stop-color="#EBEBEB"/>
</linearGradient>
<linearGradient id="paint3_linear_1_12641" x1="1423.63" y1="272.118" x2="1436.9" y2="258.809" gradientUnits="userSpaceOnUse">
<stop offset="0.0394381" stop-color="#EBEBEB"/>
<stop offset="0.55"/>
<stop offset="1" stop-color="#EBEBEB"/>
</linearGradient>
<linearGradient id="paint4_linear_1_12641" x1="1423.98" y1="272.118" x2="1410.71" y2="258.809" gradientUnits="userSpaceOnUse">
<stop offset="0.0394381" stop-color="#EBEBEB"/>
<stop offset="0.55"/>
<stop offset="1" stop-color="#EBEBEB"/>
</linearGradient>
<linearGradient id="paint5_linear_1_12641" x1="1475.36" y1="143.988" x2="1461.82" y2="157.009" gradientUnits="userSpaceOnUse">
<stop offset="0.0394381" stop-color="#EBEBEB"/>
<stop offset="0.55"/>
<stop offset="1" stop-color="#EBEBEB"/>
</linearGradient>
<linearGradient id="paint6_linear_1_12641" x1="1474.74" y1="143.988" x2="1488.01" y2="157.297" gradientUnits="userSpaceOnUse">
<stop offset="0.0394381" stop-color="#EBEBEB"/>
<stop offset="0.55"/>
<stop offset="1" stop-color="#EBEBEB"/>
</linearGradient>
<linearGradient id="paint7_linear_1_12641" x1="1474.74" y1="169.839" x2="1488.01" y2="156.53" gradientUnits="userSpaceOnUse">
<stop offset="0.0394381" stop-color="#EBEBEB"/>
<stop offset="0.55"/>
<stop offset="1" stop-color="#EBEBEB"/>
</linearGradient>
<linearGradient id="paint8_linear_1_12641" x1="1475.09" y1="169.839" x2="1461.82" y2="156.53" gradientUnits="userSpaceOnUse">
<stop offset="0.0394381" stop-color="#EBEBEB"/>
<stop offset="0.55"/>
<stop offset="1" stop-color="#EBEBEB"/>
</linearGradient>
<linearGradient id="paint9_linear_1_12641" x1="1730.92" y1="195.128" x2="1717.37" y2="208.149" gradientUnits="userSpaceOnUse">
<stop offset="0.0394381" stop-color="#EBEBEB"/>
<stop offset="0.55"/>
<stop offset="1" stop-color="#EBEBEB"/>
</linearGradient>
<linearGradient id="paint10_linear_1_12641" x1="1730.29" y1="195.128" x2="1743.56" y2="208.437" gradientUnits="userSpaceOnUse">
<stop offset="0.0394381" stop-color="#EBEBEB"/>
<stop offset="0.55"/>
<stop offset="1" stop-color="#EBEBEB"/>
</linearGradient>
<linearGradient id="paint11_linear_1_12641" x1="1730.29" y1="220.979" x2="1743.56" y2="207.669" gradientUnits="userSpaceOnUse">
<stop offset="0.0394381" stop-color="#EBEBEB"/>
<stop offset="0.55"/>
<stop offset="1" stop-color="#EBEBEB"/>
</linearGradient>
<linearGradient id="paint12_linear_1_12641" x1="1730.64" y1="220.979" x2="1717.37" y2="207.669" gradientUnits="userSpaceOnUse">
<stop offset="0.0394381" stop-color="#EBEBEB"/>
<stop offset="0.55"/>
<stop offset="1" stop-color="#EBEBEB"/>
</linearGradient>
<linearGradient id="paint13_linear_1_12641" x1="1782.02" y1="297.408" x2="1768.48" y2="310.428" gradientUnits="userSpaceOnUse">
<stop offset="0.0394381" stop-color="#EBEBEB"/>
<stop offset="0.55"/>
<stop offset="1" stop-color="#EBEBEB"/>
</linearGradient>
<linearGradient id="paint14_linear_1_12641" x1="1781.4" y1="297.408" x2="1794.67" y2="310.716" gradientUnits="userSpaceOnUse">
<stop offset="0.0394381" stop-color="#EBEBEB"/>
<stop offset="0.55"/>
<stop offset="1" stop-color="#EBEBEB"/>
</linearGradient>
<linearGradient id="paint15_linear_1_12641" x1="1781.4" y1="323.258" x2="1794.67" y2="309.949" gradientUnits="userSpaceOnUse">
<stop offset="0.0394381" stop-color="#EBEBEB"/>
<stop offset="0.55"/>
<stop offset="1" stop-color="#EBEBEB"/>
</linearGradient>
<linearGradient id="paint16_linear_1_12641" x1="1781.75" y1="323.258" x2="1768.48" y2="309.949" gradientUnits="userSpaceOnUse">
<stop offset="0.0394381" stop-color="#EBEBEB"/>
<stop offset="0.55"/>
<stop offset="1" stop-color="#EBEBEB"/>
</linearGradient>
<radialGradient id="paint17_radial_1_12641" cx="0" cy="0" r="1" gradientUnits="userSpaceOnUse" gradientTransform="translate(1066.24 259.28) rotate(90) scale(624.852 687.735)">
<stop stop-color="white" stop-opacity="0.46"/>
<stop offset="0.54" stop-color="white" stop-opacity="0"/>
</radialGradient>
<linearGradient id="paint18_linear_1_12641" x1="964.194" y1="143.988" x2="950.646" y2="157.009" gradientUnits="userSpaceOnUse">
<stop offset="0.0394381" stop-color="#EBEBEB"/>
<stop offset="0.55"/>
<stop offset="1" stop-color="#EBEBEB"/>
</linearGradient>
<linearGradient id="paint19_linear_1_12641" x1="963.567" y1="143.988" x2="976.836" y2="157.297" gradientUnits="userSpaceOnUse">
<stop offset="0.0394381" stop-color="#EBEBEB"/>
<stop offset="0.55"/>
<stop offset="1" stop-color="#EBEBEB"/>
</linearGradient>
<linearGradient id="paint20_linear_1_12641" x1="963.567" y1="169.839" x2="976.836" y2="156.53" gradientUnits="userSpaceOnUse">
<stop offset="0.0394381" stop-color="#EBEBEB"/>
<stop offset="0.55"/>
<stop offset="1" stop-color="#EBEBEB"/>
</linearGradient>
<linearGradient id="paint21_linear_1_12641" x1="963.918" y1="169.839" x2="950.647" y2="156.53" gradientUnits="userSpaceOnUse">
<stop offset="0.0394381" stop-color="#EBEBEB"/>
<stop offset="0.55"/>
<stop offset="1" stop-color="#EBEBEB"/>
</linearGradient>
<linearGradient id="paint22_linear_1_12641" x1="1219.75" y1="195.128" x2="1206.2" y2="208.149" gradientUnits="userSpaceOnUse">
<stop offset="0.0394381" stop-color="#EBEBEB"/>
<stop offset="0.55"/>
<stop offset="1" stop-color="#EBEBEB"/>
</linearGradient>
<linearGradient id="paint23_linear_1_12641" x1="1219.12" y1="195.128" x2="1232.39" y2="208.437" gradientUnits="userSpaceOnUse">
<stop offset="0.0394381" stop-color="#EBEBEB"/>
<stop offset="0.55"/>
<stop offset="1" stop-color="#EBEBEB"/>
</linearGradient>
<linearGradient id="paint24_linear_1_12641" x1="1219.12" y1="220.979" x2="1232.39" y2="207.669" gradientUnits="userSpaceOnUse">
<stop offset="0.0394381" stop-color="#EBEBEB"/>
<stop offset="0.55"/>
<stop offset="1" stop-color="#EBEBEB"/>
</linearGradient>
<linearGradient id="paint25_linear_1_12641" x1="1219.47" y1="220.979" x2="1206.2" y2="207.669" gradientUnits="userSpaceOnUse">
<stop offset="0.0394381" stop-color="#EBEBEB"/>
<stop offset="0.55"/>
<stop offset="1" stop-color="#EBEBEB"/>
</linearGradient>
<linearGradient id="paint26_linear_1_12641" x1="1270.86" y1="297.408" x2="1257.31" y2="310.428" gradientUnits="userSpaceOnUse">
<stop offset="0.0394381" stop-color="#EBEBEB"/>
<stop offset="0.55"/>
<stop offset="1" stop-color="#EBEBEB"/>
</linearGradient>
<linearGradient id="paint27_linear_1_12641" x1="1270.23" y1="297.408" x2="1283.5" y2="310.716" gradientUnits="userSpaceOnUse">
<stop offset="0.0394381" stop-color="#EBEBEB"/>
<stop offset="0.55"/>
<stop offset="1" stop-color="#EBEBEB"/>
</linearGradient>
<linearGradient id="paint28_linear_1_12641" x1="1270.23" y1="323.258" x2="1283.5" y2="309.949" gradientUnits="userSpaceOnUse">
<stop offset="0.0394381" stop-color="#EBEBEB"/>
<stop offset="0.55"/>
<stop offset="1" stop-color="#EBEBEB"/>
</linearGradient>
<linearGradient id="paint29_linear_1_12641" x1="1270.58" y1="323.258" x2="1257.31" y2="309.949" gradientUnits="userSpaceOnUse">
<stop offset="0.0394381" stop-color="#EBEBEB"/>
<stop offset="0.55"/>
<stop offset="1" stop-color="#EBEBEB"/>
</linearGradient>
<clipPath id="clip0_1_12641">
<rect width="1872" height="799" rx="10" fill="white"/>
</clipPath>
<clipPath id="clip1_1_12641">
<rect width="936" height="716" fill="white" transform="translate(936)"/>
</clipPath>
<clipPath id="clip2_1_12641">
<rect width="964.197" height="873.349" fill="white" transform="translate(936 -178)"/>
</clipPath>
<clipPath id="clip3_1_12641">
<rect width="518.437" height="469.985" fill="white" transform="translate(1318.77 24.2875)"/>
</clipPath>
<clipPath id="clip4_1_12641">
<rect width="518.437" height="469.985" fill="white" transform="translate(807.602 24.2875)"/>
</clipPath>
</defs>
</svg>
