<svg width="1872" height="451" viewBox="0 0 1872 451" fill="none" xmlns="http://www.w3.org/2000/svg">
<g clip-path="url(#clip0_1_16540)">
<rect width="1872" height="451" rx="8" fill="#F4F6F8"/>
<g filter="url(#filter0_g_1_16540)">
<path d="M937.57 354.763H848V410.333H937.57V354.763Z" stroke="#919EAB" stroke-opacity="0.2" stroke-width="0.963855"/>
<path d="M1027.14 354.763H937.574V410.333H1027.14V354.763Z" stroke="#919EAB" stroke-opacity="0.2" stroke-width="0.963855"/>
<path d="M1116.71 354.763H1027.14V410.333H1116.71V354.763Z" stroke="#919EAB" stroke-opacity="0.2" stroke-width="0.963855"/>
<path d="M1206.28 354.763H1116.71V410.333H1206.28V354.763Z" stroke="#919EAB" stroke-opacity="0.2" stroke-width="0.963855"/>
<path d="M1295.86 354.763H1206.29V410.333H1295.86V354.763Z" stroke="#919EAB" stroke-opacity="0.2" stroke-width="0.963855"/>
<path d="M1385.43 354.763H1295.86V410.333H1385.43V354.763Z" stroke="#919EAB" stroke-opacity="0.2" stroke-width="0.963855"/>
<path d="M1475.01 354.763H1385.44V410.333H1475.01V354.763Z" stroke="#919EAB" stroke-opacity="0.2" stroke-width="0.963855"/>
<path d="M1564.58 354.763H1475.01V410.333H1564.58V354.763Z" stroke="#919EAB" stroke-opacity="0.2" stroke-width="0.963855"/>
<path d="M1654.15 354.763H1564.58V410.333H1654.15V354.763Z" stroke="#919EAB" stroke-opacity="0.2" stroke-width="0.963855"/>
<path d="M1743.72 354.763H1654.15V410.333H1743.72V354.763Z" stroke="#919EAB" stroke-opacity="0.2" stroke-width="0.963855"/>
<path d="M1833.3 354.763H1743.73V410.333H1833.3V354.763Z" stroke="#919EAB" stroke-opacity="0.2" stroke-width="0.963855"/>
<path d="M1922.86 354.763H1833.29V410.333H1922.86V354.763Z" stroke="#919EAB" stroke-opacity="0.2" stroke-width="0.963855"/>
<path d="M937.57 410.317H848V465.888H937.57V410.317Z" stroke="#919EAB" stroke-opacity="0.2" stroke-width="0.963855"/>
<path d="M937.57 -34.1309H848V21.4397H937.57V-34.1309Z" stroke="#919EAB" stroke-opacity="0.2" stroke-width="0.963855"/>
<path d="M1027.14 410.317H937.574V465.888H1027.14V410.317Z" stroke="#919EAB" stroke-opacity="0.2" stroke-width="0.963855"/>
<path d="M1027.14 -34.1309H937.574V21.4397H1027.14V-34.1309Z" stroke="#919EAB" stroke-opacity="0.2" stroke-width="0.963855"/>
<path d="M1116.71 410.317H1027.14V465.888H1116.71V410.317Z" stroke="#919EAB" stroke-opacity="0.2" stroke-width="0.963855"/>
<path d="M1116.71 -34.1309H1027.14V21.4397H1116.71V-34.1309Z" stroke="#919EAB" stroke-opacity="0.2" stroke-width="0.963855"/>
<path d="M1206.28 410.317H1116.71V465.888H1206.28V410.317Z" stroke="#919EAB" stroke-opacity="0.2" stroke-width="0.963855"/>
<path d="M1206.28 -34.1309H1116.71V21.4397H1206.28V-34.1309Z" stroke="#919EAB" stroke-opacity="0.2" stroke-width="0.963855"/>
<path d="M1295.86 410.317H1206.29V465.888H1295.86V410.317Z" stroke="#919EAB" stroke-opacity="0.2" stroke-width="0.963855"/>
<path d="M1295.86 -34.1309H1206.29V21.4397H1295.86V-34.1309Z" stroke="#919EAB" stroke-opacity="0.2" stroke-width="0.963855"/>
<path d="M1385.43 410.317H1295.86V465.888H1385.43V410.317Z" stroke="#919EAB" stroke-opacity="0.2" stroke-width="0.963855"/>
<path d="M1385.43 -34.1309H1295.86V21.4397H1385.43V-34.1309Z" stroke="#919EAB" stroke-opacity="0.2" stroke-width="0.963855"/>
<path d="M1475.01 410.317H1385.44V465.888H1475.01V410.317Z" stroke="#919EAB" stroke-opacity="0.2" stroke-width="0.963855"/>
<path d="M1475.01 -34.1309H1385.44V21.4397H1475.01V-34.1309Z" stroke="#919EAB" stroke-opacity="0.2" stroke-width="0.963855"/>
<path d="M1564.58 410.317H1475.01V465.888H1564.58V410.317Z" stroke="#919EAB" stroke-opacity="0.2" stroke-width="0.963855"/>
<path d="M1564.58 -34.1309H1475.01V21.4397H1564.58V-34.1309Z" stroke="#919EAB" stroke-opacity="0.2" stroke-width="0.963855"/>
<path d="M1654.15 410.317H1564.58V465.888H1654.15V410.317Z" stroke="#919EAB" stroke-opacity="0.2" stroke-width="0.963855"/>
<path d="M1654.15 -34.1309H1564.58V21.4397H1654.15V-34.1309Z" stroke="#919EAB" stroke-opacity="0.2" stroke-width="0.963855"/>
<path d="M1743.72 410.319H1654.15V465.889H1743.72V410.319Z" stroke="#919EAB" stroke-opacity="0.2" stroke-width="0.963855"/>
<path d="M1743.72 -34.1309H1654.15V21.4397H1743.72V-34.1309Z" stroke="#919EAB" stroke-opacity="0.2" stroke-width="0.963855"/>
<path d="M1833.3 410.317H1743.73V465.888H1833.3V410.317Z" stroke="#919EAB" stroke-opacity="0.2" stroke-width="0.963855"/>
<path d="M1833.3 -34.1309H1743.73V21.4397H1833.3V-34.1309Z" stroke="#919EAB" stroke-opacity="0.2" stroke-width="0.963855"/>
<path d="M1922.86 410.317H1833.29V465.888H1922.86V410.317Z" stroke="#919EAB" stroke-opacity="0.2" stroke-width="0.963855"/>
<path d="M1922.86 -34.1309H1833.29V21.4397H1922.86V-34.1309Z" stroke="#919EAB" stroke-opacity="0.2" stroke-width="0.963855"/>
<path d="M937.57 21.4258H848V76.9963H937.57V21.4258Z" stroke="#919EAB" stroke-opacity="0.2" stroke-width="0.963855"/>
<path d="M1027.14 21.4258H937.574V76.9963H1027.14V21.4258Z" stroke="#919EAB" stroke-opacity="0.2" stroke-width="0.963855"/>
<path d="M1116.71 21.4258H1027.14V76.9963H1116.71V21.4258Z" stroke="#919EAB" stroke-opacity="0.2" stroke-width="0.963855"/>
<path d="M1206.28 21.4258H1116.71V76.9963H1206.28V21.4258Z" stroke="#919EAB" stroke-opacity="0.2" stroke-width="0.963855"/>
<path d="M1295.86 21.4258H1206.29V76.9963H1295.86V21.4258Z" stroke="#919EAB" stroke-opacity="0.2" stroke-width="0.963855"/>
<path d="M1385.43 21.4258H1295.86V76.9963H1385.43V21.4258Z" stroke="#919EAB" stroke-opacity="0.2" stroke-width="0.963855"/>
<path d="M1475.01 21.4258H1385.44V76.9963H1475.01V21.4258Z" stroke="#919EAB" stroke-opacity="0.2" stroke-width="0.963855"/>
<path d="M1564.58 21.4263H1475.01V76.9968H1564.58V21.4263Z" stroke="#919EAB" stroke-opacity="0.2" stroke-width="0.963855"/>
<path d="M1654.15 21.4263H1564.58V76.9968H1654.15V21.4263Z" stroke="#919EAB" stroke-opacity="0.2" stroke-width="0.963855"/>
<path d="M1743.72 21.4263H1654.15V76.9968H1743.72V21.4263Z" stroke="#919EAB" stroke-opacity="0.2" stroke-width="0.963855"/>
<path d="M1833.3 21.4263H1743.73V76.9968H1833.3V21.4263Z" stroke="#919EAB" stroke-opacity="0.2" stroke-width="0.963855"/>
<path d="M1922.86 21.4263H1833.29V76.9968H1922.86V21.4263Z" stroke="#919EAB" stroke-opacity="0.2" stroke-width="0.963855"/>
<path d="M937.57 76.9814H848V132.552H937.57V76.9814Z" stroke="#919EAB" stroke-opacity="0.2" stroke-width="0.963855"/>
<path d="M1027.14 76.9814H937.574V132.552H1027.14V76.9814Z" stroke="#919EAB" stroke-opacity="0.2" stroke-width="0.963855"/>
<path d="M1116.71 76.9814H1027.14V132.552H1116.71V76.9814Z" stroke="#919EAB" stroke-opacity="0.2" stroke-width="0.963855"/>
<path d="M1206.28 76.9814H1116.71V132.552H1206.28V76.9814Z" stroke="#919EAB" stroke-opacity="0.2" stroke-width="0.963855"/>
<path d="M1295.86 76.9814H1206.29V132.552H1295.86V76.9814Z" stroke="#919EAB" stroke-opacity="0.2" stroke-width="0.963855"/>
<path d="M1385.43 76.9814H1295.86V132.552H1385.43V76.9814Z" stroke="#919EAB" stroke-opacity="0.2" stroke-width="0.963855"/>
<path d="M1475.01 76.9814H1385.44V132.552H1475.01V76.9814Z" stroke="#919EAB" stroke-opacity="0.2" stroke-width="0.963855"/>
<path d="M1564.58 76.9814H1475.01V132.552H1564.58V76.9814Z" stroke="#919EAB" stroke-opacity="0.2" stroke-width="0.963855"/>
<path d="M1654.15 76.9814H1564.58V132.552H1654.15V76.9814Z" stroke="#919EAB" stroke-opacity="0.2" stroke-width="0.963855"/>
<path d="M1743.72 76.9814H1654.15V132.552H1743.72V76.9814Z" stroke="#919EAB" stroke-opacity="0.2" stroke-width="0.963855"/>
<path d="M1833.3 76.9814H1743.73V132.552H1833.3V76.9814Z" stroke="#919EAB" stroke-opacity="0.2" stroke-width="0.963855"/>
<path d="M1922.86 76.9814H1833.29V132.552H1922.86V76.9814Z" stroke="#919EAB" stroke-opacity="0.2" stroke-width="0.963855"/>
<path d="M937.57 132.538H848V188.108H937.57V132.538Z" stroke="#919EAB" stroke-opacity="0.2" stroke-width="0.963855"/>
<path d="M1027.14 132.538H937.574V188.108H1027.14V132.538Z" stroke="#919EAB" stroke-opacity="0.2" stroke-width="0.963855"/>
<path d="M1116.71 132.538H1027.14V188.108H1116.71V132.538Z" stroke="#919EAB" stroke-opacity="0.2" stroke-width="0.963855"/>
<path d="M1206.28 132.538H1116.71V188.108H1206.28V132.538Z" stroke="#919EAB" stroke-opacity="0.2" stroke-width="0.963855"/>
<path d="M1295.86 132.538H1206.29V188.108H1295.86V132.538Z" stroke="#919EAB" stroke-opacity="0.2" stroke-width="0.963855"/>
<path d="M1385.43 132.538H1295.86V188.108H1385.43V132.538Z" stroke="#919EAB" stroke-opacity="0.2" stroke-width="0.963855"/>
<path d="M1475.01 132.538H1385.44V188.108H1475.01V132.538Z" stroke="#919EAB" stroke-opacity="0.2" stroke-width="0.963855"/>
<path d="M1564.58 132.538H1475.01V188.108H1564.58V132.538Z" stroke="#919EAB" stroke-opacity="0.2" stroke-width="0.963855"/>
<path d="M1654.15 132.538H1564.58V188.108H1654.15V132.538Z" stroke="#919EAB" stroke-opacity="0.2" stroke-width="0.963855"/>
<path d="M1743.72 132.538H1654.15V188.108H1743.72V132.538Z" stroke="#919EAB" stroke-opacity="0.2" stroke-width="0.963855"/>
<path d="M1833.3 132.538H1743.73V188.108H1833.3V132.538Z" stroke="#919EAB" stroke-opacity="0.2" stroke-width="0.963855"/>
<path d="M1922.86 132.538H1833.29V188.108H1922.86V132.538Z" stroke="#919EAB" stroke-opacity="0.2" stroke-width="0.963855"/>
<path d="M937.57 188.094H848V243.664H937.57V188.094Z" stroke="#919EAB" stroke-opacity="0.2" stroke-width="0.963855"/>
<path d="M1027.14 188.094H937.574V243.664H1027.14V188.094Z" stroke="#919EAB" stroke-opacity="0.2" stroke-width="0.963855"/>
<path d="M1116.71 188.094H1027.14V243.664H1116.71V188.094Z" stroke="#919EAB" stroke-opacity="0.2" stroke-width="0.963855"/>
<path d="M1206.28 188.094H1116.71V243.664H1206.28V188.094Z" stroke="#919EAB" stroke-opacity="0.2" stroke-width="0.963855"/>
<path d="M1295.86 188.094H1206.29V243.664H1295.86V188.094Z" stroke="#919EAB" stroke-opacity="0.2" stroke-width="0.963855"/>
<path d="M1385.43 188.094H1295.86V243.664H1385.43V188.094Z" stroke="#919EAB" stroke-opacity="0.2" stroke-width="0.963855"/>
<path d="M1475.01 188.094H1385.44V243.664H1475.01V188.094Z" stroke="#919EAB" stroke-opacity="0.2" stroke-width="0.963855"/>
<path d="M1564.58 188.094H1475.01V243.664H1564.58V188.094Z" stroke="#919EAB" stroke-opacity="0.2" stroke-width="0.963855"/>
<path d="M1654.15 188.094H1564.58V243.664H1654.15V188.094Z" stroke="#919EAB" stroke-opacity="0.2" stroke-width="0.963855"/>
<path d="M1743.72 188.094H1654.15V243.664H1743.72V188.094Z" stroke="#919EAB" stroke-opacity="0.2" stroke-width="0.963855"/>
<path d="M1833.3 188.094H1743.73V243.664H1833.3V188.094Z" stroke="#919EAB" stroke-opacity="0.2" stroke-width="0.963855"/>
<path d="M1922.86 188.094H1833.29V243.664H1922.86V188.094Z" stroke="#919EAB" stroke-opacity="0.2" stroke-width="0.963855"/>
<path d="M937.57 243.65H848V299.221H937.57V243.65Z" stroke="#919EAB" stroke-opacity="0.2" stroke-width="0.963855"/>
<path d="M1027.14 243.65H937.574V299.221H1027.14V243.65Z" stroke="#919EAB" stroke-opacity="0.2" stroke-width="0.963855"/>
<path d="M1116.71 243.65H1027.14V299.221H1116.71V243.65Z" stroke="#919EAB" stroke-opacity="0.2" stroke-width="0.963855"/>
<path d="M1206.28 243.65H1116.71V299.221H1206.28V243.65Z" stroke="#919EAB" stroke-opacity="0.2" stroke-width="0.963855"/>
<path d="M1295.86 243.65H1206.29V299.221H1295.86V243.65Z" stroke="#919EAB" stroke-opacity="0.2" stroke-width="0.963855"/>
<path d="M1385.43 243.65H1295.86V299.221H1385.43V243.65Z" stroke="#919EAB" stroke-opacity="0.2" stroke-width="0.963855"/>
<path d="M1475.01 243.65H1385.44V299.221H1475.01V243.65Z" stroke="#919EAB" stroke-opacity="0.2" stroke-width="0.963855"/>
<path d="M1564.58 243.651H1475.01V299.222H1564.58V243.651Z" stroke="#919EAB" stroke-opacity="0.2" stroke-width="0.963855"/>
<path d="M1654.15 243.651H1564.58V299.222H1654.15V243.651Z" stroke="#919EAB" stroke-opacity="0.2" stroke-width="0.963855"/>
<path d="M1743.72 243.651H1654.15V299.222H1743.72V243.651Z" stroke="#919EAB" stroke-opacity="0.2" stroke-width="0.963855"/>
<path d="M1833.3 243.651H1743.73V299.222H1833.3V243.651Z" stroke="#919EAB" stroke-opacity="0.2" stroke-width="0.963855"/>
<path d="M1922.86 243.651H1833.29V299.222H1922.86V243.651Z" stroke="#919EAB" stroke-opacity="0.2" stroke-width="0.963855"/>
<path d="M937.57 299.207H848V354.777H937.57V299.207Z" stroke="#919EAB" stroke-opacity="0.2" stroke-width="0.963855"/>
<path d="M1027.14 299.206H937.574V354.777H1027.14V299.206Z" stroke="#919EAB" stroke-opacity="0.2" stroke-width="0.963855"/>
<path d="M1116.71 299.206H1027.14V354.777H1116.71V299.206Z" stroke="#919EAB" stroke-opacity="0.2" stroke-width="0.963855"/>
<path d="M1206.28 299.206H1116.71V354.777H1206.28V299.206Z" stroke="#919EAB" stroke-opacity="0.2" stroke-width="0.963855"/>
<path d="M1295.86 299.206H1206.29V354.777H1295.86V299.206Z" stroke="#919EAB" stroke-opacity="0.2" stroke-width="0.963855"/>
<path d="M1385.43 299.206H1295.86V354.777H1385.43V299.206Z" stroke="#919EAB" stroke-opacity="0.2" stroke-width="0.963855"/>
<path d="M1475.01 299.206H1385.44V354.777H1475.01V299.206Z" stroke="#919EAB" stroke-opacity="0.2" stroke-width="0.963855"/>
<path d="M1564.58 299.206H1475.01V354.777H1564.58V299.206Z" stroke="#919EAB" stroke-opacity="0.2" stroke-width="0.963855"/>
<path d="M1654.15 299.206H1564.58V354.777H1654.15V299.206Z" stroke="#919EAB" stroke-opacity="0.2" stroke-width="0.963855"/>
<path d="M1743.72 299.206H1654.15V354.777H1743.72V299.206Z" stroke="#919EAB" stroke-opacity="0.2" stroke-width="0.963855"/>
<path d="M1833.3 299.206H1743.73V354.777H1833.3V299.206Z" stroke="#919EAB" stroke-opacity="0.2" stroke-width="0.963855"/>
<path d="M1922.86 299.206H1833.29V354.777H1922.86V299.206Z" stroke="#919EAB" stroke-opacity="0.2" stroke-width="0.963855"/>
<path d="M1116.36 229.443V243.491H1139.98" stroke="url(#paint0_linear_1_16540)" stroke-width="0.963855" stroke-linecap="round"/>
<path d="M1206.43 118.28V132.634H1183.3" stroke="url(#paint1_linear_1_16540)" stroke-width="0.963855" stroke-linecap="round"/>
<path d="M1205.94 118.28V132.328H1229.57" stroke="url(#paint2_linear_1_16540)" stroke-width="0.963855" stroke-linecap="round"/>
<path d="M1205.94 146.377V132.329H1229.57" stroke="url(#paint3_linear_1_16540)" stroke-width="0.963855" stroke-linecap="round"/>
<path d="M1205.94 146.377V132.329H1182.32" stroke="url(#paint4_linear_1_16540)" stroke-width="0.963855" stroke-linecap="round"/>
</g>
<path d="M1190.85 67.8208H1180.66C1177.85 67.8208 1175.57 70.1008 1175.57 72.9134V83.0986C1175.57 85.9111 1177.85 88.1912 1180.66 88.1912H1190.85C1193.66 88.1912 1195.94 85.9111 1195.94 83.0986V72.9134C1195.94 70.1008 1193.66 67.8208 1190.85 67.8208Z" stroke="url(#paint5_linear_1_16540)" stroke-width="2.2449" stroke-linecap="round" stroke-linejoin="round"/>
<path d="M1191.36 72.4043H1191.37M1189.83 77.3645C1189.95 78.2121 1189.81 79.0779 1189.41 79.8385C1189.02 80.5991 1188.4 81.2159 1187.63 81.6012C1186.86 81.9865 1186 82.1206 1185.15 81.9844C1184.31 81.8483 1183.52 81.4488 1182.92 80.8429C1182.31 80.2369 1181.91 79.4554 1181.78 78.6093C1181.64 77.7633 1181.77 76.8959 1182.16 76.1304C1182.54 75.365 1183.16 74.7405 1183.92 74.3458C1184.68 73.9512 1185.55 73.8064 1186.4 73.9321C1187.26 74.0603 1188.06 74.4632 1188.68 75.0813C1189.3 75.6994 1189.7 76.4998 1189.83 77.3645Z" stroke="url(#paint6_linear_1_16540)" stroke-width="2.2449" stroke-linecap="round" stroke-linejoin="round"/>
<rect x="1133" y="30.8691" width="66" height="66" rx="5.38775" fill="white" fill-opacity="0.1"/>
<path d="M1172.42 52.4106H1160.19C1156.82 52.4106 1154.08 55.1467 1154.08 58.5218V70.744C1154.08 74.119 1156.82 76.8551 1160.19 76.8551H1172.42C1175.79 76.8551 1178.53 74.119 1178.53 70.744V58.5218C1178.53 55.1467 1175.79 52.4106 1172.42 52.4106Z" stroke="url(#paint7_linear_1_16540)" stroke-width="2.69388" stroke-linecap="round" stroke-linejoin="round"/>
<path d="M1173.03 57.9106H1173.04M1171.19 63.8629C1171.35 64.8801 1171.17 65.9189 1170.7 66.8317C1170.22 67.7444 1169.48 68.4846 1168.56 68.9469C1167.64 69.4092 1166.6 69.5702 1165.58 69.4068C1164.57 69.2434 1163.63 68.7641 1162.9 68.037C1162.17 67.3098 1161.7 66.3719 1161.53 65.3567C1161.37 64.3414 1161.53 63.3005 1161.99 62.382C1162.45 61.4635 1163.19 60.7141 1164.11 60.2405C1165.02 59.7669 1166.06 59.5931 1167.08 59.744C1168.11 59.8978 1169.07 60.3813 1169.82 61.123C1170.56 61.8647 1171.04 62.8253 1171.19 63.8629Z" stroke="url(#paint8_linear_1_16540)" stroke-width="2.69388" stroke-linecap="round" stroke-linejoin="round"/>
<rect x="1442" y="100.869" width="84" height="84" rx="10" fill="white" fill-opacity="0.1"/>
<mask id="mask0_1_16540" style="mask-type:luminance" maskUnits="userSpaceOnUse" x="1464" y="122" width="40" height="41">
<path d="M1464 122.869H1504V162.869H1464V122.869Z" fill="white"/>
</mask>
<g mask="url(#mask0_1_16540)">
<path d="M1495.5 124.744H1501.63L1488.23 140.098L1504 160.995H1491.66L1481.98 148.324L1470.93 160.995H1464.79L1479.12 144.567L1464 124.747H1476.66L1485.39 136.327L1495.5 124.744ZM1493.34 157.315H1496.74L1474.8 128.232H1471.15L1493.34 157.315Z" fill="#212B36"/>
</g>
<rect x="1459" y="120.869" width="84" height="84" rx="10" fill="white" fill-opacity="0.1"/>
<rect x="1459.62" y="121.494" width="82.75" height="82.75" rx="9.375" stroke="#919EAB" stroke-opacity="0.2" stroke-width="1.25"/>
<mask id="mask1_1_16540" style="mask-type:luminance" maskUnits="userSpaceOnUse" x="1481" y="142" width="40" height="41">
<path d="M1481 142.869H1521V182.869H1481V142.869Z" fill="white"/>
</mask>
<g mask="url(#mask1_1_16540)">
<path d="M1512.5 144.744H1518.63L1505.23 160.098L1521 180.995H1508.66L1498.98 168.324L1487.93 180.995H1481.79L1496.12 164.567L1481 144.747H1493.66L1502.39 156.327L1512.5 144.744ZM1510.34 177.315H1513.74L1491.8 148.232H1488.15L1510.34 177.315Z" fill="#212B36"/>
</g>
<rect x="525" y="251.869" width="38" height="38" rx="4.84314" fill="white" fill-opacity="0.1"/>
<path d="M550.99 262.999H537.316C537.163 262.997 537.01 263.025 536.867 263.082C536.724 263.139 536.594 263.223 536.484 263.33C536.374 263.438 536.286 263.566 536.225 263.707C536.164 263.848 536.132 264 536.13 264.153V277.989C536.132 278.142 536.164 278.294 536.225 278.435C536.286 278.577 536.374 278.704 536.484 278.812C536.594 278.919 536.724 279.003 536.867 279.06C537.01 279.117 537.163 279.145 537.316 279.143H550.99C551.144 279.145 551.297 279.117 551.439 279.06C551.582 279.003 551.712 278.919 551.823 278.812C551.933 278.704 552.021 278.577 552.082 278.435C552.142 278.294 552.175 278.142 552.177 277.989V264.153C552.175 264 552.142 263.848 552.082 263.707C552.021 263.566 551.933 263.438 551.823 263.33C551.712 263.223 551.582 263.139 551.439 263.082C551.297 263.025 551.144 262.997 550.99 262.999ZM540.997 276.511H538.576V269.247H540.997V276.511ZM539.786 268.23C539.452 268.23 539.132 268.097 538.896 267.861C538.66 267.625 538.527 267.304 538.527 266.971C538.527 266.637 538.66 266.316 538.896 266.08C539.132 265.844 539.452 265.711 539.786 265.711C539.964 265.691 540.143 265.709 540.313 265.763C540.484 265.817 540.64 265.906 540.773 266.025C540.906 266.144 541.013 266.29 541.086 266.453C541.159 266.616 541.197 266.792 541.197 266.971C541.197 267.149 541.159 267.325 541.086 267.488C541.013 267.651 540.906 267.797 540.773 267.916C540.64 268.035 540.484 268.124 540.313 268.178C540.143 268.232 539.964 268.25 539.786 268.23ZM549.731 276.511H547.309V272.613C547.309 271.636 546.962 270.998 546.083 270.998C545.81 271 545.545 271.086 545.323 271.243C545.101 271.4 544.932 271.622 544.839 271.878C544.776 272.068 544.749 272.268 544.759 272.467V276.503H542.337V269.239H544.759V270.264C544.979 269.882 545.299 269.568 545.684 269.354C546.07 269.141 546.506 269.037 546.946 269.053C548.561 269.053 549.731 270.094 549.731 272.33V276.511Z" fill="#0967BF"/>
<rect x="530" y="256.869" width="66" height="66" rx="8.41177" fill="white" fill-opacity="0.1"/>
<path d="M575.141 276.2H551.392C551.125 276.197 550.86 276.246 550.612 276.344C550.364 276.443 550.138 276.59 549.946 276.776C549.755 276.962 549.602 277.184 549.496 277.429C549.391 277.675 549.335 277.938 549.331 278.205V302.235C549.335 302.502 549.391 302.765 549.496 303.011C549.602 303.256 549.755 303.478 549.946 303.664C550.138 303.85 550.364 303.997 550.612 304.096C550.86 304.194 551.125 304.243 551.392 304.24H575.141C575.408 304.243 575.673 304.194 575.921 304.096C576.169 303.997 576.395 303.85 576.587 303.664C576.778 303.478 576.931 303.256 577.037 303.011C577.142 302.765 577.198 302.502 577.202 302.235V278.205C577.198 277.938 577.142 277.675 577.037 277.429C576.931 277.184 576.778 276.962 576.587 276.776C576.395 276.59 576.169 276.443 575.921 276.344C575.673 276.246 575.408 276.197 575.141 276.2ZM557.785 299.669H553.579V287.052H557.785V299.669ZM555.682 285.285C555.102 285.285 554.546 285.055 554.135 284.645C553.725 284.234 553.495 283.678 553.495 283.098C553.495 282.518 553.725 281.962 554.135 281.552C554.546 281.141 555.102 280.911 555.682 280.911C555.99 280.876 556.302 280.907 556.597 281.001C556.893 281.095 557.165 281.25 557.396 281.456C557.627 281.663 557.812 281.916 557.939 282.199C558.066 282.482 558.131 282.788 558.131 283.098C558.131 283.408 558.066 283.715 557.939 283.997C557.812 284.28 557.627 284.533 557.396 284.74C557.165 284.946 556.893 285.102 556.597 285.196C556.302 285.29 555.99 285.32 555.682 285.285ZM572.954 299.669H568.748V292.898C568.748 291.201 568.145 290.094 566.617 290.094C566.144 290.097 565.684 290.246 565.298 290.519C564.912 290.792 564.619 291.177 564.458 291.622C564.349 291.951 564.301 292.299 564.318 292.645V299.655H560.112V287.038H564.318V288.818C564.7 288.155 565.256 287.609 565.925 287.238C566.595 286.868 567.353 286.687 568.117 286.715C570.921 286.715 572.954 288.524 572.954 292.407V299.669Z" fill="#0967BF"/>
<rect x="326" y="118.869" width="39" height="39" rx="6.5" fill="white" fill-opacity="0.1"/>
<path d="M351.886 132.56C351.145 131.715 350.737 130.629 350.738 129.505H347.39V142.939C347.365 143.666 347.058 144.355 346.535 144.86C346.011 145.365 345.312 145.647 344.584 145.647C343.046 145.647 341.768 144.39 341.768 142.83C341.768 140.967 343.566 139.57 345.418 140.144V136.72C341.681 136.222 338.409 139.125 338.409 142.83C338.409 146.438 341.399 149.005 344.573 149.005C347.975 149.005 350.738 146.243 350.738 142.83V136.016C352.095 136.991 353.725 137.514 355.396 137.511V134.164C355.396 134.164 353.359 134.261 351.886 132.56Z" fill="#EA2B50"/>
<path d="M349.522 130.197C348.782 129.352 348.374 128.266 348.374 127.142H345.026V140.575C345.001 141.303 344.694 141.991 344.171 142.497C343.647 143.002 342.948 143.284 342.22 143.284C340.682 143.284 339.404 142.027 339.404 140.467C339.404 138.604 341.202 137.206 343.055 137.78V134.357C339.317 133.859 336.045 136.762 336.045 140.467C336.045 144.075 339.035 146.642 342.21 146.642C345.611 146.642 348.374 143.88 348.374 140.467V133.653C349.731 134.628 351.361 135.151 353.032 135.148V131.8C353.032 131.8 350.995 131.898 349.522 130.197Z" fill="#22EEE7"/>
<path d="M350.852 131.674C350.111 130.829 349.703 129.743 349.703 128.619H346.356V142.052C346.331 142.78 346.024 143.468 345.5 143.974C344.977 144.479 344.278 144.761 343.55 144.761C342.012 144.761 340.733 143.504 340.733 141.944C340.733 140.081 342.532 138.683 344.384 139.257V135.834C340.647 135.336 337.375 138.239 337.375 141.944C337.375 145.552 340.365 148.119 343.539 148.119C346.941 148.119 349.703 145.357 349.703 141.944V135.13C351.061 136.105 352.69 136.628 354.362 136.625V133.277C354.362 133.277 352.325 133.375 350.852 131.674Z" fill="#212B36"/>
<rect x="1206.5" y="307.869" width="75" height="75" rx="7.15361" fill="white" fill-opacity="0.1"/>
<path d="M1261.62 345.927C1261.62 336.384 1253.93 328.652 1244.45 328.652C1234.97 328.652 1227.28 336.384 1227.28 345.927C1227.28 354.548 1233.56 361.695 1241.77 362.99V350.922H1237.41V345.928H1241.77V342.12C1241.77 337.792 1244.33 335.401 1248.25 335.401C1250.13 335.401 1252.1 335.738 1252.1 335.738V339.989H1249.93C1247.8 339.989 1247.13 341.322 1247.13 342.688V345.927H1251.9L1251.13 350.921H1247.13V362.989C1255.34 361.694 1261.62 354.547 1261.62 345.926V345.927Z" fill="#0967FD"/>
<rect x="1203" y="302.869" width="83" height="83" rx="7.91667" fill="white" fill-opacity="0.1"/>
<path d="M1264 344.987C1264 334.426 1255.49 325.869 1245 325.869C1234.5 325.869 1226 334.426 1226 344.987C1226 354.527 1232.95 362.437 1242.03 363.869V350.514H1237.21V344.988H1242.03V340.774C1242.03 335.984 1244.86 333.338 1249.2 333.338C1251.28 333.338 1253.46 333.711 1253.46 333.711V338.415H1251.06C1248.7 338.415 1247.97 339.891 1247.97 341.402V344.987H1253.24L1252.39 350.513H1247.97V363.868C1257.05 362.435 1264 354.525 1264 344.986V344.987Z" fill="#0967FD"/>
<rect x="311" y="100.869" width="66" height="66" rx="11" fill="white" fill-opacity="0.1"/>
<path d="M354.807 124.039C353.554 122.608 352.863 120.771 352.863 118.869H347.198V141.602C347.156 142.833 346.636 143.999 345.751 144.854C344.865 145.709 343.681 146.187 342.45 146.186C339.847 146.186 337.683 144.059 337.683 141.419C337.683 138.266 340.727 135.901 343.862 136.872V131.079C337.537 130.236 332 135.149 332 141.419C332 147.524 337.06 151.869 342.432 151.869C348.188 151.869 352.863 147.194 352.863 141.419V129.887C355.16 131.537 357.919 132.422 360.747 132.417V126.752C360.747 126.752 357.3 126.917 354.807 124.039Z" fill="#EA2B50"/>
<path d="M350.807 120.039C349.554 118.608 348.863 116.771 348.863 114.869H343.198V137.602C343.156 138.833 342.636 139.999 341.751 140.854C340.865 141.709 339.681 142.187 338.45 142.186C335.847 142.186 333.683 140.059 333.683 137.419C333.683 134.266 336.727 131.901 339.862 132.872V127.079C333.537 126.236 328 131.149 328 137.419C328 143.524 333.06 147.869 338.432 147.869C344.188 147.869 348.863 143.194 348.863 137.419V125.887C351.16 127.537 353.919 128.422 356.747 128.417V122.752C356.747 122.752 353.3 122.917 350.807 120.039Z" fill="#22EEE7"/>
<path d="M353.057 122.539C351.804 121.108 351.113 119.271 351.113 117.369H345.448V140.102C345.406 141.333 344.886 142.499 344.001 143.354C343.115 144.209 341.931 144.687 340.7 144.686C338.097 144.686 335.933 142.559 335.933 139.919C335.933 136.766 338.977 134.401 342.112 135.372V129.579C335.787 128.736 330.25 133.649 330.25 139.919C330.25 146.024 335.31 150.369 340.682 150.369C346.438 150.369 351.113 145.694 351.113 139.919V128.387C353.41 130.037 356.169 130.922 358.997 130.917V125.252C358.997 125.252 355.55 125.417 353.057 122.539Z" fill="#212B36"/>
</g>
<defs>
<filter id="filter0_g_1_16540" x="824.718" y="-57.4128" width="1121.43" height="602.141" filterUnits="userSpaceOnUse" color-interpolation-filters="sRGB">
<feFlood flood-opacity="0" result="BackgroundImageFix"/>
<feBlend mode="normal" in="SourceGraphic" in2="BackgroundImageFix" result="shape"/>
<feTurbulence type="fractalNoise" baseFrequency="0.27777779102325439 0.27777779102325439" numOctaves="3" seed="1826" />
<feDisplacementMap in="shape" scale="45.599998474121094" xChannelSelector="R" yChannelSelector="G" result="displacedImage" width="100%" height="100%" />
<feMerge result="effect1_texture_1_16540">
<feMergeNode in="displacedImage"/>
</feMerge>
</filter>
<linearGradient id="paint0_linear_1_16540" x1="1116.05" y1="229.443" x2="1128.95" y2="250.311" gradientUnits="userSpaceOnUse">
<stop offset="0.0394381" stop-color="#EBEBEB"/>
<stop offset="0.55"/>
<stop offset="1" stop-color="#EBEBEB"/>
</linearGradient>
<linearGradient id="paint1_linear_1_16540" x1="1206.73" y1="118.28" x2="1193.31" y2="139.091" gradientUnits="userSpaceOnUse">
<stop offset="0.0394381" stop-color="#EBEBEB"/>
<stop offset="0.55"/>
<stop offset="1" stop-color="#EBEBEB"/>
</linearGradient>
<linearGradient id="paint2_linear_1_16540" x1="1205.63" y1="118.28" x2="1218.54" y2="139.149" gradientUnits="userSpaceOnUse">
<stop offset="0.0394381" stop-color="#EBEBEB"/>
<stop offset="0.55"/>
<stop offset="1" stop-color="#EBEBEB"/>
</linearGradient>
<linearGradient id="paint3_linear_1_16540" x1="1205.63" y1="146.377" x2="1218.54" y2="125.508" gradientUnits="userSpaceOnUse">
<stop offset="0.0394381" stop-color="#EBEBEB"/>
<stop offset="0.55"/>
<stop offset="1" stop-color="#EBEBEB"/>
</linearGradient>
<linearGradient id="paint4_linear_1_16540" x1="1206.25" y1="146.377" x2="1193.35" y2="125.508" gradientUnits="userSpaceOnUse">
<stop offset="0.0394381" stop-color="#EBEBEB"/>
<stop offset="0.55"/>
<stop offset="1" stop-color="#EBEBEB"/>
</linearGradient>
<linearGradient id="paint5_linear_1_16540" x1="1195.92" y1="68.2027" x2="1175.92" y2="89.036" gradientUnits="userSpaceOnUse">
<stop stop-color="#8438E8"/>
<stop offset="0.283654" stop-color="#E6207B"/>
<stop offset="0.615385" stop-color="#FD4F2C"/>
<stop offset="1" stop-color="#FDC600"/>
</linearGradient>
<linearGradient id="paint6_linear_1_16540" x1="1195.5" y1="68.6195" x2="1176.33" y2="87.3695" gradientUnits="userSpaceOnUse">
<stop stop-color="#8438E8"/>
<stop offset="0.283654" stop-color="#E6207B"/>
<stop offset="0.615385" stop-color="#FD4F2C"/>
<stop offset="1" stop-color="#FDC600"/>
</linearGradient>
<linearGradient id="paint7_linear_1_16540" x1="1178.5" y1="52.8689" x2="1154.5" y2="77.8689" gradientUnits="userSpaceOnUse">
<stop stop-color="#8438E8"/>
<stop offset="0.283654" stop-color="#E6207B"/>
<stop offset="0.615385" stop-color="#FD4F2C"/>
<stop offset="1" stop-color="#FDC600"/>
</linearGradient>
<linearGradient id="paint8_linear_1_16540" x1="1178" y1="53.3689" x2="1155" y2="75.8689" gradientUnits="userSpaceOnUse">
<stop stop-color="#8438E8"/>
<stop offset="0.283654" stop-color="#E6207B"/>
<stop offset="0.615385" stop-color="#FD4F2C"/>
<stop offset="1" stop-color="#FDC600"/>
</linearGradient>
<clipPath id="clip0_1_16540">
<rect width="1872" height="451" rx="8" fill="white"/>
</clipPath>
</defs>
</svg>
